<svg width="1440" height="114" viewBox="0 0 1440 114" fill="none" xmlns="http://www.w3.org/2000/svg">
<g clip-path="url(#clip0_219_1044)">
<path d="M100.59 2.64453L92.4537 2.74624C92.9623 45.3624 111.423 80.503 119.915 94.3863C88.5379 95.2 62.8055 100.896 53.0414 103.388C41.8534 55.3299 8.23845 5.69581 6.76367 3.50906L0 8.13683C0.355982 8.64538 36.1577 61.5342 45.9726 109.236L46.8371 113.559L51.1089 112.338C51.4649 112.236 85.6392 102.421 127.391 102.421H135.324L130.696 95.9628C130.391 95.556 101.201 54.262 100.59 2.64453Z" fill="#865EB5"/>
<path d="M74.0951 31.2247L91.9451 37.6324L78.7229 51.2615L97.1323 55.9401L85.1306 70.5862L103.896 73.6884L92.9622 89.2499L111.982 90.9281L103.947 73.6375L97.234 55.8384H97.1831L92.0468 37.5816L88.6904 18.9179H88.6395L86.8088 0L71.2981 11.1372L88.5887 18.9688L74.0951 31.2247Z" fill="#865EB5"/>
<path d="M70.6371 83.5034L52.0243 79.1299L57.5674 97.3867L70.6371 83.5034Z" fill="#865EB5"/>
<path d="M64.1277 64.3311L45.3115 61.2798L52.0243 79.1298L64.1277 64.3311Z" fill="#865EB5"/>
<path d="M55.6349 45.2098L36.5645 44.2944L45.3114 61.2799L55.6349 45.2098Z" fill="#865EB5"/>
<path d="M46.9389 28.2242L27.8684 27.3088L36.5646 44.2943L46.9389 28.2242Z" fill="#865EB5"/>
<path d="M36.9205 10.5269L17.85 11.0354L27.8683 27.3089L36.9205 10.5269Z" fill="#865EB5"/>
<path d="M80.5029 90.2161C83.3116 90.2161 85.5884 87.9393 85.5884 85.1306C85.5884 82.322 83.3116 80.0452 80.5029 80.0452C77.6943 80.0452 75.4175 82.322 75.4175 85.1306C75.4175 87.9393 77.6943 90.2161 80.5029 90.2161Z" fill="#865EB5"/>
<path d="M76.9431 68.2979C79.7518 68.2979 82.0286 66.021 82.0286 63.2124C82.0286 60.4038 79.7518 58.127 76.9431 58.127C74.1345 58.127 71.8577 60.4038 71.8577 63.2124C71.8577 66.021 74.1345 68.2979 76.9431 68.2979Z" fill="#865EB5"/>
<path d="M66.2387 54.5544C68.2247 52.5684 68.2247 49.3485 66.2387 47.3626C64.2527 45.3766 61.0328 45.3766 59.0469 47.3626C57.0609 49.3485 57.0609 52.5684 59.0469 54.5544C61.0328 56.5404 64.2527 56.5404 66.2387 54.5544Z" fill="#865EB5"/>
<path d="M65.3457 37.0346C68.079 36.3892 69.7716 33.6502 69.1262 30.9168C68.4808 28.1835 65.7417 26.4909 63.0084 27.1363C60.275 27.7817 58.5824 30.5208 59.2278 33.2541C59.8733 35.9875 62.6123 37.6801 65.3457 37.0346Z" fill="#865EB5"/>
<path d="M48.8714 23.9016C51.68 23.9016 53.9568 21.6248 53.9568 18.8162C53.9568 16.0076 51.68 13.7307 48.8714 13.7307C46.0627 13.7307 43.7859 16.0076 43.7859 18.8162C43.7859 21.6248 46.0627 23.9016 48.8714 23.9016Z" fill="#865EB5"/>
<path d="M277.666 3.50906C276.191 5.64496 242.577 55.3299 231.389 103.388C221.574 100.896 195.892 95.2 164.515 94.3863C173.007 80.4521 191.468 45.3624 191.976 2.74624L183.789 2.64453C183.178 54.262 153.988 95.556 153.733 96.0137L149.106 102.472H157.039C198.791 102.472 232.965 112.287 233.321 112.389L237.542 113.609L238.406 109.287C248.272 61.5342 284.074 8.64538 284.43 8.13683L277.666 3.50906Z" fill="#865EB5"/>
<path d="M187.196 55.8384L180.483 73.6375L172.448 90.9281L191.468 89.2499L180.534 73.6884L199.299 70.5862L187.298 55.9401L205.707 51.2615L192.485 37.6324L210.335 31.2247L195.841 18.9688L213.132 11.1372L197.621 0L195.739 18.9179L192.383 37.5816L187.247 55.8384H187.196Z" fill="#865EB5"/>
<path d="M232.355 79.1299L213.793 83.5034L226.863 97.3867L232.355 79.1299Z" fill="#865EB5"/>
<path d="M220.302 64.3311L232.355 79.1298L239.118 61.2798L220.302 64.3311Z" fill="#865EB5"/>
<path d="M228.795 45.2098L239.119 61.2799L247.815 44.2944L228.795 45.2098Z" fill="#865EB5"/>
<path d="M237.491 28.2242L247.815 44.2943L256.562 27.3088L237.491 28.2242Z" fill="#865EB5"/>
<path d="M247.51 10.5269L256.562 27.3089L266.58 11.0354L247.51 10.5269Z" fill="#865EB5"/>
<path d="M208.952 85.7669C209.295 82.9793 207.314 80.4413 204.526 80.0981C201.739 79.7549 199.201 81.7364 198.858 84.524C198.514 87.3115 200.496 89.8495 203.283 90.1927C206.071 90.5359 208.609 88.5544 208.952 85.7669Z" fill="#865EB5"/>
<path d="M207.487 68.2979C210.296 68.2979 212.572 66.021 212.572 63.2124C212.572 60.4038 210.296 58.127 207.487 58.127C204.678 58.127 202.401 60.4038 202.401 63.2124C202.401 66.021 204.678 68.2979 207.487 68.2979Z" fill="#865EB5"/>
<path d="M222.934 55.8935C225.668 55.2481 227.36 52.5091 226.715 49.7757C226.07 47.0424 223.33 45.3498 220.597 45.9952C217.864 46.6406 216.171 49.3796 216.817 52.113C217.462 54.8463 220.201 56.5389 222.934 55.8935Z" fill="#865EB5"/>
<path d="M221.411 37.0246C224.144 36.3792 225.837 33.6402 225.191 30.9068C224.546 28.1735 221.807 26.4809 219.073 27.1263C216.34 27.7717 214.647 30.5107 215.293 33.2441C215.938 35.9774 218.677 37.6701 221.411 37.0246Z" fill="#865EB5"/>
<path d="M235.559 23.9016C238.367 23.9016 240.644 21.6248 240.644 18.8162C240.644 16.0076 238.367 13.7307 235.559 13.7307C232.75 13.7307 230.473 16.0076 230.473 18.8162C230.473 21.6248 232.75 23.9016 235.559 23.9016Z" fill="#865EB5"/>
<path d="M141.732 44.1419C140.054 44.1419 138.477 44.0402 137.002 43.8368C138.426 53.6009 140.003 70.8406 136.85 87.8769C139.545 90.9282 141.732 92.6573 141.732 92.6573C141.732 92.6573 144.325 90.5722 147.428 86.9615C144.529 70.1287 146.055 53.2449 147.478 43.7351C145.648 43.9894 143.766 44.1419 141.732 44.1419Z" fill="#865EB5"/>
<path d="M114.169 30.4111C112.643 47.7526 129.476 50.8038 129.476 50.8038C129.476 50.8038 129.018 51.5158 128.408 52.7872C124.441 50.6513 115.643 46.2778 114.321 49.4308C112.846 52.9397 120.068 60.8731 126.882 56.9573C125.865 60.7714 125.357 66.1111 127.391 72.2136C129.018 77.1465 131.663 81.4183 134.205 84.7239C136.748 68.2978 135.07 52.0752 133.748 43.2265C120.729 40.2261 114.169 30.4111 114.169 30.4111Z" fill="#865EB5"/>
<path d="M156.022 72.2136C158.209 65.6534 157.446 60.0085 156.327 56.1436C163.447 61.7884 171.634 53.0923 170.109 49.4308C168.685 46.0744 158.666 51.3124 155.259 53.194C154.598 51.6684 153.988 50.8038 153.988 50.8038C153.988 50.8038 170.821 47.7526 169.295 30.4111C169.295 30.4111 163.091 39.7175 150.682 43.0231C149.36 51.5667 147.682 67.4842 150.021 83.7068C152.259 80.503 154.547 76.638 156.022 72.2136Z" fill="#865EB5"/>
<path d="M142.19 37.8868C151.394 37.8868 158.87 34.0218 158.87 29.2415C158.87 24.4611 151.394 20.5962 142.19 20.5962C132.985 20.5962 125.509 24.4611 125.509 29.2415C125.509 34.0218 132.985 37.8868 142.19 37.8868Z" fill="#865EB5"/>
<path d="M389.394 2.64453L381.257 2.74624C381.766 45.3624 400.226 80.503 408.719 94.3863C377.341 95.2 351.609 100.896 341.845 103.388C330.657 55.3299 297.042 5.69581 295.567 3.50906L288.803 8.13683C289.159 8.64538 324.961 61.5342 334.776 109.236L335.641 113.559L339.912 112.338C340.268 112.236 374.443 102.421 416.194 102.421H424.128L419.5 95.9628C419.195 95.556 390.004 54.262 389.394 2.64453Z" fill="#865EB5"/>
<path d="M362.899 31.2247L380.749 37.6324L367.526 51.2615L385.936 55.9401L373.934 70.5862L392.7 73.6884L381.766 89.2499L400.785 90.9281L392.75 73.6375L386.038 55.8384H385.987L380.85 37.5816L377.494 18.9179H377.443L375.612 0L360.102 11.1372L377.392 18.9688L362.899 31.2247Z" fill="#865EB5"/>
<path d="M359.441 83.5034L340.828 79.1299L346.371 97.3867L359.441 83.5034Z" fill="#865EB5"/>
<path d="M352.931 64.3311L334.115 61.2798L340.828 79.1298L352.931 64.3311Z" fill="#865EB5"/>
<path d="M344.438 45.2098L325.368 44.2944L334.115 61.2799L344.438 45.2098Z" fill="#865EB5"/>
<path d="M335.742 28.2242L316.672 27.3088L325.368 44.2943L335.742 28.2242Z" fill="#865EB5"/>
<path d="M325.724 10.5269L306.653 11.0354L316.672 27.3089L325.724 10.5269Z" fill="#865EB5"/>
<path d="M369.306 90.2671C372.103 90.2671 374.392 87.9787 374.392 85.1817C374.392 82.3846 372.103 80.0962 369.306 80.0962C366.509 80.0962 364.221 82.3846 364.221 85.1817C364.221 87.9787 366.509 90.2671 369.306 90.2671Z" fill="#865EB5"/>
<path d="M365.747 68.2979C368.555 68.2979 370.832 66.021 370.832 63.2124C370.832 60.4038 368.555 58.127 365.747 58.127C362.938 58.127 360.661 60.4038 360.661 63.2124C360.661 66.021 362.938 68.2979 365.747 68.2979Z" fill="#865EB5"/>
<path d="M351.456 56.0418C354.265 56.0418 356.542 53.7649 356.542 50.9563C356.542 48.1477 354.265 45.8708 351.456 45.8708C348.648 45.8708 346.371 48.1477 346.371 50.9563C346.371 53.7649 348.648 56.0418 351.456 56.0418Z" fill="#865EB5"/>
<path d="M352.982 37.1748C355.779 37.1748 358.068 34.8864 358.068 32.0894C358.068 29.2924 355.779 27.0039 352.982 27.0039C350.185 27.0039 347.897 29.2924 347.897 32.0894C347.897 34.8864 350.185 37.1748 352.982 37.1748Z" fill="#865EB5"/>
<path d="M337.675 23.9016C340.483 23.9016 342.76 21.6248 342.76 18.8162C342.76 16.0076 340.483 13.7307 337.675 13.7307C334.866 13.7307 332.589 16.0076 332.589 18.8162C332.589 21.6248 334.866 23.9016 337.675 23.9016Z" fill="#865EB5"/>
<path d="M566.47 3.50906C564.995 5.64496 531.38 55.3299 520.192 103.388C510.377 100.896 484.696 95.2 453.318 94.3863C461.811 80.4521 480.271 45.3624 480.78 2.74624L472.592 2.64453C471.982 54.262 442.791 95.556 442.537 96.0137L437.909 102.472H445.843C487.594 102.472 521.769 112.287 522.125 112.389L526.346 113.609L527.21 109.287C537.076 61.5342 572.877 8.64538 573.233 8.13683L566.47 3.50906Z" fill="#865EB5"/>
<path d="M475.999 55.8384L469.287 73.6375L461.252 90.9281L480.271 89.2499L469.337 73.6884L488.103 70.5862L476.101 55.9401L494.511 51.2615L481.288 37.6324L499.138 31.2247L484.645 18.9688L501.935 11.1372L486.425 0L484.543 18.9179L481.187 37.5816L475.999 55.8384Z" fill="#865EB5"/>
<path d="M521.158 79.1299L502.596 83.5034L515.666 97.3867L521.158 79.1299Z" fill="#865EB5"/>
<path d="M509.106 64.3311L521.158 79.1298L527.922 61.2798L509.106 64.3311Z" fill="#865EB5"/>
<path d="M517.599 45.2098L527.922 61.2799L536.618 44.2944L517.599 45.2098Z" fill="#865EB5"/>
<path d="M526.295 28.2242L536.618 44.2943L545.365 27.3088L526.295 28.2242Z" fill="#865EB5"/>
<path d="M536.313 10.5269L545.365 27.3089L555.383 11.0354L536.313 10.5269Z" fill="#865EB5"/>
<path d="M487.645 85.1306C487.645 87.9276 489.934 90.2161 492.731 90.2161C495.528 90.2161 497.816 87.9276 497.816 85.1306C497.816 82.3336 495.528 80.0452 492.731 80.0452C489.883 80.0452 487.645 82.3336 487.645 85.1306Z" fill="#865EB5"/>
<path d="M496.29 68.2979C499.099 68.2979 501.376 66.021 501.376 63.2124C501.376 60.4038 499.099 58.127 496.29 58.127C493.482 58.127 491.205 60.4038 491.205 63.2124C491.205 66.021 493.482 68.2979 496.29 68.2979Z" fill="#865EB5"/>
<path d="M511.401 55.9675C514.173 55.5175 516.056 52.9053 515.606 50.1329C515.156 47.3605 512.544 45.4778 509.771 45.9277C506.999 46.3777 505.116 48.9899 505.566 51.7623C506.016 54.5347 508.628 56.4174 511.401 55.9675Z" fill="#865EB5"/>
<path d="M509.055 37.1748C511.864 37.1748 514.14 34.898 514.14 32.0894C514.14 29.2807 511.864 27.0039 509.055 27.0039C506.246 27.0039 503.969 29.2807 503.969 32.0894C503.969 34.898 506.246 37.1748 509.055 37.1748Z" fill="#865EB5"/>
<path d="M524.362 23.9016C527.171 23.9016 529.448 21.6248 529.448 18.8162C529.448 16.0076 527.171 13.7307 524.362 13.7307C521.553 13.7307 519.277 16.0076 519.277 18.8162C519.277 21.6248 521.553 23.9016 524.362 23.9016Z" fill="#865EB5"/>
<path d="M430.535 44.1419C428.857 44.1419 427.281 44.0402 425.806 43.8368C427.23 53.6009 428.806 70.8406 425.653 87.8769C428.349 90.9282 430.535 92.6573 430.535 92.6573C430.535 92.6573 433.129 90.5722 436.231 86.9615C433.332 70.1287 434.858 53.2449 436.282 43.7351C434.451 43.9894 432.57 44.1419 430.535 44.1419Z" fill="#865EB5"/>
<path d="M402.972 30.4111C401.447 47.7526 418.279 50.8038 418.279 50.8038C418.279 50.8038 417.822 51.5158 417.211 52.7872C413.245 50.6513 404.447 46.2778 403.125 49.4308C401.65 52.9397 408.871 60.8731 415.686 56.9573C414.669 60.7714 414.16 66.1111 416.194 72.2136C417.822 77.1465 420.466 81.4183 423.009 84.7239C425.552 68.2978 423.873 52.0752 422.551 43.2265C409.532 40.2261 402.972 30.4111 402.972 30.4111Z" fill="#865EB5"/>
<path d="M444.826 72.2136C447.012 65.6534 446.249 60.0085 445.131 56.1436C452.25 61.7884 460.438 53.0923 458.912 49.4308C457.488 46.0744 447.47 51.3124 444.063 53.194C443.402 51.6684 442.791 50.8038 442.791 50.8038C442.791 50.8038 459.624 47.7526 458.099 30.4111C458.099 30.4111 451.894 39.7175 439.486 43.0231C438.164 51.5667 436.485 67.4842 438.825 83.7068C441.062 80.503 443.351 76.638 444.826 72.2136Z" fill="#865EB5"/>
<path d="M430.993 37.8868C440.198 37.8868 447.673 34.0218 447.673 29.2415C447.673 24.4611 440.198 20.5962 430.993 20.5962C421.788 20.5962 414.313 24.4611 414.313 29.2415C414.313 34.0218 421.788 37.8868 430.993 37.8868Z" fill="#865EB5"/>
<path d="M283.871 93.6234C285.295 93.3691 286.82 93.2674 288.397 93.2674C289.719 93.2674 290.939 93.3691 292.16 93.5217C291.041 85.7918 289.77 72.1119 292.262 58.5845C290.126 56.1435 288.397 54.8213 288.397 54.8213C288.397 54.8213 286.362 56.4486 283.871 59.3473C286.21 72.6713 284.989 86.046 283.871 93.6234Z" fill="#865EB5"/>
<path d="M298.161 88.0294C298.161 88.0294 298.517 87.47 299.025 86.453C302.178 88.182 309.145 91.5893 310.213 89.0974C311.383 86.3512 305.636 80.0453 300.246 83.0965C301.06 80.0453 301.466 75.8243 299.839 70.9931C298.517 67.0773 296.432 63.7209 294.398 61.0256C292.363 74.0444 293.686 86.9615 294.754 93.9794C305.128 96.4205 310.315 104.201 310.315 104.201C311.485 90.4196 298.161 88.0294 298.161 88.0294Z" fill="#865EB5"/>
<path d="M281.887 61.8901C280.057 64.382 278.277 67.4842 277.107 70.9931C275.378 76.1803 275.937 80.6555 276.853 83.7576C271.208 79.2824 264.698 86.1478 265.919 89.0974C267.038 91.7927 275.022 87.6226 277.717 86.0969C278.277 87.3175 278.734 88.0294 278.734 88.0294C278.734 88.0294 265.36 90.4704 266.58 104.252C266.58 104.252 271.513 96.8781 281.379 94.2337C282.396 87.3683 283.718 74.7564 281.887 61.8901Z" fill="#865EB5"/>
<path d="M288.041 98.2512C280.718 98.2512 274.818 101.302 274.818 105.117C274.818 108.88 280.768 111.982 288.041 111.982C295.364 111.982 301.314 108.931 301.314 105.117C301.314 101.302 295.364 98.2512 288.041 98.2512Z" fill="#865EB5"/>
<path d="M677.791 2.64453L669.654 2.74624C670.162 45.3624 688.623 80.503 697.115 94.3863C665.738 95.2 640.006 100.896 630.242 103.388C619.054 55.3299 585.439 5.69581 583.964 3.50906L577.2 8.13683C577.556 8.64538 613.358 61.5342 623.173 109.236L624.037 113.559L628.309 112.338C628.665 112.236 662.839 102.421 704.591 102.421H712.524L707.897 95.9628C707.591 95.556 678.401 54.262 677.791 2.64453Z" fill="#865EB5"/>
<path d="M651.295 31.2247L669.145 37.6324L655.923 51.2615L674.332 55.9401L662.331 70.5862L681.096 73.6884L670.162 89.2499L689.182 90.9281L681.147 73.6375L674.434 55.8384H674.383L669.247 37.5816L665.891 18.9179H665.84L664.009 0L648.498 11.1372L665.789 18.9688L651.295 31.2247Z" fill="#865EB5"/>
<path d="M647.837 83.5034L629.224 79.1299L634.767 97.3867L647.837 83.5034Z" fill="#865EB5"/>
<path d="M641.328 64.3311L622.512 61.2798L629.224 79.1298L641.328 64.3311Z" fill="#865EB5"/>
<path d="M632.835 45.2098L613.765 44.2944L622.512 61.2799L632.835 45.2098Z" fill="#865EB5"/>
<path d="M624.139 28.2242L605.069 27.3088L613.765 44.2943L624.139 28.2242Z" fill="#865EB5"/>
<path d="M614.121 10.5269L595.05 11.0354L605.068 27.3089L614.121 10.5269Z" fill="#865EB5"/>
<path d="M657.703 90.2671C660.5 90.2671 662.789 87.9787 662.789 85.1817C662.789 82.3846 660.5 80.0962 657.703 80.0962C654.906 80.0962 652.618 82.3846 652.618 85.1817C652.618 87.9787 654.906 90.2671 657.703 90.2671Z" fill="#865EB5"/>
<path d="M654.143 68.2979C656.952 68.2979 659.229 66.021 659.229 63.2124C659.229 60.4038 656.952 58.127 654.143 58.127C651.335 58.127 649.058 60.4038 649.058 63.2124C649.058 66.021 651.335 68.2979 654.143 68.2979Z" fill="#865EB5"/>
<path d="M639.853 56.0418C642.662 56.0418 644.939 53.7649 644.939 50.9563C644.939 48.1477 642.662 45.8708 639.853 45.8708C637.044 45.8708 634.768 48.1477 634.768 50.9563C634.768 53.7649 637.044 56.0418 639.853 56.0418Z" fill="#865EB5"/>
<path d="M641.379 37.1748C644.187 37.1748 646.464 34.898 646.464 32.0894C646.464 29.2807 644.187 27.0039 641.379 27.0039C638.57 27.0039 636.293 29.2807 636.293 32.0894C636.293 34.898 638.57 37.1748 641.379 37.1748Z" fill="#865EB5"/>
<path d="M626.071 23.9524C628.868 23.9524 631.157 21.664 631.157 18.867C631.157 16.07 628.868 13.7815 626.071 13.7815C623.274 13.7815 620.986 16.07 620.986 18.867C620.986 21.664 623.274 23.9524 626.071 23.9524Z" fill="#865EB5"/>
<path d="M854.866 3.50906C853.392 5.64496 819.777 55.3299 808.589 103.388C798.774 100.896 773.092 95.2 741.715 94.3863C750.208 80.4521 768.668 45.3624 769.176 2.74624L760.989 2.64453C760.379 54.262 731.188 95.556 730.934 96.0137L726.306 102.472H734.239C775.991 102.472 810.165 112.287 810.521 112.389L814.742 113.609L815.607 109.287C825.472 61.5342 861.274 8.64538 861.63 8.13683L854.866 3.50906Z" fill="#865EB5"/>
<path d="M764.396 55.8384L757.683 73.6375L749.648 90.9281L768.668 89.2499L757.734 73.6884L776.499 70.5862L764.498 55.9401L782.907 51.2615L769.685 37.6324L787.535 31.2247L773.041 18.9688L790.332 11.1372L774.821 0L772.94 18.9179L769.583 37.5816L764.396 55.8384Z" fill="#865EB5"/>
<path d="M809.555 79.1299L790.993 83.5034L804.063 97.3867L809.555 79.1299Z" fill="#865EB5"/>
<path d="M797.502 64.3311L809.555 79.1298L816.319 61.2798L797.502 64.3311Z" fill="#865EB5"/>
<path d="M805.995 45.2098L816.319 61.2799L825.015 44.2944L805.995 45.2098Z" fill="#865EB5"/>
<path d="M814.691 28.2242L825.015 44.2943L833.762 27.3088L814.691 28.2242Z" fill="#865EB5"/>
<path d="M824.71 10.5269L833.762 27.3089L843.78 11.0354L824.71 10.5269Z" fill="#865EB5"/>
<path d="M776.042 85.1306C776.042 87.9276 778.33 90.2161 781.127 90.2161C783.924 90.2161 786.213 87.9276 786.213 85.1306C786.213 82.3336 783.924 80.0452 781.127 80.0452C778.33 80.0452 776.042 82.3336 776.042 85.1306Z" fill="#865EB5"/>
<path d="M789.772 63.2124C789.772 60.4154 787.484 58.127 784.687 58.127C781.89 58.127 779.602 60.4154 779.602 63.2124C779.602 66.0094 781.89 68.2979 784.687 68.2979C787.484 68.2979 789.772 66.0094 789.772 63.2124Z" fill="#865EB5"/>
<path d="M799.801 55.9626C802.573 55.5126 804.456 52.9004 804.006 50.128C803.556 47.3556 800.944 45.4729 798.171 45.9229C795.399 46.3728 793.516 48.985 793.966 51.7574C794.416 54.5298 797.028 56.4125 799.801 55.9626Z" fill="#865EB5"/>
<path d="M797.452 37.1748C800.26 37.1748 802.537 34.898 802.537 32.0894C802.537 29.2807 800.26 27.0039 797.452 27.0039C794.643 27.0039 792.366 29.2807 792.366 32.0894C792.366 34.898 794.643 37.1748 797.452 37.1748Z" fill="#865EB5"/>
<path d="M812.759 23.9016C815.567 23.9016 817.844 21.6248 817.844 18.8162C817.844 16.0076 815.567 13.7307 812.759 13.7307C809.95 13.7307 807.673 16.0076 807.673 18.8162C807.673 21.6248 809.95 23.9016 812.759 23.9016Z" fill="#865EB5"/>
<path d="M718.932 44.1419C717.254 44.1419 715.677 44.0402 714.203 43.8368C715.627 53.6009 717.203 70.8406 714.05 87.8769C716.745 90.9282 718.932 92.6573 718.932 92.6573C718.932 92.6573 721.526 90.5722 724.628 86.9615C721.729 70.1287 723.255 53.2449 724.679 43.7351C722.848 43.9894 720.966 44.1419 718.932 44.1419Z" fill="#865EB5"/>
<path d="M691.369 30.4111C689.843 47.7526 706.676 50.8038 706.676 50.8038C706.676 50.8038 706.218 51.5158 705.608 52.7872C701.641 50.6513 692.844 46.2778 691.521 49.4308C690.047 52.9397 697.268 60.8731 704.082 56.9573C703.065 60.7714 702.557 66.1111 704.591 72.2136C706.218 77.1465 708.863 81.4183 711.406 84.7239C713.948 68.2978 712.27 52.0752 710.948 43.2265C697.929 40.2261 691.369 30.4111 691.369 30.4111Z" fill="#865EB5"/>
<path d="M733.222 72.2136C735.409 65.6534 734.646 60.0085 733.527 56.1436C740.647 61.7884 748.835 53.0923 747.309 49.4308C745.885 46.0744 735.867 51.3124 732.459 53.194C731.798 51.6684 731.188 50.8038 731.188 50.8038C731.188 50.8038 748.021 47.7526 746.495 30.4111C746.495 30.4111 740.291 39.7175 727.882 43.0231C726.56 51.5667 724.882 67.4842 727.221 83.7068C729.459 80.503 731.747 76.638 733.222 72.2136Z" fill="#865EB5"/>
<path d="M719.39 37.8868C728.594 37.8868 736.07 34.0218 736.07 29.2415C736.07 24.4611 728.594 20.5962 719.39 20.5962C710.185 20.5962 702.709 24.4611 702.709 29.2415C702.709 34.0218 710.185 37.8868 719.39 37.8868Z" fill="#865EB5"/>
<path d="M572.267 93.6234C573.691 93.3691 575.217 93.2674 576.793 93.2674C578.116 93.2674 579.336 93.3691 580.557 93.5217C579.438 85.7918 578.166 72.1119 580.658 58.5845C578.522 56.1435 576.793 54.8213 576.793 54.8213C576.793 54.8213 574.759 56.4486 572.267 59.3473C574.607 72.6713 573.386 86.046 572.267 93.6234Z" fill="#865EB5"/>
<path d="M586.557 88.0294C586.557 88.0294 586.913 87.47 587.422 86.453C590.575 88.182 597.542 91.5893 598.61 89.0974C599.78 86.3512 594.033 80.0453 588.642 83.0965C589.456 80.0453 589.863 75.8243 588.235 70.9931C586.913 67.0773 584.828 63.7209 582.794 61.0256C580.76 74.0444 582.082 86.9615 583.15 93.9794C593.524 96.4205 598.712 104.201 598.712 104.201C599.881 90.4196 586.557 88.0294 586.557 88.0294Z" fill="#865EB5"/>
<path d="M570.284 61.8901C568.453 64.382 566.673 67.4842 565.504 70.9931C563.775 76.1803 564.334 80.6555 565.249 83.7576C559.604 79.2824 553.095 86.1478 554.316 89.0974C555.434 91.7927 563.419 87.6226 566.114 86.0969C566.673 87.3175 567.131 88.0294 567.131 88.0294C567.131 88.0294 553.756 90.4704 554.977 104.252C554.977 104.252 559.91 96.8781 569.775 94.2337C570.792 87.3683 572.115 74.7564 570.284 61.8901Z" fill="#865EB5"/>
<path d="M576.437 98.2512C569.114 98.2512 563.215 101.302 563.215 105.117C563.215 108.88 569.165 111.982 576.437 111.982C583.76 111.982 589.71 108.931 589.71 105.117C589.71 101.302 583.76 98.2512 576.437 98.2512Z" fill="#865EB5"/>
<path d="M966.696 2.64453L958.559 2.74624C959.068 45.3624 977.528 80.503 986.021 94.3863C954.643 95.2 928.911 100.896 919.147 103.388C907.959 55.3299 874.344 5.69581 872.869 3.50906L866.105 8.13683C866.461 8.64538 902.263 61.5342 912.078 109.236L912.943 113.559L917.214 112.338C917.57 112.236 951.745 102.421 993.496 102.421H1001.43L996.802 95.9628C996.497 95.556 967.306 54.262 966.696 2.64453Z" fill="#865EB5"/>
<path d="M940.201 31.2247L958.051 37.6324L944.828 51.2615L963.238 55.9401L951.236 70.5862L970.001 73.6884L959.068 89.2499L978.087 90.9281L970.052 73.6375L963.339 55.8384L958.152 37.5816L954.796 18.9179H954.745L952.914 0L937.404 11.1372L954.694 18.9688L940.201 31.2247Z" fill="#865EB5"/>
<path d="M936.742 83.5034L918.18 79.1299L923.673 97.3867L936.742 83.5034Z" fill="#865EB5"/>
<path d="M930.233 64.3311L911.417 61.2798L918.181 79.1298L930.233 64.3311Z" fill="#865EB5"/>
<path d="M921.74 45.2098L902.67 44.2944L911.417 61.2799L921.74 45.2098Z" fill="#865EB5"/>
<path d="M913.044 28.2242L893.974 27.3088L902.67 44.2943L913.044 28.2242Z" fill="#865EB5"/>
<path d="M903.026 10.5269L883.955 11.0354L893.974 27.3089L903.026 10.5269Z" fill="#865EB5"/>
<path d="M946.608 90.2671C949.405 90.2671 951.694 87.9787 951.694 85.1817C951.694 82.3846 949.405 80.0962 946.608 80.0962C943.811 80.0962 941.523 82.3846 941.523 85.1817C941.523 87.9787 943.811 90.2671 946.608 90.2671Z" fill="#865EB5"/>
<path d="M943.048 68.2979C945.857 68.2979 948.134 66.021 948.134 63.2124C948.134 60.4038 945.857 58.127 943.048 58.127C940.24 58.127 937.963 60.4038 937.963 63.2124C937.963 66.021 940.24 68.2979 943.048 68.2979Z" fill="#865EB5"/>
<path d="M928.758 56.0926C931.555 56.0926 933.844 53.8041 933.844 51.0071C933.844 48.2101 931.555 45.9216 928.758 45.9216C925.961 45.9216 923.673 48.2101 923.673 51.0071C923.673 53.8041 925.961 56.0926 928.758 56.0926Z" fill="#865EB5"/>
<path d="M930.284 37.1748C933.093 37.1748 935.369 34.898 935.369 32.0894C935.369 29.2807 933.093 27.0039 930.284 27.0039C927.475 27.0039 925.198 29.2807 925.198 32.0894C925.198 34.898 927.475 37.1748 930.284 37.1748Z" fill="#865EB5"/>
<path d="M914.977 23.9524C917.774 23.9524 920.062 21.664 920.062 18.867C920.062 16.07 917.774 13.7815 914.977 13.7815C912.18 13.7815 909.891 16.07 909.891 18.867C909.891 21.664 912.18 23.9524 914.977 23.9524Z" fill="#865EB5"/>
<path d="M1143.77 3.50906C1142.3 5.64496 1108.68 55.3299 1097.49 103.388C1087.68 100.896 1062 95.2 1030.62 94.3863C1039.11 80.4521 1057.57 45.3624 1058.08 2.74624L1049.89 2.64453C1049.28 54.262 1020.09 95.556 1019.84 96.0137L1015.21 102.472H1023.14C1064.9 102.472 1099.07 112.287 1099.43 112.389L1103.65 113.609L1104.51 109.287C1114.38 61.5342 1150.18 8.64538 1150.54 8.13683L1143.77 3.50906Z" fill="#865EB5"/>
<path d="M1053.3 55.8384L1046.59 73.6375L1038.55 90.9281L1057.57 89.2499L1046.64 73.6884L1065.4 70.5862L1053.4 55.9401L1071.81 51.2615L1058.59 37.6324L1076.44 31.2247L1061.95 18.9688L1079.24 11.1372L1063.73 0L1061.9 18.9179H1061.84L1058.49 37.5816L1053.35 55.8384H1053.3Z" fill="#865EB5"/>
<path d="M1098.46 79.1299L1079.9 83.5034L1092.97 97.3867L1098.46 79.1299Z" fill="#865EB5"/>
<path d="M1086.41 64.3311L1098.46 79.1298L1105.22 61.2798L1086.41 64.3311Z" fill="#865EB5"/>
<path d="M1094.9 45.2098L1105.22 61.2799L1113.97 44.2944L1094.9 45.2098Z" fill="#865EB5"/>
<path d="M1103.6 28.2242L1113.97 44.2943L1122.67 27.3088L1103.6 28.2242Z" fill="#865EB5"/>
<path d="M1113.61 10.5269L1122.67 27.3089L1132.69 11.0354L1113.61 10.5269Z" fill="#865EB5"/>
<path d="M1064.95 85.1306C1064.95 87.9276 1067.24 90.2161 1070.03 90.2161C1072.83 90.2161 1075.12 87.9276 1075.12 85.1306C1075.12 82.3336 1072.83 80.0452 1070.03 80.0452C1067.24 80.0452 1064.95 82.3336 1064.95 85.1306Z" fill="#865EB5"/>
<path d="M1073.59 68.2979C1076.4 68.2979 1078.68 66.021 1078.68 63.2124C1078.68 60.4038 1076.4 58.127 1073.59 58.127C1070.78 58.127 1068.51 60.4038 1068.51 63.2124C1068.51 66.021 1070.78 68.2979 1073.59 68.2979Z" fill="#865EB5"/>
<path d="M1082.8 50.9563C1082.8 53.7533 1085.09 56.0418 1087.88 56.0418C1090.68 56.0418 1092.97 53.7533 1092.97 50.9563C1092.97 48.1593 1090.68 45.8708 1087.88 45.8708C1085.09 45.8708 1082.8 48.1593 1082.8 50.9563Z" fill="#865EB5"/>
<path d="M1086.36 37.1748C1089.17 37.1748 1091.44 34.898 1091.44 32.0894C1091.44 29.2807 1089.17 27.0039 1086.36 27.0039C1083.55 27.0039 1081.27 29.2807 1081.27 32.0894C1081.27 34.898 1083.55 37.1748 1086.36 37.1748Z" fill="#865EB5"/>
<path d="M1101.66 23.9016C1104.47 23.9016 1106.75 21.6248 1106.75 18.8162C1106.75 16.0076 1104.47 13.7307 1101.66 13.7307C1098.86 13.7307 1096.58 16.0076 1096.58 18.8162C1096.58 21.6248 1098.86 23.9016 1101.66 23.9016Z" fill="#865EB5"/>
<path d="M1007.84 44.1419C1006.16 44.1419 1004.58 44.0402 1003.11 43.8368C1004.53 53.6009 1006.11 70.8406 1002.96 87.8769C1005.65 90.9282 1007.84 92.6573 1007.84 92.6573C1007.84 92.6573 1010.43 90.5722 1013.53 86.9615C1010.63 70.1287 1012.16 53.2449 1013.58 43.7351C1011.75 43.9894 1009.87 44.1419 1007.84 44.1419Z" fill="#865EB5"/>
<path d="M980.274 30.4111C978.748 47.7526 995.581 50.8038 995.581 50.8038C995.581 50.8038 995.124 51.5158 994.513 52.7872C990.547 50.6513 981.749 46.2778 980.427 49.4308C978.952 52.9397 986.173 60.8731 992.988 56.9573C991.971 60.7714 991.462 66.1111 993.496 72.2136C995.124 77.1465 997.768 81.4183 1000.31 84.7239C1002.85 68.2978 1001.18 52.0752 999.853 43.2265C986.834 40.2261 980.274 30.4111 980.274 30.4111Z" fill="#865EB5"/>
<path d="M1022.13 72.2136C1024.31 65.6534 1023.55 60.0085 1022.43 56.1436C1029.55 61.7884 1037.74 53.0923 1036.21 49.4308C1034.79 46.0744 1024.77 51.3124 1021.36 53.194C1020.7 51.6684 1020.09 50.8038 1020.09 50.8038C1020.09 50.8038 1036.93 47.7526 1035.4 30.4111C1035.4 30.4111 1029.2 39.7175 1016.79 43.0231C1015.47 51.5667 1013.79 67.4842 1016.13 83.7068C1018.36 80.503 1020.65 76.638 1022.13 72.2136Z" fill="#865EB5"/>
<path d="M1008.35 37.8868C1017.55 37.8868 1025.03 34.0218 1025.03 29.2415C1025.03 24.4611 1017.55 20.5962 1008.35 20.5962C999.141 20.5962 991.666 24.4611 991.666 29.2415C991.615 34.0218 999.09 37.8868 1008.35 37.8868Z" fill="#865EB5"/>
<path d="M1256.16 2.64453L1248.02 2.74624C1248.53 45.3624 1266.99 80.503 1275.49 94.3863C1244.11 95.2 1218.38 100.896 1208.61 103.388C1197.42 55.3299 1163.81 5.69581 1162.33 3.50906L1155.57 8.13683C1155.93 8.64538 1191.73 61.5342 1201.54 109.236L1202.41 113.559L1206.68 112.338C1207.03 112.236 1241.21 102.421 1282.96 102.421H1290.89L1286.27 95.9628C1285.96 95.556 1256.77 54.262 1256.16 2.64453Z" fill="#865EB5"/>
<path d="M1229.67 31.2247L1247.52 37.6324L1234.29 51.2615L1252.7 55.9401L1240.7 70.5862L1259.47 73.6884L1248.53 89.2499L1267.55 90.9281L1259.52 73.6375L1252.8 55.8384H1252.75L1247.62 37.5816L1244.26 18.9179H1244.21L1242.38 0L1226.87 11.1372L1244.16 18.9688L1229.67 31.2247Z" fill="#865EB5"/>
<path d="M1226.21 83.5034L1207.59 79.1299L1213.14 97.3867L1226.21 83.5034Z" fill="#865EB5"/>
<path d="M1219.7 64.3311L1200.88 61.2798L1207.59 79.1298L1219.7 64.3311Z" fill="#865EB5"/>
<path d="M1211.2 45.2098L1192.13 44.2944L1200.88 61.2799L1211.2 45.2098Z" fill="#865EB5"/>
<path d="M1202.51 28.2242L1183.44 27.3088L1192.13 44.2943L1202.51 28.2242Z" fill="#865EB5"/>
<path d="M1192.49 10.5269L1173.42 11.0354L1183.44 27.3089L1192.49 10.5269Z" fill="#865EB5"/>
<path d="M1236.07 90.2671C1238.87 90.2671 1241.16 87.9787 1241.16 85.1817C1241.16 82.3846 1238.87 80.0962 1236.07 80.0962C1233.28 80.0962 1230.99 82.3846 1230.99 85.1817C1230.99 87.9787 1233.28 90.2671 1236.07 90.2671Z" fill="#865EB5"/>
<path d="M1232.51 68.2979C1235.32 68.2979 1237.6 66.021 1237.6 63.2124C1237.6 60.4038 1235.32 58.127 1232.51 58.127C1229.7 58.127 1227.43 60.4038 1227.43 63.2124C1227.43 66.021 1229.7 68.2979 1232.51 68.2979Z" fill="#865EB5"/>
<path d="M1218.22 56.0926C1221.02 56.0926 1223.31 53.8041 1223.31 51.0071C1223.31 48.2101 1221.02 45.9216 1218.22 45.9216C1215.43 45.9216 1213.14 48.2101 1213.14 51.0071C1213.14 53.8041 1215.43 56.0926 1218.22 56.0926Z" fill="#865EB5"/>
<path d="M1219.75 37.1748C1222.56 37.1748 1224.83 34.898 1224.83 32.0894C1224.83 29.2807 1222.56 27.0039 1219.75 27.0039C1216.94 27.0039 1214.66 29.2807 1214.66 32.0894C1214.66 34.898 1216.94 37.1748 1219.75 37.1748Z" fill="#865EB5"/>
<path d="M1204.44 23.9016C1207.25 23.9016 1209.53 21.6248 1209.53 18.8162C1209.53 16.0076 1207.25 13.7307 1204.44 13.7307C1201.63 13.7307 1199.36 16.0076 1199.36 18.8162C1199.36 21.6248 1201.63 23.9016 1204.44 23.9016Z" fill="#865EB5"/>
<path d="M1433.24 3.50906C1431.76 5.64496 1398.15 55.3299 1386.96 103.388C1377.14 100.896 1351.46 95.2 1320.08 94.3863C1328.58 80.4521 1347.04 45.3624 1347.55 2.74624L1339.36 2.64453C1338.75 54.262 1309.56 95.556 1309.3 96.0137L1304.68 102.472H1312.61C1354.36 102.472 1388.54 112.287 1388.89 112.389L1393.11 113.609L1393.98 109.287C1403.84 61.5342 1439.64 8.64538 1440 8.13683L1433.24 3.50906Z" fill="#865EB5"/>
<path d="M1342.77 55.8384L1336.05 73.6375L1328.02 90.9281L1347.04 89.2499L1336.1 73.6884L1354.87 70.5862L1342.82 55.9401L1361.28 51.2615L1348.05 37.6324L1365.9 31.2247L1351.41 18.9688L1368.7 11.1372L1353.19 0L1351.31 18.9179L1347.95 37.5816L1342.77 55.8384Z" fill="#865EB5"/>
<path d="M1387.92 79.1299L1369.36 83.5034L1382.43 97.3867L1387.92 79.1299Z" fill="#865EB5"/>
<path d="M1375.87 64.3311L1387.92 79.1298L1394.69 61.2798L1375.87 64.3311Z" fill="#865EB5"/>
<path d="M1384.36 45.2098L1394.69 61.2799L1403.38 44.2944L1384.36 45.2098Z" fill="#865EB5"/>
<path d="M1393.06 28.2242L1403.38 44.2943L1412.13 27.3088L1393.06 28.2242Z" fill="#865EB5"/>
<path d="M1403.08 10.5269L1412.13 27.3089L1422.15 11.0354L1403.08 10.5269Z" fill="#865EB5"/>
<path d="M1354.41 85.1306C1354.41 87.9276 1356.7 90.2161 1359.5 90.2161C1362.29 90.2161 1364.58 87.9276 1364.58 85.1306C1364.58 82.3336 1362.29 80.0452 1359.5 80.0452C1356.65 80.0452 1354.41 82.3336 1354.41 85.1306Z" fill="#865EB5"/>
<path d="M1363.06 68.2979C1365.87 68.2979 1368.14 66.021 1368.14 63.2124C1368.14 60.4038 1365.87 58.127 1363.06 58.127C1360.25 58.127 1357.97 60.4038 1357.97 63.2124C1357.97 66.021 1360.25 68.2979 1363.06 68.2979Z" fill="#865EB5"/>
<path d="M1378.18 55.9518C1380.95 55.5019 1382.83 52.8897 1382.38 50.1173C1381.93 47.3449 1379.32 45.4622 1376.55 45.9121C1373.78 46.3621 1371.89 48.9743 1372.34 51.7467C1372.79 54.5191 1375.41 56.4018 1378.18 55.9518Z" fill="#865EB5"/>
<path d="M1375.82 37.1748C1378.63 37.1748 1380.91 34.898 1380.91 32.0894C1380.91 29.2807 1378.63 27.0039 1375.82 27.0039C1373.01 27.0039 1370.74 29.2807 1370.74 32.0894C1370.74 34.898 1373.01 37.1748 1375.82 37.1748Z" fill="#865EB5"/>
<path d="M1391.13 23.9016C1393.94 23.9016 1396.21 21.6248 1396.21 18.8162C1396.21 16.0076 1393.94 13.7307 1391.13 13.7307C1388.32 13.7307 1386.04 16.0076 1386.04 18.8162C1386.04 21.6248 1388.32 23.9016 1391.13 23.9016Z" fill="#865EB5"/>
<path d="M1297.3 44.1419C1295.62 44.1419 1294.05 44.0402 1292.57 43.8368C1294 53.6009 1295.57 70.8406 1292.42 87.8769C1295.11 90.9282 1297.3 92.6573 1297.3 92.6573C1297.3 92.6573 1299.9 90.5722 1303 86.9615C1300.1 70.1287 1301.62 53.2449 1303.05 43.7351C1301.22 43.9894 1299.34 44.1419 1297.3 44.1419Z" fill="#865EB5"/>
<path d="M1269.74 30.4111C1268.21 47.7526 1285.05 50.8038 1285.05 50.8038C1285.05 50.8038 1284.59 51.5158 1283.98 52.7872C1280.01 50.6513 1271.21 46.2778 1269.89 49.4308C1268.42 52.9397 1275.64 60.8731 1282.45 56.9573C1281.44 60.7714 1280.93 66.1111 1282.96 72.2136C1284.59 77.1465 1287.23 81.4183 1289.78 84.7239C1292.32 68.2978 1290.64 52.0752 1289.32 43.2265C1276.3 40.2261 1269.74 30.4111 1269.74 30.4111Z" fill="#865EB5"/>
<path d="M1311.59 72.2136C1313.78 65.6534 1313.02 60.0085 1311.9 56.1436C1319.02 61.7884 1327.2 53.0923 1325.68 49.4308C1324.25 46.0744 1314.24 51.3124 1310.83 53.194C1310.17 51.6684 1309.56 50.8038 1309.56 50.8038C1309.56 50.8038 1326.39 47.7526 1324.87 30.4111C1324.87 30.4111 1318.66 39.7175 1306.25 43.0231C1304.93 51.5667 1303.25 67.4842 1305.59 83.7068C1307.83 80.503 1310.12 76.638 1311.59 72.2136Z" fill="#865EB5"/>
<path d="M1297.76 37.8868C1306.96 37.8868 1314.44 34.0218 1314.44 29.2415C1314.44 24.4611 1306.96 20.5962 1297.76 20.5962C1288.55 20.5962 1281.08 24.4611 1281.08 29.2415C1281.08 34.0218 1288.55 37.8868 1297.76 37.8868Z" fill="#865EB5"/>
<path d="M861.172 93.6234C862.596 93.3691 864.122 93.2674 865.698 93.2674C867.021 93.2674 868.241 93.3691 869.462 93.5217C868.343 85.7918 867.072 72.1119 869.563 58.5845C867.427 56.1435 865.698 54.8213 865.698 54.8213C865.698 54.8213 863.664 56.4486 861.172 59.3473C863.563 72.6713 862.291 86.046 861.172 93.6234Z" fill="#865EB5"/>
<path d="M875.463 88.0294C875.463 88.0294 875.819 87.47 876.327 86.453C879.48 88.182 886.447 91.5893 887.515 89.0974C888.685 86.3512 882.938 80.0453 877.548 83.0965C878.361 80.0453 878.768 75.8243 877.141 70.9931C875.819 67.0773 873.734 63.7209 871.699 61.0256C869.665 74.0444 870.987 86.9615 872.055 93.9794C882.43 96.4205 887.617 104.201 887.617 104.201C888.837 90.4196 875.463 88.0294 875.463 88.0294Z" fill="#865EB5"/>
<path d="M859.189 61.8901C857.358 64.382 855.579 67.4842 854.409 70.9931C852.68 76.1803 853.239 80.6555 854.155 83.7576C848.51 79.2824 842 86.1478 843.221 89.0974C844.34 91.7927 852.324 87.6226 855.019 86.0969C855.579 87.3175 856.036 88.0294 856.036 88.0294C856.036 88.0294 842.661 90.4704 843.882 104.252C843.882 104.252 848.815 96.8781 858.681 94.2337C859.698 87.3683 861.02 74.7564 859.189 61.8901Z" fill="#865EB5"/>
<path d="M865.343 98.2512C858.019 98.2512 852.12 101.302 852.12 105.117C852.12 108.88 858.07 111.982 865.343 111.982C872.666 111.982 878.616 108.931 878.616 105.117C878.616 101.302 872.666 98.2512 865.343 98.2512Z" fill="#865EB5"/>
<path d="M1149.37 93.6234C1150.79 93.3691 1152.32 93.2674 1153.89 93.2674C1155.21 93.2674 1156.43 93.3691 1157.65 93.5217C1156.54 85.7918 1155.26 72.1119 1157.76 58.5845C1155.62 56.1435 1153.89 54.8213 1153.89 54.8213C1153.89 54.8213 1151.86 56.4486 1149.37 59.3473C1151.71 72.6713 1150.48 86.046 1149.37 93.6234Z" fill="#865EB5"/>
<path d="M1163.61 88.0294C1163.61 88.0294 1163.96 87.47 1164.47 86.453C1167.62 88.182 1174.59 91.5893 1175.66 89.0974C1176.83 86.3512 1171.08 80.0453 1165.69 83.0965C1166.5 80.0453 1166.91 75.8243 1165.28 70.9931C1163.96 67.0773 1161.88 63.7209 1159.84 61.0256C1157.81 74.0444 1159.13 86.9615 1160.2 93.9794C1170.57 96.4205 1175.76 104.201 1175.76 104.201C1176.98 90.4196 1163.61 88.0294 1163.61 88.0294Z" fill="#865EB5"/>
<path d="M1147.33 61.8901C1145.5 64.382 1143.72 67.4842 1142.55 70.9931C1140.82 76.1803 1141.38 80.6555 1142.3 83.7576C1136.65 79.2824 1130.14 86.1478 1131.36 89.0974C1132.48 91.7927 1140.47 87.6226 1143.16 86.0969C1143.72 87.3175 1144.18 88.0294 1144.18 88.0294C1144.18 88.0294 1130.8 90.4704 1132.02 104.252C1132.02 104.252 1136.96 96.8781 1146.82 94.2337C1147.89 87.3683 1149.21 74.7564 1147.33 61.8901Z" fill="#865EB5"/>
<path d="M1153.54 98.2512C1146.21 98.2512 1140.31 101.302 1140.31 105.117C1140.31 108.88 1146.26 111.982 1153.54 111.982C1160.86 111.982 1166.81 108.931 1166.81 105.117C1166.76 101.302 1160.81 98.2512 1153.54 98.2512Z" fill="#865EB5"/>
</g>
<defs>
<clipPath id="clip0_219_1044">
<rect width="1440" height="113.609" fill="white"/>
</clipPath>
</defs>
</svg>
