<svg width="1440" height="708" viewBox="0 0 1440 708" fill="none" xmlns="http://www.w3.org/2000/svg">
<g style="mix-blend-mode:multiply" opacity="0.16" clip-path="url(#clip0_211_10)">
<path d="M100.59 -7.35553L92.4537 -7.25382C92.9623 35.3624 111.423 70.5029 119.915 84.3862C88.5379 85.1999 62.8055 90.8956 53.0414 93.3875C41.8534 45.3299 8.23845 -4.30425 6.76367 -6.491L0 -1.86323C0.355982 -1.35468 36.1576 51.5341 45.9726 99.2358L46.8371 103.558L51.1089 102.338C51.4649 102.236 85.6392 92.4213 127.391 92.4213H135.324L130.696 85.9627C130.391 85.5559 101.201 44.2619 100.59 -7.35553Z" fill="#9068BD"/>
<path d="M74.0952 21.2247L91.9451 27.6324L78.7229 41.2615L97.1323 45.9401L85.1306 60.5862L103.896 63.6884L92.9622 79.2499L111.982 80.9281L103.947 63.6375L97.234 45.8384H97.1832L92.0469 27.5816L88.6904 8.91792H88.6396L86.8088 -10L71.2982 1.13717L88.5887 8.96878L74.0952 21.2247Z" fill="#9068BD"/>
<path d="M70.6371 73.5033L52.0244 69.1298L57.5675 87.3866L70.6371 73.5033Z" fill="#9068BD"/>
<path d="M64.1277 54.3311L45.3115 51.2798L52.0243 69.1298L64.1277 54.3311Z" fill="#9068BD"/>
<path d="M55.635 35.2098L36.5645 34.2944L45.3115 51.2798L55.635 35.2098Z" fill="#9068BD"/>
<path d="M46.9388 18.2243L27.8683 17.3089L36.5645 34.2944L46.9388 18.2243Z" fill="#9068BD"/>
<path d="M36.9205 0.526917L17.85 1.03546L27.8683 17.3089L36.9205 0.526917Z" fill="#9068BD"/>
<path d="M80.5029 80.2162C83.3115 80.2162 85.5883 77.9393 85.5883 75.1307C85.5883 72.3221 83.3115 70.0452 80.5029 70.0452C77.6943 70.0452 75.4174 72.3221 75.4174 75.1307C75.4174 77.9393 77.6943 80.2162 80.5029 80.2162Z" fill="#9068BD"/>
<path d="M76.9431 58.2978C79.7517 58.2978 82.0285 56.0209 82.0285 53.2123C82.0285 50.4037 79.7517 48.1268 76.9431 48.1268C74.1344 48.1268 71.8576 50.4037 71.8576 53.2123C71.8576 56.0209 74.1344 58.2978 76.9431 58.2978Z" fill="#9068BD"/>
<path d="M66.2387 44.5545C68.2247 42.5686 68.2247 39.3487 66.2387 37.3627C64.2527 35.3767 61.0328 35.3767 59.0469 37.3627C57.0609 39.3487 57.0609 42.5686 59.0469 44.5545C61.0328 46.5405 64.2527 46.5405 66.2387 44.5545Z" fill="#9068BD"/>
<path d="M65.3457 27.0346C68.079 26.3892 69.7716 23.6501 69.1262 20.9168C68.4808 18.1834 65.7417 16.4908 63.0084 17.1363C60.275 17.7817 58.5824 20.5207 59.2278 23.2541C59.8733 25.9874 62.6123 27.68 65.3457 27.0346Z" fill="#9068BD"/>
<path d="M48.8713 13.9017C51.6799 13.9017 53.9568 11.6248 53.9568 8.81621C53.9568 6.00758 51.6799 3.73074 48.8713 3.73074C46.0627 3.73074 43.7858 6.00758 43.7858 8.81621C43.7858 11.6248 46.0627 13.9017 48.8713 13.9017Z" fill="#9068BD"/>
<path d="M277.666 -6.491C276.191 -4.35511 242.577 45.3299 231.389 93.3875C221.574 90.8956 195.892 85.1999 164.515 84.3862C173.007 70.4521 191.468 35.3624 191.976 -7.25382L183.789 -7.35553C183.178 44.2619 153.988 85.5559 153.734 86.0136L149.106 92.4721H157.039C198.791 92.4721 232.965 102.287 233.321 102.389L237.542 103.609L238.407 99.2867C248.272 51.5341 284.074 -1.35468 284.43 -1.86323L277.666 -6.491Z" fill="#9068BD"/>
<path d="M187.196 45.8384L180.483 63.6375L172.448 80.9281L191.468 79.2499L180.534 63.6884L199.299 60.5862L187.298 45.9401L205.707 41.2615L192.485 27.6324L210.335 21.2247L195.841 8.96878L213.132 1.13717L197.621 -10L195.739 8.91792L192.383 27.5816L187.247 45.8384H187.196Z" fill="#9068BD"/>
<path d="M232.355 69.1298L213.793 73.5033L226.863 87.3866L232.355 69.1298Z" fill="#9068BD"/>
<path d="M220.302 54.3311L232.355 69.1298L239.118 51.2798L220.302 54.3311Z" fill="#9068BD"/>
<path d="M228.795 35.2098L239.119 51.2798L247.815 34.2944L228.795 35.2098Z" fill="#9068BD"/>
<path d="M237.491 18.2243L247.815 34.2944L256.562 17.3089L237.491 18.2243Z" fill="#9068BD"/>
<path d="M247.51 0.526917L256.562 17.3089L266.58 1.03546L247.51 0.526917Z" fill="#9068BD"/>
<path d="M208.952 75.7668C209.295 72.9792 207.314 70.4412 204.526 70.098C201.739 69.7548 199.201 71.7363 198.858 74.5239C198.514 77.3115 200.496 79.8495 203.283 80.1927C206.071 80.5359 208.609 78.5544 208.952 75.7668Z" fill="#9068BD"/>
<path d="M207.487 58.2978C210.296 58.2978 212.572 56.0209 212.572 53.2123C212.572 50.4037 210.296 48.1268 207.487 48.1268C204.678 48.1268 202.401 50.4037 202.401 53.2123C202.401 56.0209 204.678 58.2978 207.487 58.2978Z" fill="#9068BD"/>
<path d="M222.934 45.8934C225.668 45.248 227.36 42.509 226.715 39.7756C226.07 37.0423 223.331 35.3497 220.597 35.9951C217.864 36.6405 216.171 39.3795 216.817 42.1129C217.462 44.8463 220.201 46.5389 222.934 45.8934Z" fill="#9068BD"/>
<path d="M221.411 27.0245C224.144 26.3791 225.837 23.64 225.191 20.9067C224.546 18.1733 221.807 16.4807 219.073 17.1262C216.34 17.7716 214.647 20.5106 215.293 23.244C215.938 25.9773 218.677 27.6699 221.411 27.0245Z" fill="#9068BD"/>
<path d="M235.559 13.9017C238.367 13.9017 240.644 11.6248 240.644 8.81621C240.644 6.00758 238.367 3.73074 235.559 3.73074C232.75 3.73074 230.473 6.00758 230.473 8.81621C230.473 11.6248 232.75 13.9017 235.559 13.9017Z" fill="#9068BD"/>
<path d="M141.732 34.1419C140.054 34.1419 138.477 34.0401 137.002 33.8367C138.426 43.6008 140.003 60.8405 136.85 77.8768C139.545 80.9281 141.732 82.6572 141.732 82.6572C141.732 82.6572 144.325 80.5721 147.428 76.9615C144.529 60.1286 146.055 43.2448 147.478 33.735C145.648 33.9893 143.766 34.1419 141.732 34.1419Z" fill="#9068BD"/>
<path d="M114.169 20.4111C112.643 37.7525 129.476 40.8038 129.476 40.8038C129.476 40.8038 129.018 41.5157 128.408 42.7871C124.441 40.6512 115.643 36.2777 114.321 39.4307C112.846 42.9397 120.068 50.873 126.882 46.9572C125.865 50.7713 125.357 56.111 127.391 62.2136C129.018 67.1465 131.663 71.4183 134.205 74.7238C136.748 58.2978 135.07 42.0751 133.748 33.2264C120.729 30.226 114.169 20.4111 114.169 20.4111Z" fill="#9068BD"/>
<path d="M156.022 62.2136C158.209 55.6533 157.446 50.0085 156.327 46.1435C163.447 51.7884 171.634 43.0922 170.109 39.4307C168.685 36.0743 158.666 41.3123 155.259 43.194C154.598 41.6683 153.988 40.8038 153.988 40.8038C153.988 40.8038 170.821 37.7525 169.295 20.4111C169.295 20.4111 163.091 29.7175 150.682 33.023C149.36 41.5666 147.682 57.4841 150.021 73.7067C152.259 70.5029 154.547 66.6379 156.022 62.2136Z" fill="#9068BD"/>
<path d="M142.19 27.8867C151.394 27.8867 158.87 24.0218 158.87 19.2414C158.87 14.4611 151.394 10.5961 142.19 10.5961C132.985 10.5961 125.509 14.4611 125.509 19.2414C125.509 24.0218 132.985 27.8867 142.19 27.8867Z" fill="#9068BD"/>
<path d="M389.394 -7.35553L381.257 -7.25382C381.766 35.3624 400.226 70.5029 408.719 84.3862C377.341 85.1999 351.609 90.8956 341.845 93.3875C330.657 45.3299 297.042 -4.30425 295.567 -6.491L288.803 -1.86323C289.159 -1.35468 324.961 51.5341 334.776 99.2358L335.641 103.558L339.912 102.338C340.268 102.236 374.443 92.4213 416.194 92.4213H424.128L419.5 85.9627C419.195 85.5559 390.004 44.2619 389.394 -7.35553Z" fill="#9068BD"/>
<path d="M362.899 21.2247L380.749 27.6324L367.526 41.2615L385.936 45.9401L373.934 60.5862L392.7 63.6884L381.766 79.2499L400.785 80.9281L392.75 63.6375L386.038 45.8384H385.987L380.85 27.5816L377.494 8.91792H377.443L375.612 -10L360.102 1.13717L377.392 8.96878L362.899 21.2247Z" fill="#9068BD"/>
<path d="M359.441 73.5033L340.828 69.1298L346.371 87.3866L359.441 73.5033Z" fill="#9068BD"/>
<path d="M352.931 54.3311L334.115 51.2798L340.828 69.1298L352.931 54.3311Z" fill="#9068BD"/>
<path d="M344.438 35.2098L325.368 34.2944L334.115 51.2798L344.438 35.2098Z" fill="#9068BD"/>
<path d="M335.742 18.2243L316.672 17.3089L325.368 34.2944L335.742 18.2243Z" fill="#9068BD"/>
<path d="M325.724 0.526917L306.653 1.03546L316.672 17.3089L325.724 0.526917Z" fill="#9068BD"/>
<path d="M369.306 80.267C372.103 80.267 374.392 77.9785 374.392 75.1815C374.392 72.3845 372.103 70.0961 369.306 70.0961C366.509 70.0961 364.221 72.3845 364.221 75.1815C364.221 77.9785 366.509 80.267 369.306 80.267Z" fill="#9068BD"/>
<path d="M365.747 58.2978C368.555 58.2978 370.832 56.0209 370.832 53.2123C370.832 50.4037 368.555 48.1268 365.747 48.1268C362.938 48.1268 360.661 50.4037 360.661 53.2123C360.661 56.0209 362.938 58.2978 365.747 58.2978Z" fill="#9068BD"/>
<path d="M351.456 46.0418C354.265 46.0418 356.542 43.765 356.542 40.9563C356.542 38.1477 354.265 35.8709 351.456 35.8709C348.648 35.8709 346.371 38.1477 346.371 40.9563C346.371 43.765 348.648 46.0418 351.456 46.0418Z" fill="#9068BD"/>
<path d="M352.982 27.1747C355.779 27.1747 358.068 24.8863 358.068 22.0893C358.068 19.2923 355.779 17.0038 352.982 17.0038C350.185 17.0038 347.897 19.2923 347.897 22.0893C347.897 24.8863 350.185 27.1747 352.982 27.1747Z" fill="#9068BD"/>
<path d="M337.675 13.9017C340.483 13.9017 342.76 11.6248 342.76 8.81621C342.76 6.00758 340.483 3.73074 337.675 3.73074C334.866 3.73074 332.589 6.00758 332.589 8.81621C332.589 11.6248 334.866 13.9017 337.675 13.9017Z" fill="#9068BD"/>
<path d="M566.47 -6.491C564.995 -4.35511 531.38 45.3299 520.192 93.3875C510.377 90.8956 484.696 85.1999 453.318 84.3862C461.811 70.4521 480.271 35.3624 480.78 -7.25382L472.592 -7.35553C471.982 44.2619 442.791 85.5559 442.537 86.0136L437.909 92.4721H445.843C487.594 92.4721 521.769 102.287 522.125 102.389L526.346 103.609L527.21 99.2867C537.076 51.5341 572.877 -1.35468 573.233 -1.86323L566.47 -6.491Z" fill="#9068BD"/>
<path d="M475.999 45.8384L469.287 63.6375L461.252 80.9281L480.271 79.2499L469.337 63.6884L488.103 60.5862L476.101 45.9401L494.511 41.2615L481.288 27.6324L499.138 21.2247L484.645 8.96878L501.935 1.13717L486.425 -10L484.543 8.91792L481.187 27.5816L475.999 45.8384Z" fill="#9068BD"/>
<path d="M521.158 69.1298L502.596 73.5033L515.666 87.3866L521.158 69.1298Z" fill="#9068BD"/>
<path d="M509.106 54.3311L521.158 69.1298L527.922 51.2798L509.106 54.3311Z" fill="#9068BD"/>
<path d="M517.599 35.2098L527.922 51.2798L536.618 34.2944L517.599 35.2098Z" fill="#9068BD"/>
<path d="M526.295 18.2243L536.618 34.2944L545.365 17.3089L526.295 18.2243Z" fill="#9068BD"/>
<path d="M536.313 0.526917L545.365 17.3089L555.383 1.03546L536.313 0.526917Z" fill="#9068BD"/>
<path d="M487.645 75.1307C487.645 77.9277 489.934 80.2162 492.731 80.2162C495.528 80.2162 497.816 77.9277 497.816 75.1307C497.816 72.3337 495.528 70.0452 492.731 70.0452C489.883 70.0452 487.645 72.3337 487.645 75.1307Z" fill="#9068BD"/>
<path d="M496.29 58.2978C499.099 58.2978 501.376 56.0209 501.376 53.2123C501.376 50.4037 499.099 48.1268 496.29 48.1268C493.482 48.1268 491.205 50.4037 491.205 53.2123C491.205 56.0209 493.482 58.2978 496.29 58.2978Z" fill="#9068BD"/>
<path d="M511.401 45.9676C514.173 45.5176 516.056 42.9054 515.606 40.133C515.156 37.3606 512.544 35.4779 509.771 35.9278C506.999 36.3778 505.116 38.99 505.566 41.7624C506.016 44.5348 508.628 46.4175 511.401 45.9676Z" fill="#9068BD"/>
<path d="M509.055 27.1747C511.864 27.1747 514.14 24.8979 514.14 22.0893C514.14 19.2807 511.864 17.0038 509.055 17.0038C506.246 17.0038 503.969 19.2807 503.969 22.0893C503.969 24.8979 506.246 27.1747 509.055 27.1747Z" fill="#9068BD"/>
<path d="M524.362 13.9017C527.171 13.9017 529.448 11.6248 529.448 8.81621C529.448 6.00758 527.171 3.73074 524.362 3.73074C521.554 3.73074 519.277 6.00758 519.277 8.81621C519.277 11.6248 521.554 13.9017 524.362 13.9017Z" fill="#9068BD"/>
<path d="M430.535 34.1419C428.857 34.1419 427.281 34.0401 425.806 33.8367C427.23 43.6008 428.806 60.8405 425.653 77.8768C428.349 80.9281 430.535 82.6572 430.535 82.6572C430.535 82.6572 433.129 80.5721 436.231 76.9615C433.332 60.1286 434.858 43.2448 436.282 33.735C434.451 33.9893 432.57 34.1419 430.535 34.1419Z" fill="#9068BD"/>
<path d="M402.972 20.4111C401.447 37.7525 418.279 40.8038 418.279 40.8038C418.279 40.8038 417.822 41.5157 417.211 42.7871C413.245 40.6512 404.447 36.2777 403.125 39.4307C401.65 42.9397 408.871 50.873 415.686 46.9572C414.669 50.7713 414.16 56.111 416.194 62.2136C417.822 67.1465 420.466 71.4183 423.009 74.7238C425.552 58.2978 423.873 42.0751 422.551 33.2264C409.532 30.226 402.972 20.4111 402.972 20.4111Z" fill="#9068BD"/>
<path d="M444.826 62.2136C447.012 55.6533 446.249 50.0085 445.131 46.1435C452.25 51.7884 460.438 43.0922 458.912 39.4307C457.488 36.0743 447.47 41.3123 444.063 43.194C443.402 41.6683 442.791 40.8038 442.791 40.8038C442.791 40.8038 459.624 37.7525 458.099 20.4111C458.099 20.4111 451.894 29.7175 439.486 33.023C438.164 41.5666 436.485 57.4841 438.825 73.7067C441.062 70.5029 443.351 66.6379 444.826 62.2136Z" fill="#9068BD"/>
<path d="M430.993 27.8867C440.198 27.8867 447.673 24.0218 447.673 19.2414C447.673 14.4611 440.198 10.5961 430.993 10.5961C421.788 10.5961 414.313 14.4611 414.313 19.2414C414.313 24.0218 421.788 27.8867 430.993 27.8867Z" fill="#9068BD"/>
<path d="M283.871 83.6234C285.295 83.3691 286.82 83.2674 288.397 83.2674C289.719 83.2674 290.939 83.3691 292.16 83.5217C291.041 75.7918 289.77 62.1119 292.262 48.5845C290.126 46.1435 288.397 44.8213 288.397 44.8213C288.397 44.8213 286.362 46.4486 283.871 49.3473C286.21 62.6713 284.989 76.046 283.871 83.6234Z" fill="#9068BD"/>
<path d="M298.161 78.0294C298.161 78.0294 298.517 77.47 299.025 76.4529C302.178 78.1819 309.145 81.5892 310.213 79.0973C311.383 76.3512 305.636 70.0452 300.246 73.0965C301.059 70.0452 301.466 65.8243 299.839 60.9931C298.517 57.0773 296.432 53.7209 294.398 51.0256C292.363 64.0444 293.686 76.9614 294.753 83.9794C305.128 86.4204 310.315 94.2012 310.315 94.2012C311.485 80.4195 298.161 78.0294 298.161 78.0294Z" fill="#9068BD"/>
<path d="M281.887 51.8901C280.057 54.382 278.277 57.4841 277.107 60.9931C275.378 66.1802 275.937 70.6554 276.853 73.7576C271.208 69.2824 264.698 76.1477 265.919 79.0973C267.038 81.7926 275.022 77.6225 277.717 76.0969C278.277 77.3174 278.734 78.0294 278.734 78.0294C278.734 78.0294 265.36 80.4704 266.58 94.252C266.58 94.252 271.513 86.8781 281.379 84.2336C282.396 77.3683 283.718 64.7563 281.887 51.8901Z" fill="#9068BD"/>
<path d="M288.041 88.2512C280.718 88.2512 274.818 91.3024 274.818 95.1165C274.818 98.8798 280.768 101.982 288.041 101.982C295.364 101.982 301.314 98.9306 301.314 95.1165C301.314 91.3024 295.364 88.2512 288.041 88.2512Z" fill="#9068BD"/>
<path d="M677.791 -7.35553L669.654 -7.25382C670.162 35.3624 688.623 70.5029 697.115 84.3862C665.738 85.1999 640.006 90.8956 630.242 93.3875C619.054 45.3299 585.439 -4.30425 583.964 -6.491L577.2 -1.86323C577.556 -1.35468 613.358 51.5341 623.173 99.2358L624.037 103.558L628.309 102.338C628.665 102.236 662.839 92.4213 704.591 92.4213H712.524L707.897 85.9627C707.591 85.5559 678.401 44.2619 677.791 -7.35553Z" fill="#9068BD"/>
<path d="M651.295 21.2247L669.145 27.6324L655.923 41.2615L674.333 45.9401L662.331 60.5862L681.096 63.6884L670.162 79.2499L689.182 80.9281L681.147 63.6375L674.434 45.8384H674.383L669.247 27.5816L665.891 8.91792H665.84L664.009 -10L648.498 1.13717L665.789 8.96878L651.295 21.2247Z" fill="#9068BD"/>
<path d="M647.837 73.5033L629.224 69.1298L634.768 87.3866L647.837 73.5033Z" fill="#9068BD"/>
<path d="M641.328 54.3311L622.512 51.2798L629.224 69.1298L641.328 54.3311Z" fill="#9068BD"/>
<path d="M632.835 35.2098L613.765 34.2944L622.512 51.2798L632.835 35.2098Z" fill="#9068BD"/>
<path d="M624.139 18.2243L605.069 17.3089L613.765 34.2944L624.139 18.2243Z" fill="#9068BD"/>
<path d="M614.121 0.526917L595.05 1.03546L605.069 17.3089L614.121 0.526917Z" fill="#9068BD"/>
<path d="M657.703 80.267C660.5 80.267 662.789 77.9785 662.789 75.1815C662.789 72.3845 660.5 70.0961 657.703 70.0961C654.906 70.0961 652.618 72.3845 652.618 75.1815C652.618 77.9785 654.906 80.267 657.703 80.267Z" fill="#9068BD"/>
<path d="M654.143 58.2978C656.952 58.2978 659.229 56.0209 659.229 53.2123C659.229 50.4037 656.952 48.1268 654.143 48.1268C651.335 48.1268 649.058 50.4037 649.058 53.2123C649.058 56.0209 651.335 58.2978 654.143 58.2978Z" fill="#9068BD"/>
<path d="M639.853 46.0418C642.662 46.0418 644.939 43.765 644.939 40.9563C644.939 38.1477 642.662 35.8709 639.853 35.8709C637.044 35.8709 634.768 38.1477 634.768 40.9563C634.768 43.765 637.044 46.0418 639.853 46.0418Z" fill="#9068BD"/>
<path d="M641.379 27.1747C644.187 27.1747 646.464 24.8979 646.464 22.0893C646.464 19.2807 644.187 17.0038 641.379 17.0038C638.57 17.0038 636.293 19.2807 636.293 22.0893C636.293 24.8979 638.57 27.1747 641.379 27.1747Z" fill="#9068BD"/>
<path d="M626.071 13.9525C628.868 13.9525 631.157 11.6641 631.157 8.86705C631.157 6.07004 628.868 3.78159 626.071 3.78159C623.274 3.78159 620.986 6.07004 620.986 8.86705C620.986 11.6641 623.274 13.9525 626.071 13.9525Z" fill="#9068BD"/>
<path d="M854.866 -6.491C853.392 -4.35511 819.777 45.3299 808.589 93.3875C798.774 90.8956 773.092 85.1999 741.715 84.3862C750.208 70.4521 768.668 35.3624 769.176 -7.25382L760.989 -7.35553C760.379 44.2619 731.188 85.5559 730.934 86.0136L726.306 92.4721H734.239C775.991 92.4721 810.165 102.287 810.521 102.389L814.742 103.609L815.607 99.2867C825.472 51.5341 861.274 -1.35468 861.63 -1.86323L854.866 -6.491Z" fill="#9068BD"/>
<path d="M764.396 45.8384L757.683 63.6375L749.648 80.9281L768.668 79.2499L757.734 63.6884L776.5 60.5862L764.498 45.9401L782.907 41.2615L769.685 27.6324L787.535 21.2247L773.041 8.96878L790.332 1.13717L774.821 -10L772.94 8.91792L769.583 27.5816L764.396 45.8384Z" fill="#9068BD"/>
<path d="M809.555 69.1298L790.993 73.5033L804.063 87.3866L809.555 69.1298Z" fill="#9068BD"/>
<path d="M797.502 54.3311L809.555 69.1298L816.319 51.2798L797.502 54.3311Z" fill="#9068BD"/>
<path d="M805.995 35.2098L816.319 51.2798L825.015 34.2944L805.995 35.2098Z" fill="#9068BD"/>
<path d="M814.691 18.2243L825.015 34.2944L833.762 17.3089L814.691 18.2243Z" fill="#9068BD"/>
<path d="M824.71 0.526917L833.762 17.3089L843.78 1.03546L824.71 0.526917Z" fill="#9068BD"/>
<path d="M776.042 75.1307C776.042 77.9277 778.33 80.2162 781.127 80.2162C783.924 80.2162 786.213 77.9277 786.213 75.1307C786.213 72.3337 783.924 70.0452 781.127 70.0452C778.33 70.0452 776.042 72.3337 776.042 75.1307Z" fill="#9068BD"/>
<path d="M789.772 53.2123C789.772 50.4153 787.484 48.1268 784.687 48.1268C781.89 48.1268 779.602 50.4153 779.602 53.2123C779.602 56.0093 781.89 58.2978 784.687 58.2978C787.484 58.2978 789.772 56.0093 789.772 53.2123Z" fill="#9068BD"/>
<path d="M799.801 45.9626C802.573 45.5126 804.456 42.9004 804.006 40.128C803.556 37.3556 800.944 35.4729 798.171 35.9229C795.399 36.3728 793.516 38.985 793.966 41.7574C794.416 44.5298 797.028 46.4125 799.801 45.9626Z" fill="#9068BD"/>
<path d="M797.452 27.1747C800.26 27.1747 802.537 24.8979 802.537 22.0893C802.537 19.2807 800.26 17.0038 797.452 17.0038C794.643 17.0038 792.366 19.2807 792.366 22.0893C792.366 24.8979 794.643 27.1747 797.452 27.1747Z" fill="#9068BD"/>
<path d="M812.759 13.9017C815.567 13.9017 817.844 11.6248 817.844 8.81621C817.844 6.00758 815.567 3.73074 812.759 3.73074C809.95 3.73074 807.673 6.00758 807.673 8.81621C807.673 11.6248 809.95 13.9017 812.759 13.9017Z" fill="#9068BD"/>
<path d="M718.932 34.1419C717.254 34.1419 715.677 34.0401 714.203 33.8367C715.627 43.6008 717.203 60.8405 714.05 77.8768C716.745 80.9281 718.932 82.6572 718.932 82.6572C718.932 82.6572 721.526 80.5721 724.628 76.9615C721.729 60.1286 723.255 43.2448 724.679 33.735C722.848 33.9893 720.966 34.1419 718.932 34.1419Z" fill="#9068BD"/>
<path d="M691.369 20.4111C689.843 37.7525 706.676 40.8038 706.676 40.8038C706.676 40.8038 706.218 41.5157 705.608 42.7871C701.641 40.6512 692.844 36.2777 691.521 39.4307C690.047 42.9397 697.268 50.873 704.082 46.9572C703.065 50.7713 702.557 56.111 704.591 62.2136C706.218 67.1465 708.863 71.4183 711.406 74.7238C713.948 58.2978 712.27 42.0751 710.948 33.2264C697.929 30.226 691.369 20.4111 691.369 20.4111Z" fill="#9068BD"/>
<path d="M733.222 62.2136C735.409 55.6533 734.646 50.0085 733.527 46.1435C740.647 51.7884 748.835 43.0922 747.309 39.4307C745.885 36.0743 735.867 41.3123 732.459 43.194C731.798 41.6683 731.188 40.8038 731.188 40.8038C731.188 40.8038 748.021 37.7525 746.495 20.4111C746.495 20.4111 740.291 29.7175 727.882 33.023C726.56 41.5666 724.882 57.4841 727.221 73.7067C729.459 70.5029 731.747 66.6379 733.222 62.2136Z" fill="#9068BD"/>
<path d="M719.39 27.8867C728.594 27.8867 736.07 24.0218 736.07 19.2414C736.07 14.4611 728.594 10.5961 719.39 10.5961C710.185 10.5961 702.709 14.4611 702.709 19.2414C702.709 24.0218 710.185 27.8867 719.39 27.8867Z" fill="#9068BD"/>
<path d="M572.267 83.6234C573.691 83.3691 575.217 83.2674 576.793 83.2674C578.116 83.2674 579.336 83.3691 580.557 83.5217C579.438 75.7918 578.166 62.1119 580.658 48.5845C578.522 46.1435 576.793 44.8213 576.793 44.8213C576.793 44.8213 574.759 46.4486 572.267 49.3473C574.607 62.6713 573.386 76.046 572.267 83.6234Z" fill="#9068BD"/>
<path d="M586.557 78.0294C586.557 78.0294 586.913 77.47 587.422 76.4529C590.575 78.1819 597.542 81.5892 598.61 79.0973C599.78 76.3512 594.033 70.0452 588.642 73.0965C589.456 70.0452 589.863 65.8243 588.236 60.9931C586.913 57.0773 584.828 53.7209 582.794 51.0256C580.76 64.0444 582.082 76.9614 583.15 83.9794C593.524 86.4204 598.712 94.2012 598.712 94.2012C599.881 80.4195 586.557 78.0294 586.557 78.0294Z" fill="#9068BD"/>
<path d="M570.284 51.8901C568.453 54.382 566.673 57.4841 565.504 60.9931C563.775 66.1802 564.334 70.6554 565.249 73.7576C559.604 69.2824 553.095 76.1477 554.316 79.0973C555.434 81.7926 563.419 77.6225 566.114 76.0969C566.673 77.3174 567.131 78.0294 567.131 78.0294C567.131 78.0294 553.756 80.4704 554.977 94.252C554.977 94.252 559.91 86.8781 569.775 84.2336C570.792 77.3683 572.115 64.7563 570.284 51.8901Z" fill="#9068BD"/>
<path d="M576.437 88.2512C569.114 88.2512 563.215 91.3024 563.215 95.1165C563.215 98.8798 569.165 101.982 576.437 101.982C583.76 101.982 589.71 98.9306 589.71 95.1165C589.71 91.3024 583.76 88.2512 576.437 88.2512Z" fill="#9068BD"/>
<path d="M966.696 -7.35553L958.559 -7.25382C959.068 35.3624 977.528 70.5029 986.021 84.3862C954.643 85.1999 928.911 90.8956 919.147 93.3875C907.959 45.3299 874.344 -4.30425 872.869 -6.491L866.105 -1.86323C866.461 -1.35468 902.263 51.5341 912.078 99.2358L912.942 103.558L917.214 102.338C917.57 102.236 951.745 92.4213 993.496 92.4213H1001.43L996.802 85.9627C996.497 85.5559 967.306 44.2619 966.696 -7.35553Z" fill="#9068BD"/>
<path d="M940.201 21.2247L958.051 27.6324L944.828 41.2615L963.238 45.9401L951.236 60.5862L970.001 63.6884L959.068 79.2499L978.087 80.9281L970.052 63.6375L963.339 45.8384L958.152 27.5816L954.796 8.91792H954.745L952.914 -10L937.404 1.13717L954.694 8.96878L940.201 21.2247Z" fill="#9068BD"/>
<path d="M936.742 73.5033L918.18 69.1298L923.673 87.3866L936.742 73.5033Z" fill="#9068BD"/>
<path d="M930.233 54.3311L911.417 51.2798L918.181 69.1298L930.233 54.3311Z" fill="#9068BD"/>
<path d="M921.74 35.2098L902.67 34.2944L911.417 51.2798L921.74 35.2098Z" fill="#9068BD"/>
<path d="M913.044 18.2243L893.974 17.3089L902.67 34.2944L913.044 18.2243Z" fill="#9068BD"/>
<path d="M903.026 0.526917L883.955 1.03546L893.974 17.3089L903.026 0.526917Z" fill="#9068BD"/>
<path d="M946.608 80.267C949.405 80.267 951.694 77.9785 951.694 75.1815C951.694 72.3845 949.405 70.0961 946.608 70.0961C943.811 70.0961 941.523 72.3845 941.523 75.1815C941.523 77.9785 943.811 80.267 946.608 80.267Z" fill="#9068BD"/>
<path d="M943.048 58.2978C945.857 58.2978 948.134 56.0209 948.134 53.2123C948.134 50.4037 945.857 48.1268 943.048 48.1268C940.24 48.1268 937.963 50.4037 937.963 53.2123C937.963 56.0209 940.24 58.2978 943.048 58.2978Z" fill="#9068BD"/>
<path d="M928.758 46.0927C931.555 46.0927 933.844 43.8042 933.844 41.0072C933.844 38.2102 931.555 35.9218 928.758 35.9218C925.961 35.9218 923.673 38.2102 923.673 41.0072C923.673 43.8042 925.961 46.0927 928.758 46.0927Z" fill="#9068BD"/>
<path d="M930.284 27.1747C933.093 27.1747 935.369 24.8979 935.369 22.0893C935.369 19.2807 933.093 17.0038 930.284 17.0038C927.475 17.0038 925.198 19.2807 925.198 22.0893C925.198 24.8979 927.475 27.1747 930.284 27.1747Z" fill="#9068BD"/>
<path d="M914.977 13.9525C917.774 13.9525 920.062 11.6641 920.062 8.86705C920.062 6.07004 917.774 3.78159 914.977 3.78159C912.18 3.78159 909.891 6.07004 909.891 8.86705C909.891 11.6641 912.18 13.9525 914.977 13.9525Z" fill="#9068BD"/>
<path d="M1143.77 -6.491C1142.3 -4.35511 1108.68 45.3299 1097.49 93.3875C1087.68 90.8956 1062 85.1999 1030.62 84.3862C1039.11 70.4521 1057.57 35.3624 1058.08 -7.25382L1049.89 -7.35553C1049.28 44.2619 1020.09 85.5559 1019.84 86.0136L1015.21 92.4721H1023.14C1064.9 92.4721 1099.07 102.287 1099.43 102.389L1103.65 103.609L1104.51 99.2867C1114.38 51.5341 1150.18 -1.35468 1150.54 -1.86323L1143.77 -6.491Z" fill="#9068BD"/>
<path d="M1053.3 45.8384L1046.59 63.6375L1038.55 80.9281L1057.57 79.2499L1046.64 63.6884L1065.4 60.5862L1053.4 45.9401L1071.81 41.2615L1058.59 27.6324L1076.44 21.2247L1061.95 8.96878L1079.24 1.13717L1063.73 -10L1061.9 8.91792H1061.84L1058.49 27.5816L1053.35 45.8384H1053.3Z" fill="#9068BD"/>
<path d="M1098.46 69.1298L1079.9 73.5033L1092.97 87.3866L1098.46 69.1298Z" fill="#9068BD"/>
<path d="M1086.41 54.3311L1098.46 69.1298L1105.22 51.2798L1086.41 54.3311Z" fill="#9068BD"/>
<path d="M1094.9 35.2098L1105.22 51.2798L1113.97 34.2944L1094.9 35.2098Z" fill="#9068BD"/>
<path d="M1103.6 18.2243L1113.97 34.2944L1122.67 17.3089L1103.6 18.2243Z" fill="#9068BD"/>
<path d="M1113.61 0.526917L1122.67 17.3089L1132.69 1.03546L1113.61 0.526917Z" fill="#9068BD"/>
<path d="M1064.95 75.1307C1064.95 77.9277 1067.24 80.2162 1070.03 80.2162C1072.83 80.2162 1075.12 77.9277 1075.12 75.1307C1075.12 72.3337 1072.83 70.0452 1070.03 70.0452C1067.24 70.0452 1064.95 72.3337 1064.95 75.1307Z" fill="#9068BD"/>
<path d="M1073.59 58.2978C1076.4 58.2978 1078.68 56.0209 1078.68 53.2123C1078.68 50.4037 1076.4 48.1268 1073.59 48.1268C1070.78 48.1268 1068.51 50.4037 1068.51 53.2123C1068.51 56.0209 1070.78 58.2978 1073.59 58.2978Z" fill="#9068BD"/>
<path d="M1082.8 40.9563C1082.8 43.7533 1085.09 46.0418 1087.88 46.0418C1090.68 46.0418 1092.97 43.7533 1092.97 40.9563C1092.97 38.1593 1090.68 35.8709 1087.88 35.8709C1085.09 35.8709 1082.8 38.1593 1082.8 40.9563Z" fill="#9068BD"/>
<path d="M1086.36 27.1747C1089.17 27.1747 1091.44 24.8979 1091.44 22.0893C1091.44 19.2807 1089.17 17.0038 1086.36 17.0038C1083.55 17.0038 1081.27 19.2807 1081.27 22.0893C1081.27 24.8979 1083.55 27.1747 1086.36 27.1747Z" fill="#9068BD"/>
<path d="M1101.66 13.9017C1104.47 13.9017 1106.75 11.6248 1106.75 8.81621C1106.75 6.00758 1104.47 3.73074 1101.66 3.73074C1098.86 3.73074 1096.58 6.00758 1096.58 8.81621C1096.58 11.6248 1098.86 13.9017 1101.66 13.9017Z" fill="#9068BD"/>
<path d="M1007.84 34.1419C1006.16 34.1419 1004.58 34.0401 1003.11 33.8367C1004.53 43.6008 1006.11 60.8405 1002.96 77.8768C1005.65 80.9281 1007.84 82.6572 1007.84 82.6572C1007.84 82.6572 1010.43 80.5721 1013.53 76.9615C1010.63 60.1286 1012.16 43.2448 1013.58 33.735C1011.75 33.9893 1009.87 34.1419 1007.84 34.1419Z" fill="#9068BD"/>
<path d="M980.274 20.4111C978.748 37.7525 995.581 40.8038 995.581 40.8038C995.581 40.8038 995.124 41.5157 994.513 42.7871C990.547 40.6512 981.749 36.2777 980.427 39.4307C978.952 42.9397 986.173 50.873 992.988 46.9572C991.971 50.7713 991.462 56.111 993.496 62.2136C995.124 67.1465 997.768 71.4183 1000.31 74.7238C1002.85 58.2978 1001.18 42.0751 999.853 33.2264C986.834 30.226 980.274 20.4111 980.274 20.4111Z" fill="#9068BD"/>
<path d="M1022.13 62.2136C1024.31 55.6533 1023.55 50.0085 1022.43 46.1435C1029.55 51.7884 1037.74 43.0922 1036.21 39.4307C1034.79 36.0743 1024.77 41.3123 1021.36 43.194C1020.7 41.6683 1020.09 40.8038 1020.09 40.8038C1020.09 40.8038 1036.93 37.7525 1035.4 20.4111C1035.4 20.4111 1029.2 29.7175 1016.79 33.023C1015.47 41.5666 1013.79 57.4841 1016.13 73.7067C1018.36 70.5029 1020.65 66.6379 1022.13 62.2136Z" fill="#9068BD"/>
<path d="M1008.35 27.8867C1017.55 27.8867 1025.03 24.0218 1025.03 19.2414C1025.03 14.4611 1017.55 10.5961 1008.35 10.5961C999.141 10.5961 991.665 14.4611 991.665 19.2414C991.615 24.0218 999.09 27.8867 1008.35 27.8867Z" fill="#9068BD"/>
<path d="M1256.16 -7.35553L1248.02 -7.25382C1248.53 35.3624 1266.99 70.5029 1275.49 84.3862C1244.11 85.1999 1218.38 90.8956 1208.61 93.3875C1197.42 45.3299 1163.81 -4.30425 1162.33 -6.491L1155.57 -1.86323C1155.93 -1.35468 1191.73 51.5341 1201.54 99.2358L1202.41 103.558L1206.68 102.338C1207.03 102.236 1241.21 92.4213 1282.96 92.4213H1290.89L1286.27 85.9627C1285.96 85.5559 1256.77 44.2619 1256.16 -7.35553Z" fill="#9068BD"/>
<path d="M1229.67 21.2247L1247.52 27.6324L1234.29 41.2615L1252.7 45.9401L1240.7 60.5862L1259.47 63.6884L1248.53 79.2499L1267.55 80.9281L1259.52 63.6375L1252.8 45.8384H1252.75L1247.62 27.5816L1244.26 8.91792H1244.21L1242.38 -10L1226.87 1.13717L1244.16 8.96878L1229.67 21.2247Z" fill="#9068BD"/>
<path d="M1226.21 73.5033L1207.59 69.1298L1213.14 87.3866L1226.21 73.5033Z" fill="#9068BD"/>
<path d="M1219.7 54.3311L1200.88 51.2798L1207.59 69.1298L1219.7 54.3311Z" fill="#9068BD"/>
<path d="M1211.2 35.2098L1192.13 34.2944L1200.88 51.2798L1211.2 35.2098Z" fill="#9068BD"/>
<path d="M1202.51 18.2243L1183.44 17.3089L1192.13 34.2944L1202.51 18.2243Z" fill="#9068BD"/>
<path d="M1192.49 0.526917L1173.42 1.03546L1183.44 17.3089L1192.49 0.526917Z" fill="#9068BD"/>
<path d="M1236.07 80.267C1238.87 80.267 1241.16 77.9785 1241.16 75.1815C1241.16 72.3845 1238.87 70.0961 1236.07 70.0961C1233.28 70.0961 1230.99 72.3845 1230.99 75.1815C1230.99 77.9785 1233.28 80.267 1236.07 80.267Z" fill="#9068BD"/>
<path d="M1232.51 58.2978C1235.32 58.2978 1237.6 56.0209 1237.6 53.2123C1237.6 50.4037 1235.32 48.1268 1232.51 48.1268C1229.7 48.1268 1227.43 50.4037 1227.43 53.2123C1227.43 56.0209 1229.7 58.2978 1232.51 58.2978Z" fill="#9068BD"/>
<path d="M1218.22 46.0927C1221.02 46.0927 1223.31 43.8042 1223.31 41.0072C1223.31 38.2102 1221.02 35.9218 1218.22 35.9218C1215.43 35.9218 1213.14 38.2102 1213.14 41.0072C1213.14 43.8042 1215.43 46.0927 1218.22 46.0927Z" fill="#9068BD"/>
<path d="M1219.75 27.1747C1222.56 27.1747 1224.83 24.8979 1224.83 22.0893C1224.83 19.2807 1222.56 17.0038 1219.75 17.0038C1216.94 17.0038 1214.66 19.2807 1214.66 22.0893C1214.66 24.8979 1216.94 27.1747 1219.75 27.1747Z" fill="#9068BD"/>
<path d="M1204.44 13.9017C1207.25 13.9017 1209.53 11.6248 1209.53 8.81621C1209.53 6.00758 1207.25 3.73074 1204.44 3.73074C1201.63 3.73074 1199.36 6.00758 1199.36 8.81621C1199.36 11.6248 1201.63 13.9017 1204.44 13.9017Z" fill="#9068BD"/>
<path d="M1433.24 -6.491C1431.76 -4.35511 1398.15 45.3299 1386.96 93.3875C1377.14 90.8956 1351.46 85.1999 1320.08 84.3862C1328.58 70.4521 1347.04 35.3624 1347.55 -7.25382L1339.36 -7.35553C1338.75 44.2619 1309.56 85.5559 1309.3 86.0136L1304.68 92.4721H1312.61C1354.36 92.4721 1388.54 102.287 1388.89 102.389L1393.11 103.609L1393.98 99.2867C1403.84 51.5341 1439.64 -1.35468 1440 -1.86323L1433.24 -6.491Z" fill="#9068BD"/>
<path d="M1342.77 45.8384L1336.05 63.6375L1328.02 80.9281L1347.04 79.2499L1336.1 63.6884L1354.87 60.5862L1342.82 45.9401L1361.28 41.2615L1348.05 27.6324L1365.9 21.2247L1351.41 8.96878L1368.7 1.13717L1353.19 -10L1351.31 8.91792L1347.95 27.5816L1342.77 45.8384Z" fill="#9068BD"/>
<path d="M1387.92 69.1298L1369.36 73.5033L1382.43 87.3866L1387.92 69.1298Z" fill="#9068BD"/>
<path d="M1375.87 54.3311L1387.92 69.1298L1394.69 51.2798L1375.87 54.3311Z" fill="#9068BD"/>
<path d="M1384.36 35.2098L1394.69 51.2798L1403.38 34.2944L1384.36 35.2098Z" fill="#9068BD"/>
<path d="M1393.06 18.2243L1403.38 34.2944L1412.13 17.3089L1393.06 18.2243Z" fill="#9068BD"/>
<path d="M1403.08 0.526917L1412.13 17.3089L1422.15 1.03546L1403.08 0.526917Z" fill="#9068BD"/>
<path d="M1354.41 75.1307C1354.41 77.9277 1356.7 80.2162 1359.5 80.2162C1362.29 80.2162 1364.58 77.9277 1364.58 75.1307C1364.58 72.3337 1362.29 70.0452 1359.5 70.0452C1356.65 70.0452 1354.41 72.3337 1354.41 75.1307Z" fill="#9068BD"/>
<path d="M1363.06 58.2978C1365.87 58.2978 1368.14 56.0209 1368.14 53.2123C1368.14 50.4037 1365.87 48.1268 1363.06 48.1268C1360.25 48.1268 1357.97 50.4037 1357.97 53.2123C1357.97 56.0209 1360.25 58.2978 1363.06 58.2978Z" fill="#9068BD"/>
<path d="M1378.18 45.9517C1380.95 45.5018 1382.83 42.8896 1382.38 40.1172C1381.93 37.3448 1379.32 35.4621 1376.55 35.912C1373.78 36.3619 1371.89 38.9742 1372.34 41.7465C1372.79 44.5189 1375.41 46.4017 1378.18 45.9517Z" fill="#9068BD"/>
<path d="M1375.82 27.1747C1378.63 27.1747 1380.91 24.8979 1380.91 22.0893C1380.91 19.2807 1378.63 17.0038 1375.82 17.0038C1373.01 17.0038 1370.74 19.2807 1370.74 22.0893C1370.74 24.8979 1373.01 27.1747 1375.82 27.1747Z" fill="#9068BD"/>
<path d="M1391.13 13.9017C1393.94 13.9017 1396.21 11.6248 1396.21 8.81621C1396.21 6.00758 1393.94 3.73074 1391.13 3.73074C1388.32 3.73074 1386.04 6.00758 1386.04 8.81621C1386.04 11.6248 1388.32 13.9017 1391.13 13.9017Z" fill="#9068BD"/>
<path d="M1297.3 34.1419C1295.62 34.1419 1294.05 34.0401 1292.57 33.8367C1294 43.6008 1295.57 60.8405 1292.42 77.8768C1295.11 80.9281 1297.3 82.6572 1297.3 82.6572C1297.3 82.6572 1299.9 80.5721 1303 76.9615C1300.1 60.1286 1301.62 43.2448 1303.05 33.735C1301.22 33.9893 1299.34 34.1419 1297.3 34.1419Z" fill="#9068BD"/>
<path d="M1269.74 20.4111C1268.21 37.7525 1285.05 40.8038 1285.05 40.8038C1285.05 40.8038 1284.59 41.5157 1283.98 42.7871C1280.01 40.6512 1271.21 36.2777 1269.89 39.4307C1268.42 42.9397 1275.64 50.873 1282.45 46.9572C1281.44 50.7713 1280.93 56.111 1282.96 62.2136C1284.59 67.1465 1287.23 71.4183 1289.78 74.7238C1292.32 58.2978 1290.64 42.0751 1289.32 33.2264C1276.3 30.226 1269.74 20.4111 1269.74 20.4111Z" fill="#9068BD"/>
<path d="M1311.59 62.2136C1313.78 55.6533 1313.02 50.0085 1311.9 46.1435C1319.02 51.7884 1327.2 43.0922 1325.68 39.4307C1324.25 36.0743 1314.24 41.3123 1310.83 43.194C1310.17 41.6683 1309.56 40.8038 1309.56 40.8038C1309.56 40.8038 1326.39 37.7525 1324.87 20.4111C1324.87 20.4111 1318.66 29.7175 1306.25 33.023C1304.93 41.5666 1303.25 57.4841 1305.59 73.7067C1307.83 70.5029 1310.12 66.6379 1311.59 62.2136Z" fill="#9068BD"/>
<path d="M1297.76 27.8867C1306.96 27.8867 1314.44 24.0218 1314.44 19.2414C1314.44 14.4611 1306.96 10.5961 1297.76 10.5961C1288.55 10.5961 1281.08 14.4611 1281.08 19.2414C1281.08 24.0218 1288.55 27.8867 1297.76 27.8867Z" fill="#9068BD"/>
<path d="M861.172 83.6234C862.596 83.3691 864.122 83.2674 865.698 83.2674C867.021 83.2674 868.241 83.3691 869.462 83.5217C868.343 75.7918 867.072 62.1119 869.563 48.5845C867.428 46.1435 865.698 44.8213 865.698 44.8213C865.698 44.8213 863.664 46.4486 861.172 49.3473C863.563 62.6713 862.291 76.046 861.172 83.6234Z" fill="#9068BD"/>
<path d="M875.463 78.0294C875.463 78.0294 875.819 77.47 876.327 76.4529C879.48 78.1819 886.447 81.5892 887.515 79.0973C888.685 76.3512 882.938 70.0452 877.548 73.0965C878.361 70.0452 878.768 65.8243 877.141 60.9931C875.819 57.0773 873.734 53.7209 871.699 51.0256C869.665 64.0444 870.987 76.9614 872.055 83.9794C882.43 86.4204 887.617 94.2012 887.617 94.2012C888.837 80.4195 875.463 78.0294 875.463 78.0294Z" fill="#9068BD"/>
<path d="M859.189 51.8901C857.358 54.382 855.578 57.4841 854.409 60.9931C852.68 66.1802 853.239 70.6554 854.155 73.7576C848.51 69.2824 842 76.1477 843.221 79.0973C844.34 81.7926 852.324 77.6225 855.019 76.0969C855.578 77.3174 856.036 78.0294 856.036 78.0294C856.036 78.0294 842.661 80.4704 843.882 94.252C843.882 94.252 848.815 86.8781 858.681 84.2336C859.698 77.3683 861.02 64.7563 859.189 51.8901Z" fill="#9068BD"/>
<path d="M865.343 88.2512C858.019 88.2512 852.12 91.3024 852.12 95.1165C852.12 98.8798 858.07 101.982 865.343 101.982C872.666 101.982 878.616 98.9306 878.616 95.1165C878.616 91.3024 872.666 88.2512 865.343 88.2512Z" fill="#9068BD"/>
<path d="M1149.37 83.6234C1150.79 83.3691 1152.32 83.2674 1153.89 83.2674C1155.21 83.2674 1156.43 83.3691 1157.65 83.5217C1156.54 75.7918 1155.26 62.1119 1157.76 48.5845C1155.62 46.1435 1153.89 44.8213 1153.89 44.8213C1153.89 44.8213 1151.86 46.4486 1149.37 49.3473C1151.71 62.6713 1150.48 76.046 1149.37 83.6234Z" fill="#9068BD"/>
<path d="M1163.61 78.0294C1163.61 78.0294 1163.96 77.47 1164.47 76.4529C1167.62 78.1819 1174.59 81.5892 1175.66 79.0973C1176.83 76.3512 1171.08 70.0452 1165.69 73.0965C1166.5 70.0452 1166.91 65.8243 1165.28 60.9931C1163.96 57.0773 1161.88 53.7209 1159.84 51.0256C1157.81 64.0444 1159.13 76.9614 1160.2 83.9794C1170.57 86.4204 1175.76 94.2012 1175.76 94.2012C1176.98 80.4195 1163.61 78.0294 1163.61 78.0294Z" fill="#9068BD"/>
<path d="M1147.33 51.8901C1145.5 54.382 1143.72 57.4841 1142.55 60.9931C1140.82 66.1802 1141.38 70.6554 1142.3 73.7576C1136.65 69.2824 1130.14 76.1477 1131.36 79.0973C1132.48 81.7926 1140.47 77.6225 1143.16 76.0969C1143.72 77.3174 1144.18 78.0294 1144.18 78.0294C1144.18 78.0294 1130.8 80.4704 1132.02 94.252C1132.02 94.252 1136.96 86.8781 1146.82 84.2336C1147.89 77.3683 1149.21 64.7563 1147.33 51.8901Z" fill="#9068BD"/>
<path d="M1153.54 88.2512C1146.21 88.2512 1140.31 91.3024 1140.31 95.1165C1140.31 98.8798 1146.26 101.982 1153.54 101.982C1160.86 101.982 1166.81 98.9306 1166.81 95.1165C1166.76 91.3024 1160.81 88.2512 1153.54 88.2512Z" fill="#9068BD"/>
</g>
<g style="mix-blend-mode:multiply" opacity="0.16" clip-path="url(#clip1_211_10)">
<path d="M1339.41 717.965L1347.55 717.863C1347.04 675.247 1328.58 640.106 1320.08 626.223C1351.46 625.41 1377.19 619.714 1386.96 617.222C1398.15 665.28 1431.76 714.914 1433.24 717.1L1440 712.473C1439.64 711.964 1403.84 659.075 1394.03 611.374L1393.16 607.051L1388.89 608.272C1388.54 608.373 1354.36 618.188 1312.61 618.188L1304.68 618.188L1309.3 624.647C1309.61 625.054 1338.8 666.347 1339.41 717.965Z" fill="#9068BD"/>
<path d="M1365.9 689.385L1348.05 682.977L1361.28 669.348L1342.87 664.669L1354.87 650.023L1336.1 646.921L1347.04 631.359L1328.02 629.681L1336.05 646.972L1342.77 664.771L1342.82 664.771L1347.95 683.028L1351.31 701.691L1351.36 701.691L1353.19 720.609L1368.7 709.472L1351.41 701.641L1365.9 689.385Z" fill="#9068BD"/>
<path d="M1369.36 637.106L1387.98 641.48L1382.43 623.223L1369.36 637.106Z" fill="#9068BD"/>
<path d="M1375.87 656.278L1394.69 659.33L1387.98 641.48L1375.87 656.278Z" fill="#9068BD"/>
<path d="M1384.37 675.4L1403.44 676.315L1394.69 659.329L1384.37 675.4Z" fill="#9068BD"/>
<path d="M1393.06 692.385L1412.13 693.3L1403.44 676.315L1393.06 692.385Z" fill="#9068BD"/>
<path d="M1403.08 710.083L1422.15 709.574L1412.13 693.3L1403.08 710.083Z" fill="#9068BD"/>
<path d="M1359.5 630.393C1356.69 630.393 1354.41 632.67 1354.41 635.479C1354.41 638.287 1356.69 640.564 1359.5 640.564C1362.31 640.564 1364.58 638.287 1364.58 635.479C1364.58 632.67 1362.31 630.393 1359.5 630.393Z" fill="#9068BD"/>
<path d="M1363.06 652.312C1360.25 652.312 1357.97 654.588 1357.97 657.397C1357.97 660.206 1360.25 662.483 1363.06 662.483C1365.87 662.483 1368.14 660.206 1368.14 657.397C1368.14 654.588 1365.87 652.312 1363.06 652.312Z" fill="#9068BD"/>
<path d="M1373.76 666.055C1371.78 668.041 1371.78 671.261 1373.76 673.247C1375.75 675.233 1378.97 675.233 1380.95 673.247C1382.94 671.261 1382.94 668.041 1380.95 666.055C1378.97 664.069 1375.75 664.069 1373.76 666.055Z" fill="#9068BD"/>
<path d="M1374.65 683.575C1371.92 684.22 1370.23 686.959 1370.87 689.693C1371.52 692.426 1374.26 694.119 1376.99 693.473C1379.72 692.828 1381.42 690.089 1380.77 687.355C1380.13 684.622 1377.39 682.929 1374.65 683.575Z" fill="#9068BD"/>
<path d="M1391.13 696.708C1388.32 696.708 1386.04 698.985 1386.04 701.793C1386.04 704.602 1388.32 706.879 1391.13 706.879C1393.94 706.879 1396.21 704.602 1396.21 701.793C1396.21 698.985 1393.94 696.708 1391.13 696.708Z" fill="#9068BD"/>
<path d="M1162.33 717.1C1163.81 714.965 1197.42 665.28 1208.61 617.222C1218.43 619.714 1244.11 625.41 1275.49 626.223C1266.99 640.157 1248.53 675.247 1248.02 717.863L1256.21 717.965C1256.82 666.348 1286.01 625.054 1286.27 624.596L1290.89 618.137L1282.96 618.137C1241.21 618.137 1207.03 608.322 1206.68 608.221L1202.46 607L1201.59 611.323C1191.73 659.075 1155.93 711.964 1155.57 712.473L1162.33 717.1Z" fill="#9068BD"/>
<path d="M1252.8 664.771L1259.52 646.972L1267.55 629.681L1248.53 631.359L1259.47 646.921L1240.7 650.023L1252.7 664.669L1234.29 669.348L1247.52 682.977L1229.67 689.385L1244.16 701.641L1226.87 709.472L1242.38 720.609L1244.26 701.691L1247.62 683.028L1252.75 664.771L1252.8 664.771Z" fill="#9068BD"/>
<path d="M1207.65 641.48L1226.21 637.106L1213.14 623.223L1207.65 641.48Z" fill="#9068BD"/>
<path d="M1219.7 656.278L1207.65 641.479L1200.88 659.329L1219.7 656.278Z" fill="#9068BD"/>
<path d="M1211.2 675.4L1200.88 659.329L1192.19 676.315L1211.2 675.4Z" fill="#9068BD"/>
<path d="M1202.51 692.385L1192.19 676.315L1183.44 693.3L1202.51 692.385Z" fill="#9068BD"/>
<path d="M1192.49 710.082L1183.44 693.3L1173.42 709.574L1192.49 710.082Z" fill="#9068BD"/>
<path d="M1231.05 634.843C1230.7 637.63 1232.69 640.168 1235.47 640.511C1238.26 640.855 1240.8 638.873 1241.14 636.085C1241.49 633.298 1239.5 630.76 1236.72 630.417C1233.93 630.073 1231.39 632.055 1231.05 634.843Z" fill="#9068BD"/>
<path d="M1232.51 652.312C1229.7 652.312 1227.43 654.588 1227.43 657.397C1227.43 660.206 1229.7 662.483 1232.51 662.483C1235.32 662.483 1237.6 660.206 1237.6 657.397C1237.6 654.588 1235.32 652.312 1232.51 652.312Z" fill="#9068BD"/>
<path d="M1217.07 664.716C1214.33 665.361 1212.64 668.1 1213.29 670.834C1213.93 673.567 1216.67 675.26 1219.4 674.614C1222.14 673.969 1223.83 671.23 1223.18 668.497C1222.54 665.763 1219.8 664.071 1217.07 664.716Z" fill="#9068BD"/>
<path d="M1218.59 683.585C1215.86 684.23 1214.16 686.969 1214.81 689.703C1215.45 692.436 1218.19 694.129 1220.93 693.483C1223.66 692.838 1225.35 690.099 1224.71 687.365C1224.06 684.632 1221.32 682.939 1218.59 683.585Z" fill="#9068BD"/>
<path d="M1204.44 696.708C1201.63 696.708 1199.36 698.985 1199.36 701.793C1199.36 704.602 1201.63 706.879 1204.44 706.879C1207.25 706.879 1209.53 704.602 1209.53 701.793C1209.53 698.985 1207.25 696.708 1204.44 696.708Z" fill="#9068BD"/>
<path d="M1298.27 676.468C1299.95 676.468 1301.52 676.569 1303 676.773C1301.57 667.009 1300 649.769 1303.15 632.733C1300.45 629.681 1298.27 627.952 1298.27 627.952C1298.27 627.952 1295.67 630.037 1292.57 633.648C1295.47 650.481 1293.95 667.365 1292.52 676.874C1294.35 676.62 1296.23 676.468 1298.27 676.468Z" fill="#9068BD"/>
<path d="M1325.83 690.198C1327.36 672.857 1310.52 669.806 1310.52 669.806C1310.52 669.806 1310.98 669.094 1311.59 667.822C1315.56 669.958 1324.36 674.332 1325.68 671.179C1327.15 667.67 1319.93 659.736 1313.12 663.652C1314.13 659.838 1314.64 654.498 1312.61 648.396C1310.98 643.463 1308.34 639.191 1305.79 635.885C1303.25 652.312 1304.93 668.534 1306.25 677.383C1319.27 680.383 1325.83 690.198 1325.83 690.198Z" fill="#9068BD"/>
<path d="M1283.98 648.396C1281.79 654.956 1282.55 660.601 1283.67 664.466C1276.55 658.821 1268.37 667.517 1269.89 671.179C1271.32 674.535 1281.33 669.297 1284.74 667.415C1285.4 668.941 1286.01 669.806 1286.01 669.806C1286.01 669.806 1269.18 672.857 1270.7 690.198C1270.7 690.198 1276.91 680.892 1289.32 677.586C1290.64 669.043 1292.32 653.125 1289.98 636.903C1287.74 640.106 1285.45 643.971 1283.98 648.396Z" fill="#9068BD"/>
<path d="M1297.81 682.723C1288.61 682.723 1281.13 686.588 1281.13 691.368C1281.13 696.148 1288.61 700.013 1297.81 700.013C1307.02 700.013 1314.49 696.148 1314.49 691.368C1314.49 686.588 1307.02 682.723 1297.81 682.723Z" fill="#9068BD"/>
<path d="M1050.61 717.965L1058.74 717.863C1058.23 675.247 1039.77 640.106 1031.28 626.223C1062.66 625.409 1088.39 619.714 1098.16 617.222C1109.34 665.279 1142.96 714.914 1144.43 717.1L1151.2 712.473C1150.84 711.964 1115.04 659.075 1105.22 611.374L1104.36 607.051L1100.09 608.271C1099.73 608.373 1065.56 618.188 1023.81 618.188L1015.87 618.188L1020.5 624.647C1020.81 625.053 1050 666.347 1050.61 717.965Z" fill="#9068BD"/>
<path d="M1077.1 689.385L1059.25 682.977L1072.47 669.348L1054.06 664.669L1066.07 650.023L1047.3 646.921L1058.23 631.359L1039.21 629.681L1047.25 646.972L1053.96 664.771L1054.01 664.771L1059.15 683.028L1062.51 701.691L1062.56 701.691L1064.39 720.609L1079.9 709.472L1062.61 701.641L1077.1 689.385Z" fill="#9068BD"/>
<path d="M1080.56 637.106L1099.17 641.48L1093.63 623.223L1080.56 637.106Z" fill="#9068BD"/>
<path d="M1087.07 656.278L1105.89 659.329L1099.17 641.479L1087.07 656.278Z" fill="#9068BD"/>
<path d="M1095.56 675.4L1114.63 676.315L1105.89 659.329L1095.56 675.4Z" fill="#9068BD"/>
<path d="M1104.26 692.385L1123.33 693.3L1114.63 676.315L1104.26 692.385Z" fill="#9068BD"/>
<path d="M1114.28 710.082L1133.35 709.574L1123.33 693.3L1114.28 710.082Z" fill="#9068BD"/>
<path d="M1070.69 630.342C1067.9 630.342 1065.61 632.631 1065.61 635.428C1065.61 638.225 1067.9 640.513 1070.69 640.513C1073.49 640.513 1075.78 638.225 1075.78 635.428C1075.78 632.631 1073.49 630.342 1070.69 630.342Z" fill="#9068BD"/>
<path d="M1074.25 652.312C1071.44 652.312 1069.17 654.588 1069.17 657.397C1069.17 660.206 1071.44 662.483 1074.25 662.483C1077.06 662.483 1079.34 660.206 1079.34 657.397C1079.34 654.588 1077.06 652.312 1074.25 652.312Z" fill="#9068BD"/>
<path d="M1088.54 664.568C1085.73 664.568 1083.46 666.844 1083.46 669.653C1083.46 672.462 1085.73 674.739 1088.54 674.739C1091.35 674.739 1093.63 672.462 1093.63 669.653C1093.63 666.844 1091.35 664.568 1088.54 664.568Z" fill="#9068BD"/>
<path d="M1087.02 683.435C1084.22 683.435 1081.93 685.723 1081.93 688.52C1081.93 691.317 1084.22 693.606 1087.02 693.606C1089.81 693.606 1092.1 691.317 1092.1 688.52C1092.1 685.723 1089.81 683.435 1087.02 683.435Z" fill="#9068BD"/>
<path d="M1102.33 696.708C1099.52 696.708 1097.24 698.984 1097.24 701.793C1097.24 704.602 1099.52 706.879 1102.33 706.879C1105.13 706.879 1107.41 704.602 1107.41 701.793C1107.41 698.984 1105.13 696.708 1102.33 696.708Z" fill="#9068BD"/>
<path d="M873.53 717.1C875.005 714.964 908.62 665.279 919.808 617.222C929.623 619.714 955.304 625.409 986.682 626.223C978.189 640.157 959.729 675.247 959.22 717.863L967.408 717.965C968.018 666.347 997.209 625.053 997.463 624.596L1002.09 618.137L994.157 618.137C952.406 618.137 918.231 608.322 917.875 608.221L913.654 607L912.79 611.323C902.924 659.075 867.123 711.964 866.767 712.473L873.53 717.1Z" fill="#9068BD"/>
<path d="M964.001 664.771L970.713 646.972L978.748 629.681L959.729 631.359L970.663 646.921L951.897 650.023L963.899 664.669L945.489 669.348L958.712 682.977L940.862 689.385L955.355 701.641L938.065 709.472L953.575 720.609L955.457 701.691L958.813 683.028L964.001 664.771Z" fill="#9068BD"/>
<path d="M918.842 641.479L937.404 637.106L924.334 623.223L918.842 641.479Z" fill="#9068BD"/>
<path d="M930.894 656.278L918.842 641.479L912.078 659.329L930.894 656.278Z" fill="#9068BD"/>
<path d="M922.401 675.4L912.078 659.329L903.382 676.315L922.401 675.4Z" fill="#9068BD"/>
<path d="M913.705 692.385L903.382 676.315L894.635 693.3L913.705 692.385Z" fill="#9068BD"/>
<path d="M903.687 710.082L894.635 693.3L884.617 709.574L903.687 710.082Z" fill="#9068BD"/>
<path d="M952.355 635.479C952.355 632.682 950.066 630.393 947.269 630.393C944.472 630.393 942.184 632.682 942.184 635.479C942.184 638.276 944.472 640.564 947.269 640.564C950.117 640.564 952.355 638.276 952.355 635.479Z" fill="#9068BD"/>
<path d="M943.71 652.312C940.901 652.312 938.624 654.588 938.624 657.397C938.624 660.206 940.901 662.483 943.71 662.483C946.518 662.483 948.795 660.206 948.795 657.397C948.795 654.588 946.518 652.312 943.71 652.312Z" fill="#9068BD"/>
<path d="M928.599 664.642C925.827 665.092 923.944 667.704 924.394 670.476C924.844 673.249 927.456 675.131 930.229 674.682C933.001 674.232 934.884 671.619 934.434 668.847C933.984 666.075 931.372 664.192 928.599 664.642Z" fill="#9068BD"/>
<path d="M930.945 683.435C928.136 683.435 925.86 685.711 925.86 688.52C925.86 691.329 928.136 693.605 930.945 693.605C933.754 693.605 936.031 691.329 936.031 688.52C936.031 685.711 933.754 683.435 930.945 683.435Z" fill="#9068BD"/>
<path d="M915.638 696.708C912.829 696.708 910.552 698.984 910.552 701.793C910.552 704.602 912.829 706.879 915.638 706.879C918.446 706.879 920.723 704.602 920.723 701.793C920.723 698.984 918.446 696.708 915.638 696.708Z" fill="#9068BD"/>
<path d="M1009.46 676.468C1011.14 676.468 1012.72 676.569 1014.19 676.773C1012.77 667.009 1011.19 649.769 1014.35 632.733C1011.65 629.681 1009.46 627.952 1009.46 627.952C1009.46 627.952 1006.87 630.037 1003.77 633.648C1006.67 650.481 1005.14 667.365 1003.72 676.874C1005.55 676.62 1007.43 676.468 1009.46 676.468Z" fill="#9068BD"/>
<path d="M1037.03 690.198C1038.55 672.857 1021.72 669.806 1021.72 669.806C1021.72 669.806 1022.18 669.094 1022.79 667.822C1026.76 669.958 1035.55 674.332 1036.88 671.179C1038.35 667.67 1031.13 659.736 1024.31 663.652C1025.33 659.838 1025.84 654.498 1023.81 648.396C1022.18 643.463 1019.53 639.191 1016.99 635.885C1014.45 652.312 1016.13 668.534 1017.45 677.383C1030.47 680.383 1037.03 690.198 1037.03 690.198Z" fill="#9068BD"/>
<path d="M995.174 648.396C992.988 654.956 993.751 660.601 994.869 664.466C987.75 658.821 979.562 667.517 981.088 671.179C982.512 674.535 992.53 669.297 995.937 667.415C996.598 668.941 997.209 669.806 997.209 669.806C997.209 669.806 980.376 672.857 981.901 690.198C981.901 690.198 988.106 680.892 1000.51 677.586C1001.84 669.043 1003.51 653.125 1001.18 636.903C998.938 640.106 996.649 643.971 995.174 648.396Z" fill="#9068BD"/>
<path d="M1009.01 682.723C999.802 682.723 992.327 686.588 992.327 691.368C992.327 696.148 999.802 700.013 1009.01 700.013C1018.21 700.013 1025.69 696.148 1025.69 691.368C1025.69 686.588 1018.21 682.723 1009.01 682.723Z" fill="#9068BD"/>
<path d="M1156.13 626.986C1154.71 627.24 1153.18 627.342 1151.6 627.342C1150.28 627.342 1149.06 627.24 1147.84 627.088C1148.96 634.818 1150.23 648.498 1147.74 662.025C1149.87 664.466 1151.6 665.788 1151.6 665.788C1151.6 665.788 1153.64 664.161 1156.13 661.262C1153.79 647.938 1155.01 634.563 1156.13 626.986Z" fill="#9068BD"/>
<path d="M1141.84 632.58C1141.84 632.58 1141.48 633.139 1140.97 634.156C1137.82 632.427 1130.85 629.02 1129.79 631.512C1128.62 634.258 1134.36 640.564 1139.75 637.513C1138.94 640.564 1138.53 644.785 1140.16 649.616C1141.48 653.532 1143.57 656.888 1145.6 659.584C1147.64 646.565 1146.31 633.648 1145.25 626.63C1134.87 624.189 1129.68 616.408 1129.68 616.408C1128.52 630.19 1141.84 632.58 1141.84 632.58Z" fill="#9068BD"/>
<path d="M1158.11 658.719C1159.94 656.227 1161.72 653.125 1162.89 649.616C1164.62 644.429 1164.06 639.954 1163.15 636.852C1168.79 641.327 1175.3 634.462 1174.08 631.512C1172.96 628.817 1164.98 632.987 1162.28 634.512C1161.72 633.292 1161.27 632.58 1161.27 632.58C1161.27 632.58 1174.64 630.139 1173.42 616.357C1173.42 616.357 1168.49 623.731 1158.62 626.376C1157.6 633.241 1156.28 645.853 1158.11 658.719Z" fill="#9068BD"/>
<path d="M1151.96 622.358C1159.28 622.358 1165.18 619.307 1165.18 615.493C1165.18 611.73 1159.23 608.627 1151.96 608.627C1144.64 608.627 1138.69 611.679 1138.69 615.493C1138.69 619.307 1144.64 622.358 1151.96 622.358Z" fill="#9068BD"/>
<path d="M762.209 717.965L770.346 717.863C769.838 675.247 751.377 640.106 742.885 626.223C774.262 625.409 799.994 619.714 809.758 617.222C820.946 665.279 854.561 714.914 856.036 717.1L862.8 712.473C862.444 711.964 826.642 659.075 816.827 611.374L815.963 607.051L811.691 608.271C811.335 608.373 777.161 618.188 735.409 618.188L727.476 618.188L732.103 624.647C732.409 625.053 761.599 666.347 762.209 717.965Z" fill="#9068BD"/>
<path d="M788.705 689.385L770.855 682.977L784.077 669.348L765.667 664.669L777.669 650.023L758.904 646.921L769.838 631.359L750.818 629.681L758.853 646.972L765.566 664.771L765.617 664.771L770.753 683.028L774.109 701.691L774.16 701.691L775.991 720.609L791.502 709.472L774.211 701.641L788.705 689.385Z" fill="#9068BD"/>
<path d="M792.163 637.106L810.776 641.479L805.232 623.223L792.163 637.106Z" fill="#9068BD"/>
<path d="M798.672 656.278L817.488 659.329L810.776 641.479L798.672 656.278Z" fill="#9068BD"/>
<path d="M807.165 675.4L826.235 676.315L817.488 659.329L807.165 675.4Z" fill="#9068BD"/>
<path d="M815.861 692.385L834.931 693.3L826.235 676.315L815.861 692.385Z" fill="#9068BD"/>
<path d="M825.879 710.082L844.95 709.574L834.931 693.3L825.879 710.082Z" fill="#9068BD"/>
<path d="M782.297 630.342C779.5 630.342 777.211 632.631 777.211 635.428C777.211 638.225 779.5 640.513 782.297 640.513C785.094 640.513 787.382 638.225 787.382 635.428C787.382 632.631 785.094 630.342 782.297 630.342Z" fill="#9068BD"/>
<path d="M785.857 652.312C783.048 652.312 780.771 654.588 780.771 657.397C780.771 660.206 783.048 662.483 785.857 662.483C788.665 662.483 790.942 660.206 790.942 657.397C790.942 654.588 788.665 652.312 785.857 652.312Z" fill="#9068BD"/>
<path d="M800.147 664.567C797.338 664.567 795.061 666.844 795.061 669.653C795.061 672.462 797.338 674.738 800.147 674.738C802.956 674.738 805.232 672.462 805.232 669.653C805.232 666.844 802.956 664.567 800.147 664.567Z" fill="#9068BD"/>
<path d="M798.621 683.435C795.813 683.435 793.536 685.711 793.536 688.52C793.536 691.329 795.813 693.605 798.621 693.605C801.43 693.605 803.707 691.329 803.707 688.52C803.707 685.711 801.43 683.435 798.621 683.435Z" fill="#9068BD"/>
<path d="M813.929 696.657C811.132 696.657 808.843 698.945 808.843 701.742C808.843 704.539 811.132 706.828 813.929 706.828C816.726 706.828 819.014 704.539 819.014 701.742C819.014 698.945 816.726 696.657 813.929 696.657Z" fill="#9068BD"/>
<path d="M585.134 717.1C586.608 714.964 620.223 665.279 631.411 617.222C641.226 619.714 666.908 625.409 698.285 626.223C689.792 640.157 671.332 675.247 670.824 717.863L679.011 717.965C679.621 666.347 708.812 625.053 709.066 624.596L713.694 618.137L705.761 618.137C664.009 618.137 629.835 608.322 629.479 608.221L625.258 607L624.393 611.323C614.528 659.075 578.726 711.964 578.37 712.473L585.134 717.1Z" fill="#9068BD"/>
<path d="M675.604 664.771L682.317 646.972L690.352 629.681L671.332 631.359L682.266 646.921L663.5 650.023L675.502 664.669L657.093 669.348L670.315 682.977L652.465 689.385L666.959 701.64L649.668 709.472L665.179 720.609L667.06 701.691L670.417 683.028L675.604 664.771Z" fill="#9068BD"/>
<path d="M630.445 641.479L649.007 637.106L635.937 623.223L630.445 641.479Z" fill="#9068BD"/>
<path d="M642.498 656.278L630.445 641.479L623.681 659.329L642.498 656.278Z" fill="#9068BD"/>
<path d="M634.005 675.4L623.681 659.329L614.985 676.315L634.005 675.4Z" fill="#9068BD"/>
<path d="M625.309 692.385L614.985 676.315L606.238 693.3L625.309 692.385Z" fill="#9068BD"/>
<path d="M615.29 710.082L606.238 693.3L596.22 709.574L615.29 710.082Z" fill="#9068BD"/>
<path d="M663.958 635.479C663.958 632.682 661.67 630.393 658.873 630.393C656.076 630.393 653.787 632.682 653.787 635.479C653.787 638.276 656.076 640.564 658.873 640.564C661.67 640.564 663.958 638.276 663.958 635.479Z" fill="#9068BD"/>
<path d="M650.228 657.397C650.228 660.194 652.516 662.482 655.313 662.482C658.11 662.482 660.398 660.194 660.398 657.397C660.398 654.6 658.11 652.311 655.313 652.311C652.516 652.311 650.228 654.6 650.228 657.397Z" fill="#9068BD"/>
<path d="M640.199 664.647C637.427 665.097 635.544 667.709 635.994 670.481C636.444 673.254 639.056 675.136 641.829 674.686C644.601 674.236 646.484 671.624 646.034 668.852C645.584 666.079 642.972 664.197 640.199 664.647Z" fill="#9068BD"/>
<path d="M642.548 683.435C639.74 683.435 637.463 685.711 637.463 688.52C637.463 691.329 639.74 693.605 642.548 693.605C645.357 693.605 647.634 691.329 647.634 688.52C647.634 685.711 645.357 683.435 642.548 683.435Z" fill="#9068BD"/>
<path d="M627.241 696.708C624.433 696.708 622.156 698.984 622.156 701.793C622.156 704.602 624.433 706.879 627.241 706.879C630.05 706.879 632.327 704.602 632.327 701.793C632.327 698.984 630.05 696.708 627.241 696.708Z" fill="#9068BD"/>
<path d="M721.068 676.467C722.746 676.467 724.323 676.569 725.797 676.773C724.373 667.008 722.797 649.769 725.95 632.732C723.255 629.681 721.068 627.952 721.068 627.952C721.068 627.952 718.474 630.037 715.372 633.648C718.271 650.481 716.745 667.364 715.321 676.874C717.152 676.62 719.034 676.467 721.068 676.467Z" fill="#9068BD"/>
<path d="M748.631 690.198C750.157 672.857 733.324 669.806 733.324 669.806C733.324 669.806 733.782 669.094 734.392 667.822C738.359 669.958 747.156 674.332 748.479 671.179C749.953 667.67 742.732 659.736 735.918 663.652C736.935 659.838 737.443 654.498 735.409 648.396C733.782 643.463 731.137 639.191 728.594 635.885C726.052 652.312 727.73 668.534 729.052 677.383C742.071 680.383 748.631 690.198 748.631 690.198Z" fill="#9068BD"/>
<path d="M706.778 648.396C704.591 654.956 705.354 660.601 706.473 664.466C699.353 658.821 691.166 667.517 692.691 671.179C694.115 674.535 704.133 669.297 707.541 667.415C708.202 668.941 708.812 669.806 708.812 669.806C708.812 669.806 691.979 672.857 693.505 690.198C693.505 690.198 699.709 680.892 712.118 677.586C713.44 669.043 715.118 653.125 712.779 636.903C710.541 640.106 708.253 643.971 706.778 648.396Z" fill="#9068BD"/>
<path d="M720.61 682.723C711.406 682.723 703.93 686.588 703.93 691.368C703.93 696.148 711.406 700.013 720.61 700.013C729.815 700.013 737.291 696.148 737.291 691.368C737.291 686.588 729.815 682.723 720.61 682.723Z" fill="#9068BD"/>
<path d="M867.733 626.986C866.309 627.24 864.783 627.342 863.207 627.342C861.885 627.342 860.664 627.24 859.443 627.088C860.562 634.817 861.834 648.497 859.342 662.025C861.478 664.466 863.207 665.788 863.207 665.788C863.207 665.788 865.241 664.161 867.733 661.262C865.393 647.938 866.614 634.563 867.733 626.986Z" fill="#9068BD"/>
<path d="M853.443 632.58C853.443 632.58 853.087 633.139 852.578 634.156C849.425 632.427 842.458 629.02 841.39 631.512C840.22 634.258 845.967 640.564 851.358 637.513C850.544 640.564 850.137 644.785 851.764 649.616C853.087 653.532 855.172 656.888 857.206 659.584C859.24 646.565 857.918 633.648 856.85 626.63C846.476 624.189 841.288 616.408 841.288 616.408C840.119 630.19 853.443 632.58 853.443 632.58Z" fill="#9068BD"/>
<path d="M869.716 658.719C871.547 656.227 873.327 653.125 874.496 649.616C876.225 644.429 875.666 639.954 874.751 636.852C880.396 641.327 886.905 634.462 885.684 631.512C884.566 628.817 876.581 632.987 873.886 634.512C873.327 633.292 872.869 632.58 872.869 632.58C872.869 632.58 886.244 630.139 885.023 616.357C885.023 616.357 880.09 623.731 870.225 626.376C869.208 633.241 867.885 645.853 869.716 658.719Z" fill="#9068BD"/>
<path d="M863.563 622.358C870.886 622.358 876.785 619.307 876.785 615.493C876.785 611.73 870.835 608.627 863.563 608.627C856.24 608.627 850.29 611.679 850.29 615.493C850.29 619.307 856.24 622.358 863.563 622.358Z" fill="#9068BD"/>
<path d="M473.304 717.965L481.441 717.863C480.932 675.247 462.472 640.106 453.979 626.223C485.357 625.409 511.089 619.714 520.853 617.222C532.041 665.279 565.656 714.914 567.131 717.1L573.895 712.473C573.539 711.964 537.737 659.075 527.922 611.374L527.058 607.051L522.786 608.271C522.43 608.373 488.255 618.188 446.504 618.188L438.57 618.188L443.198 624.647C443.503 625.053 472.694 666.347 473.304 717.965Z" fill="#9068BD"/>
<path d="M499.799 689.385L481.949 682.977L495.172 669.348L476.762 664.669L488.764 650.023L469.999 646.921L480.932 631.359L461.913 629.681L469.948 646.972L476.661 664.771L481.848 683.028L485.204 701.691L485.255 701.691L487.086 720.609L502.596 709.472L485.306 701.64L499.799 689.385Z" fill="#9068BD"/>
<path d="M503.258 637.106L521.82 641.479L516.327 623.223L503.258 637.106Z" fill="#9068BD"/>
<path d="M509.767 656.278L528.583 659.329L521.819 641.479L509.767 656.278Z" fill="#9068BD"/>
<path d="M518.26 675.4L537.33 676.315L528.583 659.329L518.26 675.4Z" fill="#9068BD"/>
<path d="M526.956 692.385L546.026 693.3L537.33 676.315L526.956 692.385Z" fill="#9068BD"/>
<path d="M536.974 710.082L556.045 709.574L546.026 693.3L536.974 710.082Z" fill="#9068BD"/>
<path d="M493.392 630.342C490.595 630.342 488.306 632.631 488.306 635.428C488.306 638.225 490.595 640.513 493.392 640.513C496.189 640.513 498.477 638.225 498.477 635.428C498.477 632.631 496.189 630.342 493.392 630.342Z" fill="#9068BD"/>
<path d="M496.952 652.311C494.143 652.311 491.866 654.588 491.866 657.397C491.866 660.206 494.143 662.482 496.952 662.482C499.76 662.482 502.037 660.206 502.037 657.397C502.037 654.588 499.76 652.311 496.952 652.311Z" fill="#9068BD"/>
<path d="M511.242 664.517C508.445 664.517 506.156 666.805 506.156 669.602C506.156 672.399 508.445 674.687 511.242 674.687C514.039 674.687 516.327 672.399 516.327 669.602C516.327 666.805 514.039 664.517 511.242 664.517Z" fill="#9068BD"/>
<path d="M509.716 683.435C506.907 683.435 504.631 685.711 504.631 688.52C504.631 691.329 506.907 693.605 509.716 693.605C512.525 693.605 514.802 691.329 514.802 688.52C514.802 685.711 512.525 683.435 509.716 683.435Z" fill="#9068BD"/>
<path d="M525.023 696.657C522.226 696.657 519.938 698.945 519.938 701.742C519.938 704.539 522.226 706.828 525.023 706.828C527.82 706.828 530.109 704.539 530.109 701.742C530.109 698.945 527.82 696.657 525.023 696.657Z" fill="#9068BD"/>
<path d="M296.228 717.1C297.703 714.964 331.318 665.279 342.506 617.222C352.321 619.714 378.003 625.409 409.38 626.223C400.887 640.157 382.427 675.247 381.918 717.863L390.106 717.965C390.716 666.347 419.907 625.053 420.161 624.596L424.789 618.137L416.856 618.137C375.104 618.137 340.93 608.322 340.574 608.221L336.353 607L335.488 611.323C325.622 659.075 289.821 711.964 289.465 712.473L296.228 717.1Z" fill="#9068BD"/>
<path d="M386.699 664.771L393.412 646.972L401.447 629.681L382.427 631.359L393.361 646.921L374.595 650.023L386.597 664.669L368.188 669.348L381.41 682.977L363.56 689.385L378.054 701.64L360.763 709.472L376.274 720.609L378.104 701.691L378.155 701.691L381.512 683.028L386.648 664.771L386.699 664.771Z" fill="#9068BD"/>
<path d="M341.54 641.479L360.102 637.106L347.032 623.223L341.54 641.479Z" fill="#9068BD"/>
<path d="M353.592 656.278L341.54 641.479L334.776 659.329L353.592 656.278Z" fill="#9068BD"/>
<path d="M345.1 675.4L334.776 659.329L326.029 676.315L345.1 675.4Z" fill="#9068BD"/>
<path d="M336.403 692.385L326.029 676.315L317.333 693.3L336.403 692.385Z" fill="#9068BD"/>
<path d="M326.385 710.082L317.333 693.3L307.315 709.574L326.385 710.082Z" fill="#9068BD"/>
<path d="M375.053 635.479C375.053 632.682 372.765 630.393 369.968 630.393C367.171 630.393 364.882 632.682 364.882 635.479C364.882 638.276 367.171 640.564 369.968 640.564C372.765 640.564 375.053 638.276 375.053 635.479Z" fill="#9068BD"/>
<path d="M366.408 652.311C363.599 652.311 361.322 654.588 361.322 657.397C361.322 660.206 363.599 662.482 366.408 662.482C369.216 662.482 371.493 660.206 371.493 657.397C371.493 654.588 369.216 652.311 366.408 652.311Z" fill="#9068BD"/>
<path d="M357.203 669.653C357.203 666.856 354.915 664.567 352.118 664.567C349.321 664.567 347.032 666.856 347.032 669.653C347.032 672.45 349.321 674.738 352.118 674.738C354.915 674.738 357.203 672.45 357.203 669.653Z" fill="#9068BD"/>
<path d="M353.643 683.435C350.835 683.435 348.558 685.711 348.558 688.52C348.558 691.329 350.835 693.605 353.643 693.605C356.452 693.605 358.729 691.329 358.729 688.52C358.729 685.711 356.452 683.435 353.643 683.435Z" fill="#9068BD"/>
<path d="M338.336 696.708C335.527 696.708 333.25 698.984 333.25 701.793C333.25 704.602 335.527 706.879 338.336 706.879C341.145 706.879 343.421 704.602 343.421 701.793C343.421 698.984 341.145 696.708 338.336 696.708Z" fill="#9068BD"/>
<path d="M432.163 676.467C433.841 676.467 435.417 676.569 436.892 676.773C435.468 667.008 433.892 649.769 437.045 632.732C434.35 629.681 432.163 627.952 432.163 627.952C432.163 627.952 429.569 630.037 426.467 633.648C429.366 650.481 427.84 667.364 426.416 676.874C428.247 676.62 430.129 676.467 432.163 676.467Z" fill="#9068BD"/>
<path d="M459.726 690.198C461.252 672.857 444.419 669.806 444.419 669.806C444.419 669.806 444.876 669.094 445.487 667.822C449.453 669.958 458.251 674.332 459.573 671.179C461.048 667.67 453.827 659.736 447.012 663.652C448.029 659.838 448.538 654.498 446.504 648.396C444.876 643.463 442.232 639.191 439.689 635.885C437.146 652.312 438.825 668.534 440.147 677.383C453.166 680.383 459.726 690.198 459.726 690.198Z" fill="#9068BD"/>
<path d="M417.873 648.396C415.686 654.956 416.449 660.601 417.567 664.466C410.448 658.821 402.26 667.517 403.786 671.179C405.21 674.535 415.228 669.297 418.635 667.415C419.297 668.941 419.907 669.806 419.907 669.806C419.907 669.806 403.074 672.857 404.6 690.198C404.6 690.198 410.804 680.892 423.212 677.586C424.535 669.043 426.213 653.125 423.873 636.903C421.636 640.106 419.347 643.971 417.873 648.396Z" fill="#9068BD"/>
<path d="M431.654 682.723C422.449 682.723 414.974 686.588 414.974 691.368C414.974 696.148 422.449 700.013 431.654 700.013C440.859 700.013 448.335 696.148 448.335 691.368C448.385 686.588 440.91 682.723 431.654 682.723Z" fill="#9068BD"/>
<path d="M183.84 717.965L191.976 717.863C191.468 675.247 173.008 640.106 164.515 626.223C195.892 625.409 221.625 619.714 231.389 617.222C242.577 665.279 276.192 714.914 277.666 717.1L284.43 712.473C284.074 711.964 248.272 659.075 238.458 611.374L237.593 607.051L233.321 608.271C232.965 608.373 198.791 618.188 157.039 618.188L149.106 618.188L153.734 624.647C154.039 625.053 183.229 666.347 183.84 717.965Z" fill="#9068BD"/>
<path d="M210.335 689.385L192.485 682.977L205.707 669.348L187.298 664.669L199.299 650.023L180.534 646.921L191.468 631.359L172.448 629.681L180.483 646.972L187.196 664.771L187.247 664.771L192.383 683.028L195.74 701.691L195.79 701.691L197.621 720.609L213.132 709.472L195.841 701.64L210.335 689.385Z" fill="#9068BD"/>
<path d="M213.793 637.106L232.406 641.479L226.863 623.223L213.793 637.106Z" fill="#9068BD"/>
<path d="M220.302 656.278L239.119 659.329L232.406 641.479L220.302 656.278Z" fill="#9068BD"/>
<path d="M228.795 675.4L247.866 676.315L239.119 659.329L228.795 675.4Z" fill="#9068BD"/>
<path d="M237.491 692.385L256.562 693.3L247.866 676.315L237.491 692.385Z" fill="#9068BD"/>
<path d="M247.51 710.082L266.58 709.574L256.562 693.3L247.51 710.082Z" fill="#9068BD"/>
<path d="M203.927 630.342C201.13 630.342 198.842 632.631 198.842 635.428C198.842 638.225 201.13 640.513 203.927 640.513C206.724 640.513 209.013 638.225 209.013 635.428C209.013 632.631 206.724 630.342 203.927 630.342Z" fill="#9068BD"/>
<path d="M207.487 652.311C204.678 652.311 202.401 654.588 202.401 657.397C202.401 660.206 204.678 662.482 207.487 662.482C210.296 662.482 212.572 660.206 212.572 657.397C212.572 654.588 210.296 652.311 207.487 652.311Z" fill="#9068BD"/>
<path d="M221.777 664.517C218.98 664.517 216.692 666.805 216.692 669.602C216.692 672.399 218.98 674.687 221.777 674.687C224.574 674.687 226.863 672.399 226.863 669.602C226.863 666.805 224.574 664.517 221.777 664.517Z" fill="#9068BD"/>
<path d="M220.251 683.435C217.443 683.435 215.166 685.711 215.166 688.52C215.166 691.329 217.443 693.605 220.251 693.605C223.06 693.605 225.337 691.329 225.337 688.52C225.337 685.711 223.06 683.435 220.251 683.435Z" fill="#9068BD"/>
<path d="M235.559 696.708C232.75 696.708 230.473 698.984 230.473 701.793C230.473 704.602 232.75 706.879 235.559 706.879C238.367 706.879 240.644 704.602 240.644 701.793C240.644 698.984 238.367 696.708 235.559 696.708Z" fill="#9068BD"/>
<path d="M6.76367 717.1C8.23846 714.964 41.8534 665.279 53.0414 617.222C62.8563 619.714 88.5379 625.409 119.915 626.223C111.423 640.157 92.9623 675.247 92.4537 717.863L100.641 717.965C101.252 666.347 130.442 625.053 130.696 624.596L135.324 618.137L127.391 618.137C85.6392 618.137 51.4649 608.322 51.1089 608.221L46.8881 607L46.0234 611.323C36.1576 659.075 0.355973 711.964 -1.47786e-05 712.473L6.76367 717.1Z" fill="#9068BD"/>
<path d="M97.2342 664.771L103.947 646.972L111.982 629.681L92.9624 631.359L103.896 646.921L85.1308 650.023L97.1833 664.669L78.7231 669.348L91.9453 682.977L74.0954 689.385L88.5889 701.64L71.2983 709.472L86.809 720.609L88.6906 701.691L92.0469 683.028L97.2342 664.771Z" fill="#9068BD"/>
<path d="M52.0751 641.479L70.6371 637.106L57.5675 623.223L52.0751 641.479Z" fill="#9068BD"/>
<path d="M64.1277 656.278L52.0752 641.479L45.3115 659.329L64.1277 656.278Z" fill="#9068BD"/>
<path d="M55.635 675.399L45.3115 659.329L36.6153 676.315L55.635 675.399Z" fill="#9068BD"/>
<path d="M46.939 692.385L36.6154 676.315L27.8685 693.3L46.939 692.385Z" fill="#9068BD"/>
<path d="M36.9205 710.082L27.8684 693.3L17.85 709.574L36.9205 710.082Z" fill="#9068BD"/>
<path d="M85.5884 635.479C85.5884 632.682 83.2999 630.393 80.5029 630.393C77.7059 630.393 75.4175 632.682 75.4175 635.479C75.4175 638.276 77.7059 640.564 80.5029 640.564C83.3508 640.564 85.5884 638.276 85.5884 635.479Z" fill="#9068BD"/>
<path d="M76.9431 652.311C74.1345 652.311 71.8576 654.588 71.8576 657.397C71.8576 660.206 74.1345 662.482 76.9431 662.482C79.7517 662.482 82.0286 660.206 82.0286 657.397C82.0286 654.588 79.7517 652.311 76.9431 652.311Z" fill="#9068BD"/>
<path d="M61.8222 664.658C59.0498 665.107 57.1671 667.72 57.617 670.492C58.067 673.264 60.6792 675.147 63.4516 674.697C66.224 674.247 68.1067 671.635 67.6567 668.863C67.2068 666.09 64.5946 664.208 61.8222 664.658Z" fill="#9068BD"/>
<path d="M64.1787 683.435C61.3701 683.435 59.0932 685.711 59.0932 688.52C59.0932 691.329 61.3701 693.605 64.1787 693.605C66.9873 693.605 69.2642 691.329 69.2642 688.52C69.2642 685.711 66.9873 683.435 64.1787 683.435Z" fill="#9068BD"/>
<path d="M48.8713 696.708C46.0627 696.708 43.7859 698.984 43.7859 701.793C43.7859 704.602 46.0627 706.879 48.8713 706.879C51.6799 706.879 53.9568 704.602 53.9568 701.793C53.9568 698.984 51.6799 696.708 48.8713 696.708Z" fill="#9068BD"/>
<path d="M142.698 676.467C144.376 676.467 145.953 676.569 147.428 676.773C146.004 667.008 144.427 649.769 147.58 632.732C144.885 629.681 142.698 627.952 142.698 627.952C142.698 627.952 140.105 630.037 137.003 633.648C139.901 650.481 138.376 667.364 136.952 676.874C138.782 676.62 140.664 676.467 142.698 676.467Z" fill="#9068BD"/>
<path d="M170.261 690.198C171.787 672.857 154.954 669.806 154.954 669.806C154.954 669.806 155.412 669.094 156.022 667.822C159.989 669.958 168.787 674.332 170.109 671.179C171.584 667.67 164.362 659.736 157.548 663.652C158.565 659.838 159.073 654.498 157.039 648.396C155.412 643.463 152.767 639.191 150.225 635.885C147.682 652.312 149.36 668.534 150.682 677.383C163.701 680.383 170.261 690.198 170.261 690.198Z" fill="#9068BD"/>
<path d="M128.408 648.396C126.221 654.956 126.984 660.601 128.103 664.466C120.983 658.821 112.796 667.517 114.321 671.179C115.745 674.535 125.764 669.297 129.171 667.415C129.832 668.941 130.442 669.806 130.442 669.806C130.442 669.806 113.609 672.857 115.135 690.198C115.135 690.198 121.339 680.892 133.748 677.586C135.07 669.043 136.748 653.125 134.409 636.903C132.171 640.106 129.883 643.971 128.408 648.396Z" fill="#9068BD"/>
<path d="M142.241 682.722C133.036 682.722 125.56 686.587 125.56 691.368C125.56 696.148 133.036 700.013 142.241 700.013C151.445 700.013 158.921 696.148 158.921 691.368C158.921 686.587 151.445 682.722 142.241 682.722Z" fill="#9068BD"/>
<path d="M578.828 626.986C577.404 627.24 575.878 627.342 574.302 627.342C572.979 627.342 571.759 627.24 570.538 627.088C571.657 634.817 572.928 648.497 570.437 662.025C572.572 664.466 574.302 665.788 574.302 665.788C574.302 665.788 576.336 664.161 578.828 661.262C576.437 647.938 577.709 634.563 578.828 626.986Z" fill="#9068BD"/>
<path d="M564.537 632.58C564.537 632.58 564.181 633.139 563.673 634.156C560.52 632.427 553.553 629.02 552.485 631.512C551.315 634.258 557.062 640.564 562.452 637.513C561.639 640.564 561.232 644.785 562.859 649.616C564.181 653.532 566.266 656.888 568.301 659.584C570.335 646.565 569.013 633.648 567.945 626.63C557.57 624.189 552.383 616.408 552.383 616.408C551.163 630.19 564.537 632.58 564.537 632.58Z" fill="#9068BD"/>
<path d="M580.811 658.719C582.642 656.227 584.422 653.125 585.591 649.616C587.32 644.429 586.761 639.954 585.845 636.852C591.49 641.327 598 634.462 596.779 631.512C595.66 628.817 587.676 632.987 584.981 634.512C584.422 633.292 583.964 632.58 583.964 632.58C583.964 632.58 597.339 630.139 596.118 616.357C596.118 616.357 591.185 623.731 581.319 626.376C580.302 633.241 578.98 645.853 580.811 658.719Z" fill="#9068BD"/>
<path d="M574.657 622.358C581.981 622.358 587.88 619.307 587.88 615.493C587.88 611.73 581.93 608.627 574.657 608.627C567.334 608.627 561.384 611.679 561.384 615.493C561.384 619.307 567.334 622.358 574.657 622.358Z" fill="#9068BD"/>
<path d="M290.634 626.986C289.21 627.24 287.685 627.342 286.108 627.342C284.786 627.342 283.566 627.24 282.345 627.088C283.464 634.817 284.735 648.497 282.243 662.025C284.379 664.466 286.108 665.788 286.108 665.788C286.108 665.788 288.142 664.161 290.634 661.262C288.295 647.938 289.515 634.563 290.634 626.986Z" fill="#9068BD"/>
<path d="M276.395 632.58C276.395 632.58 276.039 633.139 275.53 634.156C272.378 632.427 265.41 629.02 264.342 631.512C263.173 634.258 268.919 640.564 274.31 637.513C273.496 640.564 273.09 644.785 274.717 649.616C276.039 653.532 278.124 656.888 280.158 659.584C282.193 646.565 280.87 633.648 279.802 626.63C269.428 624.189 264.241 616.408 264.241 616.408C263.02 630.19 276.395 632.58 276.395 632.58Z" fill="#9068BD"/>
<path d="M292.669 658.719C294.499 656.227 296.279 653.125 297.449 649.616C299.178 644.429 298.619 639.954 297.703 636.852C303.348 641.327 309.857 634.462 308.637 631.512C307.518 628.817 299.534 632.987 296.839 634.512C296.279 633.292 295.822 632.58 295.822 632.58C295.822 632.58 309.196 630.139 307.976 616.357C307.976 616.357 303.043 623.731 293.177 626.376C292.109 633.241 290.787 645.853 292.669 658.719Z" fill="#9068BD"/>
<path d="M286.464 622.358C293.787 622.358 299.686 619.307 299.686 615.493C299.686 611.73 293.736 608.627 286.464 608.627C279.141 608.627 273.191 611.679 273.191 615.493C273.242 619.307 279.192 622.358 286.464 622.358Z" fill="#9068BD"/>
</g>
<defs>
<clipPath id="clip0_211_10">
<rect width="1440" height="113.609" fill="white" transform="translate(0 -10)"/>
</clipPath>
<clipPath id="clip1_211_10">
<rect width="1440" height="113.609" fill="white" transform="translate(1440 720.609) rotate(-180)"/>
</clipPath>
</defs>
</svg>
