<svg width="1440" height="114" viewBox="0 0 1440 114" fill="none" xmlns="http://www.w3.org/2000/svg">
<g clip-path="url(#clip0_219_1043)">
<path d="M1339.41 110.965L1347.55 110.863C1347.04 68.2469 1328.58 33.1064 1320.08 19.2231C1351.46 18.4094 1377.19 12.7137 1386.96 10.2218C1398.15 58.2794 1431.76 107.914 1433.24 110.1L1440 105.473C1439.64 104.964 1403.84 52.0752 1394.03 4.37351L1393.16 0.0508641L1388.89 1.27138C1388.54 1.37309 1354.36 11.188 1312.61 11.188L1304.68 11.188L1309.3 17.6466C1309.61 18.0534 1338.8 59.3474 1339.41 110.965Z" fill="#865EB5"/>
<path d="M1365.9 82.3846L1348.05 75.9769L1361.28 62.3479L1342.87 57.6693L1354.87 43.0231L1336.1 39.921L1347.04 24.3595L1328.02 22.6813L1336.05 39.9719L1342.77 57.771L1342.82 57.771L1347.95 76.0278L1351.31 94.6914L1351.36 94.6914L1353.19 113.609L1368.7 102.472L1351.41 94.6406L1365.9 82.3846Z" fill="#865EB5"/>
<path d="M1369.36 30.106L1387.98 34.4795L1382.43 16.2227L1369.36 30.106Z" fill="#865EB5"/>
<path d="M1375.87 49.2783L1394.69 52.3296L1387.98 34.4796L1375.87 49.2783Z" fill="#865EB5"/>
<path d="M1384.37 68.3996L1403.44 69.3149L1394.69 52.3295L1384.37 68.3996Z" fill="#865EB5"/>
<path d="M1393.06 85.3852L1412.13 86.3005L1403.44 69.3151L1393.06 85.3852Z" fill="#865EB5"/>
<path d="M1403.08 103.083L1422.15 102.574L1412.13 86.3005L1403.08 103.083Z" fill="#865EB5"/>
<path d="M1359.5 23.3933C1356.69 23.3933 1354.41 25.6701 1354.41 28.4787C1354.41 31.2874 1356.69 33.5642 1359.5 33.5642C1362.31 33.5642 1364.58 31.2874 1364.58 28.4787C1364.58 25.6701 1362.31 23.3933 1359.5 23.3933Z" fill="#865EB5"/>
<path d="M1363.06 45.3115C1360.25 45.3115 1357.97 47.5883 1357.97 50.397C1357.97 53.2056 1360.25 55.4824 1363.06 55.4824C1365.87 55.4824 1368.14 53.2056 1368.14 50.397C1368.14 47.5883 1365.87 45.3115 1363.06 45.3115Z" fill="#865EB5"/>
<path d="M1373.76 59.0547C1371.78 61.0407 1371.78 64.2606 1373.76 66.2466C1375.75 68.2325 1378.97 68.2325 1380.95 66.2466C1382.94 64.2606 1382.94 61.0407 1380.95 59.0547C1378.97 57.0687 1375.75 57.0687 1373.76 59.0547Z" fill="#865EB5"/>
<path d="M1374.65 76.5747C1371.92 77.2202 1370.23 79.9592 1370.87 82.6925C1371.52 85.4259 1374.26 87.1185 1376.99 86.4731C1379.72 85.8277 1381.42 83.0886 1380.77 80.3553C1380.13 77.6219 1377.39 75.9293 1374.65 76.5747Z" fill="#865EB5"/>
<path d="M1391.13 89.7077C1388.32 89.7077 1386.04 91.9846 1386.04 94.7932C1386.04 97.6018 1388.32 99.8787 1391.13 99.8787C1393.94 99.8787 1396.21 97.6018 1396.21 94.7932C1396.21 91.9846 1393.94 89.7077 1391.13 89.7077Z" fill="#865EB5"/>
<path d="M1162.33 110.1C1163.81 107.964 1197.42 58.2794 1208.61 10.2218C1218.43 12.7137 1244.11 18.4094 1275.49 19.2231C1266.99 33.1572 1248.53 68.2469 1248.02 110.863L1256.21 110.965C1256.82 59.3474 1286.01 18.0534 1286.27 17.5957L1290.89 11.1372L1282.96 11.1372C1241.21 11.1372 1207.04 1.32223 1206.68 1.22052L1202.46 1.04742e-05L1201.59 4.32265C1191.73 52.0752 1155.93 104.964 1155.57 105.473L1162.33 110.1Z" fill="#865EB5"/>
<path d="M1252.8 57.771L1259.52 39.9719L1267.55 22.6813L1248.53 24.3595L1259.47 39.921L1240.7 43.0231L1252.7 57.6693L1234.29 62.3479L1247.52 75.9769L1229.67 82.3846L1244.16 94.6406L1226.87 102.472L1242.38 113.609L1244.26 94.6914L1247.62 76.0278L1252.75 57.771L1252.8 57.771Z" fill="#865EB5"/>
<path d="M1207.65 34.4795L1226.21 30.106L1213.14 16.2227L1207.65 34.4795Z" fill="#865EB5"/>
<path d="M1219.7 49.2783L1207.65 34.4796L1200.88 52.3296L1219.7 49.2783Z" fill="#865EB5"/>
<path d="M1211.2 68.3996L1200.88 52.3295L1192.19 69.3149L1211.2 68.3996Z" fill="#865EB5"/>
<path d="M1202.51 85.3852L1192.19 69.3151L1183.44 86.3005L1202.51 85.3852Z" fill="#865EB5"/>
<path d="M1192.49 103.083L1183.44 86.3005L1173.42 102.574L1192.49 103.083Z" fill="#865EB5"/>
<path d="M1231.05 27.8425C1230.7 30.6301 1232.69 33.1681 1235.47 33.5113C1238.26 33.8545 1240.8 31.873 1241.14 29.0854C1241.49 26.2978 1239.5 23.7599 1236.72 23.4166C1233.93 23.0734 1231.39 25.055 1231.05 27.8425Z" fill="#865EB5"/>
<path d="M1232.51 45.3115C1229.7 45.3115 1227.43 47.5883 1227.43 50.397C1227.43 53.2056 1229.7 55.4824 1232.51 55.4824C1235.32 55.4824 1237.6 53.2056 1237.6 50.397C1237.6 47.5883 1235.32 45.3115 1232.51 45.3115Z" fill="#865EB5"/>
<path d="M1217.07 57.7158C1214.33 58.3613 1212.64 61.1003 1213.29 63.8337C1213.93 66.567 1216.67 68.2596 1219.4 67.6142C1222.14 66.9688 1223.83 64.2297 1223.18 61.4964C1222.54 58.763 1219.8 57.0704 1217.07 57.7158Z" fill="#865EB5"/>
<path d="M1218.59 76.5847C1215.86 77.2302 1214.16 79.9692 1214.81 82.7026C1215.45 85.4359 1218.19 87.1285 1220.93 86.4831C1223.66 85.8377 1225.35 83.0986 1224.71 80.3653C1224.06 77.6319 1221.32 75.9393 1218.59 76.5847Z" fill="#865EB5"/>
<path d="M1204.44 89.7077C1201.63 89.7077 1199.36 91.9846 1199.36 94.7932C1199.36 97.6018 1201.63 99.8787 1204.44 99.8787C1207.25 99.8787 1209.53 97.6018 1209.53 94.7932C1209.53 91.9846 1207.25 89.7077 1204.44 89.7077Z" fill="#865EB5"/>
<path d="M1298.27 69.4674C1299.95 69.4674 1301.52 69.5691 1303 69.7726C1301.57 60.0085 1300 42.7687 1303.15 25.7324C1300.45 22.6812 1298.27 20.9521 1298.27 20.9521C1298.27 20.9521 1295.67 23.0371 1292.57 26.6478C1295.47 43.4807 1293.95 60.3644 1292.52 69.8743C1294.35 69.62 1296.23 69.4674 1298.27 69.4674Z" fill="#865EB5"/>
<path d="M1325.83 83.1982C1327.36 65.8568 1310.52 62.8055 1310.52 62.8055C1310.52 62.8055 1310.98 62.0936 1311.59 60.8222C1315.56 62.9581 1324.36 67.3316 1325.68 64.1786C1327.15 60.6696 1319.93 52.7363 1313.12 56.6521C1314.13 52.838 1314.64 47.4983 1312.61 41.3957C1310.98 36.4628 1308.34 32.191 1305.79 28.8855C1303.25 45.3115 1304.93 61.5342 1306.25 70.3829C1319.27 73.3833 1325.83 83.1982 1325.83 83.1982Z" fill="#865EB5"/>
<path d="M1283.98 41.3957C1281.79 47.956 1282.55 53.6008 1283.67 57.4658C1276.55 51.8209 1268.37 60.5171 1269.89 64.1786C1271.32 67.535 1281.33 62.297 1284.74 60.4154C1285.4 61.941 1286.01 62.8055 1286.01 62.8055C1286.01 62.8055 1269.18 65.8568 1270.71 83.1982C1270.71 83.1982 1276.91 73.8918 1289.32 70.5863C1290.64 62.0427 1292.32 46.1252 1289.98 29.9026C1287.74 33.1064 1285.45 36.9714 1283.98 41.3957Z" fill="#865EB5"/>
<path d="M1297.81 75.7226C1288.61 75.7226 1281.13 79.5876 1281.13 84.3679C1281.13 89.1482 1288.61 93.0132 1297.81 93.0132C1307.02 93.0132 1314.49 89.1482 1314.49 84.3679C1314.49 79.5876 1307.02 75.7226 1297.81 75.7226Z" fill="#865EB5"/>
<path d="M1050.61 110.965L1058.74 110.863C1058.23 68.2469 1039.77 33.1064 1031.28 19.2231C1062.66 18.4094 1088.39 12.7137 1098.16 10.2218C1109.34 58.2794 1142.96 107.914 1144.43 110.1L1151.2 105.473C1150.84 104.964 1115.04 52.0752 1105.22 4.37351L1104.36 0.0508641L1100.09 1.27138C1099.73 1.37309 1065.56 11.188 1023.81 11.188L1015.87 11.188L1020.5 17.6466C1020.81 18.0534 1050 59.3474 1050.61 110.965Z" fill="#865EB5"/>
<path d="M1077.1 82.3846L1059.25 75.9769L1072.47 62.3479L1054.06 57.6693L1066.07 43.0231L1047.3 39.921L1058.23 24.3595L1039.21 22.6813L1047.25 39.9719L1053.96 57.771L1054.01 57.771L1059.15 76.0278L1062.51 94.6914L1062.56 94.6914L1064.39 113.609L1079.9 102.472L1062.61 94.6406L1077.1 82.3846Z" fill="#865EB5"/>
<path d="M1080.56 30.106L1099.17 34.4795L1093.63 16.2227L1080.56 30.106Z" fill="#865EB5"/>
<path d="M1087.07 49.2783L1105.89 52.3296L1099.17 34.4796L1087.07 49.2783Z" fill="#865EB5"/>
<path d="M1095.56 68.3996L1114.63 69.3149L1105.89 52.3295L1095.56 68.3996Z" fill="#865EB5"/>
<path d="M1104.26 85.3849L1123.33 86.3003L1114.63 69.3148L1104.26 85.3849Z" fill="#865EB5"/>
<path d="M1114.28 103.083L1133.35 102.574L1123.33 86.3005L1114.28 103.083Z" fill="#865EB5"/>
<path d="M1070.69 23.3423C1067.9 23.3423 1065.61 25.6307 1065.61 28.4277C1065.61 31.2247 1067.9 33.5132 1070.69 33.5132C1073.49 33.5132 1075.78 31.2247 1075.78 28.4277C1075.78 25.6307 1073.49 23.3423 1070.69 23.3423Z" fill="#865EB5"/>
<path d="M1074.25 45.3115C1071.44 45.3115 1069.17 47.5883 1069.17 50.397C1069.17 53.2056 1071.44 55.4824 1074.25 55.4824C1077.06 55.4824 1079.34 53.2056 1079.34 50.397C1079.34 47.5883 1077.06 45.3115 1074.25 45.3115Z" fill="#865EB5"/>
<path d="M1088.54 57.5676C1085.74 57.5676 1083.46 59.8444 1083.46 62.6531C1083.46 65.4617 1085.74 67.7385 1088.54 67.7385C1091.35 67.7385 1093.63 65.4617 1093.63 62.6531C1093.63 59.8444 1091.35 57.5676 1088.54 57.5676Z" fill="#865EB5"/>
<path d="M1087.02 76.4345C1084.22 76.4345 1081.93 78.723 1081.93 81.52C1081.93 84.317 1084.22 86.6055 1087.02 86.6055C1089.82 86.6055 1092.1 84.317 1092.1 81.52C1092.1 78.723 1089.82 76.4345 1087.02 76.4345Z" fill="#865EB5"/>
<path d="M1102.33 89.7077C1099.52 89.7077 1097.24 91.9846 1097.24 94.7932C1097.24 97.6018 1099.52 99.8787 1102.33 99.8787C1105.13 99.8787 1107.41 97.6018 1107.41 94.7932C1107.41 91.9846 1105.13 89.7077 1102.33 89.7077Z" fill="#865EB5"/>
<path d="M873.53 110.1C875.005 107.964 908.62 58.2794 919.808 10.2218C929.623 12.7137 955.305 18.4094 986.682 19.2231C978.189 33.1572 959.729 68.2469 959.22 110.863L967.408 110.965C968.018 59.3474 997.209 18.0534 997.463 17.5957L1002.09 11.1372L994.157 11.1372C952.406 11.1372 918.232 1.32223 917.876 1.22052L913.655 1.04742e-05L912.79 4.32265C902.924 52.0752 867.123 104.964 866.767 105.473L873.53 110.1Z" fill="#865EB5"/>
<path d="M964.001 57.771L970.714 39.9719L978.749 22.6813L959.729 24.3595L970.663 39.921L951.897 43.0231L963.899 57.6693L945.49 62.3479L958.712 75.9769L940.862 82.3846L955.355 94.6406L938.065 102.472L953.575 113.609L955.457 94.6914L958.814 76.0278L964.001 57.771Z" fill="#865EB5"/>
<path d="M918.842 34.4795L937.404 30.106L924.334 16.2227L918.842 34.4795Z" fill="#865EB5"/>
<path d="M930.894 49.2783L918.842 34.4796L912.078 52.3296L930.894 49.2783Z" fill="#865EB5"/>
<path d="M922.402 68.3996L912.078 52.3295L903.382 69.3149L922.402 68.3996Z" fill="#865EB5"/>
<path d="M913.705 85.3849L903.382 69.3148L894.635 86.3003L913.705 85.3849Z" fill="#865EB5"/>
<path d="M903.687 103.083L894.635 86.3005L884.617 102.574L903.687 103.083Z" fill="#865EB5"/>
<path d="M952.355 28.4787C952.355 25.6817 950.066 23.3933 947.269 23.3933C944.472 23.3933 942.184 25.6817 942.184 28.4787C942.184 31.2757 944.472 33.5642 947.269 33.5642C950.117 33.5642 952.355 31.2758 952.355 28.4787Z" fill="#865EB5"/>
<path d="M943.709 45.3115C940.901 45.3115 938.624 47.5883 938.624 50.397C938.624 53.2056 940.901 55.4824 943.709 55.4824C946.518 55.4824 948.795 53.2056 948.795 50.397C948.795 47.5883 946.518 45.3115 943.709 45.3115Z" fill="#865EB5"/>
<path d="M928.6 57.6417C925.827 58.0916 923.944 60.7038 924.394 63.4762C924.844 66.2486 927.457 68.1313 930.229 67.6814C933.001 67.2314 934.884 64.6192 934.434 61.8468C933.984 59.0744 931.372 57.1917 928.6 57.6417Z" fill="#865EB5"/>
<path d="M930.945 76.4345C928.136 76.4345 925.86 78.7114 925.86 81.52C925.86 84.3286 928.136 86.6055 930.945 86.6055C933.754 86.6055 936.031 84.3286 936.031 81.52C936.031 78.7114 933.754 76.4345 930.945 76.4345Z" fill="#865EB5"/>
<path d="M915.638 89.7077C912.829 89.7077 910.552 91.9846 910.552 94.7932C910.552 97.6018 912.829 99.8787 915.638 99.8787C918.447 99.8787 920.723 97.6018 920.723 94.7932C920.723 91.9846 918.447 89.7077 915.638 89.7077Z" fill="#865EB5"/>
<path d="M1009.46 69.4674C1011.14 69.4674 1012.72 69.5691 1014.19 69.7726C1012.77 60.0085 1011.19 42.7687 1014.35 25.7324C1011.65 22.6812 1009.46 20.9521 1009.46 20.9521C1009.46 20.9521 1006.87 23.0371 1003.77 26.6478C1006.67 43.4807 1005.14 60.3644 1003.72 69.8743C1005.55 69.62 1007.43 69.4674 1009.46 69.4674Z" fill="#865EB5"/>
<path d="M1037.03 83.1982C1038.55 65.8568 1021.72 62.8055 1021.72 62.8055C1021.72 62.8055 1022.18 62.0936 1022.79 60.8222C1026.76 62.9581 1035.55 67.3316 1036.88 64.1786C1038.35 60.6696 1031.13 52.7363 1024.31 56.6521C1025.33 52.838 1025.84 47.4983 1023.81 41.3957C1022.18 36.4628 1019.53 32.191 1016.99 28.8855C1014.45 45.3115 1016.13 61.5342 1017.45 70.3829C1030.47 73.3833 1037.03 83.1982 1037.03 83.1982Z" fill="#865EB5"/>
<path d="M995.175 41.3957C992.988 47.956 993.751 53.6008 994.869 57.4658C987.75 51.8209 979.562 60.5171 981.088 64.1786C982.512 67.535 992.53 62.297 995.937 60.4154C996.599 61.941 997.209 62.8055 997.209 62.8055C997.209 62.8055 980.376 65.8568 981.902 83.1982C981.902 83.1982 988.106 73.8918 1000.51 70.5863C1001.84 62.0427 1003.51 46.1252 1001.18 29.9026C998.938 33.1064 996.649 36.9714 995.175 41.3957Z" fill="#865EB5"/>
<path d="M1009.01 75.7226C999.802 75.7226 992.327 79.5876 992.327 84.3679C992.327 89.1482 999.802 93.0132 1009.01 93.0132C1018.21 93.0132 1025.69 89.1482 1025.69 84.3679C1025.69 79.5876 1018.21 75.7226 1009.01 75.7226Z" fill="#865EB5"/>
<path d="M1156.13 19.986C1154.71 20.2403 1153.18 20.342 1151.6 20.342C1150.28 20.342 1149.06 20.2403 1147.84 20.0877C1148.96 27.8176 1150.23 41.4975 1147.74 55.0248C1149.87 57.4659 1151.6 58.7881 1151.6 58.7881C1151.6 58.7881 1153.64 57.1607 1156.13 54.262C1153.79 40.9381 1155.01 27.5633 1156.13 19.986Z" fill="#865EB5"/>
<path d="M1141.84 25.5799C1141.84 25.5799 1141.48 26.1393 1140.97 27.1564C1137.82 25.4274 1130.85 22.0201 1129.79 24.512C1128.62 27.2581 1134.36 33.5641 1139.75 30.5128C1138.94 33.5641 1138.53 37.785 1140.16 42.6162C1141.48 46.532 1143.57 49.8884 1145.6 52.5837C1147.64 39.565 1146.31 26.6479 1145.25 19.6299C1134.87 17.1889 1129.68 9.40816 1129.68 9.40816C1128.52 23.1898 1141.84 25.5799 1141.84 25.5799Z" fill="#865EB5"/>
<path d="M1158.11 51.7192C1159.94 49.2274 1161.72 46.1252 1162.89 42.6163C1164.62 37.4291 1164.06 32.9539 1163.15 29.8517C1168.79 34.327 1175.3 27.4616 1174.08 24.512C1172.96 21.8167 1164.98 25.9868 1162.28 27.5124C1161.72 26.2919 1161.27 25.5799 1161.27 25.5799C1161.27 25.5799 1174.64 23.1389 1173.42 9.35732C1173.42 9.35732 1168.49 16.7312 1158.62 19.3757C1157.6 26.2411 1156.28 38.853 1158.11 51.7192Z" fill="#865EB5"/>
<path d="M1151.96 15.3582C1159.28 15.3582 1165.18 12.3069 1165.18 8.49278C1165.18 4.72953 1159.23 1.6274 1151.96 1.6274C1144.64 1.6274 1138.69 4.67868 1138.69 8.49278C1138.69 12.3069 1144.64 15.3582 1151.96 15.3582Z" fill="#865EB5"/>
<path d="M762.209 110.965L770.346 110.863C769.838 68.2469 751.377 33.1064 742.885 19.2231C774.262 18.4094 799.994 12.7137 809.758 10.2218C820.946 58.2794 854.561 107.914 856.036 110.1L862.8 105.473C862.444 104.964 826.642 52.0752 816.827 4.37351L815.963 0.0508641L811.691 1.27138C811.335 1.37309 777.161 11.188 735.409 11.188L727.476 11.188L732.103 17.6466C732.409 18.0534 761.599 59.3474 762.209 110.965Z" fill="#865EB5"/>
<path d="M788.705 82.3846L770.855 75.9769L784.077 62.3479L765.668 57.6693L777.669 43.0231L758.904 39.921L769.838 24.3595L750.818 22.6813L758.853 39.9719L765.566 57.771L765.617 57.771L770.753 76.0278L774.109 94.6914L774.16 94.6914L775.991 113.609L791.502 102.472L774.211 94.6406L788.705 82.3846Z" fill="#865EB5"/>
<path d="M792.163 30.106L810.776 34.4795L805.233 16.2227L792.163 30.106Z" fill="#865EB5"/>
<path d="M798.672 49.2783L817.489 52.3296L810.776 34.4796L798.672 49.2783Z" fill="#865EB5"/>
<path d="M807.165 68.3996L826.235 69.3149L817.488 52.3295L807.165 68.3996Z" fill="#865EB5"/>
<path d="M815.861 85.3849L834.931 86.3003L826.235 69.3148L815.861 85.3849Z" fill="#865EB5"/>
<path d="M825.879 103.083L844.95 102.574L834.932 86.3005L825.879 103.083Z" fill="#865EB5"/>
<path d="M782.297 23.3423C779.5 23.3423 777.211 25.6307 777.211 28.4277C777.211 31.2247 779.5 33.5132 782.297 33.5132C785.094 33.5132 787.382 31.2247 787.382 28.4277C787.382 25.6307 785.094 23.3423 782.297 23.3423Z" fill="#865EB5"/>
<path d="M785.857 45.3115C783.048 45.3115 780.771 47.5883 780.771 50.397C780.771 53.2056 783.048 55.4824 785.857 55.4824C788.665 55.4824 790.942 53.2056 790.942 50.397C790.942 47.5883 788.665 45.3115 785.857 45.3115Z" fill="#865EB5"/>
<path d="M800.147 57.5676C797.338 57.5676 795.061 59.8444 795.061 62.6531C795.061 65.4617 797.338 67.7385 800.147 67.7385C802.956 67.7385 805.232 65.4617 805.232 62.6531C805.232 59.8444 802.956 57.5676 800.147 57.5676Z" fill="#865EB5"/>
<path d="M798.621 76.4345C795.813 76.4345 793.536 78.7114 793.536 81.52C793.536 84.3286 795.813 86.6055 798.621 86.6055C801.43 86.6055 803.707 84.3286 803.707 81.52C803.707 78.7114 801.43 76.4345 798.621 76.4345Z" fill="#865EB5"/>
<path d="M813.929 89.6567C811.132 89.6567 808.843 91.9452 808.843 94.7422C808.843 97.5392 811.132 99.8276 813.929 99.8276C816.726 99.8276 819.014 97.5392 819.014 94.7422C819.014 91.9452 816.726 89.6567 813.929 89.6567Z" fill="#865EB5"/>
<path d="M585.134 110.1C586.608 107.964 620.223 58.2794 631.411 10.2218C641.226 12.7137 666.908 18.4094 698.285 19.2231C689.792 33.1572 671.332 68.2469 670.824 110.863L679.011 110.965C679.621 59.3474 708.812 18.0534 709.066 17.5957L713.694 11.1372L705.761 11.1372C664.009 11.1372 629.835 1.32223 629.479 1.22052L625.258 1.04742e-05L624.393 4.32265C614.528 52.0752 578.726 104.964 578.37 105.473L585.134 110.1Z" fill="#865EB5"/>
<path d="M675.604 57.771L682.317 39.9719L690.352 22.6813L671.332 24.3595L682.266 39.921L663.501 43.0231L675.502 57.6693L657.093 62.3479L670.315 75.9769L652.465 82.3846L666.959 94.6406L649.668 102.472L665.179 113.609L667.06 94.6914L670.417 76.0278L675.604 57.771Z" fill="#865EB5"/>
<path d="M630.445 34.4795L649.007 30.106L635.937 16.2227L630.445 34.4795Z" fill="#865EB5"/>
<path d="M642.498 49.2781L630.445 34.4794L623.681 52.3293L642.498 49.2781Z" fill="#865EB5"/>
<path d="M634.005 68.3996L623.681 52.3295L614.985 69.3149L634.005 68.3996Z" fill="#865EB5"/>
<path d="M625.309 85.3849L614.985 69.3148L606.238 86.3003L625.309 85.3849Z" fill="#865EB5"/>
<path d="M615.29 103.082L606.238 86.3002L596.22 102.574L615.29 103.082Z" fill="#865EB5"/>
<path d="M663.958 28.4787C663.958 25.6817 661.67 23.3933 658.873 23.3933C656.076 23.3933 653.787 25.6817 653.787 28.4787C653.787 31.2757 656.076 33.5642 658.873 33.5642C661.67 33.5642 663.958 31.2758 663.958 28.4787Z" fill="#865EB5"/>
<path d="M650.228 50.397C650.228 53.194 652.516 55.4824 655.313 55.4824C658.11 55.4824 660.398 53.194 660.398 50.397C660.398 47.6 658.11 45.3115 655.313 45.3115C652.516 45.3115 650.228 47.6 650.228 50.397Z" fill="#865EB5"/>
<path d="M640.199 57.6468C637.427 58.0967 635.544 60.709 635.994 63.4813C636.444 66.2537 639.056 68.1365 641.829 67.6865C644.601 67.2366 646.484 64.6244 646.034 61.852C645.584 59.0796 642.972 57.1969 640.199 57.6468Z" fill="#865EB5"/>
<path d="M642.548 76.4345C639.74 76.4345 637.463 78.7114 637.463 81.52C637.463 84.3286 639.74 86.6055 642.548 86.6055C645.357 86.6055 647.634 84.3286 647.634 81.52C647.634 78.7114 645.357 76.4345 642.548 76.4345Z" fill="#865EB5"/>
<path d="M627.241 89.7077C624.433 89.7077 622.156 91.9846 622.156 94.7932C622.156 97.6018 624.433 99.8787 627.241 99.8787C630.05 99.8787 632.327 97.6018 632.327 94.7932C632.327 91.9846 630.05 89.7077 627.241 89.7077Z" fill="#865EB5"/>
<path d="M721.068 69.4674C722.746 69.4674 724.323 69.5691 725.797 69.7726C724.374 60.0085 722.797 42.7687 725.95 25.7324C723.255 22.6812 721.068 20.9521 721.068 20.9521C721.068 20.9521 718.474 23.0371 715.372 26.6478C718.271 43.4807 716.745 60.3644 715.321 69.8743C717.152 69.62 719.034 69.4674 721.068 69.4674Z" fill="#865EB5"/>
<path d="M748.631 83.1982C750.157 65.8568 733.324 62.8055 733.324 62.8055C733.324 62.8055 733.782 62.0936 734.392 60.8222C738.359 62.9581 747.156 67.3316 748.479 64.1786C749.953 60.6696 742.732 52.7363 735.918 56.6521C736.935 52.838 737.443 47.4983 735.409 41.3957C733.782 36.4628 731.137 32.191 728.594 28.8855C726.052 45.3115 727.73 61.5342 729.052 70.3829C742.071 73.3833 748.631 83.1982 748.631 83.1982Z" fill="#865EB5"/>
<path d="M706.778 41.3957C704.591 47.956 705.354 53.6008 706.473 57.4658C699.353 51.8209 691.166 60.5171 692.691 64.1786C694.115 67.535 704.133 62.297 707.541 60.4154C708.202 61.941 708.812 62.8055 708.812 62.8055C708.812 62.8055 691.979 65.8568 693.505 83.1982C693.505 83.1982 699.709 73.8918 712.118 70.5863C713.44 62.0427 715.118 46.1252 712.779 29.9026C710.541 33.1064 708.253 36.9714 706.778 41.3957Z" fill="#865EB5"/>
<path d="M720.61 75.7226C711.406 75.7226 703.93 79.5876 703.93 84.3679C703.93 89.1482 711.406 93.0132 720.61 93.0132C729.815 93.0132 737.291 89.1482 737.291 84.3679C737.291 79.5876 729.815 75.7226 720.61 75.7226Z" fill="#865EB5"/>
<path d="M867.733 19.986C866.309 20.2403 864.783 20.342 863.207 20.342C861.884 20.342 860.664 20.2403 859.443 20.0877C860.562 27.8176 861.834 41.4975 859.342 55.0248C861.478 57.4659 863.207 58.7881 863.207 58.7881C863.207 58.7881 865.241 57.1607 867.733 54.262C865.393 40.9381 866.614 27.5633 867.733 19.986Z" fill="#865EB5"/>
<path d="M853.443 25.5799C853.443 25.5799 853.087 26.1393 852.578 27.1564C849.425 25.4274 842.458 22.0201 841.39 24.512C840.22 27.2581 845.967 33.5641 851.358 30.5128C850.544 33.5641 850.137 37.785 851.765 42.6162C853.087 46.532 855.172 49.8884 857.206 52.5837C859.24 39.565 857.918 26.6479 856.85 19.6299C846.476 17.1889 841.288 9.40816 841.288 9.40816C840.119 23.1898 853.443 25.5799 853.443 25.5799Z" fill="#865EB5"/>
<path d="M869.716 51.7192C871.547 49.2274 873.327 46.1252 874.496 42.6163C876.225 37.4291 875.666 32.9539 874.751 29.8517C880.396 34.327 886.905 27.4616 885.684 24.512C884.566 21.8167 876.581 25.9868 873.886 27.5124C873.327 26.2919 872.869 25.5799 872.869 25.5799C872.869 25.5799 886.244 23.1389 885.023 9.35732C885.023 9.35732 880.09 16.7312 870.225 19.3757C869.208 26.2411 867.885 38.853 869.716 51.7192Z" fill="#865EB5"/>
<path d="M863.563 15.3582C870.886 15.3582 876.785 12.3069 876.785 8.49278C876.785 4.72953 870.835 1.6274 863.563 1.6274C856.24 1.6274 850.29 4.67868 850.29 8.49278C850.29 12.3069 856.24 15.3582 863.563 15.3582Z" fill="#865EB5"/>
<path d="M473.304 110.965L481.441 110.863C480.932 68.2469 462.472 33.1064 453.979 19.2231C485.357 18.4094 511.089 12.7137 520.853 10.2218C532.041 58.2794 565.656 107.914 567.131 110.1L573.895 105.473C573.539 104.964 537.737 52.0752 527.922 4.37351L527.058 0.0508641L522.786 1.27138C522.43 1.37309 488.255 11.188 446.504 11.188L438.57 11.188L443.198 17.6466C443.503 18.0534 472.694 59.3474 473.304 110.965Z" fill="#865EB5"/>
<path d="M499.799 82.3846L481.949 75.9769L495.172 62.3479L476.762 57.6693L488.764 43.0231L469.999 39.921L480.932 24.3595L461.913 22.6813L469.948 39.9719L476.661 57.771L481.848 76.0278L485.204 94.6914L485.255 94.6914L487.086 113.609L502.596 102.472L485.306 94.6406L499.799 82.3846Z" fill="#865EB5"/>
<path d="M503.258 30.106L521.82 34.4795L516.327 16.2227L503.258 30.106Z" fill="#865EB5"/>
<path d="M509.767 49.2781L528.583 52.3293L521.819 34.4794L509.767 49.2781Z" fill="#865EB5"/>
<path d="M518.26 68.3996L537.33 69.3149L528.583 52.3295L518.26 68.3996Z" fill="#865EB5"/>
<path d="M526.956 85.3849L546.026 86.3003L537.33 69.3148L526.956 85.3849Z" fill="#865EB5"/>
<path d="M536.974 103.082L556.045 102.574L546.026 86.3002L536.974 103.082Z" fill="#865EB5"/>
<path d="M493.392 23.3423C490.595 23.3423 488.306 25.6307 488.306 28.4277C488.306 31.2247 490.595 33.5132 493.392 33.5132C496.189 33.5132 498.477 31.2247 498.477 28.4277C498.477 25.6307 496.189 23.3423 493.392 23.3423Z" fill="#865EB5"/>
<path d="M496.952 45.3115C494.143 45.3115 491.866 47.5883 491.866 50.397C491.866 53.2056 494.143 55.4824 496.952 55.4824C499.76 55.4824 502.037 53.2056 502.037 50.397C502.037 47.5883 499.76 45.3115 496.952 45.3115Z" fill="#865EB5"/>
<path d="M511.242 57.5166C508.445 57.5166 506.156 59.805 506.156 62.602C506.156 65.399 508.445 67.6875 511.242 67.6875C514.039 67.6875 516.327 65.399 516.327 62.602C516.327 59.805 514.039 57.5166 511.242 57.5166Z" fill="#865EB5"/>
<path d="M509.716 76.4345C506.907 76.4345 504.631 78.7114 504.631 81.52C504.631 84.3286 506.907 86.6055 509.716 86.6055C512.525 86.6055 514.802 84.3286 514.802 81.52C514.802 78.7114 512.525 76.4345 509.716 76.4345Z" fill="#865EB5"/>
<path d="M525.023 89.6567C522.226 89.6567 519.938 91.9452 519.938 94.7422C519.938 97.5392 522.226 99.8276 525.023 99.8276C527.82 99.8276 530.109 97.5392 530.109 94.7422C530.109 91.9452 527.82 89.6567 525.023 89.6567Z" fill="#865EB5"/>
<path d="M296.228 110.1C297.703 107.964 331.318 58.2794 342.506 10.2218C352.321 12.7137 378.003 18.4094 409.38 19.2231C400.887 33.1572 382.427 68.2469 381.918 110.863L390.106 110.965C390.716 59.3474 419.907 18.0534 420.161 17.5957L424.789 11.1372L416.856 11.1372C375.104 11.1372 340.93 1.32223 340.574 1.22052L336.353 1.04742e-05L335.488 4.32265C325.622 52.0752 289.821 104.964 289.465 105.473L296.228 110.1Z" fill="#865EB5"/>
<path d="M386.699 57.771L393.412 39.9719L401.447 22.6813L382.427 24.3595L393.361 39.921L374.595 43.0231L386.597 57.6693L368.188 62.3479L381.41 75.9769L363.56 82.3846L378.054 94.6406L360.763 102.472L376.274 113.609L378.104 94.6914L378.155 94.6914L381.512 76.0278L386.648 57.771L386.699 57.771Z" fill="#865EB5"/>
<path d="M341.54 34.4795L360.102 30.106L347.032 16.2227L341.54 34.4795Z" fill="#865EB5"/>
<path d="M353.592 49.2781L341.54 34.4794L334.776 52.3293L353.592 49.2781Z" fill="#865EB5"/>
<path d="M345.1 68.3996L334.776 52.3295L326.029 69.3149L345.1 68.3996Z" fill="#865EB5"/>
<path d="M336.403 85.3849L326.029 69.3148L317.333 86.3003L336.403 85.3849Z" fill="#865EB5"/>
<path d="M326.385 103.082L317.333 86.3002L307.315 102.574L326.385 103.082Z" fill="#865EB5"/>
<path d="M375.053 28.4785C375.053 25.6815 372.765 23.393 369.968 23.393C367.171 23.393 364.882 25.6815 364.882 28.4785C364.882 31.2755 367.171 33.564 369.968 33.564C372.765 33.564 375.053 31.2755 375.053 28.4785Z" fill="#865EB5"/>
<path d="M366.408 45.3115C363.599 45.3115 361.322 47.5883 361.322 50.397C361.322 53.2056 363.599 55.4824 366.408 55.4824C369.216 55.4824 371.493 53.2056 371.493 50.397C371.493 47.5883 369.216 45.3115 366.408 45.3115Z" fill="#865EB5"/>
<path d="M357.203 62.6531C357.203 59.8561 354.915 57.5676 352.118 57.5676C349.321 57.5676 347.032 59.8561 347.032 62.6531C347.032 65.4501 349.321 67.7385 352.118 67.7385C354.915 67.7385 357.203 65.4501 357.203 62.6531Z" fill="#865EB5"/>
<path d="M353.643 76.4345C350.835 76.4345 348.558 78.7114 348.558 81.52C348.558 84.3286 350.835 86.6055 353.643 86.6055C356.452 86.6055 358.729 84.3286 358.729 81.52C358.729 78.7114 356.452 76.4345 353.643 76.4345Z" fill="#865EB5"/>
<path d="M338.336 89.7075C335.527 89.7075 333.25 91.9843 333.25 94.793C333.25 97.6016 335.527 99.8784 338.336 99.8784C341.145 99.8784 343.421 97.6016 343.421 94.793C343.421 91.9843 341.145 89.7075 338.336 89.7075Z" fill="#865EB5"/>
<path d="M432.163 69.4674C433.841 69.4674 435.418 69.5691 436.892 69.7726C435.468 60.0085 433.892 42.7687 437.045 25.7324C434.35 22.6812 432.163 20.9521 432.163 20.9521C432.163 20.9521 429.569 23.0371 426.467 26.6478C429.366 43.4807 427.84 60.3644 426.416 69.8743C428.247 69.62 430.129 69.4674 432.163 69.4674Z" fill="#865EB5"/>
<path d="M459.726 83.1982C461.252 65.8568 444.419 62.8055 444.419 62.8055C444.419 62.8055 444.876 62.0936 445.487 60.8222C449.453 62.9581 458.251 67.3316 459.573 64.1786C461.048 60.6696 453.827 52.7363 447.012 56.6521C448.029 52.838 448.538 47.4983 446.504 41.3957C444.876 36.4628 442.232 32.191 439.689 28.8855C437.146 45.3115 438.825 61.5342 440.147 70.3829C453.166 73.3833 459.726 83.1982 459.726 83.1982Z" fill="#865EB5"/>
<path d="M417.873 41.3957C415.686 47.956 416.449 53.6008 417.567 57.4658C410.448 51.8209 402.26 60.5171 403.786 64.1786C405.21 67.535 415.228 62.297 418.635 60.4154C419.297 61.941 419.907 62.8055 419.907 62.8055C419.907 62.8055 403.074 65.8568 404.6 83.1982C404.6 83.1982 410.804 73.8918 423.212 70.5863C424.535 62.0427 426.213 46.1252 423.873 29.9026C421.636 33.1064 419.347 36.9714 417.873 41.3957Z" fill="#865EB5"/>
<path d="M431.654 75.7226C422.45 75.7226 414.974 79.5876 414.974 84.3679C414.974 89.1482 422.45 93.0132 431.654 93.0132C440.859 93.0132 448.335 89.1482 448.335 84.3679C448.385 79.5876 440.91 75.7226 431.654 75.7226Z" fill="#865EB5"/>
<path d="M183.84 110.965L191.976 110.863C191.468 68.2469 173.008 33.1064 164.515 19.2231C195.892 18.4094 221.625 12.7137 231.389 10.2218C242.577 58.2794 276.192 107.914 277.666 110.1L284.43 105.473C284.074 104.964 248.272 52.0752 238.458 4.37351L237.593 0.0508641L233.321 1.27138C232.965 1.37309 198.791 11.188 157.039 11.188L149.106 11.188L153.734 17.6466C154.039 18.0534 183.229 59.3474 183.84 110.965Z" fill="#865EB5"/>
<path d="M210.335 82.3846L192.485 75.9769L205.707 62.3479L187.298 57.6693L199.299 43.0231L180.534 39.921L191.468 24.3595L172.448 22.6813L180.483 39.9719L187.196 57.771L187.247 57.771L192.383 76.0278L195.74 94.6914L195.79 94.6914L197.621 113.609L213.132 102.472L195.841 94.6406L210.335 82.3846Z" fill="#865EB5"/>
<path d="M213.793 30.106L232.406 34.4795L226.863 16.2227L213.793 30.106Z" fill="#865EB5"/>
<path d="M220.302 49.2781L239.119 52.3293L232.406 34.4794L220.302 49.2781Z" fill="#865EB5"/>
<path d="M228.795 68.3996L247.866 69.3149L239.119 52.3295L228.795 68.3996Z" fill="#865EB5"/>
<path d="M237.491 85.3849L256.562 86.3003L247.866 69.3148L237.491 85.3849Z" fill="#865EB5"/>
<path d="M247.51 103.082L266.58 102.574L256.562 86.3002L247.51 103.082Z" fill="#865EB5"/>
<path d="M203.927 23.3423C201.13 23.3423 198.842 25.6307 198.842 28.4277C198.842 31.2247 201.13 33.5132 203.927 33.5132C206.724 33.5132 209.013 31.2247 209.013 28.4277C209.013 25.6307 206.724 23.3423 203.927 23.3423Z" fill="#865EB5"/>
<path d="M207.487 45.3115C204.678 45.3115 202.401 47.5883 202.401 50.397C202.401 53.2056 204.678 55.4824 207.487 55.4824C210.296 55.4824 212.572 53.2056 212.572 50.397C212.572 47.5883 210.296 45.3115 207.487 45.3115Z" fill="#865EB5"/>
<path d="M221.777 57.5166C218.98 57.5166 216.692 59.805 216.692 62.602C216.692 65.399 218.98 67.6875 221.777 67.6875C224.574 67.6875 226.863 65.399 226.863 62.602C226.863 59.805 224.574 57.5166 221.777 57.5166Z" fill="#865EB5"/>
<path d="M220.251 76.4345C217.443 76.4345 215.166 78.7114 215.166 81.52C215.166 84.3286 217.443 86.6055 220.251 86.6055C223.06 86.6055 225.337 84.3286 225.337 81.52C225.337 78.7114 223.06 76.4345 220.251 76.4345Z" fill="#865EB5"/>
<path d="M235.559 89.7075C232.75 89.7075 230.473 91.9843 230.473 94.793C230.473 97.6016 232.75 99.8784 235.559 99.8784C238.367 99.8784 240.644 97.6016 240.644 94.793C240.644 91.9843 238.367 89.7075 235.559 89.7075Z" fill="#865EB5"/>
<path d="M6.76368 110.1C8.23846 107.964 41.8534 58.2794 53.0414 10.2218C62.8563 12.7137 88.5379 18.4094 119.915 19.2231C111.423 33.1572 92.9623 68.2469 92.4537 110.863L100.641 110.965C101.252 59.3474 130.442 18.0534 130.696 17.5957L135.324 11.1372L127.391 11.1372C85.6392 11.1372 51.4649 1.32223 51.1089 1.22052L46.8881 1.04742e-05L46.0234 4.32265C36.1576 52.0752 0.355968 104.964 -1.48026e-05 105.473L6.76368 110.1Z" fill="#865EB5"/>
<path d="M97.2342 57.771L103.947 39.9719L111.982 22.6813L92.9624 24.3595L103.896 39.921L85.1308 43.0231L97.1833 57.6693L78.7231 62.3479L91.9453 75.9769L74.0954 82.3846L88.5889 94.6406L71.2983 102.472L86.809 113.609L88.6906 94.6914L92.0469 76.0278L97.2342 57.771Z" fill="#865EB5"/>
<path d="M52.0751 34.4795L70.6371 30.106L57.5675 16.2227L52.0751 34.4795Z" fill="#865EB5"/>
<path d="M64.1277 49.2781L52.0752 34.4794L45.3115 52.3293L64.1277 49.2781Z" fill="#865EB5"/>
<path d="M55.635 68.3996L45.3115 52.3295L36.6153 69.3149L55.635 68.3996Z" fill="#865EB5"/>
<path d="M46.939 85.3849L36.6154 69.3148L27.8685 86.3003L46.939 85.3849Z" fill="#865EB5"/>
<path d="M36.9205 103.082L27.8684 86.3002L17.85 102.574L36.9205 103.082Z" fill="#865EB5"/>
<path d="M85.5884 28.4785C85.5884 25.6815 83.2999 23.393 80.5029 23.393C77.7059 23.393 75.4175 25.6815 75.4175 28.4785C75.4175 31.2755 77.7059 33.564 80.5029 33.564C83.3508 33.564 85.5884 31.2755 85.5884 28.4785Z" fill="#865EB5"/>
<path d="M76.9431 45.3115C74.1345 45.3115 71.8576 47.5883 71.8576 50.397C71.8576 53.2056 74.1345 55.4824 76.9431 55.4824C79.7517 55.4824 82.0286 53.2056 82.0286 50.397C82.0286 47.5883 79.7517 45.3115 76.9431 45.3115Z" fill="#865EB5"/>
<path d="M61.8222 57.6575C59.0498 58.1075 57.1671 60.7197 57.617 63.4921C58.067 66.2645 60.6792 68.1472 63.4516 67.6973C66.224 67.2473 68.1067 64.6351 67.6567 61.8627C67.2068 59.0903 64.5946 57.2076 61.8222 57.6575Z" fill="#865EB5"/>
<path d="M64.1787 76.4345C61.3701 76.4345 59.0932 78.7114 59.0932 81.52C59.0932 84.3286 61.3701 86.6055 64.1787 86.6055C66.9873 86.6055 69.2642 84.3286 69.2642 81.52C69.2642 78.7114 66.9873 76.4345 64.1787 76.4345Z" fill="#865EB5"/>
<path d="M48.8713 89.7075C46.0627 89.7075 43.7859 91.9843 43.7859 94.793C43.7859 97.6016 46.0627 99.8784 48.8713 99.8784C51.6799 99.8784 53.9568 97.6016 53.9568 94.793C53.9568 91.9843 51.6799 89.7075 48.8713 89.7075Z" fill="#865EB5"/>
<path d="M142.698 69.4674C144.376 69.4674 145.953 69.5691 147.428 69.7726C146.004 60.0085 144.427 42.7687 147.58 25.7324C144.885 22.6812 142.698 20.9521 142.698 20.9521C142.698 20.9521 140.105 23.0371 137.003 26.6478C139.901 43.4807 138.376 60.3644 136.952 69.8743C138.782 69.62 140.664 69.4674 142.698 69.4674Z" fill="#865EB5"/>
<path d="M170.261 83.1982C171.787 65.8568 154.954 62.8055 154.954 62.8055C154.954 62.8055 155.412 62.0936 156.022 60.8222C159.989 62.9581 168.787 67.3316 170.109 64.1786C171.584 60.6696 164.362 52.7363 157.548 56.6521C158.565 52.838 159.073 47.4983 157.039 41.3957C155.412 36.4628 152.767 32.191 150.225 28.8855C147.682 45.3115 149.36 61.5342 150.682 70.3829C163.701 73.3833 170.261 83.1982 170.261 83.1982Z" fill="#865EB5"/>
<path d="M128.408 41.3957C126.221 47.956 126.984 53.6008 128.103 57.4658C120.983 51.8209 112.796 60.5171 114.321 64.1786C115.745 67.535 125.764 62.297 129.171 60.4154C129.832 61.941 130.442 62.8055 130.442 62.8055C130.442 62.8055 113.609 65.8568 115.135 83.1982C115.135 83.1982 121.339 73.8918 133.748 70.5863C135.07 62.0427 136.748 46.1252 134.409 29.9026C132.171 33.1064 129.883 36.9714 128.408 41.3957Z" fill="#865EB5"/>
<path d="M142.241 75.7226C133.036 75.7226 125.56 79.5876 125.56 84.3679C125.56 89.1482 133.036 93.0132 142.241 93.0132C151.445 93.0132 158.921 89.1482 158.921 84.3679C158.921 79.5876 151.445 75.7226 142.241 75.7226Z" fill="#865EB5"/>
<path d="M578.828 19.986C577.404 20.2403 575.878 20.342 574.302 20.342C572.979 20.342 571.759 20.2403 570.538 20.0877C571.657 27.8176 572.929 41.4975 570.437 55.0248C572.573 57.4659 574.302 58.7881 574.302 58.7881C574.302 58.7881 576.336 57.1607 578.828 54.262C576.437 40.9381 577.709 27.5633 578.828 19.986Z" fill="#865EB5"/>
<path d="M564.537 25.5799C564.537 25.5799 564.181 26.1393 563.673 27.1564C560.52 25.4274 553.553 22.0201 552.485 24.512C551.315 27.2581 557.062 33.5641 562.452 30.5128C561.639 33.5641 561.232 37.785 562.859 42.6162C564.181 46.532 566.266 49.8884 568.301 52.5837C570.335 39.565 569.013 26.6479 567.945 19.6299C557.57 17.1889 552.383 9.40816 552.383 9.40816C551.163 23.1898 564.537 25.5799 564.537 25.5799Z" fill="#865EB5"/>
<path d="M580.811 51.7192C582.642 49.2274 584.422 46.1252 585.591 42.6163C587.32 37.4291 586.761 32.9539 585.846 29.8517C591.49 34.327 598 27.4616 596.779 24.512C595.66 21.8167 587.676 25.9868 584.981 27.5124C584.422 26.2919 583.964 25.5799 583.964 25.5799C583.964 25.5799 597.339 23.1389 596.118 9.35732C596.118 9.35732 591.185 16.7312 581.319 19.3757C580.302 26.2411 578.98 38.853 580.811 51.7192Z" fill="#865EB5"/>
<path d="M574.658 15.3582C581.981 15.3582 587.88 12.3069 587.88 8.49278C587.88 4.72953 581.93 1.6274 574.658 1.6274C567.334 1.6274 561.385 4.67868 561.385 8.49278C561.385 12.3069 567.334 15.3582 574.658 15.3582Z" fill="#865EB5"/>
<path d="M290.634 19.986C289.21 20.2403 287.685 20.342 286.108 20.342C284.786 20.342 283.566 20.2403 282.345 20.0877C283.464 27.8176 284.735 41.4975 282.243 55.0248C284.379 57.4659 286.108 58.7881 286.108 58.7881C286.108 58.7881 288.142 57.1607 290.634 54.262C288.295 40.9381 289.515 27.5633 290.634 19.986Z" fill="#865EB5"/>
<path d="M276.395 25.5799C276.395 25.5799 276.039 26.1393 275.53 27.1564C272.378 25.4274 265.41 22.0201 264.342 24.512C263.173 27.2581 268.919 33.5641 274.31 30.5128C273.496 33.5641 273.09 37.785 274.717 42.6162C276.039 46.532 278.124 49.8884 280.158 52.5837C282.193 39.565 280.87 26.6479 279.802 19.6299C269.428 17.1889 264.241 9.40816 264.241 9.40816C263.02 23.1898 276.395 25.5799 276.395 25.5799Z" fill="#865EB5"/>
<path d="M292.669 51.7192C294.499 49.2274 296.279 46.1252 297.449 42.6163C299.178 37.4291 298.619 32.9539 297.703 29.8517C303.348 34.327 309.857 27.4616 308.637 24.512C307.518 21.8167 299.534 25.9868 296.839 27.5124C296.279 26.2919 295.822 25.5799 295.822 25.5799C295.822 25.5799 309.196 23.1389 307.976 9.35732C307.976 9.35732 303.043 16.7312 293.177 19.3757C292.109 26.2411 290.787 38.853 292.669 51.7192Z" fill="#865EB5"/>
<path d="M286.464 15.3582C293.787 15.3582 299.686 12.3069 299.686 8.49278C299.686 4.72953 293.736 1.6274 286.464 1.6274C279.141 1.6274 273.191 4.67868 273.191 8.49278C273.242 12.3069 279.192 15.3582 286.464 15.3582Z" fill="#865EB5"/>
</g>
<defs>
<clipPath id="clip0_219_1043">
<rect width="1440" height="113.609" fill="white" transform="translate(1440 113.609) rotate(-180)"/>
</clipPath>
</defs>
</svg>
