<svg width="171" height="28" viewBox="0 0 171 28" fill="none" xmlns="http://www.w3.org/2000/svg">
<path d="M17.2227 1.12695L22.5137 22.3613L26.6973 22.9766L16.8008 27.1953L20.1758 22.9062L18.207 18.002L9.13672 18.3008L7.29102 23.5215L10.6836 27.9863L0.171875 23.8379L5.33984 23.3281L6.81641 18.3711H5.95508L4.47852 16.4902L7.4668 16.1738L10.6484 5.55664L7.04492 3.67578L17.2227 1.12695ZM9.96289 15.8926L16.9766 15.084L13.373 6.17188L9.96289 15.8926Z" fill="white"/>
<path d="M31.2852 11.8848V12.3945C31.2852 13.4141 31.2734 14.3984 31.25 15.3477C31.2266 16.2852 31.1973 17.2109 31.1621 18.125C31.1387 19.0391 31.1152 19.9414 31.0918 20.832C31.0684 21.7227 31.0508 22.6191 31.0391 23.5215L35.0996 25.7891H25.6426L28.8066 23.627C28.5488 21.2598 28.3438 19.1152 28.1914 17.1934C28.0508 15.2598 27.9453 13.6367 27.875 12.3242L25.3086 12.6055L27.7344 8.75586C27.8164 7.6543 27.9863 6.64062 28.2441 5.71484C28.502 4.77734 28.8652 3.96875 29.334 3.28906C29.8145 2.60938 30.4121 2.08203 31.127 1.70703C31.8418 1.32031 32.7031 1.12695 33.7109 1.12695C34.0625 1.12695 34.4258 1.16211 34.8008 1.23242C35.1758 1.29102 35.5391 1.38477 35.8906 1.51367C36.2539 1.64258 36.5938 1.80664 36.9102 2.00586C37.2266 2.20508 37.4902 2.43945 37.7012 2.70898L40.5488 0.617188L37.7715 7.64844C37.748 6.93359 37.6543 6.32422 37.4902 5.82031C37.3379 5.30469 37.1445 4.87695 36.9102 4.53711C36.6875 4.19727 36.4414 3.93359 36.1719 3.74609C35.9023 3.54688 35.6504 3.40039 35.416 3.30664C35.1816 3.20117 34.9824 3.13672 34.8184 3.11328C34.6543 3.07812 34.5605 3.06055 34.5371 3.06055C33.9746 3.0957 33.5059 3.27734 33.1309 3.60547C32.7559 3.93359 32.4453 4.38477 32.1992 4.95898C31.9648 5.5332 31.7832 6.21875 31.6543 7.01562C31.5254 7.80078 31.4258 8.66797 31.3555 9.61719H37.7715L36.4707 11.2344L31.2852 11.8848Z" fill="white"/>
<path d="M50.375 14.0117C50.2695 13.5781 50.1172 13.209 49.918 12.9043C49.7305 12.5996 49.5137 12.3477 49.2676 12.1484C49.0332 11.9375 48.7812 11.7793 48.5117 11.6738C48.2422 11.5566 47.9727 11.4688 47.7031 11.4102C47.0703 11.2812 46.3965 11.2871 45.6816 11.4277C45.4355 11.5098 45.1719 11.6387 44.8906 11.8145C44.6445 11.9785 44.3633 12.2012 44.0469 12.4824C43.7305 12.752 43.3906 13.1152 43.0273 13.5723L43.3438 23.7676L46.5078 25.3496L37.1914 26.1758L39.5996 23.7324L40.584 11.498L36.8398 9.79297L42.8867 8.65039L42.957 10.8477C43.3672 10.3555 43.7891 9.95117 44.2227 9.63477C44.6562 9.31836 45.0488 9.06055 45.4004 8.86133C45.8105 8.63867 46.209 8.46875 46.5957 8.35156C47.2988 8.1875 48.0137 8.12305 48.7402 8.1582C49.0449 8.16992 49.3613 8.20508 49.6895 8.26367C50.0293 8.32227 50.3691 8.41602 50.709 8.54492C51.0605 8.66211 51.4004 8.82617 51.7285 9.03711C52.0566 9.23633 52.373 9.48828 52.6777 9.79297L50.375 14.0117Z" fill="white"/>
<path d="M52.9238 17.1758C52.9238 15.8633 53.1289 14.6504 53.5391 13.5371C53.9609 12.4121 54.541 11.4395 55.2793 10.6191C56.0293 9.79883 56.9141 9.16016 57.9336 8.70312C58.9648 8.23438 60.0898 8 61.3086 8C62.4922 8 63.5762 8.22266 64.5605 8.66797C65.5449 9.10156 66.4004 9.7168 67.127 10.5137C67.8535 11.3105 68.4336 12.2656 68.8672 13.3789C69.3008 14.4922 69.5586 15.7227 69.6406 17.0703C69.7227 18.5117 69.5703 19.8184 69.1836 20.9902C68.8086 22.1504 68.252 23.1406 67.5137 23.9609C66.7754 24.7695 65.8906 25.3965 64.8594 25.8418C63.8398 26.2871 62.7324 26.5098 61.5371 26.5098C60.3887 26.5098 59.293 26.3047 58.25 25.8945C57.2188 25.4727 56.3047 24.8633 55.5078 24.0664C54.7227 23.2695 54.0957 22.2969 53.627 21.1484C53.1582 19.9883 52.9238 18.6641 52.9238 17.1758ZM57.248 17.4746C57.248 18.5059 57.3945 19.4375 57.6875 20.2695C57.9805 21.1016 58.373 21.8105 58.8652 22.3965C59.3574 22.9707 59.9258 23.416 60.5703 23.7324C61.2148 24.0488 61.8945 24.207 62.6094 24.207C63.3242 24.207 63.9922 24.0547 64.6133 23.75C65.2344 23.4336 65.7734 22.9941 66.2305 22.4316C66.6875 21.8574 67.0449 21.1719 67.3027 20.375C67.5605 19.5781 67.6895 18.6934 67.6895 17.7207C67.6895 16.7598 67.5605 15.8574 67.3027 15.0137C67.0449 14.1582 66.6816 13.4141 66.2129 12.7812C65.7559 12.1484 65.2109 11.6504 64.5781 11.2871C63.9453 10.9238 63.2539 10.7422 62.5039 10.7422C61.8359 10.7422 61.1855 10.8945 60.5527 11.1992C59.9316 11.5039 59.375 11.9492 58.8828 12.5352C58.3906 13.1094 57.9922 13.8125 57.6875 14.6445C57.3945 15.4766 57.248 16.4199 57.248 17.4746Z" fill="white"/>
<path d="M80.0469 26.4043C79.4141 26.4043 78.8281 26.3047 78.2891 26.1055C77.75 25.9062 77.2695 25.6367 76.8477 25.2969C76.4258 24.957 76.0566 24.5645 75.7402 24.1191C75.4355 23.6621 75.1953 23.1758 75.0195 22.6602L73.2441 26.7559L72.5586 5.76758L68.1465 4.04492L77.4629 2.99023C77.2285 4.70117 77.0293 6.23047 76.8652 7.57812C76.7012 8.91406 76.5664 10.1094 76.4609 11.1641C77.0938 10.2148 77.8613 9.44727 78.7637 8.86133C79.6777 8.26367 80.7207 7.96484 81.8926 7.96484C82.7598 7.96484 83.5156 8.07031 84.1602 8.28125C84.8047 8.49219 85.3555 8.78516 85.8125 9.16016C86.2812 9.52344 86.6621 9.95703 86.9551 10.4609C87.2598 10.9531 87.5 11.4805 87.6758 12.043C87.8516 12.6055 87.9746 13.1855 88.0449 13.7832C88.1152 14.3809 88.1504 14.9727 88.1504 15.5586C88.1504 17.1406 87.9746 18.5996 87.623 19.9355C87.2832 21.2598 86.7734 22.4023 86.0938 23.3633C85.4258 24.3242 84.582 25.0742 83.5625 25.6133C82.5547 26.1406 81.3828 26.4043 80.0469 26.4043ZM80.3105 10.6719C79.8184 10.6719 79.3555 10.7949 78.9219 11.041C78.4883 11.2871 78.0898 11.6211 77.7266 12.043C77.375 12.4648 77.0586 12.957 76.7773 13.5195C76.5078 14.0703 76.2793 14.6562 76.0918 15.2773C76.0684 15.6172 76.0508 15.9102 76.0391 16.1562C76.0273 16.3906 76.0215 16.5898 76.0215 16.7539C76.0098 16.9531 76.0098 17.1172 76.0215 17.2461C76.0215 18.6055 76.1211 19.7305 76.3203 20.6211C76.5195 21.5117 76.7891 22.2266 77.1289 22.7656C77.4688 23.293 77.8613 23.668 78.3066 23.8906C78.7637 24.1016 79.2383 24.207 79.7305 24.207C80.2227 24.207 80.7266 24.0195 81.2422 23.6445C81.7578 23.2695 82.2266 22.7305 82.6484 22.0273C83.082 21.3242 83.4336 20.4746 83.7031 19.4785C83.9844 18.4824 84.125 17.3574 84.125 16.1035C84.125 15.2246 84.0195 14.4453 83.8086 13.7656C83.5977 13.0859 83.3105 12.5176 82.9473 12.0605C82.5957 11.6035 82.1914 11.2578 81.7344 11.0234C81.2773 10.7891 80.8027 10.6719 80.3105 10.6719Z" fill="white"/>
<path d="M105.5 8.89648L106.186 24.0137L109.35 25.4902L102.143 26.8262L102.477 21.6758C102.148 22.3672 101.773 23.0293 101.352 23.6621C100.93 24.2832 100.455 24.834 99.9277 25.3145C99.4004 25.7832 98.8203 26.1582 98.1875 26.4395C97.5664 26.7207 96.8926 26.8613 96.166 26.8613C95.2988 26.8613 94.5371 26.709 93.8809 26.4043C93.2246 26.0996 92.6738 25.6836 92.2285 25.1562C91.7832 24.6172 91.4434 23.9902 91.209 23.2754C90.9863 22.5488 90.875 21.7754 90.875 20.9551C90.875 20.1934 90.9336 19.4023 91.0508 18.582C91.168 17.7617 91.3262 16.9531 91.5254 16.1562C91.7363 15.3477 91.9824 14.5684 92.2637 13.8184C92.5566 13.0566 92.873 12.3535 93.2129 11.709L89.5039 10.8477L96.4648 8.47461C96.0195 9.6582 95.6738 10.7949 95.4277 11.8848C95.1934 12.9629 95.0176 13.9238 94.9004 14.7676C94.7715 15.752 94.6895 16.666 94.6543 17.5098C94.6543 18.5996 94.7305 19.543 94.8828 20.3398C95.0352 21.125 95.2461 21.7812 95.5156 22.3086C95.7852 22.8242 96.1074 23.2109 96.4824 23.4688C96.8574 23.7148 97.2676 23.8379 97.7129 23.8379C98.3926 23.8379 99.002 23.6562 99.541 23.293C100.08 22.9297 100.555 22.4434 100.965 21.834C101.387 21.2129 101.744 20.4922 102.037 19.6719C102.342 18.8516 102.588 17.9844 102.775 17.0703C102.975 16.1562 103.121 15.2246 103.215 14.2754C103.309 13.3262 103.361 12.4121 103.373 11.5332L99.5586 8.89648H105.5Z" fill="white"/>
<path d="M117.875 26.4043C117.242 26.4043 116.656 26.3047 116.117 26.1055C115.578 25.9062 115.098 25.6367 114.676 25.2969C114.254 24.957 113.885 24.5645 113.568 24.1191C113.264 23.6621 113.023 23.1758 112.848 22.6602L111.072 26.7559L110.387 5.76758L105.975 4.04492L115.291 2.99023C115.057 4.70117 114.857 6.23047 114.693 7.57812C114.529 8.91406 114.395 10.1094 114.289 11.1641C114.922 10.2148 115.689 9.44727 116.592 8.86133C117.506 8.26367 118.549 7.96484 119.721 7.96484C120.588 7.96484 121.344 8.07031 121.988 8.28125C122.633 8.49219 123.184 8.78516 123.641 9.16016C124.109 9.52344 124.49 9.95703 124.783 10.4609C125.088 10.9531 125.328 11.4805 125.504 12.043C125.68 12.6055 125.803 13.1855 125.873 13.7832C125.943 14.3809 125.979 14.9727 125.979 15.5586C125.979 17.1406 125.803 18.5996 125.451 19.9355C125.111 21.2598 124.602 22.4023 123.922 23.3633C123.254 24.3242 122.41 25.0742 121.391 25.6133C120.383 26.1406 119.211 26.4043 117.875 26.4043ZM118.139 10.6719C117.646 10.6719 117.184 10.7949 116.75 11.041C116.316 11.2871 115.918 11.6211 115.555 12.043C115.203 12.4648 114.887 12.957 114.605 13.5195C114.336 14.0703 114.107 14.6562 113.92 15.2773C113.896 15.6172 113.879 15.9102 113.867 16.1562C113.855 16.3906 113.85 16.5898 113.85 16.7539C113.838 16.9531 113.838 17.1172 113.85 17.2461C113.85 18.6055 113.949 19.7305 114.148 20.6211C114.348 21.5117 114.617 22.2266 114.957 22.7656C115.297 23.293 115.689 23.668 116.135 23.8906C116.592 24.1016 117.066 24.207 117.559 24.207C118.051 24.207 118.555 24.0195 119.07 23.6445C119.586 23.2695 120.055 22.7305 120.477 22.0273C120.91 21.3242 121.262 20.4746 121.531 19.4785C121.812 18.4824 121.953 17.3574 121.953 16.1035C121.953 15.2246 121.848 14.4453 121.637 13.7656C121.426 13.0859 121.139 12.5176 120.775 12.0605C120.424 11.6035 120.02 11.2578 119.562 11.0234C119.105 10.7891 118.631 10.6719 118.139 10.6719Z" fill="white"/>
<path d="M136.473 26.4043C135.84 26.4043 135.254 26.3047 134.715 26.1055C134.176 25.9062 133.695 25.6367 133.273 25.2969C132.852 24.957 132.482 24.5645 132.166 24.1191C131.861 23.6621 131.621 23.1758 131.445 22.6602L129.67 26.7559L128.984 5.76758L124.572 4.04492L133.889 2.99023C133.654 4.70117 133.455 6.23047 133.291 7.57812C133.127 8.91406 132.992 10.1094 132.887 11.1641C133.52 10.2148 134.287 9.44727 135.189 8.86133C136.104 8.26367 137.146 7.96484 138.318 7.96484C139.186 7.96484 139.941 8.07031 140.586 8.28125C141.23 8.49219 141.781 8.78516 142.238 9.16016C142.707 9.52344 143.088 9.95703 143.381 10.4609C143.686 10.9531 143.926 11.4805 144.102 12.043C144.277 12.6055 144.4 13.1855 144.471 13.7832C144.541 14.3809 144.576 14.9727 144.576 15.5586C144.576 17.1406 144.4 18.5996 144.049 19.9355C143.709 21.2598 143.199 22.4023 142.52 23.3633C141.852 24.3242 141.008 25.0742 139.988 25.6133C138.98 26.1406 137.809 26.4043 136.473 26.4043ZM136.736 10.6719C136.244 10.6719 135.781 10.7949 135.348 11.041C134.914 11.2871 134.516 11.6211 134.152 12.043C133.801 12.4648 133.484 12.957 133.203 13.5195C132.934 14.0703 132.705 14.6562 132.518 15.2773C132.494 15.6172 132.477 15.9102 132.465 16.1562C132.453 16.3906 132.447 16.5898 132.447 16.7539C132.436 16.9531 132.436 17.1172 132.447 17.2461C132.447 18.6055 132.547 19.7305 132.746 20.6211C132.945 21.5117 133.215 22.2266 133.555 22.7656C133.895 23.293 134.287 23.668 134.732 23.8906C135.189 24.1016 135.664 24.207 136.156 24.207C136.648 24.207 137.152 24.0195 137.668 23.6445C138.184 23.2695 138.652 22.7305 139.074 22.0273C139.508 21.3242 139.859 20.4746 140.129 19.4785C140.41 18.4824 140.551 17.3574 140.551 16.1035C140.551 15.2246 140.445 14.4453 140.234 13.7656C140.023 13.0859 139.736 12.5176 139.373 12.0605C139.021 11.6035 138.617 11.2578 138.16 11.0234C137.703 10.7891 137.229 10.6719 136.736 10.6719Z" fill="white"/>
<path d="M150.658 23.8027L154.174 25.209L145.367 26.0703L148.531 23.5918L147.986 4.60742L143.926 2.84961L152.82 1.67188L150.658 23.8027Z" fill="white"/>
<path d="M159.166 19.5488C159.318 20.2051 159.523 20.8496 159.781 21.4824C160.039 22.1035 160.355 22.6602 160.73 23.1523C161.105 23.6445 161.539 24.043 162.031 24.3477C162.523 24.6523 163.08 24.8047 163.701 24.8047C164.521 24.8047 165.236 24.6348 165.846 24.2949C166.455 23.9551 166.953 23.5273 167.34 23.0117C167.727 22.4844 167.996 21.9102 168.148 21.2891C168.301 20.6562 168.33 20.0527 168.236 19.4785C168.564 19.6074 168.834 19.7773 169.045 19.9883C169.268 20.1992 169.438 20.4336 169.555 20.6914C169.684 20.9375 169.771 21.1953 169.818 21.4648C169.865 21.7227 169.889 21.9746 169.889 22.2207C169.889 22.7832 169.725 23.3281 169.396 23.8555C169.068 24.3711 168.605 24.834 168.008 25.2441C167.422 25.6426 166.725 25.9648 165.916 26.2109C165.107 26.457 164.223 26.5801 163.262 26.5801C161.973 26.5801 160.818 26.3281 159.799 25.8242C158.791 25.3203 157.936 24.6406 157.232 23.7852C156.529 22.918 155.99 21.9043 155.615 20.7441C155.24 19.584 155.053 18.3477 155.053 17.0352C155.053 15.6992 155.24 14.4688 155.615 13.3438C155.99 12.207 156.541 11.2402 157.268 10.4434C158.006 9.64648 158.908 9.04297 159.975 8.63281C161.041 8.22266 162.271 8.05859 163.666 8.14062C164.627 8.21094 165.512 8.48633 166.32 8.9668C167.129 9.44727 167.832 10.0684 168.43 10.8301C169.039 11.5801 169.525 12.4414 169.889 13.4141C170.264 14.3867 170.492 15.4004 170.574 16.4551L159.166 19.5488ZM158.832 16.7188C158.832 16.8828 158.832 17.0469 158.832 17.2109C158.832 17.3633 158.844 17.5215 158.867 17.6855L166.584 14.873C166.326 14.0293 166.033 13.3086 165.705 12.7109C165.389 12.1016 165.055 11.6035 164.703 11.2168C164.352 10.8301 163.994 10.5488 163.631 10.373C163.279 10.1855 162.939 10.0918 162.611 10.0918C162.119 10.0918 161.686 10.1855 161.311 10.373C160.936 10.5605 160.607 10.8184 160.326 11.1465C160.057 11.4629 159.822 11.8379 159.623 12.2715C159.436 12.7051 159.283 13.168 159.166 13.6602C159.049 14.1523 158.961 14.6621 158.902 15.1895C158.855 15.7051 158.832 16.2148 158.832 16.7188Z" fill="white"/>
</svg>
