<svg width="36" height="27" viewBox="0 0 36 27" fill="none" xmlns="http://www.w3.org/2000/svg">
<path d="M30.165 2.60519C27.9153 1.59059 25.5038 0.840675 22.982 0.41425C22.9595 0.409939 22.9363 0.412717 22.9155 0.422201C22.8947 0.431685 22.8773 0.447406 22.8658 0.467186C22.557 1.00977 22.213 1.71705 21.9718 2.27581C19.2972 1.87621 16.5781 1.87621 13.9036 2.27581C13.635 1.65656 13.3321 1.05275 12.9963 0.467186C12.9849 0.447162 12.9677 0.431086 12.947 0.421103C12.9262 0.411119 12.9029 0.407702 12.8801 0.411309C10.3598 0.837734 7.94832 1.58765 5.69709 2.60372C5.67772 2.61184 5.6613 2.6257 5.65004 2.64342C1.07406 9.37064 -0.180219 15.9317 0.435891 22.4104C0.437606 22.4263 0.442531 22.4416 0.450367 22.4555C0.458204 22.4694 0.468788 22.4816 0.481474 22.4913C3.15235 24.4358 6.13136 25.9171 9.29376 26.8732C9.31581 26.88 9.33939 26.8799 9.36142 26.8731C9.38346 26.8663 9.40292 26.853 9.41728 26.8349C10.0966 25.9233 10.7024 24.9601 11.22 23.9485C11.2509 23.8897 11.2215 23.8191 11.1597 23.7956C10.2098 23.4378 9.28948 23.0062 8.40709 22.5045C8.39124 22.4955 8.37788 22.4826 8.36821 22.4671C8.35854 22.4516 8.35287 22.434 8.35171 22.4158C8.35054 22.3976 8.35392 22.3793 8.36153 22.3628C8.36914 22.3462 8.38076 22.3317 8.39533 22.3207C8.5806 22.184 8.76588 22.0413 8.94233 21.8987C8.95821 21.8859 8.97734 21.8777 8.99759 21.8751C9.01784 21.8725 9.03842 21.8756 9.05702 21.884C14.8314 24.4778 21.0851 24.4778 26.7919 21.884C26.8105 21.8751 26.8313 21.8716 26.8519 21.874C26.8724 21.8763 26.8919 21.8844 26.908 21.8972C27.0845 22.0413 27.2683 22.184 27.455 22.3207C27.4698 22.3315 27.4816 22.3457 27.4894 22.3622C27.4973 22.3786 27.5009 22.3968 27.5001 22.415C27.4992 22.4332 27.4938 22.4509 27.4844 22.4665C27.475 22.4822 27.4619 22.4952 27.4462 22.5045C26.5669 23.0103 25.6523 23.4382 24.6921 23.7941C24.6774 23.7994 24.6639 23.8079 24.6527 23.8188C24.6415 23.8298 24.6327 23.843 24.627 23.8576C24.6213 23.8723 24.6188 23.8879 24.6196 23.9036C24.6204 23.9192 24.6246 23.9346 24.6318 23.9485C25.1612 24.9587 25.767 25.9203 26.4331 26.8335C26.4469 26.8522 26.4662 26.8662 26.4883 26.8736C26.5104 26.8809 26.5343 26.8813 26.5566 26.8746C29.7244 25.9213 32.7083 24.4393 35.3821 22.4913C35.3952 22.4822 35.4061 22.4704 35.4142 22.4567C35.4224 22.443 35.4275 22.4277 35.4292 22.4119C36.1644 14.9215 34.197 8.41339 30.2106 2.64636C30.2009 2.62762 30.1847 2.61301 30.165 2.60519ZM12.0832 18.4652C10.3451 18.4652 8.91145 16.8934 8.91145 14.9656C8.91145 13.0364 10.3172 11.466 12.0832 11.466C13.8624 11.466 15.2828 13.0497 15.2549 14.9656C15.2549 16.8948 13.8492 18.4652 12.0832 18.4652ZM23.8098 18.4652C22.0703 18.4652 20.6381 16.8934 20.6381 14.9656C20.6381 13.0364 22.0424 11.466 23.8098 11.466C25.5891 11.466 27.0095 13.0497 26.9816 14.9656C26.9816 16.8948 25.5905 18.4652 23.8098 18.4652Z" fill="white"/>
</svg>
