<svg width="1440" height="707" viewBox="0 0 1440 707" fill="none" xmlns="http://www.w3.org/2000/svg">
<rect width="1440" height="707" fill="#3D2E57"/>
<mask id="mask0_211_713" style="mask-type:alpha" maskUnits="userSpaceOnUse" x="0" y="0" width="1440" height="707">
<rect width="1440" height="707" fill="#3D2E57"/>
</mask>
<g mask="url(#mask0_211_713)">
<g style="mix-blend-mode:multiply" opacity="0.16" clip-path="url(#clip0_211_713)">
<path d="M821.686 716.204L828.698 704.045H814.674L821.686 716.204Z" fill="#3D2E57"/>
<path d="M821.761 699.42C827.057 699.42 832.279 698.375 837.202 696.287C847.124 692.184 854.807 684.426 858.835 674.505C862.938 664.583 862.864 653.692 858.761 643.771C852.495 628.777 837.948 619.154 821.686 619.154C816.39 619.154 811.168 620.198 806.245 622.287C796.323 626.39 788.64 634.148 784.612 644.069C780.509 653.991 780.584 664.882 784.686 674.803C790.953 689.722 805.499 699.42 821.761 699.42ZM790.43 653.021L802.44 651.38L795.055 641.831C795.13 641.682 795.205 641.607 795.279 641.458L806.991 644.591L803.858 632.88C803.932 632.805 804.007 632.805 804.082 632.73L813.705 640.041L815.271 628.031C817.36 627.583 819.598 627.359 821.761 627.359C823.924 627.359 826.013 627.583 828.102 628.031L829.743 640.041L839.366 632.656C839.515 632.73 839.59 632.805 839.739 632.88L836.606 644.591L848.243 641.458C848.317 641.533 848.317 641.607 848.392 641.682L841.081 651.305L853.092 652.872C853.987 657.124 853.987 661.45 853.166 665.702L841.156 667.343L848.541 676.892C848.467 677.041 848.392 677.115 848.317 677.265L836.606 674.132L839.739 685.843C839.664 685.918 839.59 685.918 839.515 685.992L829.892 678.682L828.325 690.692C826.237 691.14 823.999 691.363 821.836 691.363C819.672 691.363 817.584 691.14 815.495 690.767L813.854 678.757L804.231 686.142C804.082 686.067 804.007 685.992 803.858 685.918L806.991 674.206L795.279 677.339C795.205 677.265 795.205 677.19 795.13 677.115L802.44 667.492L790.43 665.926C789.61 661.599 789.535 657.198 790.43 653.021Z" fill="#3D2E57"/>
<path d="M821.686 675.325C830.563 675.325 837.725 668.164 837.725 659.287C837.725 650.41 830.563 643.249 821.686 643.249C812.809 643.249 805.648 650.41 805.648 659.287C805.648 668.164 812.884 675.325 821.686 675.325Z" fill="#3D2E57"/>
<path d="M821.686 602.37L814.674 614.529H828.698L821.686 602.37Z" fill="#3D2E57"/>
<path d="M866.519 666.299L878.604 659.287L866.519 652.275V666.299Z" fill="#3D2E57"/>
<path d="M776.929 652.275L764.769 659.287L776.929 666.299V652.275Z" fill="#3D2E57"/>
<path d="M861.969 619.005L848.392 622.66L858.313 632.581L861.969 619.005Z" fill="#3D2E57"/>
<path d="M848.392 695.914L861.969 699.494L858.313 685.992L848.392 695.914Z" fill="#3D2E57"/>
<path d="M781.479 699.494L794.981 695.914L785.134 685.992L781.479 699.494Z" fill="#3D2E57"/>
<path d="M795.056 622.66L781.479 619.005L785.134 632.581L795.056 622.66Z" fill="#3D2E57"/>
<path d="M843.916 606.845L832.727 615.349L845.632 620.795L843.916 606.845Z" fill="#3D2E57"/>
<path d="M860.178 683.232L874.128 681.517L865.698 670.327L860.178 683.232Z" fill="#3D2E57"/>
<path d="M799.531 711.654L810.721 703.224L797.815 697.779L799.531 711.654Z" fill="#3D2E57"/>
<path d="M783.195 635.341L769.32 637.057L777.749 648.247L783.195 635.341Z" fill="#3D2E57"/>
<path d="M865.848 648.993L874.501 637.952L860.551 636.013L865.848 648.993Z" fill="#3D2E57"/>
<path d="M843.096 712.027L845.035 698.152L831.981 703.373L843.096 712.027Z" fill="#3D2E57"/>
<path d="M777.6 669.581L768.947 680.622L782.822 682.561L777.6 669.581Z" fill="#3D2E57"/>
<path d="M800.352 606.547L798.412 620.422L811.392 615.126L800.352 606.547Z" fill="#3D2E57"/>
<path d="M821.686 732.615C862.118 732.615 895.015 699.718 895.015 659.287C895.015 618.856 862.118 585.958 821.686 585.958C781.255 585.958 748.358 618.856 748.358 659.287C748.358 699.718 781.255 732.615 821.686 732.615ZM821.686 599.013C854.956 599.013 881.96 626.091 881.96 659.287C881.96 692.557 854.882 719.561 821.686 719.561C788.416 719.561 761.412 692.482 761.412 659.287C761.412 626.017 788.491 599.013 821.686 599.013Z" fill="#3D2E57"/>
<path d="M658.245 436.765C658.245 519.866 673.538 599.684 702.481 667.567C731.052 734.48 770.737 785.28 817.285 814.373L821.761 817.133L826.237 814.373C872.785 785.28 912.471 734.48 941.041 667.567C969.985 599.684 985.277 519.866 985.277 436.765V428.41H658.245V436.765ZM678.163 500.844C681.669 497.86 688.979 491.892 698.602 486.223C701.064 488.684 704.421 490.176 708.15 490.176C715.61 490.176 721.727 484.134 721.727 476.6C721.727 476.301 721.727 475.928 721.652 475.63C728.217 473.467 734.707 471.9 741.197 470.93C743.435 475.257 747.985 478.241 753.207 478.241C758.876 478.241 763.65 474.809 765.739 469.961C771.035 470.334 776.332 471.154 781.628 472.348C782.076 479.434 787.969 485.029 795.13 485.029C799.084 485.029 802.664 483.313 805.126 480.628C809.527 482.717 813.929 485.104 818.255 487.789L821.09 489.58L823.924 487.789C828.549 484.88 833.174 482.418 837.874 480.18C840.336 483.09 844.066 484.955 848.243 484.955C855.553 484.955 861.447 479.211 861.745 471.975C866.967 470.856 872.263 470.11 877.559 469.737C879.574 474.66 884.422 478.166 890.092 478.166C895.239 478.166 899.715 475.257 902.027 471.005C908.517 472.049 915.082 473.69 921.646 475.928C921.646 476.152 921.571 476.301 921.571 476.525C921.571 484.059 927.688 490.102 935.148 490.102C938.803 490.102 942.086 488.684 944.547 486.297C954.469 491.892 961.928 497.487 965.21 500.098C964.614 505.916 964.017 511.735 963.271 517.553C955.587 512.108 942.384 503.827 925.152 498.009C913.963 494.204 900.088 491.146 884.422 491.146C865.326 491.146 843.693 495.696 821.09 509.124C779.987 484.805 741.943 489.58 717.027 498.084C700.616 503.678 687.786 511.436 679.953 516.882C679.282 511.586 678.759 506.215 678.163 500.844ZM681.669 529.041C687.562 524.491 701.661 514.644 720.907 508.154C754.624 496.815 787.447 500.844 818.33 520.015L821.164 521.805L823.999 520.015C855.031 500.694 887.928 496.741 921.795 508.229C942.235 515.166 956.706 525.833 961.704 529.787C960.66 536.799 959.467 543.737 958.198 550.6C951.112 555.672 938.579 563.43 922.616 568.801C888.898 580.14 856.076 576.186 825.193 556.94L822.358 555.15L819.523 556.94C788.491 576.261 755.594 580.214 721.727 568.652C704.719 562.908 691.814 554.553 685.1 549.555C683.832 542.842 682.638 535.979 681.669 529.041ZM925.525 660.928C899.267 722.545 863.461 769.541 821.687 797.216C779.912 769.466 744.106 722.47 717.848 660.928C705.092 631.015 695.096 598.64 687.935 564.624C695.618 569.323 705.838 574.769 718.146 578.946C729.336 582.751 743.285 585.809 758.876 585.809C777.973 585.809 799.606 581.259 822.209 567.906C863.311 592.224 901.356 587.45 926.271 578.946C937.834 574.993 947.606 569.995 955.14 565.519C948.128 599.162 938.206 631.238 925.525 660.928ZM968.418 445.12C968.269 459.442 967.598 473.616 966.479 487.64C962.749 484.805 956.706 480.553 948.799 476.227C948.575 468.916 942.608 463.023 935.223 463.023C931.866 463.023 928.807 464.217 926.495 466.231C926.047 466.082 925.674 465.932 925.227 465.783C918.662 463.545 911.203 461.606 903.071 460.338C901.281 454.967 896.209 451.013 890.166 451.013C884.646 451.013 879.872 454.295 877.783 459.07C871.443 459.442 864.803 460.338 858.015 461.904C855.553 459.368 852.122 457.801 848.318 457.801C841.38 457.801 835.636 463.023 834.89 469.737C830.414 471.751 825.789 474.138 821.164 476.824C816.987 474.362 812.81 472.199 808.707 470.334C808.185 463.322 802.291 457.801 795.205 457.801C791.251 457.801 787.745 459.442 785.283 462.128C778.57 460.561 772.005 459.592 765.739 459.144C763.65 454.37 758.876 451.013 753.281 451.013C747.388 451.013 742.316 454.817 740.451 460.114C731.798 461.382 723.89 463.396 717.027 465.783C716.878 465.858 716.729 465.858 716.58 465.932C714.267 464.067 711.358 463.023 708.15 463.023C700.989 463.023 695.171 468.543 694.649 475.555C686.89 479.733 680.923 483.836 676.895 486.745C675.85 473.019 675.179 459.144 675.03 445.12H968.418Z" fill="#3D2E57"/>
<path d="M821.678 355.597L803.216 374.058L821.678 392.52L840.139 374.058L821.678 355.597Z" fill="#3D2E57"/>
<path d="M774.84 374.029L821.761 420.951L868.682 374.029L821.687 327.108L774.84 374.029ZM821.687 401.033L794.683 374.029L821.687 347.025L848.691 374.029L821.687 401.033Z" fill="#3D2E57"/>
<path d="M808.632 545.452C811.317 543.14 813.705 540.678 815.719 538.067C803.559 522.7 780.658 512.332 754.326 512.332C727.993 512.332 705.092 522.7 692.933 538.067C695.021 540.678 697.408 543.215 700.094 545.527C713.82 534.412 733.513 527.848 754.4 527.848C775.287 527.848 794.906 534.412 808.632 545.452Z" fill="#3D2E57"/>
<path d="M804.828 548.511C791.997 538.515 773.795 532.622 754.475 532.622C735.08 532.622 716.804 538.59 703.973 548.585C716.804 557.985 734.632 563.803 754.326 563.803C774.094 563.803 791.997 557.985 804.828 548.511Z" fill="#3D2E57"/>
<path d="M834.815 545.452C848.541 534.412 868.16 527.848 889.047 527.848C909.934 527.848 929.628 534.412 943.354 545.527C946.039 543.215 948.426 540.753 950.515 538.067C938.356 522.7 915.454 512.332 889.122 512.332C862.789 512.332 839.888 522.7 827.729 538.067C829.743 540.678 832.13 543.14 834.815 545.452Z" fill="#3D2E57"/>
<path d="M838.62 548.511C851.45 557.985 869.279 563.803 889.122 563.803C908.815 563.803 926.644 557.985 939.474 548.585C926.644 538.59 908.442 532.622 888.973 532.622C869.652 532.622 851.45 538.515 838.62 548.511Z" fill="#3D2E57"/>
<path d="M939.997 594.313H883.751V603.489H939.997V594.313Z" fill="#3D2E57"/>
<path d="M933.656 611.023H892.926V620.198H933.656V611.023Z" fill="#3D2E57"/>
<path d="M927.241 628.255H898.521V637.43H927.241V628.255Z" fill="#3D2E57"/>
<path d="M918.886 646.009H904.489V655.184H918.886V646.009Z" fill="#3D2E57"/>
<path d="M759.622 594.313H703.376V603.489H759.622V594.313Z" fill="#3D2E57"/>
<path d="M750.521 611.023H709.792V620.198H750.521V611.023Z" fill="#3D2E57"/>
<path d="M744.852 628.255H716.132V637.43H744.852V628.255Z" fill="#3D2E57"/>
<path d="M738.959 646.009H724.562V655.184H738.959V646.009Z" fill="#3D2E57"/>
<path d="M910.084 661.301C906.578 661.301 903.668 664.136 903.668 667.716C903.668 671.297 906.503 674.132 910.084 674.132C913.664 674.132 916.499 671.297 916.499 667.716C916.499 664.136 913.664 661.301 910.084 661.301Z" fill="#3D2E57"/>
<path d="M902.102 680.472C899.267 680.472 896.954 682.785 896.954 685.619C896.954 688.454 899.267 690.841 902.102 690.841C904.936 690.841 907.249 688.529 907.249 685.619C907.323 682.785 905.011 680.472 902.102 680.472Z" fill="#3D2E57"/>
<path d="M894.12 698.077C891.658 698.077 889.719 700.017 889.719 702.478C889.719 704.94 891.658 706.879 894.12 706.879C896.581 706.879 898.521 704.94 898.521 702.478C898.521 700.017 896.581 698.077 894.12 698.077Z" fill="#3D2E57"/>
<path d="M739.705 667.716C739.705 664.21 736.87 661.301 733.29 661.301C729.784 661.301 726.874 664.136 726.874 667.716C726.874 671.297 729.709 674.132 733.29 674.132C736.87 674.132 739.705 671.222 739.705 667.716Z" fill="#3D2E57"/>
<path d="M746.493 685.694C746.493 682.859 744.18 680.547 741.271 680.547C738.437 680.547 736.124 682.859 736.124 685.694C736.124 688.529 738.437 690.916 741.271 690.916C744.18 690.841 746.493 688.529 746.493 685.694Z" fill="#3D2E57"/>
<path d="M749.253 698.077C746.791 698.077 744.852 700.017 744.852 702.478C744.852 704.94 746.791 706.879 749.253 706.879C751.715 706.879 753.654 704.94 753.654 702.478C753.654 700.017 751.715 698.077 749.253 698.077Z" fill="#3D2E57"/>
<path d="M963.196 449.074H912.918C912.918 449.074 945.666 457.055 961.63 472.646L963.196 449.074Z" fill="#3D2E57"/>
<path d="M681.818 472.572C697.781 456.981 730.529 448.999 730.529 448.999H680.251L681.818 472.572Z" fill="#3D2E57"/>
<path d="M868.906 410.88C869.95 410.88 870.846 409.985 870.846 408.941C870.846 407.822 869.95 407.001 868.906 407.001C867.862 407.001 866.967 407.896 866.967 408.941C866.967 409.985 867.862 410.88 868.906 410.88Z" fill="#3D2E57"/>
<path d="M832.13 422.144H981.174C906.95 404.166 877.037 381.414 877.037 381.414L832.13 422.144ZM893.896 407.822L904.265 401.854V415.58L893.97 409.612C890.39 412.745 884.198 414.759 877.261 414.759C869.652 414.759 863.013 412.297 859.581 408.717C862.938 405.136 869.652 402.674 877.261 402.674C884.198 402.674 890.315 404.763 893.896 407.822Z" fill="#3D2E57"/>
<path d="M774.541 410.88C775.66 410.88 776.481 409.985 776.481 408.941C776.481 407.822 775.586 407.001 774.541 407.001C773.497 407.001 772.602 407.896 772.602 408.941C772.527 409.985 773.423 410.88 774.541 410.88Z" fill="#3D2E57"/>
<path d="M811.318 422.144L766.41 381.414C766.41 381.414 736.497 404.166 662.273 422.144H811.318ZM749.477 407.822C753.058 404.689 759.249 402.674 766.187 402.674C773.795 402.674 780.434 405.136 783.866 408.717C780.509 412.297 773.795 414.759 766.187 414.759C759.174 414.759 753.058 412.67 749.477 409.612L739.183 415.58V401.854L749.477 407.822Z" fill="#3D2E57"/>
<path d="M821.686 31.9292L814.674 44.0139H828.698L821.686 31.9292Z" fill="#3D2E57"/>
<path d="M837.203 51.772C832.279 49.6833 827.058 48.6389 821.761 48.6389C805.499 48.6389 790.953 58.3365 784.687 73.2558C780.509 83.1772 780.509 94.0683 784.612 103.99C788.64 113.911 796.398 121.669 806.245 125.772C811.168 127.861 816.39 128.905 821.687 128.905C837.949 128.905 852.495 119.207 858.761 104.288C862.864 94.3667 862.938 83.4755 858.836 73.5542C854.807 63.6328 847.124 55.9494 837.203 51.772ZM852.943 95.3364L840.932 96.9029L848.243 106.526C848.168 106.601 848.168 106.675 848.094 106.75L836.457 103.617L839.59 115.328C839.441 115.403 839.366 115.477 839.217 115.552L829.594 108.167L827.953 120.177C825.864 120.625 823.775 120.848 821.612 120.848C819.449 120.848 817.211 120.625 815.122 120.177L813.556 108.167L803.933 115.478C803.858 115.403 803.783 115.403 803.709 115.328L806.842 103.617L795.13 106.75C795.056 106.601 794.981 106.526 794.906 106.377L802.291 96.8283L790.281 95.1872C789.386 90.9352 789.461 86.6086 790.356 82.3566L802.366 80.7901L795.056 71.1671C795.13 71.0925 795.13 71.0179 795.205 70.9433L806.916 74.0764L803.783 62.3647C803.933 62.2901 804.007 62.2155 804.156 62.1409L813.779 69.526L815.42 57.5159C817.509 57.0683 819.598 56.8445 821.761 56.8445C823.924 56.8445 826.162 57.0683 828.251 57.5159L829.818 69.526L839.441 62.2155C839.515 62.2901 839.59 62.2901 839.664 62.3647L836.531 74.0764L848.243 70.9433C848.318 71.0925 848.392 71.1671 848.467 71.3163L841.082 80.8647L853.092 82.5058C853.838 86.7578 853.838 91.0844 852.943 95.3364Z" fill="#3D2E57"/>
<path d="M821.686 72.7336C812.809 72.7336 805.648 79.8949 805.648 88.7719C805.648 97.6489 812.809 104.81 821.686 104.81C830.563 104.81 837.725 97.6489 837.725 88.7719C837.799 79.9695 830.563 72.7336 821.686 72.7336Z" fill="#3D2E57"/>
<path d="M821.686 145.764L828.698 133.604H814.674L821.686 145.764Z" fill="#3D2E57"/>
<path d="M866.519 95.8586L878.604 88.7719L866.519 81.7598V95.8586Z" fill="#3D2E57"/>
<path d="M776.929 81.8344L764.769 88.8465L776.929 95.8586V81.8344Z" fill="#3D2E57"/>
<path d="M848.392 125.399L861.969 129.054L858.313 115.477L848.392 125.399Z" fill="#3D2E57"/>
<path d="M861.969 48.5643L848.392 52.2195L858.313 62.1409L861.969 48.5643Z" fill="#3D2E57"/>
<path d="M794.981 52.2195L781.479 48.5643L785.134 62.1409L794.981 52.2195Z" fill="#3D2E57"/>
<path d="M781.479 129.054L795.056 125.399L785.134 115.477L781.479 129.054Z" fill="#3D2E57"/>
<path d="M843.916 141.213L845.632 127.264L832.727 132.784L843.916 141.213Z" fill="#3D2E57"/>
<path d="M865.698 77.8062L874.128 66.6167L860.178 64.9009L865.698 77.8062Z" fill="#3D2E57"/>
<path d="M799.531 36.405L797.815 50.3546L810.721 44.8345L799.531 36.405Z" fill="#3D2E57"/>
<path d="M777.749 99.8122L769.32 111.002L783.195 112.717L777.749 99.8122Z" fill="#3D2E57"/>
<path d="M860.551 112.121L874.501 110.181L865.848 99.0662L860.551 112.121Z" fill="#3D2E57"/>
<path d="M843.096 36.032L831.981 44.6852L845.035 49.907L843.096 36.032Z" fill="#3D2E57"/>
<path d="M782.822 65.4977L768.947 67.4372L777.6 78.5522L782.822 65.4977Z" fill="#3D2E57"/>
<path d="M800.352 141.586L811.392 132.933L798.412 127.711L800.352 141.586Z" fill="#3D2E57"/>
<path d="M821.686 15.4434C781.255 15.4434 748.358 48.3405 748.358 88.7719C748.358 129.203 781.255 162.1 821.686 162.1C862.118 162.1 895.015 129.203 895.015 88.7719C895.089 48.3405 862.192 15.4434 821.686 15.4434ZM821.686 149.121C788.416 149.121 761.412 122.042 761.412 88.8465C761.412 55.5764 788.491 28.5724 821.686 28.5724C854.956 28.5724 881.96 55.651 881.96 88.8465C882.035 122.042 854.956 149.121 821.686 149.121Z" fill="#3D2E57"/>
<path d="M940.966 80.5662C912.396 13.6531 872.711 -37.1472 826.162 -66.2399L821.686 -69L817.211 -66.2399C770.662 -37.1472 730.977 13.6531 702.406 80.5662C673.463 148.449 658.171 228.193 658.171 311.368V319.723H985.128V311.368C985.202 228.268 969.91 148.449 940.966 80.5662ZM717.848 87.1307C744.106 25.5139 779.912 -21.482 821.686 -49.1573C863.461 -21.4074 899.267 25.5885 925.525 87.1307C938.206 116.82 948.128 148.897 955.214 182.54C947.68 177.989 937.908 172.991 926.346 169.112C901.43 160.683 863.386 155.834 822.283 180.153C799.68 166.8 777.973 162.25 758.951 162.25C743.36 162.25 729.485 165.308 718.221 169.112C705.912 173.29 695.618 178.661 688.009 183.435C695.171 149.419 705.167 117.044 717.848 87.1307ZM965.285 247.886C962.003 250.497 954.543 256.092 944.622 261.687C942.16 259.374 938.878 257.882 935.223 257.882C927.763 257.882 921.646 263.925 921.646 271.459C921.646 271.683 921.646 271.832 921.721 272.056C915.156 274.294 908.592 275.935 902.102 276.979C899.789 272.727 895.313 269.818 890.166 269.818C884.497 269.818 879.648 273.324 877.634 278.247C872.338 277.874 867.041 277.203 861.819 276.009C861.521 268.774 855.553 263.03 848.317 263.03C844.14 263.03 840.485 264.894 837.949 267.804C833.249 265.64 828.624 263.104 823.999 260.195L821.164 258.405L818.33 260.195C814.003 262.88 809.602 265.267 805.201 267.356C802.739 264.671 799.158 262.955 795.205 262.955C788.043 262.955 782.15 268.55 781.703 275.636C776.481 276.83 771.185 277.651 765.814 278.024C763.8 273.175 758.951 269.743 753.281 269.743C748.06 269.743 743.509 272.727 741.271 277.054C734.781 276.084 728.291 274.517 721.727 272.354C721.727 272.056 721.802 271.683 721.802 271.384C721.802 263.925 715.685 257.808 708.225 257.808C704.495 257.808 701.138 259.3 698.677 261.761C688.979 256.017 681.743 250.124 678.237 247.14C678.759 241.77 679.356 236.399 680.028 231.102C687.86 236.548 700.616 244.306 717.102 249.901C742.017 258.405 780.062 263.179 821.164 238.86C843.767 252.213 865.475 256.838 884.497 256.838C900.088 256.838 913.963 253.78 925.227 249.975C942.458 244.157 955.737 235.876 963.345 230.431C964.091 236.175 964.763 242.068 965.285 247.886ZM685.025 198.429C691.739 193.506 704.644 185.151 721.652 179.332C755.519 167.844 788.416 171.798 819.449 191.044L822.283 192.834L825.118 191.044C856.001 171.798 888.749 167.844 922.541 179.183C938.579 184.554 951.037 192.312 958.124 197.385C959.392 204.247 960.585 211.185 961.63 218.197C956.632 222.151 942.085 232.818 921.721 239.755C887.854 251.243 854.957 247.29 823.924 228.044L821.09 226.253L818.255 228.044C787.372 247.29 754.624 251.243 720.832 239.905C701.586 233.415 687.487 223.568 681.594 219.018C682.638 212.08 683.832 205.217 685.025 198.429ZM675.03 302.939C675.179 288.915 675.85 275.04 676.894 261.314C680.848 264.298 686.89 268.401 694.648 272.503C695.171 279.515 700.989 285.036 708.15 285.036C711.358 285.036 714.267 283.917 716.58 282.126C716.729 282.201 716.878 282.201 717.027 282.276C723.89 284.588 731.798 286.677 740.451 287.945C742.316 293.241 747.314 297.046 753.281 297.046C758.876 297.046 763.65 293.689 765.739 288.915C772.005 288.467 778.57 287.572 785.283 285.931C787.745 288.616 791.251 290.257 795.205 290.257C802.366 290.257 808.185 284.737 808.707 277.725C812.81 275.86 816.987 273.697 821.164 271.235C825.789 273.995 830.34 276.308 834.816 278.322C835.636 285.036 841.38 290.257 848.317 290.257C852.122 290.257 855.553 288.691 858.015 286.155C864.803 287.721 871.442 288.616 877.783 288.989C879.872 293.763 884.646 297.046 890.166 297.046C896.134 297.046 901.281 293.167 903.071 287.721C911.202 286.453 918.662 284.513 925.227 282.276C925.674 282.126 926.122 281.977 926.495 281.828C928.882 283.842 931.94 285.036 935.223 285.036C942.608 285.036 948.575 279.142 948.799 271.832C956.706 267.505 962.749 263.253 966.479 260.419C967.598 274.443 968.269 288.616 968.418 302.939H675.03V302.939Z" fill="#3D2E57"/>
<path d="M815.719 209.991C813.63 207.381 811.243 204.919 808.632 202.606C794.906 213.647 775.287 220.211 754.4 220.211C733.513 220.211 713.82 213.647 700.094 202.532C697.408 204.844 695.021 207.306 692.933 209.991C705.092 225.358 727.993 235.727 754.326 235.727C780.658 235.727 803.559 225.358 815.719 209.991Z" fill="#3D2E57"/>
<path d="M804.828 199.548C791.997 190.074 774.168 184.256 754.326 184.256C734.632 184.256 716.804 190.074 703.973 199.473C716.804 209.469 735.005 215.437 754.475 215.437C773.795 215.437 791.997 209.544 804.828 199.548Z" fill="#3D2E57"/>
<path d="M889.122 235.727C915.454 235.727 938.356 225.358 950.515 209.991C948.426 207.381 946.039 204.844 943.354 202.532C929.628 213.647 909.934 220.211 889.047 220.211C868.235 220.211 848.541 213.647 834.815 202.606C832.13 204.919 829.743 207.381 827.729 209.991C839.888 225.358 862.789 235.727 889.122 235.727Z" fill="#3D2E57"/>
<path d="M939.474 199.473C926.644 190.074 908.815 184.256 889.122 184.256C869.354 184.256 851.45 190.149 838.62 199.548C851.45 209.544 869.652 215.437 888.973 215.437C908.442 215.437 926.644 209.469 939.474 199.473Z" fill="#3D2E57"/>
<path d="M821.687 4.4777C830.564 4.4777 837.799 -2.75818 837.799 -11.6352C837.799 -20.5122 830.564 -27.748 821.687 -27.748C812.81 -27.748 805.574 -20.5122 805.574 -11.6352C805.574 -2.75818 812.81 4.4777 821.687 4.4777Z" fill="#3D2E57"/>
<path d="M939.997 144.645H883.751V153.82H939.997V144.645Z" fill="#3D2E57"/>
<path d="M933.656 127.861H892.926V137.036H933.656V127.861Z" fill="#3D2E57"/>
<path d="M927.241 110.703H898.521V119.879H927.241V110.703Z" fill="#3D2E57"/>
<path d="M918.886 92.9493H904.489V102.125H918.886V92.9493Z" fill="#3D2E57"/>
<path d="M759.622 144.645H703.376V153.82H759.622V144.645Z" fill="#3D2E57"/>
<path d="M750.521 127.861H709.792V137.036H750.521V127.861Z" fill="#3D2E57"/>
<path d="M744.852 110.703H716.132V119.879H744.852V110.703Z" fill="#3D2E57"/>
<path d="M738.959 92.9493H724.562V102.125H738.959V92.9493Z" fill="#3D2E57"/>
<path d="M846.676 -19.7662C846.676 -19.7662 851.45 -3.80253 840.708 5.74584C840.708 5.74584 867.414 12.1612 876.217 15.2942C876.217 15.3688 855.031 -11.0384 846.676 -19.7662Z" fill="#3D2E57"/>
<path d="M796.771 -19.7662C788.416 -10.9638 767.231 15.3688 767.231 15.3688C776.033 12.1611 802.739 5.82044 802.739 5.82044C791.997 -3.80252 796.771 -19.7662 796.771 -19.7662Z" fill="#3D2E57"/>
<path d="M903.743 80.3425C903.743 83.8485 906.577 86.7578 910.158 86.7578C913.739 86.7578 916.573 83.9231 916.573 80.3425C916.573 76.8364 913.739 73.9272 910.158 73.9272C906.577 73.9272 903.743 76.8364 903.743 80.3425Z" fill="#3D2E57"/>
<path d="M896.954 62.4393C896.954 65.274 899.267 67.6611 902.102 67.6611C904.936 67.6611 907.249 65.3486 907.249 62.4393C907.249 59.6046 904.936 57.2175 902.102 57.2175C899.267 57.2175 896.954 59.53 896.954 62.4393Z" fill="#3D2E57"/>
<path d="M894.12 50.0562C896.581 50.0562 898.521 48.1167 898.521 45.655C898.521 43.1934 896.581 41.2538 894.12 41.2538C891.658 41.2538 889.719 43.1934 889.719 45.655C889.719 48.0421 891.733 50.0562 894.12 50.0562Z" fill="#3D2E57"/>
<path d="M884.198 35.2861C886.809 35.2861 888.973 33.1228 888.973 30.5119C888.973 27.901 886.809 25.7377 884.198 25.7377C881.588 25.7377 879.424 27.901 879.424 30.5119C879.35 33.1228 881.513 35.2861 884.198 35.2861Z" fill="#3D2E57"/>
<path d="M733.29 86.7578C736.796 86.7578 739.705 83.9231 739.705 80.3425C739.705 76.8364 736.87 73.9272 733.29 73.9272C729.784 73.9272 726.874 76.7618 726.874 80.3425C726.949 83.9231 729.784 86.7578 733.29 86.7578Z" fill="#3D2E57"/>
<path d="M741.271 67.5864C744.106 67.5864 746.493 65.2739 746.493 62.3647C746.493 59.53 744.18 57.1429 741.271 57.1429C738.437 57.1429 736.124 59.4554 736.124 62.3647C736.124 65.2739 738.437 67.5864 741.271 67.5864Z" fill="#3D2E57"/>
<path d="M749.253 50.0562C751.715 50.0562 753.654 48.1167 753.654 45.655C753.654 43.1934 751.715 41.2538 749.253 41.2538C746.791 41.2538 744.852 43.1934 744.852 45.655C744.926 48.0421 746.866 50.0562 749.253 50.0562Z" fill="#3D2E57"/>
<path d="M759.249 35.2861C761.86 35.2861 764.023 33.1228 764.023 30.5119C764.023 27.901 761.86 25.7377 759.249 25.7377C756.638 25.7377 754.475 27.901 754.475 30.5119C754.475 33.1228 756.638 35.2861 759.249 35.2861Z" fill="#3D2E57"/>
<path d="M961.555 275.487C945.591 291.078 912.844 299.06 912.844 299.06H963.122L961.555 275.487Z" fill="#3D2E57"/>
<path d="M680.251 299.06H730.529C730.529 299.06 697.781 291.078 681.818 275.487L680.251 299.06Z" fill="#3D2E57"/>
<path d="M868.906 337.253C867.862 337.253 866.967 338.148 866.967 339.193C866.967 340.312 867.862 341.132 868.906 341.132C869.95 341.132 870.846 340.237 870.846 339.193C870.92 338.148 870.025 337.253 868.906 337.253Z" fill="#3D2E57"/>
<path d="M832.13 325.989L877.037 366.719C877.037 366.719 906.95 343.967 981.174 325.989H832.13ZM893.896 340.237C890.315 343.37 884.124 345.384 877.186 345.384C869.577 345.384 862.938 342.923 859.507 339.342C862.864 335.761 869.577 333.3 877.186 333.3C884.198 333.3 890.315 335.388 893.896 338.447L904.19 332.479V346.205L893.896 340.237Z" fill="#3D2E57"/>
<path d="M774.541 341.132C775.66 341.132 776.481 340.237 776.481 339.193C776.481 338.074 775.586 337.253 774.541 337.253C773.497 337.253 772.602 338.148 772.602 339.193C772.527 340.312 773.423 341.132 774.541 341.132Z" fill="#3D2E57"/>
<path d="M766.485 366.644L811.392 325.915H662.273C736.497 343.967 766.485 366.644 766.485 366.644ZM749.477 338.447C753.058 335.314 759.249 333.3 766.187 333.3C773.795 333.3 780.435 335.761 783.866 339.342C780.509 342.923 773.795 345.384 766.187 345.384C759.174 345.384 753.058 343.296 749.477 340.237L739.183 346.205V332.479L749.477 338.447Z" fill="#3D2E57"/>
<path d="M517.482 107.272C517.034 106.675 474.29 46.1026 473.395 -29.6876L461.46 -29.5384C462.206 32.9736 489.284 84.5198 501.742 104.885C455.716 106.078 417.97 114.433 403.647 118.088C387.236 47.5945 337.928 -25.2118 335.764 -28.4194L325.843 -21.6312C326.365 -20.8852 378.881 56.6953 393.278 126.667L394.547 133.008L400.813 131.217C401.335 131.068 451.464 116.671 512.708 116.671H524.345L517.482 107.272Z" fill="#3D2E57"/>
<path d="M434.53 12.3103L460.714 21.7095L441.318 41.6268L468.322 48.4897L450.643 70.0481L478.169 74.5985L462.131 97.3505L490.03 99.8868L478.244 74.4493L468.397 48.4151L460.788 21.5603V21.6349L455.865 -5.81666L453.105 -33.492L430.353 -17.2299L455.79 -5.74206L434.53 12.3103Z" fill="#3D2E57"/>
<path d="M429.383 88.921L402.155 82.5057L410.212 109.361L429.383 88.921Z" fill="#3D2E57"/>
<path d="M419.909 60.8727L392.234 56.3223L402.155 82.5057L419.909 60.8727Z" fill="#3D2E57"/>
<path d="M407.452 32.8244L379.478 31.407L392.234 56.3223L407.452 32.8244Z" fill="#3D2E57"/>
<path d="M394.621 7.90914L366.647 6.56641L379.478 31.4071L394.621 7.90914Z" fill="#3D2E57"/>
<path d="M380 -18.1251L351.952 -17.3045L366.647 6.5664L380 -18.1251Z" fill="#3D2E57"/>
<path d="M443.929 98.8424C448.032 98.8424 451.389 95.4855 451.389 91.3827C451.389 87.2799 448.032 83.9231 443.929 83.9231C439.827 83.9231 436.47 87.2799 436.47 91.3827C436.395 95.4855 439.752 98.8424 443.929 98.8424Z" fill="#3D2E57"/>
<path d="M438.633 66.6912C442.753 66.6912 446.093 63.3514 446.093 59.2316C446.093 55.1117 442.753 51.7719 438.633 51.7719C434.513 51.7719 431.173 55.1117 431.173 59.2316C431.173 63.3514 434.513 66.6912 438.633 66.6912Z" fill="#3D2E57"/>
<path d="M417.671 48.7135C421.791 48.7135 425.131 45.3736 425.131 41.2538C425.131 37.1339 421.791 33.7941 417.671 33.7941C413.551 33.7941 410.212 37.1339 410.212 41.2538C410.212 45.3736 413.551 48.7135 417.671 48.7135Z" fill="#3D2E57"/>
<path d="M419.984 21.0381C424.104 21.0381 427.443 17.6983 427.443 13.5785C427.443 9.45861 424.104 6.1188 419.984 6.1188C415.864 6.1188 412.524 9.45861 412.524 13.5785C412.524 17.6983 415.864 21.0381 419.984 21.0381Z" fill="#3D2E57"/>
<path d="M397.53 1.5684C401.65 1.5684 404.99 -1.7714 404.99 -5.89126C404.99 -10.0111 401.65 -13.3509 397.53 -13.3509C393.411 -13.3509 390.071 -10.0111 390.071 -5.89126C390.071 -1.7714 393.411 1.5684 397.53 1.5684Z" fill="#3D2E57"/>
<path d="M551.349 107.272C551.796 106.675 594.54 46.1026 595.435 -29.6876L607.445 -29.5384C606.699 32.9736 579.621 84.5198 567.163 104.885C613.189 106.078 650.935 114.433 665.258 118.088C681.669 47.5945 730.977 -25.2118 733.141 -28.4194L743.062 -21.6312C742.54 -20.8852 690.024 56.6953 675.627 126.667L674.359 133.008L668.167 131.217C667.645 131.068 617.516 116.671 556.272 116.671H544.635L551.349 107.272Z" fill="#3D2E57"/>
<path d="M634.3 12.3103L608.117 21.7095L627.512 41.6268L600.508 48.4897L618.187 70.0481L590.661 74.5985L606.625 97.3505L578.8 99.8868L590.587 74.4493L600.433 48.4151L607.968 21.5603L608.042 21.6349L612.966 -5.81666L615.726 -33.492L638.478 -17.2299L613.04 -5.74206L634.3 12.3103Z" fill="#3D2E57"/>
<path d="M639.447 88.921L666.675 82.5057L658.619 109.361L639.447 88.921Z" fill="#3D2E57"/>
<path d="M648.921 60.8727L676.596 56.3223L666.675 82.5057L648.921 60.8727Z" fill="#3D2E57"/>
<path d="M661.379 32.8244L689.352 31.407L676.596 56.3223L661.379 32.8244Z" fill="#3D2E57"/>
<path d="M674.209 7.90914L702.109 6.56641L689.353 31.4071L674.209 7.90914Z" fill="#3D2E57"/>
<path d="M688.83 -18.1251L716.804 -17.3045L702.109 6.5664L688.83 -18.1251Z" fill="#3D2E57"/>
<path d="M624.901 98.8424C620.798 98.8424 617.441 95.4855 617.441 91.3827C617.441 87.2799 620.798 83.9231 624.901 83.9231C629.004 83.9231 632.361 87.2799 632.361 91.3827C632.435 95.4855 629.078 98.8424 624.901 98.8424Z" fill="#3D2E57"/>
<path d="M630.197 66.6912C634.317 66.6912 637.657 63.3514 637.657 59.2316C637.657 55.1117 634.317 51.7719 630.197 51.7719C626.078 51.7719 622.738 55.1117 622.738 59.2316C622.738 63.3514 626.078 66.6912 630.197 66.6912Z" fill="#3D2E57"/>
<path d="M651.159 48.7135C655.279 48.7135 658.619 45.3736 658.619 41.2538C658.619 37.1339 655.279 33.7941 651.159 33.7941C647.039 33.7941 643.699 37.1339 643.699 41.2538C643.699 45.3736 647.039 48.7135 651.159 48.7135Z" fill="#3D2E57"/>
<path d="M648.846 21.0381C652.966 21.0381 656.306 17.6983 656.306 13.5785C656.306 9.45861 652.966 6.1188 648.846 6.1188C644.727 6.1188 641.387 9.45861 641.387 13.5785C641.387 17.6983 644.727 21.0381 648.846 21.0381Z" fill="#3D2E57"/>
<path d="M671.3 1.5684C675.42 1.5684 678.76 -1.7714 678.76 -5.89126C678.76 -10.0111 675.42 -13.3509 671.3 -13.3509C667.18 -13.3509 663.84 -10.0111 663.84 -5.89126C663.84 -1.7714 667.18 1.5684 671.3 1.5684Z" fill="#3D2E57"/>
<path d="M542.099 30.5865C539.488 31.034 536.653 31.2578 533.669 31.2578C531.207 31.2578 528.895 31.1086 526.732 30.8102C528.82 45.1328 531.133 70.421 526.508 95.4109C530.461 99.8867 533.669 102.423 533.669 102.423C533.669 102.423 537.474 99.3645 542.024 94.0682C537.772 69.3767 540.01 44.536 542.099 30.5865Z" fill="#3D2E57"/>
<path d="M522.107 29.9151C502.935 25.4393 493.312 11.0422 493.312 11.0422C491.074 36.4796 515.766 40.9554 515.766 40.9554C515.766 40.9554 515.095 41.9998 514.199 43.8647C508.381 40.7316 495.476 34.3163 493.536 38.9413C491.373 44.0885 501.966 55.7256 511.962 49.9816C510.47 55.5764 509.724 63.409 512.707 72.3606C515.095 79.5965 518.974 85.8626 522.703 90.7114C526.508 66.6913 524.046 42.8949 522.107 29.9151Z" fill="#3D2E57"/>
<path d="M575.294 39.0159C573.205 34.0925 558.51 41.7759 553.512 44.536C552.542 42.2981 551.647 41.03 551.647 41.03C551.647 41.03 576.338 36.5542 574.101 11.1167C574.101 11.1167 565 24.7679 546.798 29.6167C544.859 42.1489 542.397 65.4977 545.828 89.294C549.185 84.669 552.542 78.9997 554.705 72.5097C557.913 62.8868 556.794 54.6066 555.153 48.9372C565.522 57.1429 577.532 44.3868 575.294 39.0159Z" fill="#3D2E57"/>
<path d="M558.883 9.40109C558.883 16.4132 547.917 22.0825 534.415 22.0825C520.913 22.0825 509.948 16.4132 509.948 9.40109C509.948 2.38901 520.913 -3.28033 534.415 -3.28033C547.917 -3.28033 558.883 2.38901 558.883 9.40109Z" fill="#3D2E57"/>
<path d="M536.423 601.775C536.871 602.372 579.614 662.944 580.51 738.734L592.445 738.585C591.699 676.073 564.621 624.527 552.163 604.162C598.189 602.968 635.935 594.613 650.257 590.958C666.669 661.452 715.977 734.258 718.14 737.466L728.062 730.678C727.54 729.932 675.024 652.351 660.626 582.38L659.358 576.039L653.092 577.829C652.57 577.978 602.441 592.376 541.197 592.376L529.56 592.376L536.423 601.775Z" fill="#3D2E57"/>
<path d="M619.375 696.736L593.191 687.337L612.586 667.42L585.582 660.557L603.262 638.998L575.736 634.448L591.774 611.696L563.875 609.16L575.661 634.597L585.508 660.631L593.117 687.486L593.117 687.412L598.04 714.863L600.8 742.539L623.552 726.277L598.115 714.789L619.375 696.736Z" fill="#3D2E57"/>
<path d="M624.522 620.126L651.75 626.541L643.693 599.686L624.522 620.126Z" fill="#3D2E57"/>
<path d="M633.995 648.174L661.671 652.724L651.749 626.541L633.995 648.174Z" fill="#3D2E57"/>
<path d="M646.453 676.222L674.427 677.64L661.671 652.724L646.453 676.222Z" fill="#3D2E57"/>
<path d="M659.284 701.137L687.258 702.48L674.427 677.639L659.284 701.137Z" fill="#3D2E57"/>
<path d="M673.905 727.172L701.953 726.351L687.257 702.48L673.905 727.172Z" fill="#3D2E57"/>
<path d="M609.975 610.204C605.873 610.204 602.516 613.561 602.516 617.664C602.516 621.767 605.873 625.124 609.975 625.124C614.078 625.124 617.435 621.767 617.435 617.664C617.51 613.561 614.153 610.204 609.975 610.204Z" fill="#3D2E57"/>
<path d="M615.272 642.355C611.152 642.355 607.812 645.695 607.812 649.815C607.812 653.935 611.152 657.275 615.272 657.275C619.392 657.275 622.731 653.935 622.731 649.815C622.731 645.695 619.392 642.355 615.272 642.355Z" fill="#3D2E57"/>
<path d="M636.233 660.333C632.114 660.333 628.774 663.673 628.774 667.793C628.774 671.913 632.114 675.252 636.233 675.252C640.353 675.252 643.693 671.913 643.693 667.793C643.693 663.673 640.353 660.333 636.233 660.333Z" fill="#3D2E57"/>
<path d="M633.921 688.008C629.801 688.008 626.461 691.348 626.461 695.468C626.461 699.588 629.801 702.928 633.921 702.928C638.041 702.928 641.381 699.588 641.381 695.468C641.381 691.348 638.041 688.008 633.921 688.008Z" fill="#3D2E57"/>
<path d="M502.556 601.775C502.108 602.371 459.365 662.944 458.469 738.734L446.459 738.585C447.205 676.073 474.284 624.527 486.742 604.162C440.716 602.968 402.97 594.613 388.647 590.958C372.236 661.452 322.927 734.258 320.764 737.466L310.843 730.678C311.365 729.932 363.881 652.351 378.278 582.38L379.546 576.039L385.738 577.829C386.26 577.978 436.389 592.376 497.633 592.376L509.27 592.376L502.556 601.775Z" fill="#3D2E57"/>
<path d="M419.605 696.736L445.788 687.337L426.393 667.42L453.397 660.557L435.717 638.998L463.244 634.448L447.28 611.696L475.104 609.16L463.318 634.597L453.471 660.631L445.937 687.486L445.863 687.412L440.939 714.863L438.179 742.539L415.427 726.277L440.865 714.789L419.605 696.736Z" fill="#3D2E57"/>
<path d="M414.458 620.126L387.23 626.541L395.286 599.686L414.458 620.126Z" fill="#3D2E57"/>
<path d="M404.984 648.174L377.308 652.724L387.23 626.541L404.984 648.174Z" fill="#3D2E57"/>
<path d="M392.526 676.222L364.552 677.64L377.308 652.724L392.526 676.222Z" fill="#3D2E57"/>
<path d="M379.695 701.137L351.796 702.48L364.552 677.639L379.695 701.137Z" fill="#3D2E57"/>
<path d="M365.074 727.172L337.101 726.351L351.796 702.48L365.074 727.172Z" fill="#3D2E57"/>
<path d="M429.004 610.204C433.107 610.204 436.463 613.561 436.463 617.664C436.463 621.767 433.107 625.124 429.004 625.124C424.901 625.124 421.544 621.767 421.544 617.664C421.469 613.561 424.826 610.204 429.004 610.204Z" fill="#3D2E57"/>
<path d="M423.707 642.355C419.587 642.355 416.248 645.695 416.248 649.815C416.248 653.935 419.587 657.275 423.707 657.275C427.827 657.275 431.167 653.935 431.167 649.815C431.167 645.695 427.827 642.355 423.707 642.355Z" fill="#3D2E57"/>
<path d="M402.746 660.333C398.626 660.333 395.286 663.673 395.286 667.793C395.286 671.913 398.626 675.252 402.746 675.252C406.866 675.252 410.205 671.913 410.205 667.793C410.205 663.673 406.866 660.333 402.746 660.333Z" fill="#3D2E57"/>
<path d="M405.058 688.008C400.939 688.008 397.599 691.348 397.599 695.468C397.599 699.588 400.939 702.928 405.058 702.928C409.178 702.928 412.518 699.588 412.518 695.468C412.518 691.348 409.178 688.008 405.058 688.008Z" fill="#3D2E57"/>
<path d="M511.806 678.46C514.417 678.013 517.252 677.789 520.236 677.789C522.697 677.789 525.01 677.938 527.173 678.236C525.084 663.914 522.772 638.625 527.397 613.636C523.443 609.16 520.236 606.624 520.236 606.624C520.236 606.624 516.431 609.682 511.881 614.978C516.133 639.67 513.895 664.511 511.806 678.46Z" fill="#3D2E57"/>
<path d="M531.798 679.131C550.969 683.607 560.592 698.004 560.592 698.004C562.83 672.567 538.139 668.091 538.139 668.091C538.139 668.091 538.81 667.047 539.705 665.182C545.524 668.315 558.429 674.73 560.369 670.105C562.532 664.958 551.939 653.321 541.943 659.065C543.435 653.47 544.181 645.638 541.197 636.686C538.81 629.45 534.931 623.184 531.201 618.335C527.397 642.355 529.859 666.152 531.798 679.131Z" fill="#3D2E57"/>
<path d="M478.611 670.031C480.699 674.954 495.395 667.271 500.393 664.511C501.363 666.748 502.258 668.017 502.258 668.017C502.258 668.017 477.566 672.492 479.804 697.93C479.804 697.93 488.905 684.279 507.107 679.43C509.046 666.898 511.508 643.549 508.076 619.753C504.72 624.378 501.363 630.047 499.199 636.537C495.992 646.16 497.111 654.44 498.752 660.109C488.383 651.904 476.373 664.66 478.611 670.031Z" fill="#3D2E57"/>
<path d="M495.022 699.645C495.022 692.633 505.988 686.964 519.49 686.964C532.992 686.964 543.957 692.633 543.957 699.645C543.957 706.658 532.992 712.327 519.49 712.327C505.988 712.327 495.022 706.658 495.022 699.645Z" fill="#3D2E57"/>
<path d="M1399.21 716.204L1406.23 704.045H1392.13L1399.21 716.204Z" fill="#3D2E57"/>
<path d="M1399.21 699.42C1404.51 699.42 1409.73 698.375 1414.65 696.287C1424.58 692.184 1432.26 684.426 1436.29 674.505C1440.39 664.583 1440.32 653.692 1436.21 643.771C1429.95 628.777 1415.4 619.154 1399.14 619.154C1393.84 619.154 1388.62 620.198 1383.7 622.287C1373.78 626.39 1366.09 634.148 1362.06 644.069C1357.96 653.991 1358.04 664.882 1362.14 674.803C1368.4 689.722 1382.95 699.42 1399.21 699.42ZM1367.88 653.021L1379.89 651.38L1372.51 641.831C1372.58 641.682 1372.66 641.607 1372.73 641.458L1384.44 644.591L1381.31 632.88C1381.38 632.805 1381.46 632.805 1381.53 632.73L1391.16 640.041L1392.72 628.031C1394.81 627.583 1397.05 627.359 1399.21 627.359C1401.38 627.359 1403.47 627.583 1405.55 628.031L1407.2 640.041L1416.82 632.656C1416.97 632.73 1417.04 632.805 1417.19 632.88L1414.06 644.591L1425.7 641.458C1425.77 641.533 1425.77 641.607 1425.84 641.682L1418.53 651.305L1430.54 652.872C1431.44 657.124 1431.44 661.45 1430.62 665.702L1418.61 667.343L1425.99 676.892C1425.92 677.041 1425.84 677.115 1425.77 677.265L1414.06 674.132L1417.19 685.843C1417.12 685.918 1417.04 685.918 1416.97 685.992L1407.34 678.682L1405.78 690.692C1403.69 691.14 1401.45 691.363 1399.29 691.363C1397.12 691.363 1395.04 691.14 1392.95 690.767L1391.31 678.757L1381.68 686.142C1381.53 686.067 1381.46 685.992 1381.31 685.918L1384.44 674.206L1372.73 677.339C1372.66 677.265 1372.66 677.19 1372.58 677.115L1379.89 667.492L1367.88 665.926C1367.06 661.599 1367.06 657.198 1367.88 653.021Z" fill="#3D2E57"/>
<path d="M1399.21 675.325C1408.09 675.325 1415.25 668.164 1415.25 659.287C1415.25 650.41 1408.09 643.249 1399.21 643.249C1390.34 643.249 1383.18 650.41 1383.18 659.287C1383.18 668.164 1390.34 675.325 1399.21 675.325Z" fill="#3D2E57"/>
<path d="M1399.21 602.37L1392.13 614.529H1406.23L1399.21 602.37Z" fill="#3D2E57"/>
<path d="M1354.38 652.275L1342.22 659.287L1354.38 666.299V652.275Z" fill="#3D2E57"/>
<path d="M1439.42 619.005L1425.84 622.66L1435.77 632.581L1439.42 619.005Z" fill="#3D2E57"/>
<path d="M1425.84 695.914L1439.42 699.494L1435.77 685.992L1425.84 695.914Z" fill="#3D2E57"/>
<path d="M1358.93 699.494L1372.51 695.914L1362.59 685.992L1358.93 699.494Z" fill="#3D2E57"/>
<path d="M1372.51 622.66L1358.93 619.005L1362.59 632.581L1372.51 622.66Z" fill="#3D2E57"/>
<path d="M1421.37 606.845L1410.18 615.349L1423.08 620.795L1421.37 606.845Z" fill="#3D2E57"/>
<path d="M1437.63 683.232L1451.58 681.517L1443.15 670.327L1437.63 683.232Z" fill="#3D2E57"/>
<path d="M1376.98 711.654L1388.17 703.224L1375.27 697.779L1376.98 711.654Z" fill="#3D2E57"/>
<path d="M1360.72 635.341L1346.77 637.057L1355.2 648.247L1360.72 635.341Z" fill="#3D2E57"/>
<path d="M1443.3 648.993L1451.95 637.952L1438.08 636.013L1443.3 648.993Z" fill="#3D2E57"/>
<path d="M1420.55 712.027L1422.49 698.152L1409.43 703.373L1420.55 712.027Z" fill="#3D2E57"/>
<path d="M1355.05 669.581L1346.4 680.622L1360.27 682.561L1355.05 669.581Z" fill="#3D2E57"/>
<path d="M1377.8 606.547L1375.86 620.422L1388.92 615.126L1377.8 606.547Z" fill="#3D2E57"/>
<path d="M1399.21 732.615C1439.64 732.615 1472.54 699.718 1472.54 659.287C1472.54 618.856 1439.64 585.958 1399.21 585.958C1358.78 585.958 1325.88 618.856 1325.88 659.287C1325.81 699.718 1358.71 732.615 1399.21 732.615ZM1399.21 599.013C1432.48 599.013 1459.49 626.091 1459.49 659.287C1459.49 692.557 1432.41 719.561 1399.21 719.561C1365.94 719.561 1338.94 692.482 1338.94 659.287C1338.86 626.017 1365.94 599.013 1399.21 599.013Z" fill="#3D2E57"/>
<path d="M1235.7 436.765C1235.7 519.866 1250.99 599.684 1279.93 667.567C1308.5 734.48 1348.19 785.28 1394.74 814.373L1399.21 817.133L1403.69 814.373C1450.24 785.28 1489.92 734.48 1518.49 667.567C1547.44 599.684 1562.73 519.866 1562.73 436.765V428.41H1235.77V436.765H1235.7ZM1255.62 500.844C1259.12 497.86 1266.43 491.892 1276.05 486.223C1278.52 488.684 1281.87 490.176 1285.6 490.176C1293.06 490.176 1299.18 484.134 1299.18 476.6C1299.18 476.301 1299.18 475.928 1299.1 475.63C1305.67 473.467 1312.16 471.9 1318.65 470.93C1320.89 475.257 1325.44 478.241 1330.66 478.241C1336.33 478.241 1341.1 474.809 1343.19 469.961C1348.49 470.334 1353.78 471.154 1359.08 472.348C1359.53 479.434 1365.42 485.029 1372.58 485.029C1376.54 485.029 1380.12 483.313 1382.58 480.628C1386.98 482.717 1391.38 485.104 1395.71 487.789L1398.54 489.58L1401.38 487.789C1406 484.88 1410.63 482.418 1415.33 480.18C1417.79 483.09 1421.52 484.955 1425.7 484.955C1433.01 484.955 1438.9 479.211 1439.2 471.975C1444.42 470.856 1449.72 470.11 1455.01 469.737C1457.03 474.66 1461.87 478.166 1467.54 478.166C1472.69 478.166 1477.17 475.257 1479.48 471.005C1485.97 472.049 1492.53 473.69 1499.1 475.928C1499.1 476.152 1499.02 476.301 1499.02 476.525C1499.02 484.059 1505.14 490.102 1512.6 490.102C1516.26 490.102 1519.54 488.684 1522 486.297C1531.92 491.892 1539.38 497.487 1542.66 500.098C1542.07 505.916 1541.47 511.735 1540.72 517.553C1533.04 512.108 1519.84 503.827 1502.6 498.009C1491.41 494.204 1477.54 491.146 1461.87 491.146C1442.78 491.146 1421.14 495.696 1398.54 509.124C1357.44 484.805 1319.4 489.58 1294.48 498.084C1278.07 503.678 1265.24 511.436 1257.41 516.882C1256.81 511.586 1256.21 506.215 1255.62 500.844ZM1259.12 529.041C1265.01 524.491 1279.11 514.644 1298.36 508.154C1332.08 496.815 1364.9 500.844 1395.78 520.015L1398.62 521.805L1401.45 520.015C1432.48 500.694 1465.38 496.741 1499.25 508.229C1519.69 515.166 1534.16 525.833 1539.16 529.787C1538.11 536.799 1536.92 543.737 1535.65 550.6C1528.56 555.672 1516.03 563.43 1500.07 568.801C1466.35 580.14 1433.53 576.186 1402.64 556.94L1399.81 555.15L1396.98 556.94C1365.94 576.261 1333.05 580.214 1299.18 568.652C1282.17 562.908 1269.27 554.553 1262.55 549.555C1261.28 542.842 1260.09 535.979 1259.12 529.041ZM1503.05 660.928C1476.79 722.545 1440.99 769.541 1399.21 797.216C1357.44 769.466 1321.63 722.47 1295.38 660.928C1282.62 631.015 1272.62 598.64 1265.46 564.624C1273.15 569.323 1283.36 574.769 1295.67 578.946C1306.86 582.751 1320.81 585.809 1336.4 585.809C1355.5 585.809 1377.13 581.259 1399.74 567.906C1440.84 592.224 1478.88 587.45 1503.8 578.946C1515.36 574.993 1525.13 569.995 1532.67 565.519C1525.58 599.162 1515.66 631.238 1503.05 660.928ZM1545.87 445.12C1545.72 459.442 1545.05 473.616 1543.93 487.64C1540.2 484.805 1534.16 480.553 1526.25 476.227C1526.03 468.916 1520.06 463.023 1512.67 463.023C1509.32 463.023 1506.26 464.217 1503.95 466.231C1503.5 466.082 1503.13 465.932 1502.68 465.783C1496.11 463.545 1488.65 461.606 1480.52 460.338C1478.73 454.967 1473.66 451.013 1467.62 451.013C1462.1 451.013 1457.32 454.295 1455.24 459.07C1448.89 459.442 1442.26 460.338 1435.47 461.904C1433.01 459.368 1429.57 457.801 1425.77 457.801C1418.83 457.801 1413.09 463.023 1412.34 469.737C1407.87 471.751 1403.24 474.138 1398.62 476.824C1394.44 474.362 1390.26 472.199 1386.16 470.334C1385.64 463.322 1379.74 457.801 1372.66 457.801C1368.7 457.801 1365.2 459.442 1362.74 462.128C1356.02 460.561 1349.46 459.592 1343.19 459.144C1341.1 454.37 1336.33 451.013 1330.73 451.013C1324.84 451.013 1319.77 454.817 1317.9 460.114C1309.25 461.382 1301.34 463.396 1294.48 465.783C1294.33 465.858 1294.18 465.858 1294.03 465.932C1291.72 464.067 1288.81 463.023 1285.6 463.023C1278.44 463.023 1272.62 468.543 1272.1 475.555C1264.34 479.733 1258.38 483.836 1254.35 486.745C1253.3 473.019 1252.63 459.144 1252.48 445.12H1545.87Z" fill="#3D2E57"/>
<path d="M1399.13 355.606L1380.67 374.068L1399.13 392.529L1417.59 374.068L1399.13 355.606Z" fill="#3D2E57"/>
<path d="M1352.29 374.029L1399.21 420.951L1446.13 374.029L1399.21 327.108L1352.29 374.029ZM1399.21 401.033L1372.21 374.029L1399.21 347.025L1426.22 374.029L1399.21 401.033Z" fill="#3D2E57"/>
<path d="M1386.08 545.452C1388.77 543.14 1391.16 540.678 1393.17 538.067C1381.01 522.7 1358.11 512.332 1331.78 512.332C1305.45 512.332 1282.54 522.7 1270.39 538.067C1272.47 540.678 1274.86 543.215 1277.55 545.527C1291.27 534.412 1310.97 527.848 1331.85 527.848C1352.74 527.848 1372.36 534.412 1386.08 545.452Z" fill="#3D2E57"/>
<path d="M1382.28 548.511C1369.45 538.515 1351.25 532.622 1331.93 532.622C1312.53 532.622 1294.26 538.59 1281.43 548.585C1294.26 557.985 1312.08 563.803 1331.78 563.803C1351.55 563.803 1369.45 557.985 1382.28 548.511Z" fill="#3D2E57"/>
<path d="M1412.27 545.452C1425.99 534.412 1445.61 527.848 1466.5 527.848C1487.39 527.848 1507.08 534.412 1520.81 545.527C1523.49 543.215 1525.88 540.753 1527.97 538.067C1515.81 522.7 1492.91 512.332 1466.57 512.332C1440.24 512.332 1417.34 522.7 1405.18 538.067C1407.2 540.678 1409.66 543.14 1412.27 545.452Z" fill="#3D2E57"/>
<path d="M1416.07 548.511C1428.9 557.985 1446.73 563.803 1466.57 563.803C1486.27 563.803 1504.1 557.985 1516.93 548.585C1504.1 538.59 1485.89 532.622 1466.42 532.622C1447.1 532.622 1428.9 538.515 1416.07 548.511Z" fill="#3D2E57"/>
<path d="M1337.07 594.313H1280.83V603.489H1337.07V594.313Z" fill="#3D2E57"/>
<path d="M1327.97 611.023H1287.24V620.198H1327.97V611.023Z" fill="#3D2E57"/>
<path d="M1322.38 628.255H1293.66V637.43H1322.38V628.255Z" fill="#3D2E57"/>
<path d="M1316.41 646.009H1302.01V655.184H1316.41V646.009Z" fill="#3D2E57"/>
<path d="M1317.16 667.716C1317.16 664.21 1314.32 661.301 1310.74 661.301C1307.24 661.301 1304.33 664.136 1304.33 667.716C1304.33 671.297 1307.16 674.132 1310.74 674.132C1314.32 674.132 1317.16 671.222 1317.16 667.716Z" fill="#3D2E57"/>
<path d="M1323.95 685.694C1323.95 682.859 1321.63 680.547 1318.72 680.547C1315.81 680.547 1313.58 682.859 1313.58 685.694C1313.58 688.529 1315.89 690.916 1318.72 690.916C1321.56 690.916 1323.95 688.529 1323.95 685.694Z" fill="#3D2E57"/>
<path d="M1326.78 698.077C1324.32 698.077 1322.38 700.017 1322.38 702.478C1322.38 704.94 1324.32 706.879 1326.78 706.879C1329.24 706.879 1331.18 704.94 1331.18 702.478C1331.11 700.017 1329.17 698.077 1326.78 698.077Z" fill="#3D2E57"/>
<path d="M1259.27 472.572C1275.23 456.981 1307.98 448.999 1307.98 448.999H1257.7L1259.27 472.572Z" fill="#3D2E57"/>
<path d="M1409.58 422.144H1558.63C1484.4 404.166 1454.49 381.414 1454.49 381.414L1409.58 422.144ZM1471.35 407.822L1481.72 401.854V415.58L1471.42 409.612C1467.84 412.745 1461.65 414.759 1454.71 414.759C1447.1 414.759 1440.47 412.297 1437.03 408.717C1440.39 405.136 1447.1 402.674 1454.71 402.674C1461.65 402.674 1467.77 404.763 1471.35 407.822Z" fill="#3D2E57"/>
<path d="M1351.99 410.88C1353.04 410.88 1353.93 409.985 1353.93 408.941C1353.93 407.822 1353.04 407.001 1351.99 407.001C1350.95 407.001 1350.05 407.896 1350.05 408.941C1349.98 409.985 1350.87 410.88 1351.99 410.88Z" fill="#3D2E57"/>
<path d="M1388.77 422.144L1343.86 381.414C1343.86 381.414 1313.95 404.166 1239.73 422.144H1388.77ZM1327 407.822C1330.58 404.689 1336.78 402.674 1343.71 402.674C1351.32 402.674 1357.96 405.136 1361.39 408.717C1358.04 412.297 1351.32 414.759 1343.71 414.759C1336.7 414.759 1330.58 412.67 1327 409.612L1316.71 415.58V401.854L1327 407.822Z" fill="#3D2E57"/>
<path d="M1399.21 31.9292L1392.13 44.0139H1406.23L1399.21 31.9292Z" fill="#3D2E57"/>
<path d="M1414.66 51.772C1409.73 49.6833 1404.51 48.6389 1399.21 48.6389C1382.95 48.6389 1368.41 58.3365 1362.14 73.2558C1357.96 83.1772 1357.96 94.0683 1362.06 103.99C1366.09 113.911 1373.85 121.669 1383.7 125.772C1388.62 127.861 1393.84 128.905 1399.14 128.905C1415.4 128.905 1429.95 119.207 1436.21 104.288C1440.32 94.3667 1440.39 83.4755 1436.29 73.5542C1432.26 63.6328 1424.58 55.9494 1414.66 51.772ZM1430.39 95.3364L1418.38 96.9029L1425.7 106.526C1425.62 106.601 1425.62 106.675 1425.55 106.75L1413.91 103.617L1417.04 115.328C1416.89 115.403 1416.82 115.477 1416.67 115.552L1407.05 108.167L1405.41 120.177C1403.32 120.625 1401.23 120.848 1399.06 120.848C1396.9 120.848 1394.66 120.625 1392.57 120.177L1391.01 108.167L1381.38 115.478C1381.31 115.403 1381.24 115.403 1381.16 115.328L1384.29 103.617L1372.58 106.75C1372.51 106.601 1372.43 106.526 1372.36 106.377L1379.74 96.8283L1367.73 95.1872C1366.84 90.9352 1366.91 86.6086 1367.81 82.3566L1379.82 80.7901L1372.51 71.1671C1372.58 71.0925 1372.58 71.0179 1372.66 70.9433L1384.37 74.0764L1381.24 62.3647C1381.38 62.2901 1381.46 62.2155 1381.61 62.1409L1391.23 69.526L1392.87 57.5159C1394.96 57.0683 1397.05 56.8445 1399.21 56.8445C1401.38 56.8445 1403.61 57.0683 1405.7 57.5159L1407.27 69.526L1416.89 62.2155C1416.97 62.2901 1417.04 62.2901 1417.12 62.3647L1413.98 74.0764L1425.7 70.9433C1425.77 71.0925 1425.84 71.1671 1425.92 71.3163L1418.53 80.8647L1430.54 82.5058C1431.29 86.7578 1431.29 91.0844 1430.39 95.3364Z" fill="#3D2E57"/>
<path d="M1399.21 72.7336C1390.34 72.7336 1383.18 79.8949 1383.18 88.7719C1383.18 97.6489 1390.34 104.81 1399.21 104.81C1408.09 104.81 1415.25 97.6489 1415.25 88.7719C1415.25 79.9695 1408.02 72.7336 1399.21 72.7336Z" fill="#3D2E57"/>
<path d="M1399.21 145.764L1406.23 133.604H1392.13L1399.21 145.764Z" fill="#3D2E57"/>
<path d="M1354.38 81.8344L1342.22 88.8465L1354.38 95.8586V81.8344Z" fill="#3D2E57"/>
<path d="M1425.84 125.399L1439.42 129.054L1435.77 115.477L1425.84 125.399Z" fill="#3D2E57"/>
<path d="M1439.42 48.5643L1425.84 52.2195L1435.77 62.1409L1439.42 48.5643Z" fill="#3D2E57"/>
<path d="M1372.51 52.2195L1358.93 48.5643L1362.59 62.1409L1372.51 52.2195Z" fill="#3D2E57"/>
<path d="M1358.93 129.054L1372.51 125.399L1362.59 115.477L1358.93 129.054Z" fill="#3D2E57"/>
<path d="M1421.37 141.213L1423.08 127.264L1410.18 132.784L1421.37 141.213Z" fill="#3D2E57"/>
<path d="M1443.15 77.8062L1451.58 66.6167L1437.63 64.9009L1443.15 77.8062Z" fill="#3D2E57"/>
<path d="M1376.98 36.405L1375.27 50.3546L1388.17 44.8345L1376.98 36.405Z" fill="#3D2E57"/>
<path d="M1355.2 99.8122L1346.77 111.002L1360.72 112.717L1355.2 99.8122Z" fill="#3D2E57"/>
<path d="M1438.08 112.121L1451.95 110.181L1443.3 99.0662L1438.08 112.121Z" fill="#3D2E57"/>
<path d="M1420.55 36.032L1409.43 44.6852L1422.49 49.907L1420.55 36.032Z" fill="#3D2E57"/>
<path d="M1360.27 65.4977L1346.4 67.4372L1355.05 78.5522L1360.27 65.4977Z" fill="#3D2E57"/>
<path d="M1377.8 141.586L1388.92 132.933L1375.86 127.711L1377.8 141.586Z" fill="#3D2E57"/>
<path d="M1399.21 15.4434C1358.78 15.4434 1325.89 48.3405 1325.89 88.7719C1325.89 129.203 1358.78 162.1 1399.21 162.1C1439.64 162.1 1472.54 129.203 1472.54 88.7719C1472.54 48.3405 1439.64 15.4434 1399.21 15.4434ZM1399.21 149.121C1365.94 149.121 1338.94 122.042 1338.94 88.8465C1338.94 55.5764 1366.02 28.5724 1399.21 28.5724C1432.48 28.5724 1459.49 55.651 1459.49 88.8465C1459.49 122.042 1432.41 149.121 1399.21 149.121Z" fill="#3D2E57"/>
<path d="M1518.42 80.5662C1489.85 13.6531 1450.16 -37.1472 1403.61 -66.2399L1399.14 -69L1394.66 -66.2399C1348.11 -37.1472 1308.43 13.6531 1279.86 80.5662C1250.92 148.449 1235.62 228.193 1235.62 311.368V319.723H1562.58V311.368C1562.65 228.268 1547.36 148.449 1518.42 80.5662ZM1295.38 87.1307C1321.63 25.5139 1357.44 -21.482 1399.21 -49.1573C1440.99 -21.4074 1476.79 25.5885 1503.05 87.1307C1515.73 116.82 1525.65 148.897 1532.74 182.54C1525.21 177.989 1515.44 172.991 1503.87 169.112C1478.96 160.683 1440.91 155.834 1399.81 180.153C1377.21 166.8 1355.5 162.25 1336.48 162.25C1320.89 162.25 1307.01 165.308 1295.75 169.112C1283.44 173.29 1273.15 178.661 1265.54 183.435C1272.62 149.419 1282.62 117.044 1295.38 87.1307ZM1542.74 247.886C1539.46 250.497 1532 256.092 1522.07 261.687C1519.61 259.374 1516.33 257.882 1512.67 257.882C1505.22 257.882 1499.1 263.925 1499.1 271.459C1499.1 271.683 1499.1 271.832 1499.17 272.056C1492.61 274.294 1486.04 275.935 1479.55 276.979C1477.24 272.727 1472.77 269.818 1467.62 269.818C1461.95 269.818 1457.1 273.324 1455.09 278.247C1449.79 277.874 1444.49 277.203 1439.27 276.009C1438.97 268.774 1433.01 263.03 1425.77 263.03C1421.59 263.03 1417.94 264.894 1415.4 267.804C1410.7 265.64 1406.08 263.104 1401.45 260.195L1398.62 258.405L1395.78 260.195C1391.46 262.88 1387.05 265.267 1382.65 267.356C1380.19 264.671 1376.61 262.955 1372.66 262.955C1365.5 262.955 1359.6 268.55 1359.16 275.636C1353.93 276.83 1348.64 277.651 1343.27 278.024C1341.25 273.175 1336.4 269.743 1330.73 269.743C1325.51 269.743 1320.96 272.727 1318.72 277.054C1312.23 276.084 1305.74 274.517 1299.18 272.354C1299.18 272.056 1299.25 271.683 1299.25 271.384C1299.25 263.925 1293.14 257.808 1285.68 257.808C1281.95 257.808 1278.59 259.3 1276.13 261.761C1266.43 256.017 1259.2 250.124 1255.69 247.14C1256.21 241.77 1256.81 236.399 1257.48 231.102C1265.31 236.548 1278.07 244.306 1294.55 249.901C1319.47 258.405 1357.51 263.179 1398.62 238.86C1421.22 252.213 1442.93 256.838 1461.95 256.838C1477.54 256.838 1491.41 253.78 1502.68 249.975C1519.91 244.157 1533.19 235.876 1540.8 230.431C1541.54 236.175 1542.22 242.068 1542.74 247.886ZM1262.55 198.429C1269.27 193.506 1282.17 185.151 1299.18 179.332C1333.05 167.844 1365.94 171.798 1396.98 191.044L1399.81 192.834L1402.64 191.044C1433.53 171.798 1466.28 167.844 1500.07 179.183C1516.11 184.554 1528.56 192.312 1535.65 197.385C1536.92 204.247 1538.11 211.185 1539.16 218.197C1534.16 222.151 1519.61 232.818 1499.25 239.755C1465.38 251.243 1432.48 247.29 1401.45 228.044L1398.62 226.253L1395.78 228.044C1364.9 247.29 1332.15 251.243 1298.36 239.905C1279.11 233.415 1265.01 223.568 1259.12 219.018C1260.09 212.08 1261.28 205.217 1262.55 198.429ZM1252.48 302.939C1252.63 288.915 1253.3 275.04 1254.35 261.314C1258.3 264.298 1264.34 268.401 1272.1 272.503C1272.62 279.515 1278.44 285.036 1285.6 285.036C1288.81 285.036 1291.72 283.917 1294.03 282.126C1294.18 282.201 1294.33 282.201 1294.48 282.276C1301.34 284.588 1309.25 286.677 1317.9 287.945C1319.77 293.241 1324.77 297.046 1330.73 297.046C1336.33 297.046 1341.1 293.689 1343.19 288.915C1349.46 288.467 1356.02 287.572 1362.74 285.931C1365.2 288.616 1368.7 290.257 1372.66 290.257C1379.82 290.257 1385.64 284.737 1386.16 277.725C1390.26 275.86 1394.44 273.697 1398.62 271.235C1403.24 273.995 1407.79 276.308 1412.27 278.322C1413.09 285.036 1418.83 290.257 1425.77 290.257C1429.57 290.257 1433.01 288.691 1435.47 286.155C1442.26 287.721 1448.89 288.616 1455.24 288.989C1457.32 293.763 1462.1 297.046 1467.62 297.046C1473.59 297.046 1478.73 293.167 1480.52 287.721C1488.65 286.453 1496.11 284.513 1502.68 282.276C1503.13 282.126 1503.57 281.977 1503.95 281.828C1506.33 283.842 1509.39 285.036 1512.67 285.036C1520.06 285.036 1526.03 279.142 1526.25 271.832C1534.16 267.505 1540.2 263.253 1543.93 260.419C1545.05 274.443 1545.72 288.616 1545.87 302.939H1252.48V302.939Z" fill="#3D2E57"/>
<path d="M1393.17 209.991C1391.08 207.381 1388.7 204.919 1386.08 202.606C1372.36 213.647 1352.74 220.211 1331.85 220.211C1310.97 220.211 1291.27 213.647 1277.55 202.532C1274.86 204.844 1272.47 207.306 1270.39 209.991C1282.54 225.358 1305.45 235.727 1331.78 235.727C1358.11 235.727 1381.01 225.358 1393.17 209.991Z" fill="#3D2E57"/>
<path d="M1382.28 199.548C1369.45 190.074 1351.62 184.256 1331.78 184.256C1312.08 184.256 1294.26 190.074 1281.43 199.473C1294.26 209.469 1312.46 215.437 1331.93 215.437C1351.25 215.437 1369.45 209.544 1382.28 199.548Z" fill="#3D2E57"/>
<path d="M1466.57 235.727C1492.91 235.727 1515.81 225.358 1527.97 209.991C1525.88 207.381 1523.49 204.844 1520.81 202.532C1507.08 213.647 1487.39 220.211 1466.5 220.211C1445.69 220.211 1425.99 213.647 1412.27 202.606C1409.58 204.919 1407.2 207.381 1405.18 209.991C1417.34 225.358 1440.24 235.727 1466.57 235.727Z" fill="#3D2E57"/>
<path d="M1516.93 199.473C1504.1 190.074 1486.27 184.256 1466.57 184.256C1446.81 184.256 1428.9 190.149 1416.07 199.548C1428.9 209.544 1447.1 215.437 1466.42 215.437C1485.89 215.437 1504.17 209.469 1516.93 199.473Z" fill="#3D2E57"/>
<path d="M1399.21 4.4777C1408.09 4.4777 1415.33 -2.75818 1415.33 -11.6352C1415.33 -20.5122 1408.09 -27.748 1399.21 -27.748C1390.34 -27.748 1383.1 -20.5122 1383.1 -11.6352C1383.03 -2.75818 1390.26 4.4777 1399.21 4.4777Z" fill="#3D2E57"/>
<path d="M1337.07 144.645H1280.83V153.82H1337.07V144.645Z" fill="#3D2E57"/>
<path d="M1327.97 127.861H1287.24V137.036H1327.97V127.861Z" fill="#3D2E57"/>
<path d="M1322.38 110.703H1293.66V119.879H1322.38V110.703Z" fill="#3D2E57"/>
<path d="M1316.41 92.9493H1302.01V102.125H1316.41V92.9493Z" fill="#3D2E57"/>
<path d="M1424.13 -19.7662C1424.13 -19.7662 1428.9 -3.80253 1418.16 5.74584C1418.16 5.74584 1444.87 12.1612 1453.67 15.2942C1453.67 15.3688 1432.48 -11.0384 1424.13 -19.7662Z" fill="#3D2E57"/>
<path d="M1374.22 -19.7662C1365.87 -10.9638 1344.68 15.3688 1344.68 15.3688C1353.49 12.1611 1380.19 5.82044 1380.19 5.82044C1369.45 -3.80252 1374.22 -19.7662 1374.22 -19.7662Z" fill="#3D2E57"/>
<path d="M1310.82 86.7578C1314.32 86.7578 1317.23 83.9231 1317.23 80.3425C1317.23 76.8364 1314.4 73.9272 1310.82 73.9272C1307.31 73.9272 1304.4 76.7618 1304.4 80.3425C1304.4 83.9231 1307.24 86.7578 1310.82 86.7578Z" fill="#3D2E57"/>
<path d="M1318.8 67.5864C1321.63 67.5864 1324.02 65.2739 1324.02 62.3647C1324.02 59.53 1321.71 57.1429 1318.8 57.1429C1315.89 57.1429 1313.65 59.4554 1313.65 62.3647C1313.58 65.2739 1315.89 67.5864 1318.8 67.5864Z" fill="#3D2E57"/>
<path d="M1326.78 50.0562C1329.24 50.0562 1331.18 48.1167 1331.18 45.655C1331.18 43.1934 1329.24 41.2538 1326.78 41.2538C1324.32 41.2538 1322.38 43.1934 1322.38 45.655C1322.38 48.0421 1324.32 50.0562 1326.78 50.0562Z" fill="#3D2E57"/>
<path d="M1336.7 35.2861C1339.31 35.2861 1341.48 33.1228 1341.48 30.5119C1341.48 27.901 1339.31 25.7377 1336.7 25.7377C1334.09 25.7377 1331.93 27.901 1331.93 30.5119C1331.93 33.1228 1334.09 35.2861 1336.7 35.2861Z" fill="#3D2E57"/>
<path d="M1257.7 299.06H1307.98C1307.98 299.06 1275.23 291.078 1259.27 275.487L1257.7 299.06Z" fill="#3D2E57"/>
<path d="M1409.58 325.989L1454.49 366.719C1454.49 366.719 1484.4 343.967 1558.63 325.989H1409.58ZM1471.35 340.237C1467.77 343.37 1461.58 345.384 1454.64 345.384C1447.03 345.384 1440.39 342.923 1436.96 339.342C1440.32 335.761 1447.03 333.3 1454.64 333.3C1461.65 333.3 1467.77 335.388 1471.35 338.447L1481.64 332.479V346.205L1471.35 340.237Z" fill="#3D2E57"/>
<path d="M1351.99 341.132C1353.04 341.132 1353.93 340.237 1353.93 339.193C1353.93 338.074 1353.04 337.253 1351.99 337.253C1350.95 337.253 1350.05 338.148 1350.05 339.193C1349.98 340.312 1350.87 341.132 1351.99 341.132Z" fill="#3D2E57"/>
<path d="M1343.94 366.644L1388.84 325.915H1239.8C1313.95 343.967 1343.94 366.644 1343.94 366.644ZM1327 338.447C1330.58 335.314 1336.78 333.3 1343.71 333.3C1351.32 333.3 1357.96 335.761 1361.39 339.342C1358.04 342.923 1351.32 345.384 1343.71 345.384C1336.7 345.384 1330.58 343.296 1327 340.237L1316.71 346.205V332.479L1327 338.447Z" fill="#3D2E57"/>
<path d="M1094.93 107.272C1094.49 106.675 1051.74 46.1026 1050.85 -29.6876L1038.91 -29.5384C1039.66 32.9736 1066.74 84.5198 1079.19 104.885C1033.17 106.078 995.422 114.433 981.1 118.088C964.688 47.5945 915.38 -25.2118 913.217 -28.4194L903.295 -21.6312C903.818 -20.8852 956.334 56.6953 970.731 126.667L971.999 133.008L978.265 131.217C978.787 131.068 1028.92 116.671 1090.16 116.671H1101.8L1094.93 107.272Z" fill="#3D2E57"/>
<path d="M1011.98 12.3103L1038.17 21.7095L1018.77 41.6268L1045.78 48.4897L1028.1 70.0481L1055.62 74.5985L1039.66 97.3505L1067.48 99.8868L1055.7 74.4493L1045.85 48.4151L1038.32 21.5603L1038.24 21.6349L1033.32 -5.81666L1030.56 -33.492L1007.81 -17.2299L1033.24 -5.74206L1011.98 12.3103Z" fill="#3D2E57"/>
<path d="M1006.84 88.921L979.608 82.5057L987.664 109.361L1006.84 88.921Z" fill="#3D2E57"/>
<path d="M997.362 60.8727L969.686 56.3223L979.608 82.5057L997.362 60.8727Z" fill="#3D2E57"/>
<path d="M984.904 32.8244L956.93 31.407L969.686 56.3223L984.904 32.8244Z" fill="#3D2E57"/>
<path d="M972.073 7.90914L944.174 6.56641L956.93 31.4071L972.073 7.90914Z" fill="#3D2E57"/>
<path d="M957.453 -18.1251L929.479 -17.3045L944.175 6.5664L957.453 -18.1251Z" fill="#3D2E57"/>
<path d="M1021.38 98.8424C1025.48 98.8424 1028.84 95.4855 1028.84 91.3827C1028.84 87.2799 1025.48 83.9231 1021.38 83.9231C1017.28 83.9231 1013.92 87.2799 1013.92 91.3827C1013.85 95.4855 1017.2 98.8424 1021.38 98.8424Z" fill="#3D2E57"/>
<path d="M1016.09 66.6912C1020.21 66.6912 1023.55 63.3514 1023.55 59.2316C1023.55 55.1117 1020.21 51.7719 1016.09 51.7719C1011.97 51.7719 1008.63 55.1117 1008.63 59.2316C1008.63 63.3514 1011.97 66.6912 1016.09 66.6912Z" fill="#3D2E57"/>
<path d="M995.198 48.7135C999.318 48.7135 1002.66 45.3736 1002.66 41.2538C1002.66 37.1339 999.318 33.7941 995.198 33.7941C991.079 33.7941 987.739 37.1339 987.739 41.2538C987.739 45.3736 991.079 48.7135 995.198 48.7135Z" fill="#3D2E57"/>
<path d="M997.436 21.0381C1001.56 21.0381 1004.9 17.6983 1004.9 13.5785C1004.9 9.45861 1001.56 6.1188 997.436 6.1188C993.317 6.1188 989.977 9.45861 989.977 13.5785C989.977 17.6983 993.317 21.0381 997.436 21.0381Z" fill="#3D2E57"/>
<path d="M974.983 1.5684C979.103 1.5684 982.443 -1.7714 982.443 -5.89126C982.443 -10.0111 979.103 -13.3509 974.983 -13.3509C970.863 -13.3509 967.523 -10.0111 967.523 -5.89126C967.523 -1.7714 970.863 1.5684 974.983 1.5684Z" fill="#3D2E57"/>
<path d="M1128.8 107.272C1129.25 106.675 1171.99 46.1026 1172.89 -29.6876L1184.9 -29.5384C1184.15 32.9736 1157.07 84.5198 1144.62 104.885C1190.64 106.078 1228.39 114.433 1242.71 118.088C1259.12 47.5945 1308.43 -25.2118 1310.59 -28.4194L1320.51 -21.6312C1319.99 -20.8852 1267.48 56.6953 1253.08 126.667L1251.81 133.008L1245.62 131.217C1245.1 131.068 1194.97 116.671 1133.72 116.671H1122.09L1128.8 107.272Z" fill="#3D2E57"/>
<path d="M1211.83 12.3103L1185.57 21.7095L1204.96 41.6268L1177.96 48.4897L1195.64 70.0481L1168.11 74.5985L1184.15 97.3505L1156.25 99.8868L1168.04 74.4493L1177.89 48.4151L1185.49 21.5603V21.6349L1190.42 -5.81666L1193.18 -33.492L1215.93 -17.2299L1190.49 -5.74206L1211.83 12.3103Z" fill="#3D2E57"/>
<path d="M1216.9 88.921L1244.13 82.5057L1236.07 109.361L1216.9 88.921Z" fill="#3D2E57"/>
<path d="M1226.37 60.8727L1254.05 56.3223L1244.13 82.5057L1226.37 60.8727Z" fill="#3D2E57"/>
<path d="M1238.83 32.8244L1266.8 31.407L1254.05 56.3223L1238.83 32.8244Z" fill="#3D2E57"/>
<path d="M1251.66 7.90914L1279.56 6.56641L1266.8 31.4071L1251.66 7.90914Z" fill="#3D2E57"/>
<path d="M1266.28 -18.1251L1294.33 -17.3045L1279.56 6.5664L1266.28 -18.1251Z" fill="#3D2E57"/>
<path d="M1202.35 98.8424C1198.25 98.8424 1194.89 95.4855 1194.89 91.3827C1194.89 87.2799 1198.25 83.9231 1202.35 83.9231C1206.46 83.9231 1209.81 87.2799 1209.81 91.3827C1209.89 95.4855 1206.53 98.8424 1202.35 98.8424Z" fill="#3D2E57"/>
<path d="M1207.65 66.6912C1211.77 66.6912 1215.11 63.3514 1215.11 59.2316C1215.11 55.1117 1211.77 51.7719 1207.65 51.7719C1203.53 51.7719 1200.19 55.1117 1200.19 59.2316C1200.19 63.3514 1203.53 66.6912 1207.65 66.6912Z" fill="#3D2E57"/>
<path d="M1228.61 48.7135C1232.73 48.7135 1236.07 45.3736 1236.07 41.2538C1236.07 37.1339 1232.73 33.7941 1228.61 33.7941C1224.49 33.7941 1221.15 37.1339 1221.15 41.2538C1221.15 45.3736 1224.49 48.7135 1228.61 48.7135Z" fill="#3D2E57"/>
<path d="M1226.3 21.0381C1230.42 21.0381 1233.76 17.6983 1233.76 13.5785C1233.76 9.45861 1230.42 6.1188 1226.3 6.1188C1222.18 6.1188 1218.84 9.45861 1218.84 13.5785C1218.84 17.6983 1222.18 21.0381 1226.3 21.0381Z" fill="#3D2E57"/>
<path d="M1248.75 1.5684C1252.87 1.5684 1256.21 -1.7714 1256.21 -5.89126C1256.21 -10.0111 1252.87 -13.3509 1248.75 -13.3509C1244.63 -13.3509 1241.29 -10.0111 1241.29 -5.89126C1241.29 -1.7714 1244.63 1.5684 1248.75 1.5684Z" fill="#3D2E57"/>
<path d="M1119.55 30.5865C1116.94 31.034 1114.11 31.2578 1111.12 31.2578C1108.66 31.2578 1106.35 31.1086 1104.18 30.8102C1106.27 45.1328 1108.58 70.421 1103.96 95.4109C1107.91 99.8867 1111.12 102.423 1111.12 102.423C1111.12 102.423 1114.93 99.3645 1119.48 94.0682C1115.22 69.3767 1117.54 44.536 1119.55 30.5865Z" fill="#3D2E57"/>
<path d="M1099.56 29.9151C1080.39 25.4393 1070.76 11.0422 1070.76 11.0422C1068.53 36.4796 1093.22 40.9554 1093.22 40.9554C1093.22 40.9554 1092.55 41.9998 1091.65 43.8647C1085.83 40.7316 1072.93 34.3163 1070.99 38.9413C1068.83 44.0885 1079.42 55.7256 1089.41 49.9816C1087.92 55.5764 1087.18 63.409 1090.16 72.3606C1092.55 79.5965 1096.43 85.8626 1100.16 90.7114C1103.96 66.6913 1101.5 42.8949 1099.56 29.9151Z" fill="#3D2E57"/>
<path d="M1152.75 39.0159C1150.66 34.0925 1135.96 41.7759 1130.96 44.536C1129.99 42.2981 1129.1 41.03 1129.1 41.03C1129.1 41.03 1153.79 36.5542 1151.55 11.1167C1151.55 11.1167 1142.45 24.7679 1124.25 29.6167C1122.31 42.1489 1119.85 65.4977 1123.28 89.294C1126.64 84.669 1129.99 78.9997 1132.16 72.5097C1135.37 62.8868 1134.25 54.6066 1132.61 48.9372C1142.97 57.1429 1154.98 44.3868 1152.75 39.0159Z" fill="#3D2E57"/>
<path d="M1136.34 9.40106C1136.34 16.4131 1125.37 22.0825 1111.87 22.0825C1098.37 22.0825 1087.4 16.4131 1087.4 9.40106C1087.4 2.38898 1098.37 -3.28036 1111.87 -3.28036C1125.37 -3.28036 1136.34 2.38898 1136.34 9.40106Z" fill="#3D2E57"/>
</g>
</g>
<defs>
<clipPath id="clip0_211_713">
<rect width="1270" height="714" fill="white" transform="translate(326)"/>
</clipPath>
</defs>
</svg>
