<svg width="29" height="29" viewBox="0 0 29 29" fill="none" xmlns="http://www.w3.org/2000/svg">
<path d="M19.0565 14.6452C19.0565 15.5176 18.7977 16.3705 18.313 17.096C17.8283 17.8214 17.1394 18.3868 16.3333 18.7207C15.5272 19.0546 14.6403 19.1419 13.7846 18.9717C12.9289 18.8015 12.1429 18.3814 11.5259 17.7644C10.909 17.1475 10.4889 16.3615 10.3186 15.5058C10.1484 14.6501 10.2358 13.7631 10.5697 12.957C10.9036 12.151 11.469 11.462 12.1944 10.9773C12.9198 10.4926 13.7727 10.2339 14.6452 10.2339C15.8147 10.2352 16.936 10.7004 17.7629 11.5274C18.5899 12.3544 19.0551 13.4756 19.0565 14.6452ZM28.4305 8.57965V20.7107C28.4281 22.7574 27.614 24.7196 26.1668 26.1668C24.7196 27.614 22.7574 28.4281 20.7107 28.4305H8.57965C6.53296 28.4281 4.57077 27.614 3.12354 26.1668C1.67631 24.7196 0.862229 22.7574 0.859894 20.7107V8.57965C0.862229 6.53296 1.67631 4.57077 3.12354 3.12354C4.57077 1.67631 6.53296 0.862229 8.57965 0.859894H20.7107C22.7574 0.862229 24.7196 1.67631 26.1668 3.12354C27.614 4.57077 28.4281 6.53296 28.4305 8.57965ZM21.2621 14.6452C21.2621 13.3365 20.874 12.0572 20.147 10.969C19.4199 9.88085 18.3865 9.03275 17.1774 8.53193C15.9683 8.03111 14.6378 7.90007 13.3543 8.15538C12.0707 8.4107 10.8917 9.0409 9.9663 9.9663C9.0409 10.8917 8.4107 12.0707 8.15538 13.3543C7.90007 14.6378 8.03111 15.9683 8.53193 17.1774C9.03275 18.3865 9.88085 19.4199 10.969 20.147C12.0572 20.874 13.3365 21.2621 14.6452 21.2621C16.3995 21.2601 18.0814 20.5624 19.3219 19.3219C20.5624 18.0814 21.2601 16.3995 21.2621 14.6452ZM23.4678 7.47683C23.4678 7.14965 23.3707 6.82982 23.189 6.55779C23.0072 6.28575 22.7488 6.07372 22.4466 5.94852C22.1443 5.82331 21.8117 5.79055 21.4908 5.85438C21.1699 5.91821 20.8752 6.07576 20.6438 6.30711C20.4125 6.53846 20.2549 6.83321 20.1911 7.1541C20.1272 7.47499 20.16 7.80761 20.2852 8.10988C20.4104 8.41215 20.6224 8.67051 20.8945 8.85227C21.1665 9.03404 21.4863 9.13106 21.8135 9.13106C22.2523 9.13106 22.673 8.95678 22.9832 8.64655C23.2935 8.33632 23.4678 7.91556 23.4678 7.47683Z" fill="white"/>
</svg>
