<svg width="483" height="708" viewBox="0 0 483 708" fill="none" xmlns="http://www.w3.org/2000/svg">
<g clip-path="url(#clip0_222_1371)">
<path d="M-12.7611 14.5803C-18.0575 14.5803 -23.2792 15.6246 -28.2026 17.7133C-38.1239 21.8161 -45.8074 29.5741 -49.8356 39.4955C-53.9384 49.4168 -53.8638 60.308 -49.761 70.2293C-43.4949 85.2232 -28.9485 94.8462 -12.6865 94.8462C-7.39012 94.8462 -2.16835 93.8018 2.75503 91.7131C12.6764 87.6103 20.3598 79.8523 24.388 69.9309C28.4909 60.0096 28.4162 49.1185 24.3134 39.1971C18.0473 24.2778 3.50095 14.5802 -12.7611 14.5803ZM18.5695 60.9793L6.55943 62.6204L13.9445 72.1688C13.8699 72.318 13.7953 72.3926 13.7207 72.5418L2.00906 69.4088L5.14208 81.1204C5.06748 81.195 4.9929 81.195 4.9183 81.2696L-4.70464 73.9591L-6.27119 85.9692C-8.3599 86.4168 -10.5978 86.6406 -12.7611 86.6406C-14.9244 86.6406 -17.0131 86.4168 -19.1018 85.9692L-20.7429 73.9591L-30.3659 81.3442C-30.5151 81.2696 -30.5897 81.195 -30.7389 81.1204L-27.6058 69.4088L-39.2429 72.5418C-39.3175 72.4672 -39.3175 72.3926 -39.3921 72.318L-32.0816 62.6951L-44.0917 61.1285C-44.9869 56.8765 -44.9868 52.5499 -44.1663 48.2979L-32.1562 46.6568L-39.5413 37.1084C-39.4667 36.9592 -39.3921 36.8846 -39.3175 36.7354L-27.6058 39.8685L-30.7389 28.1568C-30.6643 28.0822 -30.5897 28.0822 -30.5151 28.0076L-20.8921 35.3181L-19.3256 23.308C-17.2369 22.8604 -14.999 22.6367 -12.8357 22.6367C-10.6724 22.6367 -8.58368 22.8605 -6.49498 23.2334L-4.85384 35.2435L4.76909 27.8584C4.91829 27.933 4.99288 28.0076 5.14208 28.0822L2.00906 39.7939L13.7207 36.6608C13.7953 36.7354 13.7953 36.81 13.8699 36.8846L6.55943 46.5076L18.5695 48.0741C19.39 52.4007 19.4646 56.8019 18.5695 60.9793Z" fill="#39294C"/>
<path d="M-12.6866 38.6749C-21.5636 38.6749 -28.7249 45.8362 -28.7249 54.7132C-28.7249 63.5902 -21.5636 70.7515 -12.6866 70.7515C-3.80959 70.7515 3.35168 63.5902 3.35168 54.7132C3.35168 45.8362 -3.88419 38.6749 -12.6866 38.6749Z" fill="#39294C"/>
<path d="M32.0715 61.7251L44.2307 54.713L32.0715 47.7009L32.0715 61.7251Z" fill="#39294C"/>
<path d="M27.521 14.5056L14.019 18.0862L23.8658 28.0076L27.521 14.5056Z" fill="#39294C"/>
<path d="M13.9444 91.3401L27.521 94.9954L23.8658 81.4188L13.9444 91.3401Z" fill="#39294C"/>
<path d="M9.46873 2.34624L-1.72076 10.7757L11.1844 16.2212L9.46873 2.34624Z" fill="#39294C"/>
<path d="M25.8053 78.6587L39.6803 76.943L31.2508 65.7535L25.8053 78.6587Z" fill="#39294C"/>
<path d="M31.4001 44.4189L40.0533 33.3786L26.1783 31.4391L31.4001 44.4189Z" fill="#39294C"/>
<path d="M8.64811 107.453L10.5876 93.5781L-2.39219 98.8745L8.64811 107.453Z" fill="#39294C"/>
<path d="M-12.6865 -18.6154C-53.1179 -18.6154 -86.015 14.2817 -86.015 54.713C-86.015 95.1444 -53.1179 128.042 -12.6865 128.042C27.7449 128.042 60.642 95.1444 60.642 54.713C60.642 14.2817 27.7449 -18.6154 -12.6865 -18.6154ZM-12.6865 114.987C-45.9566 114.987 -72.9606 87.9085 -72.9606 54.713C-72.9606 21.4429 -45.882 -5.56102 -12.6865 -5.56103C20.5836 -5.56103 47.5875 21.5175 47.5876 54.713C47.5876 87.9831 20.509 114.987 -12.6865 114.987Z" fill="#39294C"/>
<path d="M150.755 277.235C150.755 194.134 135.462 114.316 106.519 46.4328C77.9483 -20.4803 38.2629 -71.2806 -8.28541 -100.373L-12.7612 -103.133L-17.237 -100.373C-63.7853 -71.2806 -103.471 -20.4803 -132.041 46.4328C-160.985 114.316 -176.277 194.134 -176.277 277.235L-176.277 285.59L150.755 285.59L150.755 277.235ZM130.837 213.156C127.331 216.14 120.021 222.108 110.398 227.777C107.936 225.316 104.579 223.824 100.85 223.824C93.3899 223.824 87.2729 229.866 87.2729 237.4C87.2729 237.699 87.2729 238.072 87.3475 238.37C80.783 240.533 74.2931 242.1 67.8032 243.07C65.5653 238.743 61.0149 235.759 55.7931 235.759C50.1238 235.759 45.3496 239.191 43.2609 244.039C37.9646 243.666 32.6682 242.846 27.3718 241.652C26.9243 234.566 21.0311 228.971 13.8698 228.971C9.9162 228.971 6.33559 230.687 3.87391 233.372C-0.527295 231.283 -4.92852 228.896 -9.25513 226.211L-12.0898 224.42L-14.9245 226.211C-19.5494 229.12 -24.1744 231.582 -28.874 233.82C-31.3357 230.91 -35.0656 229.045 -39.243 229.045C-46.5535 229.045 -52.4466 234.789 -52.745 242.025C-57.9667 243.144 -63.263 243.89 -68.5594 244.263C-70.5735 239.34 -75.4223 235.834 -81.0917 235.834C-86.2388 235.834 -90.7146 238.743 -93.0271 242.995C-99.517 241.951 -106.082 240.309 -112.646 238.072C-112.646 237.848 -112.571 237.699 -112.571 237.475C-112.571 229.941 -118.688 223.898 -126.148 223.898C-129.803 223.898 -133.086 225.316 -135.547 227.703C-145.469 222.108 -152.928 216.513 -156.21 213.902C-155.614 208.084 -155.017 202.265 -154.271 196.447C-146.587 201.892 -133.384 210.172 -116.152 215.991C-104.963 219.795 -91.0876 222.854 -75.4223 222.854C-56.3256 222.854 -34.6926 218.303 -12.0898 204.876C29.0129 229.195 67.0572 224.42 91.9725 215.916C108.384 210.322 121.214 202.564 129.047 197.118C129.718 202.414 130.241 207.785 130.837 213.156ZM127.331 184.959C121.438 189.509 107.339 199.356 88.0935 205.846C54.3758 217.184 21.5533 213.156 -9.32971 193.985L-12.1644 192.195L-14.9991 193.985C-46.0313 213.306 -78.9284 217.259 -112.795 205.771C-133.235 198.834 -147.706 188.166 -152.704 184.213C-151.66 177.201 -150.467 170.263 -149.198 163.4C-142.112 158.328 -129.579 150.57 -113.616 145.199C-79.8981 133.86 -47.0756 137.814 -16.1926 157.06L-13.3579 158.85L-10.5233 157.06C20.5089 137.739 53.406 133.785 87.2729 145.348C104.281 151.092 117.186 159.447 123.9 164.445C125.168 171.158 126.362 178.021 127.331 184.959ZM-116.525 53.072C-90.2671 -8.54486 -54.4607 -55.5407 -12.6866 -83.216C29.0875 -55.4661 64.8939 -8.47028 91.1519 53.0719C103.908 82.9852 113.904 115.36 121.065 149.376C113.382 144.677 103.162 139.231 90.8535 135.054C79.6641 131.249 65.7145 128.191 50.1238 128.191C31.0271 128.191 9.39403 132.741 -13.2087 146.094C-54.3115 121.775 -92.3558 126.55 -117.271 135.054C-128.834 139.007 -138.606 144.005 -146.14 148.481C-139.128 114.838 -129.207 82.7614 -116.525 53.072ZM-159.418 268.88C-159.269 254.557 -158.598 240.384 -157.479 226.36C-153.749 229.195 -147.706 233.447 -139.799 237.773C-139.575 245.084 -133.608 250.977 -126.223 250.977C-122.866 250.977 -119.807 249.783 -117.495 247.769C-117.047 247.918 -116.674 248.067 -116.227 248.217C-109.662 250.455 -102.203 252.394 -94.0715 253.662C-92.2812 259.033 -87.2086 262.987 -81.1662 262.987C-75.6461 262.987 -70.8719 259.705 -68.7832 254.93C-62.4425 254.557 -55.8034 253.662 -49.0151 252.096C-46.5534 254.632 -43.122 256.199 -39.3176 256.199C-32.3801 256.199 -26.6361 250.977 -25.8902 244.263C-21.4144 242.249 -16.7894 239.862 -12.1644 237.176C-7.98696 239.638 -3.80958 241.801 0.293232 243.666C0.815409 250.678 6.70857 256.199 13.7952 256.199C17.7489 256.199 21.2549 254.557 23.7166 251.872C30.4303 253.438 36.9948 254.408 43.2609 254.856C45.3496 259.63 50.1238 262.987 55.7186 262.987C61.6117 262.987 66.6842 259.182 68.5491 253.886C77.2024 252.618 85.1096 250.604 91.9725 248.217C92.1217 248.142 92.2709 248.142 92.4201 248.068C94.7326 249.932 97.6419 250.977 100.85 250.977C108.011 250.977 113.829 245.457 114.351 238.445C122.11 234.267 128.077 230.164 132.105 227.255C133.15 240.981 133.821 254.856 133.97 268.88L-159.418 268.88Z" fill="#39294C"/>
<path d="M-12.6776 358.403L5.78394 339.942L-12.6776 321.48L-31.1392 339.942L-12.6776 358.403Z" fill="#39294C"/>
<path d="M34.1602 339.971L-12.7612 293.049L-59.6824 339.971L-12.6865 386.892L34.1602 339.971ZM-12.6865 312.967L14.3175 339.971L-12.6865 366.975L-39.6905 339.971L-12.6865 312.967Z" fill="#39294C"/>
<path d="M0.36791 168.548C-2.31757 170.86 -4.70466 173.322 -6.71877 175.933C5.44048 191.3 28.3416 201.668 54.6742 201.668C81.0069 201.668 103.908 191.3 116.067 175.933C113.979 173.322 111.591 170.785 108.906 168.473C95.1802 179.588 75.4867 186.152 54.5997 186.152C33.7126 186.152 14.0937 179.588 0.36791 168.548Z" fill="#39294C"/>
<path d="M4.17233 165.489C17.003 175.485 35.2045 181.378 54.5251 181.378C73.9202 181.378 92.1964 175.41 105.027 165.414C92.1964 156.015 74.3678 150.197 54.6743 150.197C34.9061 150.197 17.0029 156.015 4.17233 165.489Z" fill="#39294C"/>
<path d="M49.3778 119.687L105.624 119.687L105.624 110.511L49.3778 110.511L49.3778 119.687Z" fill="#39294C"/>
<path d="M58.4786 102.977L99.2084 102.977L99.2084 93.8016L58.4786 93.8016L58.4786 102.977Z" fill="#39294C"/>
<path d="M64.148 85.7454L92.8677 85.7454L92.8677 76.57L64.148 76.57L64.148 85.7454Z" fill="#39294C"/>
<path d="M70.041 67.9915L84.4382 67.9915L84.4382 58.8161L70.041 58.8161L70.041 67.9915Z" fill="#39294C"/>
<path d="M69.2951 46.2837C69.2951 49.7897 72.1298 52.699 75.7104 52.699C79.2165 52.699 82.1257 49.8643 82.1257 46.2837C82.1257 42.703 79.2911 39.8683 75.7104 39.8683C72.1298 39.8683 69.2951 42.7776 69.2951 46.2837Z" fill="#39294C"/>
<path d="M62.5069 28.3059C62.5069 31.1406 64.8194 33.4531 67.7287 33.4531C70.5633 33.4531 72.8759 31.1406 72.8759 28.3059C72.8759 25.4713 70.5633 23.0842 67.7287 23.0842C64.8194 23.1588 62.5069 25.4713 62.5069 28.3059Z" fill="#39294C"/>
<path d="M59.7469 15.9229C62.2085 15.9229 64.1481 13.9834 64.1481 11.5217C64.1481 9.06003 62.2085 7.1205 59.7469 7.1205C57.2852 7.1205 55.3457 9.06004 55.3457 11.5217C55.3457 13.9834 57.2852 15.9229 59.7469 15.9229Z" fill="#39294C"/>
<path d="M49.7509 1.2273C52.3617 1.2273 54.525 -0.936025 54.525 -3.54691C54.525 -6.23239 52.3617 -8.32111 49.7509 -8.32111C47.14 -8.32111 44.9767 -6.15779 44.9767 -3.54691C44.9767 -0.936025 47.0654 1.2273 49.7509 1.2273Z" fill="#39294C"/>
<path d="M127.182 241.428C111.218 257.019 78.4706 265.001 78.4706 265.001L128.749 265.001L127.182 241.428Z" fill="#39294C"/>
<path d="M34.4585 303.12C33.3396 303.12 32.519 304.015 32.519 305.059C32.519 306.178 33.4141 306.999 34.4585 306.999C35.5029 306.999 36.398 306.104 36.398 305.059C36.4726 304.015 35.5775 303.12 34.4585 303.12Z" fill="#39294C"/>
<path d="M-2.31766 291.856L42.5895 332.586C42.5895 332.586 72.5028 309.834 146.726 291.856L-2.31766 291.856ZM59.523 306.178C55.9423 309.312 49.7508 311.326 42.8133 311.326C35.2044 311.326 28.5654 308.864 25.1339 305.283C28.4908 301.703 35.2044 299.241 42.8133 299.241C49.8254 299.241 55.9423 301.33 59.523 304.388L69.8173 298.42L69.8173 312.146L59.523 306.178Z" fill="#39294C"/>
<path d="M-28.2025 662.228C-23.2791 664.317 -18.0574 665.361 -12.7611 665.361C3.501 665.361 18.0474 655.664 24.3135 640.744C28.4909 630.823 28.4909 619.932 24.3881 610.01C20.3599 600.089 12.6018 592.331 2.75507 588.228C-2.16831 586.139 -7.39009 585.095 -12.6864 585.095C-28.9485 585.095 -43.4949 594.793 -49.761 609.712C-53.8638 619.633 -53.9384 630.524 -49.8356 640.446C-45.8073 650.367 -38.1239 658.051 -28.2025 662.228ZM-43.9424 618.664L-31.9324 617.097L-39.2429 607.474C-39.1683 607.4 -39.1682 607.325 -39.0936 607.25L-27.4566 610.383L-30.5896 598.672C-30.4404 598.597 -30.3658 598.523 -30.2167 598.448L-20.5937 605.833L-18.9526 593.823C-16.8639 593.375 -14.7752 593.152 -12.6119 593.152C-10.4486 593.152 -8.21066 593.375 -6.12195 593.823L-4.55544 605.833L5.06755 598.522C5.14214 598.597 5.21673 598.597 5.29133 598.672L2.15826 610.383L13.8699 607.25C13.9445 607.399 14.0191 607.474 14.0937 607.623L6.70868 617.172L18.7187 618.813C19.6139 623.065 19.5393 627.391 18.6441 631.643L6.63406 633.21L13.9446 642.833C13.87 642.908 13.87 642.982 13.7954 643.057L2.08368 639.924L5.21675 651.635C5.06756 651.71 4.99296 651.784 4.84377 651.859L-4.77922 644.474L-6.42035 656.484C-8.50906 656.932 -10.5978 657.155 -12.7611 657.155C-14.9244 657.155 -17.1622 656.932 -19.2509 656.484L-20.8175 644.474L-30.4404 651.785C-30.515 651.71 -30.5897 651.71 -30.6643 651.635L-27.5312 639.924L-39.2429 643.057C-39.3175 642.907 -39.392 642.833 -39.4666 642.684L-32.0816 633.135L-44.0916 631.494C-44.8376 627.242 -44.8376 622.916 -43.9424 618.664Z" fill="#39294C"/>
<path d="M-12.6865 641.266C-3.80947 641.266 3.35181 634.105 3.35181 625.228C3.3518 616.351 -3.80947 609.19 -12.6865 609.19C-21.5635 609.19 -28.7247 616.351 -28.7247 625.228C-28.7993 634.03 -21.5635 641.266 -12.6865 641.266Z" fill="#39294C"/>
<path d="M32.0715 632.166L44.2307 625.153L32.0715 618.141L32.0715 632.166Z" fill="#39294C"/>
<path d="M14.0191 661.781L27.5211 665.436L23.8659 651.859L14.0191 661.781Z" fill="#39294C"/>
<path d="M27.5211 584.946L13.9446 588.601L23.8659 598.522L27.5211 584.946Z" fill="#39294C"/>
<path d="M9.46873 677.595L11.1844 663.645L-1.72076 669.166L9.46873 677.595Z" fill="#39294C"/>
<path d="M31.251 614.188L39.6804 602.998L25.8054 601.283L31.251 614.188Z" fill="#39294C"/>
<path d="M26.1783 648.502L40.0533 646.563L31.4001 635.448L26.1783 648.502Z" fill="#39294C"/>
<path d="M8.64811 572.414L-2.39219 581.067L10.5876 586.289L8.64811 572.414Z" fill="#39294C"/>
<path d="M-12.6865 698.557C27.7449 698.557 60.642 665.66 60.642 625.228C60.642 584.797 27.7449 551.9 -12.6865 551.9C-53.1179 551.9 -86.015 584.797 -86.015 625.228C-86.0896 665.66 -53.1925 698.557 -12.6865 698.557ZM-12.6865 564.879C20.5836 564.879 47.5875 591.958 47.5876 625.154C47.5876 658.424 20.509 685.428 -12.6865 685.428C-45.9566 685.428 -72.9606 658.349 -72.9606 625.154C-73.0352 591.958 -45.9566 564.879 -12.6865 564.879Z" fill="#39294C"/>
<path d="M-131.966 633.434C-103.396 700.347 -63.7106 751.147 -17.1623 780.24L-12.6865 783L-8.21068 780.24C38.3376 751.147 78.023 700.347 106.593 633.434C135.537 565.551 150.829 485.807 150.829 402.632L150.829 394.277L-176.128 394.277L-176.128 402.632C-176.202 485.732 -160.91 565.551 -131.966 633.434ZM91.152 626.869C64.894 688.486 29.0876 735.482 -12.6865 763.157C-54.4606 735.407 -90.267 688.411 -116.525 626.869C-129.206 597.18 -139.128 565.103 -146.215 531.46C-138.68 536.011 -128.908 541.009 -117.346 544.888C-92.4303 553.317 -54.386 558.166 -13.2833 533.847C9.31951 547.2 31.0271 551.75 50.0492 551.75C65.6399 551.75 79.5149 548.692 90.779 544.888C103.087 540.71 113.382 535.339 120.991 530.565C113.829 564.581 103.833 596.956 91.152 626.869ZM-156.285 466.114C-153.003 463.503 -145.543 457.908 -135.622 452.313C-133.16 454.626 -129.878 456.118 -126.223 456.118C-118.763 456.118 -112.646 450.075 -112.646 442.541C-112.646 442.317 -112.646 442.168 -112.721 441.944C-106.156 439.706 -99.5916 438.065 -93.1017 437.021C-90.7892 441.273 -86.3134 444.182 -81.1662 444.182C-75.4969 444.182 -70.6481 440.676 -68.634 435.753C-63.3377 436.126 -58.0413 436.797 -52.8195 437.991C-52.5211 445.226 -46.5534 450.97 -39.3175 450.97C-35.1401 450.97 -31.4849 449.106 -28.9486 446.196C-24.249 448.36 -19.624 450.896 -14.999 453.805L-12.1643 455.595L-9.32966 453.805C-5.00306 451.12 -0.601873 448.733 3.79933 446.644C6.26102 449.329 9.84167 451.045 13.7953 451.045C20.9566 451.045 26.8497 445.45 27.2973 438.364C32.519 437.17 37.8154 436.349 43.1863 435.976C45.2004 440.825 50.0493 444.257 55.7186 444.257C60.9404 444.257 65.4908 441.273 67.7286 436.946C74.2186 437.916 80.7085 439.483 87.273 441.646C87.273 441.944 87.1984 442.317 87.1984 442.616C87.1984 450.075 93.3153 456.192 100.775 456.192C104.505 456.192 107.862 454.7 110.323 452.239C120.021 457.983 127.257 463.876 130.763 466.86C130.241 472.23 129.644 477.601 128.972 482.898C121.14 477.452 108.384 469.694 91.898 464.099C66.9827 455.595 28.9384 450.821 -12.1643 475.14C-34.7671 461.787 -56.4747 457.162 -75.4969 457.162C-91.0876 457.162 -104.963 460.22 -116.227 464.025C-133.458 469.843 -146.737 478.124 -154.345 483.569C-155.091 477.825 -155.763 471.932 -156.285 466.114ZM123.975 515.571C117.261 520.494 104.356 528.849 87.3476 534.668C53.4807 546.156 20.5836 542.202 -10.4486 522.956L-13.2833 521.166L-16.118 522.956C-47.001 542.202 -79.7489 546.156 -113.541 534.817C-129.579 529.446 -142.037 521.688 -149.124 516.615C-150.392 509.753 -151.585 502.815 -152.63 495.803C-147.632 491.849 -133.085 481.182 -112.721 474.245C-78.8537 462.757 -45.9566 466.71 -14.9244 485.956L-12.0897 487.747L-9.25508 485.956C21.6279 466.71 54.3759 462.757 88.1681 474.095C107.414 480.585 121.513 490.432 127.406 494.982C126.362 501.92 125.168 508.783 123.975 515.571ZM133.97 411.061C133.821 425.085 133.15 438.96 132.106 452.686C128.152 449.702 122.11 445.599 114.352 441.497C113.829 434.485 108.011 428.964 100.85 428.964C97.6419 428.964 94.7326 430.083 92.4201 431.874C92.2709 431.799 92.1217 431.799 91.9726 431.724C85.1097 429.412 77.2024 427.323 68.5492 426.055C66.6843 420.759 61.6863 416.954 55.7186 416.954C50.1239 416.954 45.3497 420.311 43.261 425.085C36.9948 425.533 30.4303 426.428 23.7166 428.069C21.2549 425.384 17.7489 423.743 13.7953 423.743C6.63402 423.743 0.815452 429.263 0.293277 436.275C-3.80954 438.14 -7.98691 440.303 -12.1643 442.765C-16.7893 440.005 -21.3397 437.692 -25.8155 435.678C-26.6361 428.964 -32.38 423.743 -39.3175 423.743C-43.1219 423.743 -46.5534 425.309 -49.0151 427.845C-55.8034 426.279 -62.4425 425.384 -68.7832 425.011C-70.8719 420.237 -75.6461 416.954 -81.1662 416.954C-87.1339 416.954 -92.2811 420.833 -94.0715 426.279C-102.202 427.547 -109.662 429.487 -116.227 431.725C-116.674 431.874 -117.122 432.023 -117.495 432.172C-119.882 430.158 -122.94 428.964 -126.223 428.964C-133.608 428.964 -139.575 434.858 -139.799 442.168C-147.706 446.495 -153.749 450.747 -157.479 453.581C-158.598 439.557 -159.269 425.384 -159.418 411.061L133.97 411.061V411.061Z" fill="#39294C"/>
<path d="M-6.71877 504.009C-4.63006 506.619 -2.24297 509.081 0.367913 511.394C14.0937 500.353 33.7126 493.789 54.5997 493.789C75.4867 493.789 95.1802 500.353 108.906 511.468C111.591 509.156 113.979 506.694 116.067 504.009C103.908 488.642 81.0069 478.273 54.6742 478.273C28.3416 478.273 5.44048 488.642 -6.71877 504.009Z" fill="#39294C"/>
<path d="M4.17233 514.452C17.003 523.926 34.8316 529.744 54.6743 529.744C74.3678 529.744 92.1964 523.926 105.027 514.527C92.1964 504.531 73.9948 498.563 54.5251 498.563C35.2045 498.563 17.0029 504.456 4.17233 514.452Z" fill="#39294C"/>
<path d="M49.378 569.355L105.624 569.355L105.624 560.18L49.378 560.18L49.378 569.355Z" fill="#39294C"/>
<path d="M58.4787 586.139L99.2085 586.139L99.2085 576.964L58.4787 576.964L58.4787 586.139Z" fill="#39294C"/>
<path d="M64.1481 603.297L92.8678 603.297L92.8678 594.121L64.1481 594.121L64.1481 603.297Z" fill="#39294C"/>
<path d="M70.0412 621.051L84.4384 621.051L84.4384 611.875L70.0412 611.875L70.0412 621.051Z" fill="#39294C"/>
<path d="M12.2288 733.766C20.5836 724.964 41.769 698.631 41.769 698.631C32.9666 701.839 6.26102 708.179 6.26102 708.179C17.0029 717.802 12.2288 733.766 12.2288 733.766Z" fill="#39294C"/>
<path d="M75.7106 627.242C72.2045 627.242 69.2952 630.077 69.2952 633.657C69.2952 637.163 72.1299 640.073 75.7106 640.073C79.2166 640.073 82.1259 637.238 82.1259 633.657C82.0513 630.077 79.2166 627.242 75.7106 627.242Z" fill="#39294C"/>
<path d="M67.7287 646.414C64.894 646.414 62.5069 648.726 62.5069 651.635C62.5069 654.47 64.8194 656.857 67.7287 656.857C70.5633 656.857 72.8759 654.545 72.8759 651.635C72.8759 648.726 70.5633 646.414 67.7287 646.414Z" fill="#39294C"/>
<path d="M59.7469 663.944C57.2852 663.944 55.3457 665.883 55.3457 668.345C55.3457 670.807 57.2852 672.746 59.7469 672.746C62.2085 672.746 64.1481 670.807 64.1481 668.345C64.0735 665.958 62.1339 663.944 59.7469 663.944Z" fill="#39294C"/>
<path d="M49.7509 678.714C47.14 678.714 44.9767 680.877 44.9767 683.488C44.9767 686.099 47.14 688.262 49.7509 688.262C52.3617 688.262 54.525 686.099 54.525 683.488C54.525 680.877 52.3617 678.714 49.7509 678.714Z" fill="#39294C"/>
<path d="M128.749 414.94L78.4706 414.94C78.4706 414.94 111.218 422.922 127.182 438.513L128.749 414.94Z" fill="#39294C"/>
<path d="M34.4586 372.868C33.3397 372.868 32.5191 373.763 32.5191 374.807C32.5191 375.926 33.4143 376.747 34.4586 376.747C35.503 376.747 36.3981 375.852 36.3981 374.807C36.4727 373.688 35.5776 372.868 34.4586 372.868Z" fill="#39294C"/>
<path d="M42.5149 347.356L-2.39224 388.085L146.726 388.085C72.5028 370.033 42.5149 347.356 42.5149 347.356ZM59.523 375.553C55.9423 378.686 49.7508 380.7 42.8133 380.7C35.2044 380.7 28.5654 378.239 25.1339 374.658C28.4908 371.077 35.2044 368.616 42.8133 368.616C49.8254 368.616 55.9423 370.704 59.523 373.763L69.8173 367.795L69.8173 381.521L59.523 375.553Z" fill="#39294C"/>
<path d="M291.518 606.728C291.966 607.325 334.71 667.897 335.605 743.688L347.54 743.538C346.794 681.026 319.716 629.48 307.258 609.115C353.284 607.922 391.03 599.567 405.353 595.912C421.764 666.405 471.072 739.212 473.236 742.419L483.157 735.631C482.635 734.885 430.119 657.305 415.722 587.333L414.453 580.992L408.187 582.783C407.665 582.932 357.536 597.329 296.292 597.329L284.655 597.329L291.518 606.728Z" fill="#39294C"/>
<path d="M374.47 701.69L348.286 692.29L367.682 672.373L340.678 665.51L358.357 643.952L330.831 639.401L346.869 616.649L318.97 614.113L330.756 639.551L340.603 665.585L348.212 692.44L348.212 692.365L353.135 719.817L355.895 747.492L378.647 731.23L353.21 719.742L374.47 701.69Z" fill="#39294C"/>
<path d="M379.617 625.079L406.845 631.494L398.788 604.639L379.617 625.079Z" fill="#39294C"/>
<path d="M389.091 653.127L416.766 657.678L406.845 631.494L389.091 653.127Z" fill="#39294C"/>
<path d="M401.548 681.175L429.522 682.593L416.766 657.678L401.548 681.175Z" fill="#39294C"/>
<path d="M414.379 706.091L442.353 707.434L429.522 682.593L414.379 706.091Z" fill="#39294C"/>
<path d="M429 732.125L457.048 731.304L442.353 707.434L429 732.125Z" fill="#39294C"/>
<path d="M365.07 615.158C360.968 615.158 357.611 618.514 357.611 622.617C357.611 626.72 360.968 630.077 365.07 630.077C369.173 630.077 372.53 626.72 372.53 622.617C372.605 618.514 369.248 615.158 365.07 615.158Z" fill="#39294C"/>
<path d="M370.367 647.309C366.247 647.309 362.907 650.649 362.907 654.768C362.907 658.888 366.247 662.228 370.367 662.228C374.487 662.228 377.827 658.888 377.827 654.768C377.827 650.649 374.487 647.309 370.367 647.309Z" fill="#39294C"/>
<path d="M391.329 665.286C387.209 665.286 383.869 668.626 383.869 672.746C383.869 676.866 387.209 680.206 391.329 680.206C395.448 680.206 398.788 676.866 398.788 672.746C398.788 668.626 395.448 665.286 391.329 665.286Z" fill="#39294C"/>
<path d="M389.016 692.962C384.896 692.962 381.557 696.302 381.557 700.421C381.557 704.541 384.896 707.881 389.016 707.881C393.136 707.881 396.476 704.541 396.476 700.421C396.476 696.302 393.136 692.962 389.016 692.962Z" fill="#39294C"/>
<path d="M257.651 606.728C257.204 607.325 214.46 667.897 213.565 743.688L201.555 743.538C202.301 681.026 229.379 629.48 241.837 609.115C195.811 607.922 158.065 599.567 143.742 595.912C127.331 666.405 78.0228 739.212 75.8595 742.419L65.9381 735.631C66.4603 734.885 118.976 657.305 133.373 587.333L134.642 580.992L140.833 582.783C141.355 582.932 191.484 597.329 252.728 597.329L264.365 597.329L257.651 606.728Z" fill="#39294C"/>
<path d="M174.7 701.69L200.883 692.29L181.488 672.373L208.492 665.51L190.813 643.952L218.339 639.401L202.375 616.649L230.2 614.113L218.414 639.551L208.567 665.585L201.033 692.44L200.958 692.365L196.035 719.817L193.274 747.492L170.523 731.23L195.96 719.742L174.7 701.69Z" fill="#39294C"/>
<path d="M169.553 625.079L142.325 631.494L150.381 604.639L169.553 625.079Z" fill="#39294C"/>
<path d="M160.079 653.127L132.404 657.678L142.325 631.494L160.079 653.127Z" fill="#39294C"/>
<path d="M147.621 681.176L119.648 682.593L132.404 657.678L147.621 681.176Z" fill="#39294C"/>
<path d="M134.791 706.091L106.892 707.434L119.648 682.593L134.791 706.091Z" fill="#39294C"/>
<path d="M120.17 732.125L92.1961 731.304L106.892 707.434L120.17 732.125Z" fill="#39294C"/>
<path d="M184.099 615.158C188.202 615.158 191.559 618.514 191.559 622.617C191.559 626.72 188.202 630.077 184.099 630.077C179.996 630.077 176.639 626.72 176.639 622.617C176.565 618.514 179.922 615.158 184.099 615.158Z" fill="#39294C"/>
<path d="M178.803 647.309C174.683 647.309 171.343 650.649 171.343 654.768C171.343 658.888 174.683 662.228 178.803 662.228C182.923 662.228 186.262 658.888 186.262 654.768C186.262 650.649 182.923 647.309 178.803 647.309Z" fill="#39294C"/>
<path d="M157.841 665.286C153.721 665.286 150.381 668.626 150.381 672.746C150.381 676.866 153.721 680.206 157.841 680.206C161.961 680.206 165.301 676.866 165.301 672.746C165.301 668.626 161.961 665.286 157.841 665.286Z" fill="#39294C"/>
<path d="M160.154 692.962C156.034 692.962 152.694 696.302 152.694 700.421C152.694 704.541 156.034 707.881 160.154 707.881C164.273 707.881 167.613 704.541 167.613 700.421C167.613 696.302 164.273 692.962 160.154 692.962Z" fill="#39294C"/>
<path d="M266.901 683.414C269.512 682.966 272.347 682.742 275.331 682.742C277.792 682.742 280.105 682.891 282.268 683.19C280.18 668.867 277.867 643.579 282.492 618.589C278.538 614.113 275.331 611.577 275.331 611.577C275.331 611.577 271.526 614.635 266.976 619.932C271.228 644.623 268.99 669.464 266.901 683.414Z" fill="#39294C"/>
<path d="M286.893 684.085C306.065 688.561 315.688 702.958 315.688 702.958C317.925 677.52 293.234 673.045 293.234 673.045C293.234 673.045 293.905 672 294.8 670.135C300.619 673.268 313.524 679.684 315.464 675.059C317.627 669.911 307.034 658.274 297.038 664.018C298.53 658.424 299.276 650.591 296.292 641.639C293.905 634.403 290.026 628.137 286.296 623.289C282.492 647.309 284.954 671.105 286.893 684.085Z" fill="#39294C"/>
<path d="M233.706 674.984C235.795 679.908 250.49 672.224 255.488 669.464C256.458 671.702 257.353 672.97 257.353 672.97C257.353 672.97 232.661 677.446 234.899 702.883C234.899 702.883 244 689.232 262.202 684.383C264.141 671.851 266.603 648.502 263.172 624.706C259.815 629.331 256.458 635 254.294 641.49C251.087 651.113 252.206 659.393 253.847 665.063C243.478 656.857 231.468 669.613 233.706 674.984Z" fill="#39294C"/>
<path d="M250.117 704.599C250.117 697.587 261.083 691.917 274.585 691.917C288.087 691.917 299.052 697.587 299.052 704.599C299.052 711.611 288.087 717.28 274.585 717.28C261.083 717.28 250.117 711.611 250.117 704.599Z" fill="#39294C"/>
<path d="M272.577 112.225C272.129 111.628 229.386 51.056 228.49 -24.7342L216.555 -24.585C217.301 37.927 244.379 89.4733 256.837 109.838C210.811 111.032 173.065 119.387 158.743 123.042C142.331 52.548 93.0229 -20.2583 90.8596 -23.466L80.9382 -16.6777C81.4604 -15.9317 133.976 61.6487 148.374 131.62L149.642 137.961L155.908 136.171C156.43 136.022 206.559 121.624 267.803 121.624L279.44 121.624L272.577 112.225Z" fill="#39294C"/>
<path d="M189.625 17.2638L215.809 26.6629L196.414 46.5802L223.418 53.4431L205.738 75.0015L233.264 79.5519L217.226 102.304L245.125 104.84L233.339 79.4027L223.492 53.3685L215.883 26.5137L215.883 26.5883L210.96 -0.863232L208.2 -28.5386L185.448 -12.2765L210.885 -0.788631L189.625 17.2638Z" fill="#39294C"/>
<path d="M184.478 93.8745L157.251 87.4592L165.307 114.314L184.478 93.8745Z" fill="#39294C"/>
<path d="M175.005 65.826L147.329 61.2756L157.251 87.4591L175.005 65.826Z" fill="#39294C"/>
<path d="M162.547 37.7777L134.573 36.3604L147.329 61.2756L162.547 37.7777Z" fill="#39294C"/>
<path d="M149.716 12.8625L121.743 11.5198L134.573 36.3605L149.716 12.8625Z" fill="#39294C"/>
<path d="M135.095 -13.1716L107.047 -12.3511L121.743 11.5199L135.095 -13.1716Z" fill="#39294C"/>
<path d="M199.025 103.796C203.128 103.796 206.484 100.439 206.484 96.3361C206.484 92.2333 203.128 88.8765 199.025 88.8765C194.922 88.8765 191.565 92.2333 191.565 96.3361C191.49 100.439 194.847 103.796 199.025 103.796Z" fill="#39294C"/>
<path d="M193.728 71.6447C197.848 71.6447 201.188 68.3049 201.188 64.185C201.188 60.0651 197.848 56.7253 193.728 56.7253C189.608 56.7253 186.269 60.0651 186.269 64.185C186.269 68.3049 189.608 71.6447 193.728 71.6447Z" fill="#39294C"/>
<path d="M172.767 53.6669C176.887 53.6669 180.226 50.3271 180.226 46.2072C180.226 42.0874 176.887 38.7476 172.767 38.7476C168.647 38.7476 165.307 42.0874 165.307 46.2072C165.307 50.3271 168.647 53.6669 172.767 53.6669Z" fill="#39294C"/>
<path d="M175.079 25.9916C179.199 25.9916 182.539 22.6518 182.539 18.5319C182.539 14.4121 179.199 11.0723 175.079 11.0723C170.959 11.0723 167.619 14.4121 167.619 18.5319C167.619 22.6518 170.959 25.9916 175.079 25.9916Z" fill="#39294C"/>
<path d="M152.626 6.52186C156.745 6.52186 160.085 3.18206 160.085 -0.937801C160.085 -5.05766 156.745 -8.39746 152.626 -8.39746C148.506 -8.39746 145.166 -5.05766 145.166 -0.937799C145.166 3.18206 148.506 6.52186 152.626 6.52186Z" fill="#39294C"/>
<path d="M306.444 112.225C306.891 111.629 349.635 51.056 350.53 -24.7341L362.54 -24.5849C361.794 37.927 334.716 89.4733 322.258 109.838C368.284 111.032 406.03 119.387 420.353 123.042C436.764 52.548 486.072 -20.2584 488.236 -23.466L498.157 -16.6777C497.635 -15.9318 445.119 61.6487 430.722 131.62L429.454 137.961L423.262 136.171C422.74 136.022 372.611 121.624 311.367 121.624L299.73 121.624L306.444 112.225Z" fill="#39294C"/>
<path d="M389.395 17.2637L363.212 26.6629L382.607 46.5802L355.603 53.4431L373.282 75.0015L345.756 79.5519L361.72 102.304L333.895 104.84L345.682 79.4028L355.528 53.3685L363.063 26.5137L363.137 26.5883L368.061 -0.863233L370.821 -28.5386L393.573 -12.2765L368.135 -0.788632L389.395 17.2637Z" fill="#39294C"/>
<path d="M394.542 93.8745L421.77 87.4592L413.714 114.314L394.542 93.8745Z" fill="#39294C"/>
<path d="M404.016 65.826L431.692 61.2756L421.77 87.4591L404.016 65.826Z" fill="#39294C"/>
<path d="M416.474 37.7777L444.448 36.3603L431.692 61.2756L416.474 37.7777Z" fill="#39294C"/>
<path d="M429.304 12.8625L457.204 11.5198L444.448 36.3605L429.304 12.8625Z" fill="#39294C"/>
<path d="M443.925 -13.1716L471.899 -12.3511L457.204 11.5199L443.925 -13.1716Z" fill="#39294C"/>
<path d="M379.996 103.796C375.893 103.796 372.537 100.439 372.537 96.3361C372.536 92.2333 375.893 88.8765 379.996 88.8765C384.099 88.8765 387.456 92.2333 387.456 96.3361C387.53 100.439 384.174 103.796 379.996 103.796Z" fill="#39294C"/>
<path d="M385.292 71.6447C389.412 71.6447 392.752 68.3049 392.752 64.185C392.752 60.0651 389.412 56.7253 385.292 56.7253C381.173 56.7253 377.833 60.0651 377.833 64.185C377.833 68.3049 381.173 71.6447 385.292 71.6447Z" fill="#39294C"/>
<path d="M406.254 53.6669C410.374 53.6669 413.714 50.3271 413.714 46.2072C413.714 42.0874 410.374 38.7476 406.254 38.7476C402.134 38.7476 398.794 42.0874 398.794 46.2072C398.794 50.3271 402.134 53.6669 406.254 53.6669Z" fill="#39294C"/>
<path d="M403.942 25.9916C408.061 25.9916 411.401 22.6518 411.401 18.5319C411.401 14.4121 408.061 11.0723 403.942 11.0723C399.822 11.0723 396.482 14.4121 396.482 18.5319C396.482 22.6518 399.822 25.9916 403.942 25.9916Z" fill="#39294C"/>
<path d="M426.395 6.52186C430.515 6.52186 433.855 3.18206 433.855 -0.937801C433.855 -5.05766 430.515 -8.39746 426.395 -8.39746C422.275 -8.39746 418.936 -5.05766 418.936 -0.937799C418.936 3.18206 422.275 6.52186 426.395 6.52186Z" fill="#39294C"/>
<path d="M297.194 35.5398C294.583 35.9874 291.748 36.2112 288.764 36.2112C286.303 36.2112 283.99 36.062 281.827 35.7636C283.916 50.0861 286.228 75.3744 281.603 100.364C285.557 104.84 288.764 107.376 288.764 107.376C288.764 107.376 292.569 104.318 297.119 99.0215C292.867 74.33 295.105 49.4894 297.194 35.5398Z" fill="#39294C"/>
<path d="M277.202 34.8685C258.031 30.3928 248.408 15.9956 248.408 15.9956C246.17 41.4331 270.861 45.9088 270.861 45.9088C270.861 45.9088 270.19 46.9532 269.295 48.8181C263.476 45.6851 250.571 39.2697 248.632 43.8947C246.468 49.0419 257.061 60.679 267.057 54.935C265.565 60.5298 264.819 68.3624 267.803 77.314C270.19 84.5499 274.069 90.816 277.799 95.6648C281.603 71.6447 279.142 47.8484 277.202 34.8685Z" fill="#39294C"/>
<path d="M330.389 43.9692C328.301 39.0458 313.605 46.7293 308.607 49.4894C307.637 47.2515 306.742 45.9833 306.742 45.9833C306.742 45.9833 331.434 41.5075 329.196 16.0701C329.196 16.0701 320.095 29.7212 301.893 34.57C299.954 47.1023 297.492 70.451 300.924 94.2473C304.281 89.6223 307.637 83.953 309.801 77.4631C313.008 67.8401 311.889 59.5599 310.248 53.8906C320.617 62.0962 332.627 49.3402 330.389 43.9692Z" fill="#39294C"/>
<path d="M313.978 14.3545C313.978 21.3666 303.012 27.0359 289.51 27.0359C276.008 27.0359 265.043 21.3666 265.043 14.3545C265.043 7.34244 276.008 1.67309 289.51 1.67309C303.012 1.67309 313.978 7.34243 313.978 14.3545Z" fill="#39294C"/>
</g>
<defs>
<clipPath id="clip0_222_1371">
<rect width="776" height="714" fill="white" transform="translate(483 714) rotate(180)"/>
</clipPath>
</defs>
</svg>
