<svg width="1440" height="708" viewBox="0 0 1440 708" fill="none" xmlns="http://www.w3.org/2000/svg">
<g style="mix-blend-mode:multiply" opacity="0.16" clip-path="url(#clip0_211_12)">
<path d="M-12.7612 14.5802C-18.0576 14.5802 -23.2793 15.6246 -28.2027 17.7133C-38.1241 21.8161 -45.8075 29.5741 -49.8357 39.4955C-53.9385 49.4168 -53.864 60.308 -49.7611 70.2293C-43.495 85.2232 -28.9487 94.8462 -12.6866 94.8462C-7.39024 94.8462 -2.16847 93.8018 2.75491 91.7131C12.6763 87.6103 20.3597 79.8523 24.3879 69.9309C28.4907 60.0096 28.4161 49.1185 24.3133 39.1971C18.0472 24.2778 3.50083 14.5802 -12.7612 14.5802ZM18.5693 60.9793L6.55931 62.6204L13.9444 72.1688C13.8698 72.318 13.7952 72.3926 13.7206 72.5418L2.00894 69.4088L5.14196 81.1204C5.06736 81.195 4.99277 81.195 4.91818 81.2696L-4.70476 73.9591L-6.27131 85.9692C-8.36002 86.4168 -10.5979 86.6406 -12.7612 86.6406C-14.9245 86.6406 -17.0132 86.4168 -19.1019 85.9692L-20.743 73.9591L-30.366 81.3442C-30.5152 81.2696 -30.5898 81.195 -30.739 81.1204L-27.6059 69.4088L-39.243 72.5418C-39.3176 72.4672 -39.3176 72.3926 -39.3922 72.318L-32.0817 62.6951L-44.0918 61.1285C-44.987 56.8765 -44.987 52.5499 -44.1664 48.2979L-32.1564 46.6568L-39.5414 37.1084C-39.4668 36.9592 -39.3922 36.8846 -39.3176 36.7354L-27.6059 39.8685L-30.739 28.1568C-30.6644 28.0822 -30.5898 28.0822 -30.5152 28.0076L-20.8922 35.3181L-19.3257 23.308C-17.237 22.8604 -14.9991 22.6367 -12.8358 22.6367C-10.6725 22.6367 -8.58381 22.8605 -6.4951 23.2334L-4.85396 35.2435L4.76897 27.8584C4.91816 27.933 4.99276 28.0076 5.14195 28.0822L2.00893 39.7939L13.7206 36.6608C13.7952 36.7354 13.7952 36.81 13.8698 36.8846L6.55931 46.5076L18.5693 48.0741C19.3899 52.4007 19.4645 56.8019 18.5693 60.9793Z" fill="#8F4233"/>
<path d="M-12.6866 38.6749C-21.5636 38.6749 -28.7249 45.8362 -28.7249 54.7132C-28.7249 63.5902 -21.5636 70.7515 -12.6866 70.7515C-3.80959 70.7515 3.35168 63.5902 3.35168 54.7132C3.35168 45.8362 -3.88419 38.6749 -12.6866 38.6749Z" fill="#8F4233"/>
<path d="M32.0714 61.7252L44.2307 54.7132L32.0714 47.7011L32.0714 61.7252Z" fill="#8F4233"/>
<path d="M27.5209 14.5056L14.019 18.0862L23.8657 28.0076L27.5209 14.5056Z" fill="#8F4233"/>
<path d="M13.9444 91.3401L27.5209 94.9954L23.8657 81.4188L13.9444 91.3401Z" fill="#8F4233"/>
<path d="M9.46861 2.34636L-1.72088 10.7758L11.1843 16.2213L9.46861 2.34636Z" fill="#8F4233"/>
<path d="M25.8052 78.6587L39.6802 76.943L31.2508 65.7535L25.8052 78.6587Z" fill="#8F4233"/>
<path d="M31.4 44.4188L40.0532 33.3785L26.1782 31.439L31.4 44.4188Z" fill="#8F4233"/>
<path d="M8.64805 107.453L10.5876 93.578L-2.39225 98.8744L8.64805 107.453Z" fill="#8F4233"/>
<path d="M-12.6866 -18.6153C-53.1179 -18.6153 -86.0151 14.2818 -86.0151 54.7132C-86.015 95.1445 -53.1179 128.042 -12.6866 128.042C27.7448 128.042 60.6419 95.1445 60.6419 54.7132C60.6419 14.2818 27.7448 -18.6153 -12.6866 -18.6153ZM-12.6866 114.987C-45.9567 114.987 -72.9606 87.9087 -72.9606 54.7132C-72.9606 21.4431 -45.8821 -5.5609 -12.6866 -5.56091C20.5835 -5.56091 47.5875 21.5177 47.5875 54.7132C47.5875 87.9832 20.5089 114.987 -12.6866 114.987Z" fill="#8F4233"/>
<path d="M150.755 277.235C150.755 194.134 135.462 114.316 106.519 46.4329C77.9483 -20.4802 38.2629 -71.2805 -8.2854 -100.373L-12.7612 -103.133L-17.237 -100.373C-63.7853 -71.2805 -103.471 -20.4802 -132.041 46.433C-160.985 114.316 -176.277 194.134 -176.277 277.235L-176.277 285.59L150.755 285.59L150.755 277.235ZM130.837 213.156C127.331 216.14 120.021 222.108 110.398 227.777C107.936 225.316 104.579 223.824 100.85 223.824C93.3899 223.824 87.2729 229.866 87.2729 237.4C87.2729 237.699 87.2729 238.072 87.3475 238.37C80.783 240.533 74.2931 242.1 67.8032 243.07C65.5653 238.743 61.0149 235.759 55.7931 235.759C50.1238 235.759 45.3496 239.191 43.2609 244.039C37.9646 243.666 32.6682 242.846 27.3718 241.652C26.9243 234.566 21.0311 228.971 13.8698 228.971C9.91621 228.971 6.3356 230.687 3.87391 233.372C-0.527303 231.283 -4.92852 228.896 -9.25513 226.211L-12.0898 224.421L-14.9245 226.211C-19.5494 229.12 -24.1744 231.582 -28.874 233.82C-31.3357 230.91 -35.0656 229.046 -39.243 229.046C-46.5535 229.046 -52.4466 234.789 -52.745 242.025C-57.9667 243.144 -63.263 243.89 -68.5594 244.263C-70.5735 239.34 -75.4223 235.834 -81.0917 235.834C-86.2388 235.834 -90.7146 238.743 -93.0271 242.995C-99.517 241.951 -106.082 240.31 -112.646 238.072C-112.646 237.848 -112.571 237.699 -112.571 237.475C-112.571 229.941 -118.688 223.898 -126.148 223.898C-129.803 223.898 -133.086 225.316 -135.547 227.703C-145.469 222.108 -152.928 216.513 -156.21 213.902C-155.614 208.084 -155.017 202.265 -154.271 196.447C-146.588 201.892 -133.384 210.173 -116.152 215.991C-104.963 219.796 -91.0876 222.854 -75.4223 222.854C-56.3256 222.854 -34.6926 218.304 -12.0898 204.876C29.0129 229.195 67.0572 224.42 91.9725 215.916C108.384 210.322 121.214 202.564 129.047 197.118C129.718 202.414 130.241 207.785 130.837 213.156ZM127.331 184.959C121.438 189.509 107.339 199.356 88.0935 205.846C54.3758 217.185 21.5533 213.156 -9.3297 193.985L-12.1644 192.195L-14.9991 193.985C-46.0313 213.306 -78.9284 217.259 -112.795 205.771C-133.235 198.834 -147.706 188.167 -152.704 184.213C-151.66 177.201 -150.467 170.263 -149.198 163.4C-142.112 158.328 -129.579 150.57 -113.616 145.199C-79.8981 133.86 -47.0756 137.814 -16.1926 157.06L-13.358 158.85L-10.5233 157.06C20.5089 137.739 53.406 133.786 87.2729 145.348C104.281 151.092 117.186 159.447 123.9 164.445C125.168 171.158 126.362 178.021 127.331 184.959ZM-116.525 53.0721C-90.2671 -8.54475 -54.4607 -55.5406 -12.6866 -83.2159C29.0875 -55.466 64.8939 -8.47015 91.1519 53.0721C103.908 82.9853 113.904 115.36 121.065 149.376C113.382 144.677 103.162 139.231 90.8535 135.054C79.664 131.249 65.7145 128.191 50.1238 128.191C31.0271 128.191 9.39403 132.741 -13.2088 146.094C-54.3115 121.776 -92.3558 126.55 -117.271 135.054C-128.834 139.007 -138.606 144.005 -146.14 148.481C-139.128 114.838 -129.206 82.7615 -116.525 53.0721ZM-159.418 268.88C-159.269 254.558 -158.598 240.384 -157.479 226.36C-153.749 229.195 -147.706 233.447 -139.799 237.773C-139.575 245.084 -133.608 250.977 -126.223 250.977C-122.866 250.977 -119.807 249.783 -117.495 247.769C-117.047 247.918 -116.674 248.068 -116.227 248.217C-109.662 250.455 -102.203 252.394 -94.0715 253.662C-92.2812 259.033 -87.2086 262.987 -81.1662 262.987C-75.6461 262.987 -70.8719 259.705 -68.7832 254.931C-62.4425 254.558 -55.8034 253.662 -49.0151 252.096C-46.5534 254.632 -43.122 256.199 -39.3176 256.199C-32.3801 256.199 -26.6361 250.977 -25.8902 244.263C-21.4144 242.249 -16.7894 239.862 -12.1644 237.177C-7.98696 239.638 -3.80959 241.802 0.29324 243.666C0.815411 250.679 6.70857 256.199 13.7953 256.199C17.7489 256.199 21.2549 254.558 23.7166 251.872C30.4303 253.439 36.9948 254.408 43.2609 254.856C45.3496 259.63 50.1238 262.987 55.7186 262.987C61.6117 262.987 66.6842 259.183 68.5491 253.886C77.2024 252.618 85.1096 250.604 91.9725 248.217C92.1217 248.142 92.2709 248.142 92.4201 248.068C94.7326 249.933 97.6419 250.977 100.85 250.977C108.011 250.977 113.829 245.457 114.351 238.445C122.11 234.267 128.077 230.164 132.105 227.255C133.15 240.981 133.821 254.856 133.97 268.88L-159.418 268.88Z" fill="#8F4233"/>
<path d="M-12.6777 358.403L5.78387 339.942L-12.6777 321.48L-31.1392 339.942L-12.6777 358.403Z" fill="#8F4233"/>
<path d="M34.1601 339.971L-12.7612 293.049L-59.6825 339.971L-12.6866 386.892L34.1601 339.971ZM-12.6866 312.967L14.3174 339.971L-12.6866 366.975L-39.6906 339.971L-12.6866 312.967Z" fill="#8F4233"/>
<path d="M0.367848 168.548C-2.31763 170.86 -4.70472 173.322 -6.71883 175.933C5.44042 191.3 28.3416 201.668 54.6742 201.668C81.0068 201.668 103.908 191.3 116.067 175.933C113.978 173.322 111.591 170.785 108.906 168.473C95.1802 179.588 75.4867 186.152 54.5996 186.152C33.7126 186.152 14.0936 179.588 0.367848 168.548Z" fill="#8F4233"/>
<path d="M4.17221 165.489C17.0028 175.485 35.2044 181.378 54.5249 181.378C73.9201 181.378 92.1962 175.411 105.027 165.415C92.1962 156.015 74.3676 150.197 54.6741 150.197C34.906 150.197 17.0028 156.015 4.17221 165.489Z" fill="#8F4233"/>
<path d="M49.3778 119.687L105.624 119.687L105.624 110.511L49.3778 110.511L49.3778 119.687Z" fill="#8F4233"/>
<path d="M58.4786 102.977L99.2084 102.977L99.2084 93.8018L58.4786 93.8018L58.4786 102.977Z" fill="#8F4233"/>
<path d="M64.1479 85.7454L92.8676 85.7454L92.8676 76.57L64.1479 76.57L64.1479 85.7454Z" fill="#8F4233"/>
<path d="M70.041 67.9913L84.4382 67.9913L84.4382 58.816L70.041 58.816L70.041 67.9913Z" fill="#8F4233"/>
<path d="M69.2951 46.2838C69.2951 49.7898 72.1298 52.6991 75.7104 52.6991C79.2165 52.6991 82.1257 49.8644 82.1257 46.2838C82.1257 42.7032 79.2911 39.8685 75.7104 39.8685C72.1298 39.8685 69.2951 42.7778 69.2951 46.2838Z" fill="#8F4233"/>
<path d="M62.5068 28.3059C62.5068 31.1406 64.8193 33.4531 67.7285 33.4531C70.5632 33.4531 72.8757 31.1406 72.8757 28.3059C72.8757 25.4713 70.5632 23.0842 67.7285 23.0842C64.8193 23.1588 62.5068 25.4713 62.5068 28.3059Z" fill="#8F4233"/>
<path d="M59.7467 15.9229C62.2084 15.9229 64.1479 13.9834 64.1479 11.5217C64.1479 9.06003 62.2084 7.1205 59.7467 7.1205C57.285 7.1205 55.3456 9.06004 55.3456 11.5217C55.3456 13.9834 57.285 15.9229 59.7467 15.9229Z" fill="#8F4233"/>
<path d="M49.7508 1.22742C52.3617 1.22742 54.525 -0.935903 54.525 -3.54679C54.525 -6.23226 52.3617 -8.32099 49.7508 -8.32099C47.1399 -8.32099 44.9766 -6.15767 44.9766 -3.54678C44.9766 -0.935902 47.0653 1.22742 49.7508 1.22742Z" fill="#8F4233"/>
<path d="M127.182 241.428C111.218 257.019 78.4705 265.001 78.4705 265.001L128.749 265.001L127.182 241.428Z" fill="#8F4233"/>
<path d="M34.4585 303.12C33.3396 303.12 32.519 304.015 32.519 305.059C32.519 306.178 33.4141 306.999 34.4585 306.999C35.5029 306.999 36.398 306.104 36.398 305.059C36.4726 304.015 35.5775 303.12 34.4585 303.12Z" fill="#8F4233"/>
<path d="M-2.31766 291.856L42.5895 332.586C42.5895 332.586 72.5028 309.834 146.726 291.856L-2.31766 291.856ZM59.523 306.178C55.9423 309.311 49.7508 311.326 42.8133 311.326C35.2045 311.326 28.5654 308.864 25.1339 305.283C28.4908 301.703 35.2044 299.241 42.8133 299.241C49.8254 299.241 55.9423 301.33 59.523 304.388L69.8173 298.42L69.8173 312.146L59.523 306.178Z" fill="#8F4233"/>
<path d="M-28.2026 662.228C-23.2793 664.317 -18.0575 665.361 -12.7612 665.361C3.50088 665.361 18.0472 655.664 24.3133 640.744C28.4908 630.823 28.4908 619.932 24.388 610.01C20.3598 600.089 12.6017 592.331 2.75494 588.228C-2.16843 586.139 -7.39021 585.095 -12.6866 585.095C-28.9486 585.095 -43.495 594.793 -49.7611 609.712C-53.8639 619.633 -53.9385 630.524 -49.8357 640.446C-45.8075 650.367 -38.124 658.051 -28.2026 662.228ZM-43.9425 618.664L-31.9325 617.097L-39.243 607.474C-39.1684 607.4 -39.1683 607.325 -39.0937 607.25L-27.4567 610.383L-30.5898 598.672C-30.4406 598.597 -30.366 598.523 -30.2168 598.448L-20.5938 605.833L-18.9527 593.823C-16.864 593.375 -14.7753 593.152 -12.612 593.152C-10.4487 593.152 -8.21078 593.375 -6.12207 593.823L-4.55556 605.833L5.06742 598.523C5.14202 598.597 5.21661 598.597 5.2912 598.672L2.15814 610.383L13.8698 607.25C13.9444 607.399 14.019 607.474 14.0936 607.623L6.70856 617.172L18.7186 618.813C19.6138 623.065 19.5392 627.391 18.644 631.643L6.63394 633.21L13.9444 642.833C13.8698 642.908 13.8698 642.982 13.7952 643.057L2.08356 639.924L5.21663 651.635C5.06744 651.71 4.99284 651.784 4.84365 651.859L-4.77934 644.474L-6.42047 656.484C-8.50918 656.932 -10.5979 657.155 -12.7612 657.155C-14.9245 657.155 -17.1624 656.932 -19.2511 656.484L-20.8176 644.474L-30.4405 651.785C-30.5151 651.71 -30.5898 651.71 -30.6644 651.635L-27.5313 639.924L-39.243 643.057C-39.3176 642.907 -39.3921 642.833 -39.4667 642.684L-32.0817 633.135L-44.0918 631.494C-44.8377 627.242 -44.8377 622.916 -43.9425 618.664Z" fill="#8F4233"/>
<path d="M-12.6865 641.266C-3.80953 641.266 3.35174 634.105 3.35174 625.228C3.35174 616.351 -3.80953 609.19 -12.6865 609.19C-21.5635 609.19 -28.7248 616.351 -28.7248 625.228C-28.7994 634.03 -21.5635 641.266 -12.6865 641.266Z" fill="#8F4233"/>
<path d="M32.0715 632.166L44.2307 625.154L32.0715 618.141L32.0715 632.166Z" fill="#8F4233"/>
<path d="M14.019 661.78L27.521 665.436L23.8658 651.859L14.019 661.78Z" fill="#8F4233"/>
<path d="M27.521 584.946L13.9444 588.601L23.8658 598.523L27.521 584.946Z" fill="#8F4233"/>
<path d="M9.46867 677.595L11.1844 663.645L-1.72082 669.166L9.46867 677.595Z" fill="#8F4233"/>
<path d="M31.2508 614.188L39.6803 602.998L25.8053 601.283L31.2508 614.188Z" fill="#8F4233"/>
<path d="M26.1783 648.502L40.0533 646.563L31.4 635.448L26.1783 648.502Z" fill="#8F4233"/>
<path d="M8.64811 572.414L-2.39218 581.067L10.5876 586.289L8.64811 572.414Z" fill="#8F4233"/>
<path d="M-12.6865 698.557C27.7449 698.557 60.642 665.66 60.642 625.228C60.642 584.797 27.7449 551.9 -12.6865 551.9C-53.1179 551.9 -86.015 584.797 -86.015 625.228C-86.0896 665.66 -53.1925 698.557 -12.6865 698.557ZM-12.6865 564.879C20.5836 564.879 47.5875 591.958 47.5876 625.154C47.5876 658.424 20.509 685.428 -12.6865 685.428C-45.9566 685.428 -72.9606 658.349 -72.9606 625.154C-73.0352 591.958 -45.9566 564.879 -12.6865 564.879Z" fill="#8F4233"/>
<path d="M-131.967 633.434C-103.396 700.347 -63.7106 751.147 -17.1623 780.24L-12.6865 783L-8.21074 780.24C38.3376 751.147 78.0229 700.347 106.593 633.434C135.537 565.551 150.829 485.807 150.829 402.632L150.829 394.277L-176.128 394.277L-176.128 402.632C-176.202 485.732 -160.91 565.551 -131.967 633.434ZM91.152 626.869C64.894 688.486 29.0876 735.482 -12.6865 763.157C-54.4607 735.407 -90.2671 688.411 -116.525 626.869C-129.206 597.18 -139.128 565.103 -146.215 531.46C-138.68 536.011 -128.908 541.009 -117.346 544.888C-92.4303 553.317 -54.3861 558.166 -13.2833 533.847C9.31945 547.2 31.027 551.75 50.0492 551.75C65.6399 551.75 79.5149 548.692 90.779 544.888C103.087 540.71 113.382 535.339 120.991 530.565C113.829 564.581 103.833 596.956 91.152 626.869ZM-156.285 466.114C-153.003 463.503 -145.543 457.908 -135.622 452.313C-133.16 454.626 -129.878 456.118 -126.223 456.118C-118.763 456.118 -112.646 450.075 -112.646 442.541C-112.646 442.317 -112.646 442.168 -112.721 441.944C-106.156 439.706 -99.5916 438.065 -93.1017 437.021C-90.7892 441.273 -86.3134 444.182 -81.1663 444.182C-75.4969 444.182 -70.6482 440.676 -68.6341 435.753C-63.3377 436.126 -58.0413 436.797 -52.8195 437.991C-52.5212 445.226 -46.5535 450.97 -39.3176 450.97C-35.1402 450.97 -31.4849 449.106 -28.9486 446.196C-24.249 448.36 -19.6241 450.896 -14.9991 453.805L-12.1644 455.595L-9.32973 453.805C-5.00311 451.12 -0.601927 448.733 3.79927 446.644C6.26096 449.329 9.84162 451.045 13.7952 451.045C20.9565 451.045 26.8496 445.45 27.2972 438.364C32.519 437.17 37.8153 436.349 43.1863 435.977C45.2004 440.825 50.0492 444.257 55.7186 444.257C60.9403 444.257 65.4907 441.273 67.7286 436.946C74.2185 437.916 80.7084 439.483 87.2729 441.646C87.2729 441.944 87.1983 442.317 87.1983 442.616C87.1983 450.075 93.3152 456.192 100.775 456.192C104.505 456.192 107.862 454.7 110.323 452.239C120.021 457.983 127.257 463.876 130.763 466.859C130.241 472.23 129.644 477.601 128.972 482.898C121.14 477.452 108.384 469.694 91.8979 464.099C66.9826 455.595 28.9384 450.821 -12.1644 475.14C-34.7672 461.787 -56.4748 457.162 -75.4969 457.162C-91.0876 457.162 -104.963 460.22 -116.227 464.025C-133.458 469.843 -146.737 478.124 -154.346 483.569C-155.092 477.825 -155.763 471.932 -156.285 466.114ZM123.974 515.571C117.261 520.494 104.356 528.849 87.3475 534.668C53.4806 546.156 20.5835 542.202 -10.4487 522.956L-13.2833 521.166L-16.118 522.956C-47.001 542.202 -79.7489 546.156 -113.541 534.817C-129.579 529.446 -142.037 521.688 -149.124 516.615C-150.392 509.753 -151.586 502.815 -152.63 495.803C-147.632 491.849 -133.086 481.182 -112.721 474.245C-78.8538 462.757 -45.9567 466.71 -14.9245 485.956L-12.0898 487.747L-9.25514 485.956C21.6279 466.71 54.3758 462.757 88.1681 474.095C107.414 480.585 121.513 490.432 127.406 494.982C126.362 501.92 125.168 508.783 123.974 515.571ZM133.97 411.061C133.821 425.085 133.15 438.96 132.105 452.686C128.152 449.702 122.11 445.599 114.351 441.497C113.829 434.485 108.011 428.964 100.85 428.964C97.6419 428.964 94.7326 430.083 92.4201 431.874C92.2709 431.799 92.1217 431.799 91.9725 431.724C85.1096 429.412 77.2023 427.323 68.5491 426.055C66.6842 420.759 61.6863 416.954 55.7186 416.954C50.1238 416.954 45.3496 420.311 43.2609 425.085C36.9948 425.533 30.4303 426.428 23.7166 428.069C21.2549 425.384 17.7489 423.743 13.7952 423.743C6.63396 423.743 0.815399 429.263 0.293213 436.275C-3.8096 438.14 -7.98697 440.303 -12.1644 442.765C-16.7894 440.005 -21.3398 437.692 -25.8156 435.678C-26.6362 428.964 -32.3801 423.743 -39.3176 423.743C-43.122 423.743 -46.5535 425.309 -49.0151 427.845C-55.8034 426.279 -62.4425 425.384 -68.7832 425.011C-70.8719 420.237 -75.6461 416.954 -81.1663 416.954C-87.134 416.954 -92.2812 420.833 -94.0715 426.279C-102.203 427.547 -109.662 429.487 -116.227 431.725C-116.674 431.874 -117.122 432.023 -117.495 432.172C-119.882 430.158 -122.94 428.964 -126.223 428.964C-133.608 428.964 -139.575 434.858 -139.799 442.168C-147.706 446.495 -153.749 450.747 -157.479 453.581C-158.598 439.557 -159.269 425.384 -159.418 411.061L133.97 411.061Z" fill="#8F4233"/>
<path d="M-6.71883 504.009C-4.63012 506.619 -2.24303 509.081 0.367851 511.394C14.0936 500.353 33.7126 493.789 54.5996 493.789C75.4867 493.789 95.1802 500.353 108.906 511.468C111.591 509.156 113.978 506.694 116.067 504.009C103.908 488.642 81.0068 478.273 54.6742 478.273C28.3416 478.273 5.44042 488.642 -6.71883 504.009Z" fill="#8F4233"/>
<path d="M4.17227 514.452C17.0029 523.926 34.8315 529.745 54.6742 529.745C74.3677 529.745 92.1963 523.926 105.027 514.527C92.1963 504.531 73.9947 498.563 54.525 498.563C35.2045 498.563 17.0029 504.456 4.17227 514.452Z" fill="#8F4233"/>
<path d="M49.3778 569.355L105.624 569.355L105.624 560.18L49.3778 560.18L49.3778 569.355Z" fill="#8F4233"/>
<path d="M58.4786 586.14L99.2084 586.14L99.2084 576.964L58.4786 576.964L58.4786 586.14Z" fill="#8F4233"/>
<path d="M64.148 603.297L92.8677 603.297L92.8677 594.121L64.148 594.121L64.148 603.297Z" fill="#8F4233"/>
<path d="M70.0411 621.051L84.4383 621.051L84.4383 611.875L70.0411 611.875L70.0411 621.051Z" fill="#8F4233"/>
<path d="M12.2287 733.766C20.5835 724.964 41.769 698.631 41.769 698.631C32.9666 701.839 6.26096 708.18 6.26096 708.18C17.0029 717.803 12.2287 733.766 12.2287 733.766Z" fill="#8F4233"/>
<path d="M75.7104 627.242C72.2044 627.242 69.2951 630.077 69.2951 633.658C69.2951 637.164 72.1298 640.073 75.7104 640.073C79.2165 640.073 82.1257 637.238 82.1257 633.658C82.0511 630.077 79.2165 627.242 75.7104 627.242Z" fill="#8F4233"/>
<path d="M67.7286 646.414C64.8939 646.414 62.5068 648.726 62.5068 651.635C62.5068 654.47 64.8193 656.857 67.7286 656.857C70.5633 656.857 72.8758 654.545 72.8758 651.635C72.8758 648.726 70.5633 646.414 67.7286 646.414Z" fill="#8F4233"/>
<path d="M59.7468 663.944C57.2851 663.944 55.3456 665.883 55.3456 668.345C55.3456 670.807 57.2851 672.746 59.7468 672.746C62.2085 672.746 64.148 670.807 64.148 668.345C64.0734 665.958 62.1339 663.944 59.7468 663.944Z" fill="#8F4233"/>
<path d="M49.7508 678.714C47.1399 678.714 44.9766 680.877 44.9766 683.488C44.9766 686.099 47.1399 688.262 49.7508 688.262C52.3617 688.262 54.525 686.099 54.525 683.488C54.525 680.877 52.3617 678.714 49.7508 678.714Z" fill="#8F4233"/>
<path d="M128.749 414.94L78.4705 414.94C78.4705 414.94 111.218 422.922 127.182 438.513L128.749 414.94Z" fill="#8F4233"/>
<path d="M34.4585 372.868C33.3396 372.868 32.519 373.763 32.519 374.807C32.519 375.926 33.4141 376.747 34.4585 376.747C35.5029 376.747 36.398 375.852 36.398 374.807C36.4726 373.688 35.5775 372.868 34.4585 372.868Z" fill="#8F4233"/>
<path d="M42.5149 347.356L-2.39224 388.085L146.726 388.085C72.5028 370.033 42.5149 347.356 42.5149 347.356ZM59.523 375.553C55.9423 378.686 49.7508 380.7 42.8133 380.7C35.2044 380.7 28.5654 378.239 25.1339 374.658C28.4908 371.077 35.2044 368.616 42.8133 368.616C49.8254 368.616 55.9423 370.704 59.523 373.763L69.8173 367.795L69.8173 381.521L59.523 375.553Z" fill="#8F4233"/>
<path d="M291.518 606.728C291.966 607.325 334.71 667.897 335.605 743.688L347.54 743.538C346.794 681.026 319.716 629.48 307.258 609.115C353.284 607.922 391.03 599.567 405.353 595.912C421.764 666.406 471.072 739.212 473.236 742.419L483.157 735.631C482.635 734.885 430.119 657.305 415.722 587.333L414.453 580.992L408.187 582.783C407.665 582.932 357.536 597.329 296.292 597.329L284.655 597.329L291.518 606.728Z" fill="#8F4233"/>
<path d="M374.47 701.69L348.286 692.291L367.682 672.373L340.678 665.51L358.357 643.952L330.831 639.402L346.869 616.65L318.97 614.113L330.756 639.551L340.603 665.585L348.212 692.44L348.212 692.365L353.135 719.817L355.895 747.492L378.647 731.23L353.21 719.742L374.47 701.69Z" fill="#8F4233"/>
<path d="M379.617 625.079L406.845 631.494L398.788 604.64L379.617 625.079Z" fill="#8F4233"/>
<path d="M389.091 653.127L416.766 657.678L406.845 631.494L389.091 653.127Z" fill="#8F4233"/>
<path d="M401.548 681.176L429.522 682.593L416.766 657.678L401.548 681.176Z" fill="#8F4233"/>
<path d="M414.379 706.091L442.353 707.434L429.522 682.593L414.379 706.091Z" fill="#8F4233"/>
<path d="M429 732.125L457.048 731.305L442.353 707.434L429 732.125Z" fill="#8F4233"/>
<path d="M365.071 615.158C360.968 615.158 357.611 618.515 357.611 622.617C357.611 626.72 360.968 630.077 365.071 630.077C369.173 630.077 372.53 626.72 372.53 622.617C372.605 618.515 369.248 615.158 365.071 615.158Z" fill="#8F4233"/>
<path d="M370.367 647.309C366.247 647.309 362.907 650.649 362.907 654.768C362.907 658.888 366.247 662.228 370.367 662.228C374.487 662.228 377.827 658.888 377.827 654.768C377.827 650.649 374.487 647.309 370.367 647.309Z" fill="#8F4233"/>
<path d="M391.329 665.287C387.209 665.287 383.869 668.626 383.869 672.746C383.869 676.866 387.209 680.206 391.329 680.206C395.448 680.206 398.788 676.866 398.788 672.746C398.788 668.626 395.448 665.287 391.329 665.287Z" fill="#8F4233"/>
<path d="M389.016 692.962C384.896 692.962 381.557 696.302 381.557 700.422C381.557 704.541 384.896 707.881 389.016 707.881C393.136 707.881 396.476 704.541 396.476 700.422C396.476 696.302 393.136 692.962 389.016 692.962Z" fill="#8F4233"/>
<path d="M257.651 606.728C257.204 607.325 214.46 667.897 213.565 743.688L201.555 743.538C202.301 681.026 229.379 629.48 241.837 609.115C195.811 607.922 158.065 599.567 143.742 595.912C127.331 666.406 78.0227 739.212 75.8594 742.419L65.938 735.631C66.4602 734.885 118.976 657.305 133.373 587.333L134.642 580.992L140.833 582.783C141.355 582.932 191.484 597.329 252.728 597.329L264.365 597.329L257.651 606.728Z" fill="#8F4233"/>
<path d="M174.7 701.69L200.883 692.291L181.488 672.373L208.492 665.51L190.813 643.952L218.339 639.402L202.375 616.65L230.2 614.113L218.414 639.551L208.567 665.585L201.033 692.44L200.958 692.365L196.035 719.817L193.274 747.492L170.523 731.23L195.96 719.742L174.7 701.69Z" fill="#8F4233"/>
<path d="M169.553 625.079L142.325 631.494L150.381 604.64L169.553 625.079Z" fill="#8F4233"/>
<path d="M160.079 653.127L132.404 657.678L142.325 631.494L160.079 653.127Z" fill="#8F4233"/>
<path d="M147.621 681.176L119.648 682.593L132.404 657.678L147.621 681.176Z" fill="#8F4233"/>
<path d="M134.791 706.091L106.892 707.434L119.648 682.593L134.791 706.091Z" fill="#8F4233"/>
<path d="M120.17 732.125L92.1961 731.305L106.892 707.434L120.17 732.125Z" fill="#8F4233"/>
<path d="M184.099 615.158C188.202 615.158 191.559 618.515 191.559 622.617C191.559 626.72 188.202 630.077 184.099 630.077C179.996 630.077 176.639 626.72 176.639 622.617C176.565 618.515 179.922 615.158 184.099 615.158Z" fill="#8F4233"/>
<path d="M178.803 647.309C174.683 647.309 171.343 650.649 171.343 654.768C171.343 658.888 174.683 662.228 178.803 662.228C182.923 662.228 186.262 658.888 186.262 654.768C186.262 650.649 182.923 647.309 178.803 647.309Z" fill="#8F4233"/>
<path d="M157.841 665.287C153.721 665.287 150.381 668.626 150.381 672.746C150.381 676.866 153.721 680.206 157.841 680.206C161.961 680.206 165.301 676.866 165.301 672.746C165.301 668.626 161.961 665.287 157.841 665.287Z" fill="#8F4233"/>
<path d="M160.154 692.962C156.034 692.962 152.694 696.302 152.694 700.422C152.694 704.541 156.034 707.881 160.154 707.881C164.273 707.881 167.613 704.541 167.613 700.422C167.613 696.302 164.273 692.962 160.154 692.962Z" fill="#8F4233"/>
<path d="M266.901 683.414C269.512 682.966 272.347 682.742 275.331 682.742C277.792 682.742 280.105 682.891 282.268 683.19C280.18 668.867 277.867 643.579 282.492 618.589C278.538 614.113 275.331 611.577 275.331 611.577C275.331 611.577 271.526 614.635 266.976 619.932C271.228 644.623 268.99 669.464 266.901 683.414Z" fill="#8F4233"/>
<path d="M286.893 684.085C306.065 688.561 315.688 702.958 315.688 702.958C317.925 677.52 293.234 673.045 293.234 673.045C293.234 673.045 293.905 672 294.801 670.135C300.619 673.268 313.524 679.684 315.464 675.059C317.627 669.912 307.034 658.275 297.038 664.018C298.53 658.424 299.276 650.591 296.292 641.639C293.905 634.404 290.026 628.137 286.296 623.289C282.492 647.309 284.954 671.105 286.893 684.085Z" fill="#8F4233"/>
<path d="M233.706 674.984C235.795 679.908 250.49 672.224 255.488 669.464C256.458 671.702 257.353 672.97 257.353 672.97C257.353 672.97 232.661 677.446 234.899 702.883C234.899 702.883 244 689.232 262.202 684.383C264.141 671.851 266.603 648.502 263.172 624.706C259.815 629.331 256.458 635 254.294 641.49C251.087 651.113 252.206 659.393 253.847 665.063C243.478 656.857 231.468 669.613 233.706 674.984Z" fill="#8F4233"/>
<path d="M250.117 704.599C250.117 697.587 261.083 691.918 274.585 691.918C288.087 691.918 299.053 697.587 299.053 704.599C299.053 711.611 288.087 717.28 274.585 717.28C261.083 717.28 250.117 711.611 250.117 704.599Z" fill="#8F4233"/>
<path d="M272.577 112.225C272.129 111.629 229.386 51.0561 228.49 -24.734L216.555 -24.5848C217.301 37.9271 244.379 89.4734 256.837 109.838C210.811 111.032 173.065 119.387 158.743 123.042C142.331 52.5481 93.0229 -20.2582 90.8596 -23.4659L80.9382 -16.6776C81.4604 -15.9316 133.976 61.6489 148.374 131.621L149.642 137.961L155.908 136.171C156.43 136.022 206.559 121.625 267.803 121.625L279.44 121.625L272.577 112.225Z" fill="#8F4233"/>
<path d="M189.625 17.2639L215.809 26.663L196.414 46.5804L223.418 53.4432L205.738 75.0017L233.264 79.552L217.226 102.304L245.125 104.84L233.339 79.4029L223.492 53.3686L215.883 26.5139L215.883 26.5884L210.96 -0.86311L208.2 -28.5385L185.448 -12.2764L210.885 -0.788508L189.625 17.2639Z" fill="#8F4233"/>
<path d="M184.478 93.8745L157.251 87.4592L165.307 114.314L184.478 93.8745Z" fill="#8F4233"/>
<path d="M175.005 65.8263L147.329 61.2759L157.251 87.4593L175.005 65.8263Z" fill="#8F4233"/>
<path d="M162.547 37.7779L134.573 36.3606L147.329 61.2759L162.547 37.7779Z" fill="#8F4233"/>
<path d="M149.716 12.8626L121.743 11.5199L134.573 36.3606L149.716 12.8626Z" fill="#8F4233"/>
<path d="M135.095 -13.1715L107.047 -12.3509L121.743 11.52L135.095 -13.1715Z" fill="#8F4233"/>
<path d="M199.025 103.796C203.127 103.796 206.484 100.439 206.484 96.3362C206.484 92.2334 203.127 88.8766 199.025 88.8766C194.922 88.8766 191.565 92.2334 191.565 96.3362C191.49 100.439 194.847 103.796 199.025 103.796Z" fill="#8F4233"/>
<path d="M193.728 71.6448C197.848 71.6448 201.188 68.305 201.188 64.1851C201.188 60.0653 197.848 56.7255 193.728 56.7255C189.608 56.7255 186.269 60.0653 186.269 64.1851C186.269 68.305 189.608 71.6448 193.728 71.6448Z" fill="#8F4233"/>
<path d="M172.767 53.667C176.887 53.667 180.226 50.3272 180.226 46.2073C180.226 42.0875 176.887 38.7477 172.767 38.7477C168.647 38.7477 165.307 42.0875 165.307 46.2073C165.307 50.3272 168.647 53.667 172.767 53.667Z" fill="#8F4233"/>
<path d="M175.079 25.9917C179.199 25.9917 182.539 22.6519 182.539 18.532C182.539 14.4122 179.199 11.0724 175.079 11.0724C170.959 11.0724 167.619 14.4122 167.619 18.5321C167.619 22.6519 170.959 25.9917 175.079 25.9917Z" fill="#8F4233"/>
<path d="M152.626 6.52198C156.745 6.52198 160.085 3.18218 160.085 -0.937679C160.085 -5.05754 156.745 -8.39734 152.626 -8.39734C148.506 -8.39734 145.166 -5.05753 145.166 -0.937676C145.166 3.18218 148.506 6.52199 152.626 6.52198Z" fill="#8F4233"/>
<path d="M306.444 112.225C306.891 111.629 349.635 51.0562 350.53 -24.734L362.54 -24.5848C361.795 37.9271 334.716 89.4734 322.258 109.838C368.284 111.032 406.03 119.387 420.353 123.042C436.764 52.5481 486.072 -20.2582 488.236 -23.4659L498.157 -16.6776C497.635 -15.9316 445.119 61.6488 430.722 131.62L429.454 137.961L423.262 136.171C422.74 136.022 372.611 121.625 311.367 121.625L299.73 121.625L306.444 112.225Z" fill="#8F4233"/>
<path d="M389.395 17.2639L363.212 26.663L382.607 46.5803L355.603 53.4432L373.282 75.0016L345.756 79.5521L361.72 102.304L333.895 104.84L345.682 79.4029L355.528 53.3686L363.063 26.5139L363.137 26.5885L368.061 -0.863112L370.821 -28.5385L393.573 -12.2764L368.135 -0.78851L389.395 17.2639Z" fill="#8F4233"/>
<path d="M394.542 93.8745L421.77 87.4592L413.714 114.314L394.542 93.8745Z" fill="#8F4233"/>
<path d="M404.016 65.8263L431.692 61.2759L421.77 87.4593L404.016 65.8263Z" fill="#8F4233"/>
<path d="M416.474 37.7779L444.448 36.3606L431.692 61.2759L416.474 37.7779Z" fill="#8F4233"/>
<path d="M429.304 12.8626L457.204 11.5199L444.448 36.3606L429.304 12.8626Z" fill="#8F4233"/>
<path d="M443.925 -13.1716L471.899 -12.3511L457.204 11.5199L443.925 -13.1716Z" fill="#8F4233"/>
<path d="M379.996 103.796C375.893 103.796 372.536 100.439 372.536 96.3362C372.536 92.2334 375.893 88.8766 379.996 88.8766C384.099 88.8766 387.456 92.2334 387.456 96.3362C387.53 100.439 384.174 103.796 379.996 103.796Z" fill="#8F4233"/>
<path d="M385.292 71.6448C389.412 71.6448 392.752 68.305 392.752 64.1851C392.752 60.0653 389.412 56.7255 385.292 56.7255C381.173 56.7255 377.833 60.0653 377.833 64.1851C377.833 68.305 381.173 71.6448 385.292 71.6448Z" fill="#8F4233"/>
<path d="M406.254 53.667C410.374 53.667 413.714 50.3272 413.714 46.2073C413.714 42.0875 410.374 38.7477 406.254 38.7477C402.134 38.7477 398.794 42.0875 398.794 46.2073C398.794 50.3272 402.134 53.667 406.254 53.667Z" fill="#8F4233"/>
<path d="M403.942 25.9917C408.061 25.9917 411.401 22.6519 411.401 18.532C411.401 14.4122 408.061 11.0724 403.942 11.0724C399.822 11.0724 396.482 14.4122 396.482 18.5321C396.482 22.6519 399.822 25.9917 403.942 25.9917Z" fill="#8F4233"/>
<path d="M426.395 6.52198C430.515 6.52198 433.855 3.18218 433.855 -0.937679C433.855 -5.05754 430.515 -8.39734 426.395 -8.39734C422.275 -8.39734 418.936 -5.05753 418.936 -0.937676C418.936 3.18218 422.275 6.52199 426.395 6.52198Z" fill="#8F4233"/>
<path d="M297.194 35.54C294.583 35.9876 291.748 36.2114 288.764 36.2114C286.303 36.2114 283.99 36.0622 281.827 35.7638C283.916 50.0864 286.228 75.3746 281.603 100.364C285.557 104.84 288.764 107.377 288.764 107.377C288.764 107.377 292.569 104.318 297.119 99.0218C292.867 74.3303 295.105 49.4896 297.194 35.54Z" fill="#8F4233"/>
<path d="M277.202 34.8687C258.031 30.3929 248.408 15.9957 248.408 15.9957C246.17 41.4332 270.861 45.909 270.861 45.909C270.861 45.909 270.19 46.9533 269.295 48.8182C263.476 45.6852 250.571 39.2699 248.631 43.8949C246.468 49.042 257.061 60.6791 267.057 54.9352C265.565 60.5299 264.819 68.3626 267.803 77.3141C270.19 84.55 274.069 90.8161 277.799 95.6649C281.603 71.6448 279.141 47.8485 277.202 34.8687Z" fill="#8F4233"/>
<path d="M330.389 43.9694C328.301 39.0461 313.605 46.7295 308.607 49.4896C307.637 47.2517 306.742 45.9836 306.742 45.9836C306.742 45.9836 331.434 41.5078 329.196 16.0703C329.196 16.0703 320.095 29.7215 301.893 34.5703C299.954 47.1025 297.492 70.4512 300.924 94.2476C304.281 89.6226 307.637 83.9532 309.801 77.4633C313.008 67.8404 311.889 59.5601 310.248 53.8908C320.617 62.0964 332.627 49.3404 330.389 43.9694Z" fill="#8F4233"/>
<path d="M313.978 14.3546C313.978 21.3667 303.012 27.0361 289.51 27.0361C276.008 27.0361 265.043 21.3667 265.043 14.3546C265.043 7.34256 276.008 1.67322 289.51 1.67321C303.012 1.67321 313.978 7.34255 313.978 14.3546Z" fill="#8F4233"/>
</g>
<g style="mix-blend-mode:multiply" opacity="0.16" clip-path="url(#clip1_211_12)">
<path d="M1451.76 14.5802C1457.06 14.5802 1462.28 15.6246 1467.2 17.7133C1477.12 21.8161 1484.81 29.5741 1488.84 39.4955C1492.94 49.4168 1492.86 60.308 1488.76 70.2293C1482.49 85.2232 1467.95 94.8462 1451.69 94.8462C1446.39 94.8462 1441.17 93.8018 1436.25 91.7131C1426.32 87.6103 1418.64 79.8523 1414.61 69.9309C1410.51 60.0096 1410.58 49.1185 1414.69 39.1971C1420.95 24.2778 1435.5 14.5802 1451.76 14.5802ZM1420.43 60.9793L1432.44 62.6204L1425.06 72.1688C1425.13 72.318 1425.2 72.3926 1425.28 72.5418L1436.99 69.4088L1433.86 81.1204C1433.93 81.195 1434.01 81.195 1434.08 81.2696L1443.7 73.9591L1445.27 85.9692C1447.36 86.4168 1449.6 86.6406 1451.76 86.6406C1453.92 86.6406 1456.01 86.4168 1458.1 85.9692L1459.74 73.9591L1469.37 81.3442C1469.52 81.2696 1469.59 81.195 1469.74 81.1204L1466.61 69.4088L1478.24 72.5418C1478.32 72.4672 1478.32 72.3926 1478.39 72.318L1471.08 62.6951L1483.09 61.1285C1483.99 56.8765 1483.99 52.5499 1483.17 48.2979L1471.16 46.6568L1478.54 37.1084C1478.47 36.9592 1478.39 36.8846 1478.32 36.7354L1466.61 39.8685L1469.74 28.1568C1469.66 28.0822 1469.59 28.0822 1469.52 28.0076L1459.89 35.3181L1458.33 23.308C1456.24 22.8604 1454 22.6367 1451.84 22.6367C1449.67 22.6367 1447.58 22.8605 1445.5 23.2334L1443.85 35.2435L1434.23 27.8584C1434.08 27.933 1434.01 28.0076 1433.86 28.0822L1436.99 39.7939L1425.28 36.6608C1425.2 36.7354 1425.2 36.81 1425.13 36.8846L1432.44 46.5076L1420.43 48.0741C1419.61 52.4007 1419.54 56.8019 1420.43 60.9793Z" fill="#8F4233"/>
<path d="M1451.69 38.6749C1460.56 38.6749 1467.72 45.8362 1467.72 54.7132C1467.72 63.5902 1460.56 70.7515 1451.69 70.7515C1442.81 70.7515 1435.65 63.5902 1435.65 54.7132C1435.65 45.8362 1442.88 38.6749 1451.69 38.6749Z" fill="#8F4233"/>
<path d="M1406.93 61.7252L1394.77 54.7132L1406.93 47.7011L1406.93 61.7252Z" fill="#8F4233"/>
<path d="M1411.48 14.5056L1424.98 18.0862L1415.13 28.0076L1411.48 14.5056Z" fill="#8F4233"/>
<path d="M1425.06 91.3401L1411.48 94.9954L1415.13 81.4188L1425.06 91.3401Z" fill="#8F4233"/>
<path d="M1429.53 2.34636L1440.72 10.7758L1427.82 16.2213L1429.53 2.34636Z" fill="#8F4233"/>
<path d="M1413.19 78.6587L1399.32 76.943L1407.75 65.7535L1413.19 78.6587Z" fill="#8F4233"/>
<path d="M1407.6 44.4188L1398.95 33.3785L1412.82 31.439L1407.6 44.4188Z" fill="#8F4233"/>
<path d="M1430.35 107.453L1428.41 93.578L1441.39 98.8744L1430.35 107.453Z" fill="#8F4233"/>
<path d="M1451.69 -18.6153C1492.12 -18.6153 1525.02 14.2818 1525.02 54.7132C1525.02 95.1445 1492.12 128.042 1451.69 128.042C1411.26 128.042 1378.36 95.1445 1378.36 54.7132C1378.36 14.2818 1411.26 -18.6153 1451.69 -18.6153ZM1451.69 114.987C1484.96 114.987 1511.96 87.9087 1511.96 54.7132C1511.96 21.4431 1484.88 -5.5609 1451.69 -5.56091C1418.42 -5.56091 1391.41 21.5177 1391.41 54.7132C1391.41 87.9832 1418.49 114.987 1451.69 114.987Z" fill="#8F4233"/>
<path d="M1288.25 277.235C1288.25 194.134 1303.54 114.316 1332.48 46.4329C1361.05 -20.4802 1400.74 -71.2805 1447.29 -100.373L1451.76 -103.133L1456.24 -100.373C1502.79 -71.2805 1542.47 -20.4802 1571.04 46.433C1599.98 114.316 1615.28 194.134 1615.28 277.235L1615.28 285.59L1288.25 285.59L1288.25 277.235ZM1308.16 213.156C1311.67 216.14 1318.98 222.108 1328.6 227.777C1331.06 225.316 1334.42 223.824 1338.15 223.824C1345.61 223.824 1351.73 229.866 1351.73 237.4C1351.73 237.699 1351.73 238.072 1351.65 238.37C1358.22 240.533 1364.71 242.1 1371.2 243.07C1373.43 238.743 1377.99 235.759 1383.21 235.759C1388.88 235.759 1393.65 239.191 1395.74 244.039C1401.04 243.666 1406.33 242.846 1411.63 241.652C1412.08 234.566 1417.97 228.971 1425.13 228.971C1429.08 228.971 1432.66 230.687 1435.13 233.372C1439.53 231.283 1443.93 228.896 1448.26 226.211L1451.09 224.421L1453.92 226.211C1458.55 229.12 1463.17 231.582 1467.87 233.82C1470.34 230.91 1474.07 229.046 1478.24 229.046C1485.55 229.046 1491.45 234.789 1491.74 242.025C1496.97 243.144 1502.26 243.89 1507.56 244.263C1509.57 239.34 1514.42 235.834 1520.09 235.834C1525.24 235.834 1529.71 238.743 1532.03 242.995C1538.52 241.951 1545.08 240.31 1551.65 238.072C1551.65 237.848 1551.57 237.699 1551.57 237.475C1551.57 229.941 1557.69 223.898 1565.15 223.898C1568.8 223.898 1572.09 225.316 1574.55 227.703C1584.47 222.108 1591.93 216.513 1595.21 213.902C1594.61 208.084 1594.02 202.265 1593.27 196.447C1585.59 201.892 1572.38 210.173 1555.15 215.991C1543.96 219.796 1530.09 222.854 1514.42 222.854C1495.33 222.854 1473.69 218.304 1451.09 204.876C1409.99 229.195 1371.94 224.42 1347.03 215.916C1330.62 210.322 1317.79 202.564 1309.95 197.118C1309.28 202.414 1308.76 207.785 1308.16 213.156ZM1311.67 184.959C1317.56 189.509 1331.66 199.356 1350.91 205.846C1384.62 217.185 1417.45 213.156 1448.33 193.985L1451.16 192.195L1454 193.985C1485.03 213.306 1517.93 217.259 1551.8 205.771C1572.23 198.834 1586.71 188.167 1591.7 184.213C1590.66 177.201 1589.47 170.263 1588.2 163.4C1581.11 158.328 1568.58 150.57 1552.62 145.199C1518.9 133.86 1486.08 137.814 1455.19 157.06L1452.36 158.85L1449.52 157.06C1418.49 137.739 1385.59 133.786 1351.73 145.348C1334.72 151.092 1321.81 159.447 1315.1 164.445C1313.83 171.158 1312.64 178.021 1311.67 184.959ZM1555.53 53.0721C1529.27 -8.54475 1493.46 -55.5406 1451.69 -83.2159C1409.91 -55.466 1374.11 -8.47015 1347.85 53.0721C1335.09 82.9853 1325.1 115.36 1317.93 149.376C1325.62 144.677 1335.84 139.231 1348.15 135.054C1359.34 131.249 1373.29 128.191 1388.88 128.191C1407.97 128.191 1429.61 132.741 1452.21 146.094C1493.31 121.776 1531.36 126.55 1556.27 135.054C1567.83 139.007 1577.61 144.005 1585.14 148.481C1578.13 114.838 1568.21 82.7615 1555.53 53.0721ZM1598.42 268.88C1598.27 254.558 1597.6 240.384 1596.48 226.36C1592.75 229.195 1586.71 233.447 1578.8 237.773C1578.58 245.084 1572.61 250.977 1565.22 250.977C1561.87 250.977 1558.81 249.783 1556.49 247.769C1556.05 247.918 1555.67 248.068 1555.23 248.217C1548.66 250.455 1541.2 252.394 1533.07 253.662C1531.28 259.033 1526.21 262.987 1520.17 262.987C1514.65 262.987 1509.87 259.705 1507.78 254.931C1501.44 254.558 1494.8 253.662 1488.02 252.096C1485.55 254.632 1482.12 256.199 1478.32 256.199C1471.38 256.199 1465.64 250.977 1464.89 244.263C1460.41 242.249 1455.79 239.862 1451.16 237.177C1446.99 239.638 1442.81 241.802 1438.71 243.666C1438.18 250.679 1432.29 256.199 1425.2 256.199C1421.25 256.199 1417.75 254.558 1415.28 251.872C1408.57 253.439 1402.01 254.408 1395.74 254.856C1393.65 259.63 1388.88 262.987 1383.28 262.987C1377.39 262.987 1372.32 259.183 1370.45 253.886C1361.8 252.618 1353.89 250.604 1347.03 248.217C1346.88 248.142 1346.73 248.142 1346.58 248.068C1344.27 249.933 1341.36 250.977 1338.15 250.977C1330.99 250.977 1325.17 245.457 1324.65 238.445C1316.89 234.267 1310.92 230.164 1306.89 227.255C1305.85 240.981 1305.18 254.856 1305.03 268.88L1598.42 268.88Z" fill="#8F4233"/>
<path d="M1451.68 358.403L1433.22 339.942L1451.68 321.48L1470.14 339.942L1451.68 358.403Z" fill="#8F4233"/>
<path d="M1404.84 339.971L1451.76 293.049L1498.68 339.971L1451.69 386.892L1404.84 339.971ZM1451.69 312.967L1424.68 339.971L1451.69 366.975L1478.69 339.971L1451.69 312.967Z" fill="#8F4233"/>
<path d="M1438.63 168.548C1441.32 170.86 1443.7 173.322 1445.72 175.933C1433.56 191.3 1410.66 201.668 1384.33 201.668C1357.99 201.668 1335.09 191.3 1322.93 175.933C1325.02 173.322 1327.41 170.785 1330.09 168.473C1343.82 179.588 1363.51 186.152 1384.4 186.152C1405.29 186.152 1424.91 179.588 1438.63 168.548Z" fill="#8F4233"/>
<path d="M1434.83 165.489C1422 175.485 1403.8 181.378 1384.48 181.378C1365.08 181.378 1346.8 175.411 1333.97 165.415C1346.8 156.015 1364.63 150.197 1384.33 150.197C1404.09 150.197 1422 156.015 1434.83 165.489Z" fill="#8F4233"/>
<path d="M1389.62 119.687L1333.38 119.687L1333.38 110.511L1389.62 110.511L1389.62 119.687Z" fill="#8F4233"/>
<path d="M1380.52 102.977L1339.79 102.977L1339.79 93.8018L1380.52 93.8018L1380.52 102.977Z" fill="#8F4233"/>
<path d="M1374.85 85.7454L1346.13 85.7454L1346.13 76.57L1374.85 76.57L1374.85 85.7454Z" fill="#8F4233"/>
<path d="M1368.96 67.9913L1354.56 67.9913L1354.56 58.816L1368.96 58.816L1368.96 67.9913Z" fill="#8F4233"/>
<path d="M1369.7 46.2838C1369.7 49.7898 1366.87 52.6991 1363.29 52.6991C1359.78 52.6991 1356.87 49.8644 1356.87 46.2838C1356.87 42.7032 1359.71 39.8685 1363.29 39.8685C1366.87 39.8685 1369.7 42.7778 1369.7 46.2838Z" fill="#8F4233"/>
<path d="M1376.49 28.3059C1376.49 31.1406 1374.18 33.4531 1371.27 33.4531C1368.44 33.4531 1366.12 31.1406 1366.12 28.3059C1366.12 25.4713 1368.44 23.0842 1371.27 23.0842C1374.18 23.1588 1376.49 25.4713 1376.49 28.3059Z" fill="#8F4233"/>
<path d="M1379.25 15.9229C1376.79 15.9229 1374.85 13.9834 1374.85 11.5217C1374.85 9.06003 1376.79 7.1205 1379.25 7.1205C1381.71 7.1205 1383.65 9.06004 1383.65 11.5217C1383.65 13.9834 1381.71 15.9229 1379.25 15.9229Z" fill="#8F4233"/>
<path d="M1389.25 1.22742C1386.64 1.22742 1384.48 -0.935903 1384.48 -3.54679C1384.48 -6.23226 1386.64 -8.32099 1389.25 -8.32099C1391.86 -8.32099 1394.02 -6.15767 1394.02 -3.54678C1394.02 -0.935902 1391.93 1.22742 1389.25 1.22742Z" fill="#8F4233"/>
<path d="M1311.82 241.428C1327.78 257.019 1360.53 265.001 1360.53 265.001L1310.25 265.001L1311.82 241.428Z" fill="#8F4233"/>
<path d="M1404.54 303.12C1405.66 303.12 1406.48 304.015 1406.48 305.059C1406.48 306.178 1405.59 306.999 1404.54 306.999C1403.5 306.999 1402.6 306.104 1402.6 305.059C1402.53 304.015 1403.42 303.12 1404.54 303.12Z" fill="#8F4233"/>
<path d="M1441.32 291.856L1396.41 332.586C1396.41 332.586 1366.5 309.834 1292.27 291.856L1441.32 291.856ZM1379.48 306.178C1383.06 309.311 1389.25 311.326 1396.19 311.326C1403.8 311.326 1410.43 308.864 1413.87 305.283C1410.51 301.703 1403.8 299.241 1396.19 299.241C1389.17 299.241 1383.06 301.33 1379.48 304.388L1369.18 298.42L1369.18 312.146L1379.48 306.178Z" fill="#8F4233"/>
<path d="M1467.2 662.228C1462.28 664.317 1457.06 665.361 1451.76 665.361C1435.5 665.361 1420.95 655.664 1414.69 640.744C1410.51 630.823 1410.51 619.932 1414.61 610.01C1418.64 600.089 1426.4 592.331 1436.25 588.228C1441.17 586.139 1446.39 585.095 1451.69 585.095C1467.95 585.095 1482.49 594.793 1488.76 609.712C1492.86 619.633 1492.94 630.524 1488.84 640.446C1484.81 650.367 1477.12 658.051 1467.2 662.228ZM1482.94 618.664L1470.93 617.097L1478.24 607.474C1478.17 607.4 1478.17 607.325 1478.09 607.25L1466.46 610.383L1469.59 598.672C1469.44 598.597 1469.37 598.523 1469.22 598.448L1459.59 605.833L1457.95 593.823C1455.86 593.375 1453.78 593.152 1451.61 593.152C1449.45 593.152 1447.21 593.375 1445.12 593.823L1443.56 605.833L1433.93 598.523C1433.86 598.597 1433.78 598.597 1433.71 598.672L1436.84 610.383L1425.13 607.25C1425.06 607.399 1424.98 607.474 1424.91 607.623L1432.29 617.172L1420.28 618.813C1419.39 623.065 1419.46 627.391 1420.36 631.643L1432.37 633.21L1425.06 642.833C1425.13 642.908 1425.13 642.982 1425.2 643.057L1436.92 639.924L1433.78 651.635C1433.93 651.71 1434.01 651.784 1434.16 651.859L1443.78 644.474L1445.42 656.484C1447.51 656.932 1449.6 657.155 1451.76 657.155C1453.92 657.155 1456.16 656.932 1458.25 656.484L1459.82 644.474L1469.44 651.785C1469.52 651.71 1469.59 651.71 1469.66 651.635L1466.53 639.924L1478.24 643.057C1478.32 642.907 1478.39 642.833 1478.47 642.684L1471.08 633.135L1483.09 631.494C1483.84 627.242 1483.84 622.916 1482.94 618.664Z" fill="#8F4233"/>
<path d="M1451.69 641.266C1442.81 641.266 1435.65 634.105 1435.65 625.228C1435.65 616.351 1442.81 609.19 1451.69 609.19C1460.56 609.19 1467.72 616.351 1467.72 625.228C1467.8 634.03 1460.56 641.266 1451.69 641.266Z" fill="#8F4233"/>
<path d="M1406.93 632.166L1394.77 625.154L1406.93 618.141L1406.93 632.166Z" fill="#8F4233"/>
<path d="M1424.98 661.78L1411.48 665.436L1415.13 651.859L1424.98 661.78Z" fill="#8F4233"/>
<path d="M1411.48 584.946L1425.06 588.601L1415.13 598.523L1411.48 584.946Z" fill="#8F4233"/>
<path d="M1429.53 677.595L1427.82 663.645L1440.72 669.166L1429.53 677.595Z" fill="#8F4233"/>
<path d="M1407.75 614.188L1399.32 602.998L1413.19 601.283L1407.75 614.188Z" fill="#8F4233"/>
<path d="M1412.82 648.502L1398.95 646.563L1407.6 635.448L1412.82 648.502Z" fill="#8F4233"/>
<path d="M1430.35 572.414L1441.39 581.067L1428.41 586.289L1430.35 572.414Z" fill="#8F4233"/>
<path d="M1451.69 698.557C1411.26 698.557 1378.36 665.66 1378.36 625.228C1378.36 584.797 1411.26 551.9 1451.69 551.9C1492.12 551.9 1525.02 584.797 1525.02 625.228C1525.09 665.66 1492.19 698.557 1451.69 698.557ZM1451.69 564.879C1418.42 564.879 1391.41 591.958 1391.41 625.154C1391.41 658.424 1418.49 685.428 1451.69 685.428C1484.96 685.428 1511.96 658.349 1511.96 625.154C1512.04 591.958 1484.96 564.879 1451.69 564.879Z" fill="#8F4233"/>
<path d="M1570.97 633.434C1542.4 700.347 1502.71 751.147 1456.16 780.24L1451.69 783L1447.21 780.24C1400.66 751.147 1360.98 700.347 1332.41 633.434C1303.46 565.551 1288.17 485.807 1288.17 402.632L1288.17 394.277L1615.13 394.277L1615.13 402.632C1615.2 485.732 1599.91 565.551 1570.97 633.434ZM1347.85 626.869C1374.11 688.486 1409.91 735.482 1451.69 763.157C1493.46 735.407 1529.27 688.411 1555.53 626.869C1568.21 597.18 1578.13 565.103 1585.21 531.46C1577.68 536.011 1567.91 541.009 1556.35 544.888C1531.43 553.317 1493.39 558.166 1452.28 533.847C1429.68 547.2 1407.97 551.75 1388.95 551.75C1373.36 551.75 1359.49 548.692 1348.22 544.888C1335.91 540.71 1325.62 535.339 1318.01 530.565C1325.17 564.581 1335.17 596.956 1347.85 626.869ZM1595.29 466.114C1592 463.503 1584.54 457.908 1574.62 452.313C1572.16 454.626 1568.88 456.118 1565.22 456.118C1557.76 456.118 1551.65 450.075 1551.65 442.541C1551.65 442.317 1551.65 442.168 1551.72 441.944C1545.16 439.706 1538.59 438.065 1532.1 437.021C1529.79 441.273 1525.31 444.182 1520.17 444.182C1514.5 444.182 1509.65 440.676 1507.63 435.753C1502.34 436.126 1497.04 436.797 1491.82 437.991C1491.52 445.226 1485.55 450.97 1478.32 450.97C1474.14 450.97 1470.48 449.106 1467.95 446.196C1463.25 448.36 1458.62 450.896 1454 453.805L1451.16 455.595L1448.33 453.805C1444 451.12 1439.6 448.733 1435.2 446.644C1432.74 449.329 1429.16 451.045 1425.2 451.045C1418.04 451.045 1412.15 445.45 1411.7 438.364C1406.48 437.17 1401.18 436.349 1395.81 435.977C1393.8 440.825 1388.95 444.257 1383.28 444.257C1378.06 444.257 1373.51 441.273 1371.27 436.946C1364.78 437.916 1358.29 439.483 1351.73 441.646C1351.73 441.944 1351.8 442.317 1351.8 442.616C1351.8 450.075 1345.68 456.192 1338.23 456.192C1334.5 456.192 1331.14 454.7 1328.68 452.239C1318.98 457.983 1311.74 463.876 1308.24 466.859C1308.76 472.23 1309.36 477.601 1310.03 482.898C1317.86 477.452 1330.62 469.694 1347.1 464.099C1372.02 455.595 1410.06 450.821 1451.16 475.14C1473.77 461.787 1495.47 457.162 1514.5 457.162C1530.09 457.162 1543.96 460.22 1555.23 464.025C1572.46 469.843 1585.74 478.124 1593.35 483.569C1594.09 477.825 1594.76 471.932 1595.29 466.114ZM1315.03 515.571C1321.74 520.494 1334.64 528.849 1351.65 534.668C1385.52 546.156 1418.42 542.202 1449.45 522.956L1452.28 521.166L1455.12 522.956C1486 542.202 1518.75 546.156 1552.54 534.817C1568.58 529.446 1581.04 521.688 1588.12 516.615C1589.39 509.753 1590.59 502.815 1591.63 495.803C1586.63 491.849 1572.09 481.182 1551.72 474.245C1517.85 462.757 1484.96 466.71 1453.92 485.956L1451.09 487.747L1448.26 485.956C1417.37 466.71 1384.62 462.757 1350.83 474.095C1331.59 480.585 1317.49 490.432 1311.59 494.982C1312.64 501.92 1313.83 508.783 1315.03 515.571ZM1305.03 411.061C1305.18 425.085 1305.85 438.96 1306.89 452.686C1310.85 449.702 1316.89 445.599 1324.65 441.497C1325.17 434.485 1330.99 428.964 1338.15 428.964C1341.36 428.964 1344.27 430.083 1346.58 431.874C1346.73 431.799 1346.88 431.799 1347.03 431.724C1353.89 429.412 1361.8 427.323 1370.45 426.055C1372.32 420.759 1377.31 416.954 1383.28 416.954C1388.88 416.954 1393.65 420.311 1395.74 425.085C1402.01 425.533 1408.57 426.428 1415.28 428.069C1417.75 425.384 1421.25 423.743 1425.2 423.743C1432.37 423.743 1438.18 429.263 1438.71 436.275C1442.81 438.14 1446.99 440.303 1451.16 442.765C1455.79 440.005 1460.34 437.692 1464.82 435.678C1465.64 428.964 1471.38 423.743 1478.32 423.743C1482.12 423.743 1485.55 425.309 1488.02 427.845C1494.8 426.279 1501.44 425.384 1507.78 425.011C1509.87 420.237 1514.65 416.954 1520.17 416.954C1526.13 416.954 1531.28 420.833 1533.07 426.279C1541.2 427.547 1548.66 429.487 1555.23 431.725C1555.67 431.874 1556.12 432.023 1556.49 432.172C1558.88 430.158 1561.94 428.964 1565.22 428.964C1572.61 428.964 1578.58 434.858 1578.8 442.168C1586.71 446.495 1592.75 450.747 1596.48 453.581C1597.6 439.557 1598.27 425.384 1598.42 411.061L1305.03 411.061Z" fill="#8F4233"/>
<path d="M1445.72 504.009C1443.63 506.619 1441.24 509.081 1438.63 511.394C1424.91 500.353 1405.29 493.789 1384.4 493.789C1363.51 493.789 1343.82 500.353 1330.09 511.468C1327.41 509.156 1325.02 506.694 1322.93 504.009C1335.09 488.642 1357.99 478.273 1384.33 478.273C1410.66 478.273 1433.56 488.642 1445.72 504.009Z" fill="#8F4233"/>
<path d="M1434.83 514.452C1422 523.926 1404.17 529.745 1384.33 529.745C1364.63 529.745 1346.8 523.926 1333.97 514.527C1346.8 504.531 1365.01 498.563 1384.48 498.563C1403.8 498.563 1422 504.456 1434.83 514.452Z" fill="#8F4233"/>
<path d="M1389.62 569.355L1333.38 569.355L1333.38 560.18L1389.62 560.18L1389.62 569.355Z" fill="#8F4233"/>
<path d="M1380.52 586.14L1339.79 586.14L1339.79 576.964L1380.52 576.964L1380.52 586.14Z" fill="#8F4233"/>
<path d="M1374.85 603.297L1346.13 603.297L1346.13 594.121L1374.85 594.121L1374.85 603.297Z" fill="#8F4233"/>
<path d="M1368.96 621.051L1354.56 621.051L1354.56 611.875L1368.96 611.875L1368.96 621.051Z" fill="#8F4233"/>
<path d="M1426.77 733.766C1418.42 724.964 1397.23 698.631 1397.23 698.631C1406.03 701.839 1432.74 708.18 1432.74 708.18C1422 717.803 1426.77 733.766 1426.77 733.766Z" fill="#8F4233"/>
<path d="M1363.29 627.242C1366.8 627.242 1369.7 630.077 1369.7 633.658C1369.7 637.164 1366.87 640.073 1363.29 640.073C1359.78 640.073 1356.87 637.238 1356.87 633.658C1356.95 630.077 1359.78 627.242 1363.29 627.242Z" fill="#8F4233"/>
<path d="M1371.27 646.414C1374.11 646.414 1376.49 648.726 1376.49 651.635C1376.49 654.47 1374.18 656.857 1371.27 656.857C1368.44 656.857 1366.12 654.545 1366.12 651.635C1366.12 648.726 1368.44 646.414 1371.27 646.414Z" fill="#8F4233"/>
<path d="M1379.25 663.944C1381.71 663.944 1383.65 665.883 1383.65 668.345C1383.65 670.807 1381.71 672.746 1379.25 672.746C1376.79 672.746 1374.85 670.807 1374.85 668.345C1374.93 665.958 1376.87 663.944 1379.25 663.944Z" fill="#8F4233"/>
<path d="M1389.25 678.714C1391.86 678.714 1394.02 680.877 1394.02 683.488C1394.02 686.099 1391.86 688.262 1389.25 688.262C1386.64 688.262 1384.48 686.099 1384.48 683.488C1384.48 680.877 1386.64 678.714 1389.25 678.714Z" fill="#8F4233"/>
<path d="M1310.25 414.94L1360.53 414.94C1360.53 414.94 1327.78 422.922 1311.82 438.513L1310.25 414.94Z" fill="#8F4233"/>
<path d="M1404.54 372.868C1405.66 372.868 1406.48 373.763 1406.48 374.807C1406.48 375.926 1405.59 376.747 1404.54 376.747C1403.5 376.747 1402.6 375.852 1402.6 374.807C1402.53 373.688 1403.42 372.868 1404.54 372.868Z" fill="#8F4233"/>
<path d="M1396.49 347.356L1441.39 388.085L1292.27 388.085C1366.5 370.033 1396.49 347.356 1396.49 347.356ZM1379.48 375.553C1383.06 378.686 1389.25 380.7 1396.19 380.7C1403.8 380.7 1410.43 378.239 1413.87 374.658C1410.51 371.077 1403.8 368.616 1396.19 368.616C1389.17 368.616 1383.06 370.704 1379.48 373.763L1369.18 367.795L1369.18 381.521L1379.48 375.553Z" fill="#8F4233"/>
<path d="M1147.48 606.728C1147.03 607.325 1104.29 667.897 1103.4 743.688L1091.46 743.538C1092.21 681.026 1119.28 629.48 1131.74 609.115C1085.72 607.922 1047.97 599.567 1033.65 595.912C1017.24 666.406 967.928 739.212 965.764 742.419L955.843 735.631C956.365 734.885 1008.88 657.305 1023.28 587.333L1024.55 580.992L1030.81 582.783C1031.33 582.932 1081.46 597.329 1142.71 597.329L1154.34 597.329L1147.48 606.728Z" fill="#8F4233"/>
<path d="M1064.53 701.69L1090.71 692.291L1071.32 672.373L1098.32 665.51L1080.64 643.952L1108.17 639.402L1092.13 616.65L1120.03 614.113L1108.24 639.551L1098.4 665.585L1090.79 692.44L1090.79 692.365L1085.86 719.817L1083.1 747.492L1060.35 731.23L1085.79 719.742L1064.53 701.69Z" fill="#8F4233"/>
<path d="M1059.38 625.079L1032.16 631.494L1040.21 604.64L1059.38 625.079Z" fill="#8F4233"/>
<path d="M1049.91 653.127L1022.23 657.678L1032.16 631.494L1049.91 653.127Z" fill="#8F4233"/>
<path d="M1037.45 681.176L1009.48 682.593L1022.23 657.678L1037.45 681.176Z" fill="#8F4233"/>
<path d="M1024.62 706.091L996.647 707.434L1009.48 682.593L1024.62 706.091Z" fill="#8F4233"/>
<path d="M1010 732.125L981.952 731.305L996.647 707.434L1010 732.125Z" fill="#8F4233"/>
<path d="M1073.93 615.158C1078.03 615.158 1081.39 618.515 1081.39 622.617C1081.39 626.72 1078.03 630.077 1073.93 630.077C1069.83 630.077 1066.47 626.72 1066.47 622.617C1066.4 618.515 1069.75 615.158 1073.93 615.158Z" fill="#8F4233"/>
<path d="M1068.63 647.309C1072.75 647.309 1076.09 650.649 1076.09 654.768C1076.09 658.888 1072.75 662.228 1068.63 662.228C1064.51 662.228 1061.17 658.888 1061.17 654.768C1061.17 650.649 1064.51 647.309 1068.63 647.309Z" fill="#8F4233"/>
<path d="M1047.67 665.287C1051.79 665.287 1055.13 668.626 1055.13 672.746C1055.13 676.866 1051.79 680.206 1047.67 680.206C1043.55 680.206 1040.21 676.866 1040.21 672.746C1040.21 668.626 1043.55 665.287 1047.67 665.287Z" fill="#8F4233"/>
<path d="M1049.98 692.962C1054.1 692.962 1057.44 696.302 1057.44 700.422C1057.44 704.541 1054.1 707.881 1049.98 707.881C1045.86 707.881 1042.52 704.541 1042.52 700.422C1042.52 696.302 1045.86 692.962 1049.98 692.962Z" fill="#8F4233"/>
<path d="M1181.35 606.728C1181.8 607.325 1224.54 667.897 1225.44 743.688L1237.45 743.538C1236.7 681.026 1209.62 629.48 1197.16 609.115C1243.19 607.922 1280.94 599.567 1295.26 595.912C1311.67 666.406 1360.98 739.212 1363.14 742.419L1373.06 735.631C1372.54 734.885 1320.02 657.305 1305.63 587.333L1304.36 580.992L1298.17 582.783C1297.64 582.932 1247.52 597.329 1186.27 597.329L1174.63 597.329L1181.35 606.728Z" fill="#8F4233"/>
<path d="M1264.3 701.69L1238.12 692.291L1257.51 672.373L1230.51 665.51L1248.19 643.952L1220.66 639.402L1236.62 616.65L1208.8 614.113L1220.59 639.551L1230.43 665.585L1237.97 692.44L1238.04 692.365L1242.97 719.817L1245.73 747.492L1268.48 731.23L1243.04 719.742L1264.3 701.69Z" fill="#8F4233"/>
<path d="M1269.45 625.079L1296.68 631.494L1288.62 604.64L1269.45 625.079Z" fill="#8F4233"/>
<path d="M1278.92 653.127L1306.6 657.678L1296.68 631.494L1278.92 653.127Z" fill="#8F4233"/>
<path d="M1291.38 681.176L1319.35 682.593L1306.6 657.678L1291.38 681.176Z" fill="#8F4233"/>
<path d="M1304.21 706.091L1332.11 707.434L1319.35 682.593L1304.21 706.091Z" fill="#8F4233"/>
<path d="M1318.83 732.125L1346.8 731.305L1332.11 707.434L1318.83 732.125Z" fill="#8F4233"/>
<path d="M1254.9 615.158C1250.8 615.158 1247.44 618.515 1247.44 622.617C1247.44 626.72 1250.8 630.077 1254.9 630.077C1259 630.077 1262.36 626.72 1262.36 622.617C1262.44 618.515 1259.08 615.158 1254.9 615.158Z" fill="#8F4233"/>
<path d="M1260.2 647.309C1264.32 647.309 1267.66 650.649 1267.66 654.768C1267.66 658.888 1264.32 662.228 1260.2 662.228C1256.08 662.228 1252.74 658.888 1252.74 654.768C1252.74 650.649 1256.08 647.309 1260.2 647.309Z" fill="#8F4233"/>
<path d="M1281.16 665.287C1285.28 665.287 1288.62 668.626 1288.62 672.746C1288.62 676.866 1285.28 680.206 1281.16 680.206C1277.04 680.206 1273.7 676.866 1273.7 672.746C1273.7 668.626 1277.04 665.287 1281.16 665.287Z" fill="#8F4233"/>
<path d="M1278.85 692.962C1282.97 692.962 1286.31 696.302 1286.31 700.422C1286.31 704.541 1282.97 707.881 1278.85 707.881C1274.73 707.881 1271.39 704.541 1271.39 700.422C1271.39 696.302 1274.73 692.962 1278.85 692.962Z" fill="#8F4233"/>
<path d="M1172.1 683.414C1169.49 682.966 1166.65 682.742 1163.67 682.742C1161.21 682.742 1158.9 682.891 1156.73 683.19C1158.82 668.867 1161.13 643.579 1156.51 618.589C1160.46 614.113 1163.67 611.577 1163.67 611.577C1163.67 611.577 1167.47 614.635 1172.02 619.932C1167.77 644.623 1170.01 669.464 1172.1 683.414Z" fill="#8F4233"/>
<path d="M1152.11 684.085C1132.94 688.561 1123.31 702.958 1123.31 702.958C1121.07 677.52 1145.77 673.045 1145.77 673.045C1145.77 673.045 1145.09 672 1144.2 670.135C1138.38 673.268 1125.48 679.684 1123.54 675.059C1121.37 669.912 1131.97 658.275 1141.96 664.018C1140.47 658.424 1139.72 650.591 1142.71 641.639C1145.09 634.404 1148.97 628.137 1152.7 623.289C1156.51 647.309 1154.05 671.105 1152.11 684.085Z" fill="#8F4233"/>
<path d="M1205.29 674.984C1203.21 679.908 1188.51 672.224 1183.51 669.464C1182.54 671.702 1181.65 672.97 1181.65 672.97C1181.65 672.97 1206.34 677.446 1204.1 702.883C1204.1 702.883 1195 689.232 1176.8 684.383C1174.86 671.851 1172.4 648.502 1175.83 624.706C1179.19 629.331 1182.54 635 1184.71 641.49C1187.91 651.113 1186.79 659.393 1185.15 665.063C1195.52 656.857 1207.53 669.613 1205.29 674.984Z" fill="#8F4233"/>
<path d="M1188.88 704.599C1188.88 697.587 1177.92 691.918 1164.42 691.918C1150.91 691.918 1139.95 697.587 1139.95 704.599C1139.95 711.611 1150.91 717.28 1164.42 717.28C1177.92 717.28 1188.88 711.611 1188.88 704.599Z" fill="#8F4233"/>
<path d="M1166.42 112.225C1166.87 111.629 1209.61 51.0561 1210.51 -24.734L1222.45 -24.5848C1221.7 37.9271 1194.62 89.4734 1182.16 109.838C1228.19 111.032 1265.93 119.387 1280.26 123.042C1296.67 52.5481 1345.98 -20.2582 1348.14 -23.4659L1358.06 -16.6776C1357.54 -15.9316 1305.02 61.6489 1290.63 131.621L1289.36 137.961L1283.09 136.171C1282.57 136.022 1232.44 121.625 1171.2 121.625L1159.56 121.625L1166.42 112.225Z" fill="#8F4233"/>
<path d="M1249.37 17.2639L1223.19 26.663L1242.59 46.5804L1215.58 53.4432L1233.26 75.0017L1205.74 79.552L1221.77 102.304L1193.87 104.84L1205.66 79.4029L1215.51 53.3686L1223.12 26.5139L1223.12 26.5884L1228.04 -0.86311L1230.8 -28.5385L1253.55 -12.2764L1228.11 -0.788508L1249.37 17.2639Z" fill="#8F4233"/>
<path d="M1254.52 93.8745L1281.75 87.4592L1273.69 114.314L1254.52 93.8745Z" fill="#8F4233"/>
<path d="M1264 65.8263L1291.67 61.2759L1281.75 87.4593L1264 65.8263Z" fill="#8F4233"/>
<path d="M1276.45 37.7779L1304.43 36.3606L1291.67 61.2759L1276.45 37.7779Z" fill="#8F4233"/>
<path d="M1289.28 12.8626L1317.26 11.5199L1304.43 36.3606L1289.28 12.8626Z" fill="#8F4233"/>
<path d="M1303.9 -13.1715L1331.95 -12.3509L1317.26 11.52L1303.9 -13.1715Z" fill="#8F4233"/>
<path d="M1239.98 103.796C1235.87 103.796 1232.52 100.439 1232.52 96.3362C1232.52 92.2334 1235.87 88.8766 1239.98 88.8766C1244.08 88.8766 1247.43 92.2334 1247.43 96.3362C1247.51 100.439 1244.15 103.796 1239.98 103.796Z" fill="#8F4233"/>
<path d="M1245.27 71.6448C1241.15 71.6448 1237.81 68.305 1237.81 64.1851C1237.81 60.0653 1241.15 56.7255 1245.27 56.7255C1249.39 56.7255 1252.73 60.0653 1252.73 64.1851C1252.73 68.305 1249.39 71.6448 1245.27 71.6448Z" fill="#8F4233"/>
<path d="M1266.23 53.667C1262.11 53.667 1258.77 50.3272 1258.77 46.2073C1258.77 42.0875 1262.11 38.7477 1266.23 38.7477C1270.35 38.7477 1273.69 42.0875 1273.69 46.2073C1273.69 50.3272 1270.35 53.667 1266.23 53.667Z" fill="#8F4233"/>
<path d="M1263.92 25.9917C1259.8 25.9917 1256.46 22.6519 1256.46 18.532C1256.46 14.4122 1259.8 11.0724 1263.92 11.0724C1268.04 11.0724 1271.38 14.4122 1271.38 18.5321C1271.38 22.6519 1268.04 25.9917 1263.92 25.9917Z" fill="#8F4233"/>
<path d="M1286.37 6.52198C1282.25 6.52198 1278.91 3.18218 1278.91 -0.937679C1278.91 -5.05754 1282.25 -8.39734 1286.37 -8.39734C1290.49 -8.39734 1293.83 -5.05753 1293.83 -0.937676C1293.83 3.18218 1290.49 6.52199 1286.37 6.52198Z" fill="#8F4233"/>
<path d="M1132.56 112.225C1132.11 111.629 1089.36 51.0562 1088.47 -24.734L1076.46 -24.5848C1077.21 37.9271 1104.28 89.4734 1116.74 109.838C1070.72 111.032 1032.97 119.387 1018.65 123.042C1002.24 52.5481 952.928 -20.2582 950.764 -23.4659L940.843 -16.6776C941.365 -15.9316 993.881 61.6488 1008.28 131.62L1009.55 137.961L1015.74 136.171C1016.26 136.022 1066.39 121.625 1127.63 121.625L1139.27 121.625L1132.56 112.225Z" fill="#8F4233"/>
<path d="M1049.6 17.2639L1075.79 26.663L1056.39 46.5803L1083.4 53.4432L1065.72 75.0016L1093.24 79.5521L1077.28 102.304L1105.1 104.84L1093.32 79.4029L1083.47 53.3686L1075.94 26.5139L1075.86 26.5885L1070.94 -0.863112L1068.18 -28.5385L1045.43 -12.2764L1070.86 -0.78851L1049.6 17.2639Z" fill="#8F4233"/>
<path d="M1044.46 93.8745L1017.23 87.4592L1025.29 114.314L1044.46 93.8745Z" fill="#8F4233"/>
<path d="M1034.98 65.8263L1007.31 61.2759L1017.23 87.4593L1034.98 65.8263Z" fill="#8F4233"/>
<path d="M1022.53 37.7779L994.552 36.3606L1007.31 61.2759L1022.53 37.7779Z" fill="#8F4233"/>
<path d="M1009.7 12.8626L981.796 11.5199L994.552 36.3606L1009.7 12.8626Z" fill="#8F4233"/>
<path d="M995.075 -13.1716L967.101 -12.3511L981.796 11.5199L995.075 -13.1716Z" fill="#8F4233"/>
<path d="M1059 103.796C1063.11 103.796 1066.46 100.439 1066.46 96.3362C1066.46 92.2334 1063.11 88.8766 1059 88.8766C1054.9 88.8766 1051.54 92.2334 1051.54 96.3362C1051.47 100.439 1054.83 103.796 1059 103.796Z" fill="#8F4233"/>
<path d="M1053.71 71.6448C1049.59 71.6448 1046.25 68.305 1046.25 64.1851C1046.25 60.0653 1049.59 56.7255 1053.71 56.7255C1057.83 56.7255 1061.17 60.0653 1061.17 64.1851C1061.17 68.305 1057.83 71.6448 1053.71 71.6448Z" fill="#8F4233"/>
<path d="M1032.75 53.667C1028.63 53.667 1025.29 50.3272 1025.29 46.2073C1025.29 42.0875 1028.63 38.7477 1032.75 38.7477C1036.87 38.7477 1040.21 42.0875 1040.21 46.2073C1040.21 50.3272 1036.87 53.667 1032.75 53.667Z" fill="#8F4233"/>
<path d="M1035.06 25.9917C1030.94 25.9917 1027.6 22.6519 1027.6 18.532C1027.6 14.4122 1030.94 11.0724 1035.06 11.0724C1039.18 11.0724 1042.52 14.4122 1042.52 18.5321C1042.52 22.6519 1039.18 25.9917 1035.06 25.9917Z" fill="#8F4233"/>
<path d="M1012.6 6.52198C1008.48 6.52198 1005.15 3.18218 1005.15 -0.937679C1005.15 -5.05754 1008.48 -8.39734 1012.6 -8.39734C1016.72 -8.39734 1020.06 -5.05753 1020.06 -0.937676C1020.06 3.18218 1016.72 6.52199 1012.6 6.52198Z" fill="#8F4233"/>
<path d="M1141.81 35.54C1144.42 35.9876 1147.25 36.2114 1150.24 36.2114C1152.7 36.2114 1155.01 36.0622 1157.17 35.7638C1155.08 50.0864 1152.77 75.3746 1157.4 100.364C1153.44 104.84 1150.24 107.377 1150.24 107.377C1150.24 107.377 1146.43 104.318 1141.88 99.0218C1146.13 74.3303 1143.89 49.4896 1141.81 35.54Z" fill="#8F4233"/>
<path d="M1161.8 34.8687C1180.97 30.3929 1190.59 15.9957 1190.59 15.9957C1192.83 41.4332 1168.14 45.909 1168.14 45.909C1168.14 45.909 1168.81 46.9533 1169.71 48.8182C1175.52 45.6852 1188.43 39.2699 1190.37 43.8949C1192.53 49.042 1181.94 60.6791 1171.94 54.9352C1173.44 60.5299 1174.18 68.3626 1171.2 77.3141C1168.81 84.55 1164.93 90.8161 1161.2 95.6649C1157.4 71.6448 1159.86 47.8485 1161.8 34.8687Z" fill="#8F4233"/>
<path d="M1108.61 43.9694C1110.7 39.0461 1125.39 46.7295 1130.39 49.4896C1131.36 47.2517 1132.26 45.9836 1132.26 45.9836C1132.26 45.9836 1107.57 41.5078 1109.8 16.0703C1109.8 16.0703 1118.9 29.7215 1137.11 34.5703C1139.05 47.1025 1141.51 70.4512 1138.08 94.2476C1134.72 89.6226 1131.36 83.9532 1129.2 77.4633C1125.99 67.8404 1127.11 59.5601 1128.75 53.8908C1118.38 62.0964 1106.37 49.3404 1108.61 43.9694Z" fill="#8F4233"/>
<path d="M1125.02 14.3546C1125.02 21.3667 1135.99 27.0361 1149.49 27.0361C1162.99 27.0361 1173.96 21.3667 1173.96 14.3546C1173.96 7.34256 1162.99 1.67322 1149.49 1.67321C1135.99 1.67321 1125.02 7.34255 1125.02 14.3546Z" fill="#8F4233"/>
</g>
<defs>
<clipPath id="clip0_211_12">
<rect width="776" height="714" fill="white" transform="translate(483 714) rotate(180)"/>
</clipPath>
<clipPath id="clip1_211_12">
<rect width="776" height="714" fill="white" transform="matrix(1 8.74228e-08 8.74228e-08 -1 956 714)"/>
</clipPath>
</defs>
</svg>
