<svg width="484" height="708" viewBox="0 0 484 708" fill="none" xmlns="http://www.w3.org/2000/svg">
<g clip-path="url(#clip0_222_1701)">
<path d="M495.761 14.5803C501.058 14.5803 506.279 15.6246 511.203 17.7133C521.124 21.8161 528.808 29.5741 532.836 39.4955C536.939 49.4168 536.864 60.308 532.761 70.2293C526.495 85.2232 511.949 94.8462 495.687 94.8462C490.39 94.8462 485.168 93.8018 480.245 91.7131C470.324 87.6103 462.64 79.8523 458.612 69.9309C454.509 60.0096 454.584 49.1185 458.687 39.1971C464.953 24.2778 479.499 14.5802 495.761 14.5803ZM464.431 60.9793L476.441 62.6204L469.056 72.1688C469.13 72.318 469.205 72.3926 469.279 72.5418L480.991 69.4088L477.858 81.1204C477.933 81.195 478.007 81.195 478.082 81.2696L487.705 73.9591L489.271 85.9692C491.36 86.4168 493.598 86.6406 495.761 86.6406C497.925 86.6406 500.013 86.4168 502.102 85.9692L503.743 73.9591L513.366 81.3442C513.515 81.2696 513.59 81.195 513.739 81.1204L510.606 69.4088L522.243 72.5418C522.318 72.4672 522.318 72.3926 522.392 72.318L515.082 62.6951L527.092 61.1285C527.987 56.8765 527.987 52.5499 527.166 48.2979L515.156 46.6568L522.541 37.1084C522.467 36.9592 522.392 36.8846 522.318 36.7354L510.606 39.8685L513.739 28.1568C513.664 28.0822 513.59 28.0822 513.515 28.0076L503.892 35.3181L502.326 23.308C500.237 22.8604 497.999 22.6367 495.836 22.6367C493.673 22.6367 491.584 22.8605 489.495 23.2334L487.854 35.2435L478.231 27.8584C478.082 27.933 478.007 28.0076 477.858 28.0822L480.991 39.7939L469.279 36.6608C469.205 36.7354 469.205 36.81 469.13 36.8846L476.441 46.5076L464.431 48.0741C463.61 52.4007 463.535 56.8019 464.431 60.9793Z" fill="#39294C"/>
<path d="M495.686 38.6749C504.563 38.6749 511.725 45.8362 511.725 54.7132C511.725 63.5902 504.563 70.7515 495.686 70.7515C486.809 70.7515 479.648 63.5902 479.648 54.7132C479.648 45.8362 486.884 38.6749 495.686 38.6749Z" fill="#39294C"/>
<path d="M450.929 61.7251L438.769 54.713L450.929 47.7009L450.929 61.7251Z" fill="#39294C"/>
<path d="M455.479 14.5056L468.981 18.0862L459.134 28.0076L455.479 14.5056Z" fill="#39294C"/>
<path d="M469.056 91.3401L455.479 94.9954L459.134 81.4188L469.056 91.3401Z" fill="#39294C"/>
<path d="M473.531 2.34624L484.721 10.7757L471.816 16.2212L473.531 2.34624Z" fill="#39294C"/>
<path d="M457.195 78.6587L443.32 76.943L451.749 65.7535L457.195 78.6587Z" fill="#39294C"/>
<path d="M451.6 44.4189L442.947 33.3786L456.822 31.4391L451.6 44.4189Z" fill="#39294C"/>
<path d="M474.352 107.453L472.412 93.5781L485.392 98.8745L474.352 107.453Z" fill="#39294C"/>
<path d="M495.687 -18.6154C536.118 -18.6154 569.015 14.2817 569.015 54.713C569.015 95.1444 536.118 128.042 495.687 128.042C455.255 128.042 422.358 95.1444 422.358 54.713C422.358 14.2817 455.255 -18.6154 495.687 -18.6154ZM495.687 114.987C528.957 114.987 555.961 87.9085 555.961 54.713C555.961 21.4429 528.882 -5.56102 495.687 -5.56103C462.417 -5.56103 435.413 21.5175 435.413 54.713C435.413 87.9831 462.491 114.987 495.687 114.987Z" fill="#39294C"/>
<path d="M332.245 277.235C332.245 194.134 347.538 114.316 376.481 46.4328C405.052 -20.4803 444.737 -71.2806 491.285 -100.373L495.761 -103.133L500.237 -100.373C546.785 -71.2806 586.471 -20.4803 615.041 46.4328C643.985 114.316 659.277 194.134 659.277 277.235L659.277 285.59L332.245 285.59L332.245 277.235ZM352.163 213.156C355.669 216.14 362.979 222.108 372.602 227.777C375.064 225.316 378.421 223.824 382.15 223.824C389.61 223.824 395.727 229.866 395.727 237.4C395.727 237.699 395.727 238.072 395.652 238.37C402.217 240.533 408.707 242.1 415.197 243.07C417.435 238.743 421.985 235.759 427.207 235.759C432.876 235.759 437.65 239.191 439.739 244.039C445.035 243.666 450.332 242.846 455.628 241.652C456.076 234.566 461.969 228.971 469.13 228.971C473.084 228.971 476.664 230.687 479.126 233.372C483.527 231.283 487.929 228.896 492.255 226.211L495.09 224.42L497.924 226.211C502.549 229.12 507.174 231.582 511.874 233.82C514.336 230.91 518.066 229.045 522.243 229.045C529.553 229.045 535.447 234.789 535.745 242.025C540.967 243.144 546.263 243.89 551.559 244.263C553.574 239.34 558.422 235.834 564.092 235.834C569.239 235.834 573.715 238.743 576.027 242.995C582.517 241.951 589.082 240.309 595.646 238.072C595.646 237.848 595.571 237.699 595.571 237.475C595.571 229.941 601.688 223.898 609.148 223.898C612.803 223.898 616.086 225.316 618.547 227.703C628.469 222.108 635.928 216.513 639.21 213.902C638.614 208.084 638.017 202.265 637.271 196.447C629.587 201.892 616.384 210.172 599.152 215.991C587.963 219.795 574.088 222.854 558.422 222.854C539.326 222.854 517.693 218.303 495.09 204.876C453.987 229.195 415.943 224.42 391.027 215.916C374.616 210.322 361.786 202.564 353.953 197.118C353.282 202.414 352.759 207.785 352.163 213.156ZM355.669 184.959C361.562 189.509 375.661 199.356 394.907 205.846C428.624 217.184 461.447 213.156 492.33 193.985L495.164 192.195L497.999 193.985C529.031 213.306 561.928 217.259 595.795 205.771C616.235 198.834 630.706 188.166 635.704 184.213C634.66 177.201 633.467 170.263 632.198 163.4C625.112 158.328 612.579 150.57 596.616 145.199C562.898 133.86 530.076 137.814 499.193 157.06L496.358 158.85L493.523 157.06C462.491 137.739 429.594 133.785 395.727 145.348C378.719 151.092 365.814 159.447 359.1 164.445C357.832 171.158 356.638 178.021 355.669 184.959ZM599.525 53.072C573.267 -8.54486 537.461 -55.5407 495.687 -83.216C453.912 -55.4661 418.106 -8.47028 391.848 53.0719C379.092 82.9852 369.096 115.36 361.935 149.376C369.618 144.677 379.838 139.231 392.146 135.054C403.336 131.249 417.286 128.191 432.876 128.191C451.973 128.191 473.606 132.741 496.209 146.094C537.311 121.775 575.356 126.55 600.271 135.054C611.834 139.007 621.606 144.005 629.14 148.481C622.128 114.838 612.207 82.7614 599.525 53.072ZM642.418 268.88C642.269 254.557 641.598 240.384 640.479 226.36C636.749 229.195 630.706 233.447 622.799 237.773C622.575 245.084 616.608 250.977 609.223 250.977C605.866 250.977 602.807 249.783 600.495 247.769C600.047 247.918 599.674 248.067 599.227 248.217C592.662 250.455 585.203 252.394 577.071 253.662C575.281 259.033 570.209 262.987 564.166 262.987C558.646 262.987 553.872 259.705 551.783 254.93C545.443 254.557 538.803 253.662 532.015 252.096C529.553 254.632 526.122 256.199 522.318 256.199C515.38 256.199 509.636 250.977 508.89 244.263C504.414 242.249 499.789 239.862 495.164 237.176C490.987 239.638 486.81 241.801 482.707 243.666C482.185 250.678 476.291 256.199 469.205 256.199C465.251 256.199 461.745 254.557 459.283 251.872C452.57 253.438 446.005 254.408 439.739 254.856C437.65 259.63 432.876 262.987 427.281 262.987C421.388 262.987 416.316 259.182 414.451 253.886C405.798 252.618 397.89 250.604 391.027 248.217C390.878 248.142 390.729 248.142 390.58 248.068C388.267 249.932 385.358 250.977 382.15 250.977C374.989 250.977 369.171 245.457 368.649 238.445C360.89 234.267 354.923 230.164 350.895 227.255C349.85 240.981 349.179 254.856 349.03 268.88L642.418 268.88Z" fill="#39294C"/>
<path d="M495.678 358.403L477.216 339.942L495.678 321.48L514.139 339.942L495.678 358.403Z" fill="#39294C"/>
<path d="M448.84 339.971L495.761 293.049L542.682 339.971L495.687 386.892L448.84 339.971ZM495.687 312.967L468.683 339.971L495.687 366.975L522.691 339.971L495.687 312.967Z" fill="#39294C"/>
<path d="M482.632 168.548C485.318 170.86 487.705 173.322 489.719 175.933C477.56 191.3 454.658 201.668 428.326 201.668C401.993 201.668 379.092 191.3 366.933 175.933C369.022 173.322 371.409 170.785 374.094 168.473C387.82 179.588 407.513 186.152 428.4 186.152C449.288 186.152 468.906 179.588 482.632 168.548Z" fill="#39294C"/>
<path d="M478.828 165.489C465.997 175.485 447.796 181.378 428.475 181.378C409.08 181.378 390.804 175.41 377.973 165.414C390.804 156.015 408.632 150.197 428.326 150.197C448.094 150.197 465.997 156.015 478.828 165.489Z" fill="#39294C"/>
<path d="M433.622 119.687L377.376 119.687L377.376 110.511L433.622 110.511L433.622 119.687Z" fill="#39294C"/>
<path d="M424.521 102.977L383.792 102.977L383.792 93.8016L424.521 93.8016L424.521 102.977Z" fill="#39294C"/>
<path d="M418.852 85.7454L390.132 85.7454L390.132 76.57L418.852 76.57L418.852 85.7454Z" fill="#39294C"/>
<path d="M412.959 67.9915L398.562 67.9915L398.562 58.8161L412.959 58.8161L412.959 67.9915Z" fill="#39294C"/>
<path d="M413.705 46.2837C413.705 49.7897 410.87 52.699 407.29 52.699C403.784 52.699 400.874 49.8643 400.874 46.2837C400.874 42.703 403.709 39.8683 407.29 39.8683C410.87 39.8683 413.705 42.7776 413.705 46.2837Z" fill="#39294C"/>
<path d="M420.493 28.3059C420.493 31.1406 418.181 33.4531 415.271 33.4531C412.437 33.4531 410.124 31.1406 410.124 28.3059C410.124 25.4713 412.437 23.0842 415.271 23.0842C418.181 23.1588 420.493 25.4713 420.493 28.3059Z" fill="#39294C"/>
<path d="M423.253 15.9229C420.792 15.9229 418.852 13.9834 418.852 11.5217C418.852 9.06003 420.792 7.1205 423.253 7.1205C425.715 7.1205 427.654 9.06004 427.654 11.5217C427.654 13.9834 425.715 15.9229 423.253 15.9229Z" fill="#39294C"/>
<path d="M433.249 1.2273C430.638 1.2273 428.475 -0.936025 428.475 -3.54691C428.475 -6.23239 430.638 -8.32111 433.249 -8.32111C435.86 -8.32111 438.023 -6.15779 438.023 -3.54691C438.023 -0.936025 435.935 1.2273 433.249 1.2273Z" fill="#39294C"/>
<path d="M355.818 241.428C371.781 257.019 404.529 265.001 404.529 265.001L354.251 265.001L355.818 241.428Z" fill="#39294C"/>
<path d="M448.541 303.12C449.66 303.12 450.481 304.015 450.481 305.059C450.481 306.178 449.586 306.999 448.541 306.999C447.497 306.999 446.602 306.104 446.602 305.059C446.527 304.015 447.423 303.12 448.541 303.12Z" fill="#39294C"/>
<path d="M485.318 291.856L440.41 332.586C440.41 332.586 410.497 309.834 336.273 291.856L485.318 291.856ZM423.477 306.178C427.058 309.312 433.249 311.326 440.187 311.326C447.795 311.326 454.434 308.864 457.866 305.283C454.509 301.703 447.795 299.241 440.187 299.241C433.174 299.241 427.058 301.33 423.477 304.388L413.183 298.42L413.183 312.146L423.477 306.178Z" fill="#39294C"/>
<path d="M511.203 662.228C506.279 664.317 501.058 665.361 495.761 665.361C479.499 665.361 464.953 655.664 458.687 640.744C454.509 630.823 454.509 619.932 458.612 610.01C462.64 600.089 470.398 592.331 480.245 588.228C485.168 586.139 490.39 585.095 495.687 585.095C511.949 585.095 526.495 594.793 532.761 609.712C536.864 619.633 536.938 630.524 532.836 640.446C528.807 650.367 521.124 658.051 511.203 662.228ZM526.943 618.664L514.932 617.097L522.243 607.474C522.168 607.4 522.168 607.325 522.094 607.25L510.457 610.383L513.59 598.672C513.441 598.597 513.366 598.523 513.217 598.448L503.594 605.833L501.953 593.823C499.864 593.375 497.775 593.152 495.612 593.152C493.449 593.152 491.211 593.375 489.122 593.823L487.556 605.833L477.933 598.522C477.858 598.597 477.783 598.597 477.709 598.672L480.842 610.383L469.13 607.25C469.056 607.399 468.981 607.474 468.906 607.623L476.291 617.172L464.281 618.813C463.386 623.065 463.461 627.391 464.356 631.643L476.366 633.21L469.056 642.833C469.13 642.908 469.13 642.982 469.205 643.057L480.916 639.924L477.783 651.635C477.933 651.71 478.007 651.784 478.156 651.859L487.779 644.474L489.42 656.484C491.509 656.932 493.598 657.155 495.761 657.155C497.924 657.155 500.162 656.932 502.251 656.484L503.818 644.474L513.441 651.785C513.515 651.71 513.59 651.71 513.664 651.635L510.531 639.924L522.243 643.057C522.318 642.907 522.392 642.833 522.467 642.684L515.082 633.135L527.092 631.494C527.838 627.242 527.838 622.916 526.943 618.664Z" fill="#39294C"/>
<path d="M495.686 641.266C486.809 641.266 479.648 634.105 479.648 625.228C479.648 616.351 486.809 609.19 495.686 609.19C504.563 609.19 511.725 616.351 511.725 625.228C511.799 634.03 504.563 641.266 495.686 641.266Z" fill="#39294C"/>
<path d="M450.929 632.166L438.769 625.153L450.929 618.141L450.929 632.166Z" fill="#39294C"/>
<path d="M468.981 661.781L455.479 665.436L459.134 651.859L468.981 661.781Z" fill="#39294C"/>
<path d="M455.479 584.946L469.056 588.601L459.134 598.522L455.479 584.946Z" fill="#39294C"/>
<path d="M473.531 677.595L471.815 663.645L484.721 669.166L473.531 677.595Z" fill="#39294C"/>
<path d="M451.749 614.188L443.32 602.998L457.195 601.283L451.749 614.188Z" fill="#39294C"/>
<path d="M456.822 648.502L442.947 646.563L451.6 635.448L456.822 648.502Z" fill="#39294C"/>
<path d="M474.352 572.414L485.392 581.067L472.412 586.289L474.352 572.414Z" fill="#39294C"/>
<path d="M495.686 698.557C455.255 698.557 422.358 665.66 422.358 625.228C422.358 584.797 455.255 551.9 495.686 551.9C536.118 551.9 569.015 584.797 569.015 625.228C569.089 665.66 536.192 698.557 495.686 698.557ZM495.686 564.879C462.416 564.879 435.412 591.958 435.412 625.154C435.412 658.424 462.491 685.428 495.686 685.428C528.956 685.428 555.96 658.349 555.96 625.154C556.035 591.958 528.956 564.879 495.686 564.879Z" fill="#39294C"/>
<path d="M614.966 633.434C586.396 700.347 546.711 751.147 500.162 780.24L495.686 783L491.211 780.24C444.662 751.147 404.977 700.347 376.407 633.434C347.463 565.551 332.171 485.807 332.171 402.632L332.171 394.277L659.128 394.277L659.128 402.632C659.202 485.732 643.91 565.551 614.966 633.434ZM391.848 626.869C418.106 688.486 453.912 735.482 495.686 763.157C537.461 735.407 573.267 688.411 599.525 626.869C612.206 597.18 622.128 565.103 629.215 531.46C621.68 536.011 611.908 541.009 600.346 544.888C575.43 553.317 537.386 558.166 496.283 533.847C473.68 547.2 451.973 551.75 432.951 551.75C417.36 551.75 403.485 548.692 392.221 544.888C379.913 540.71 369.618 535.339 362.009 530.565C369.171 564.581 379.167 596.956 391.848 626.869ZM639.285 466.114C636.003 463.503 628.543 457.908 618.622 452.313C616.16 454.626 612.878 456.118 609.223 456.118C601.763 456.118 595.646 450.075 595.646 442.541C595.646 442.317 595.646 442.168 595.721 441.944C589.156 439.706 582.592 438.065 576.102 437.021C573.789 441.273 569.313 444.182 564.166 444.182C558.497 444.182 553.648 440.676 551.634 435.753C546.338 436.126 541.041 436.797 535.819 437.991C535.521 445.226 529.553 450.97 522.318 450.97C518.14 450.97 514.485 449.106 511.949 446.196C507.249 448.36 502.624 450.896 497.999 453.805L495.164 455.595L492.33 453.805C488.003 451.12 483.602 448.733 479.201 446.644C476.739 449.329 473.158 451.045 469.205 451.045C462.043 451.045 456.15 445.45 455.703 438.364C450.481 437.17 445.185 436.349 439.814 435.976C437.8 440.825 432.951 444.257 427.281 444.257C422.06 444.257 417.509 441.273 415.271 436.946C408.781 437.916 402.292 439.483 395.727 441.646C395.727 441.944 395.802 442.317 395.802 442.616C395.802 450.075 389.685 456.192 382.225 456.192C378.495 456.192 375.138 454.7 372.677 452.239C362.979 457.983 355.743 463.876 352.237 466.86C352.759 472.23 353.356 477.601 354.028 482.898C361.86 477.452 374.616 469.694 391.102 464.099C416.017 455.595 454.062 450.821 495.164 475.14C517.767 461.787 539.475 457.162 558.497 457.162C574.088 457.162 587.963 460.22 599.227 464.025C616.458 469.843 629.737 478.124 637.345 483.569C638.091 477.825 638.763 471.932 639.285 466.114ZM359.025 515.571C365.739 520.494 378.644 528.849 395.652 534.668C429.519 546.156 462.416 542.202 493.449 522.956L496.283 521.166L499.118 522.956C530.001 542.202 562.749 546.156 596.541 534.817C612.579 529.446 625.037 521.688 632.124 516.615C633.392 509.753 634.585 502.815 635.63 495.803C630.632 491.849 616.085 481.182 595.721 474.245C561.854 462.757 528.957 466.71 497.924 485.956L495.09 487.747L492.255 485.956C461.372 466.71 428.624 462.757 394.832 474.095C375.586 480.585 361.487 490.432 355.594 494.982C356.638 501.92 357.832 508.783 359.025 515.571ZM349.03 411.061C349.179 425.085 349.85 438.96 350.894 452.686C354.848 449.702 360.89 445.599 368.648 441.497C369.171 434.485 374.989 428.964 382.15 428.964C385.358 428.964 388.267 430.083 390.58 431.874C390.729 431.799 390.878 431.799 391.027 431.724C397.89 429.412 405.798 427.323 414.451 426.055C416.316 420.759 421.314 416.954 427.281 416.954C432.876 416.954 437.65 420.311 439.739 425.085C446.005 425.533 452.57 426.428 459.283 428.069C461.745 425.384 465.251 423.743 469.205 423.743C476.366 423.743 482.185 429.263 482.707 436.275C486.81 438.14 490.987 440.303 495.164 442.765C499.789 440.005 504.34 437.692 508.816 435.678C509.636 428.964 515.38 423.743 522.318 423.743C526.122 423.743 529.553 425.309 532.015 427.845C538.803 426.279 545.442 425.384 551.783 425.011C553.872 420.237 558.646 416.954 564.166 416.954C570.134 416.954 575.281 420.833 577.071 426.279C585.202 427.547 592.662 429.487 599.227 431.725C599.674 431.874 600.122 432.023 600.495 432.172C602.882 430.158 605.94 428.964 609.223 428.964C616.608 428.964 622.575 434.858 622.799 442.168C630.706 446.495 636.749 450.747 640.479 453.581C641.598 439.557 642.269 425.384 642.418 411.061L349.03 411.061V411.061Z" fill="#39294C"/>
<path d="M489.719 504.009C487.63 506.619 485.243 509.081 482.632 511.394C468.906 500.353 449.287 493.789 428.4 493.789C407.513 493.789 387.82 500.353 374.094 511.468C371.408 509.156 369.021 506.694 366.933 504.009C379.092 488.642 401.993 478.273 428.326 478.273C454.658 478.273 477.559 488.642 489.719 504.009Z" fill="#39294C"/>
<path d="M478.828 514.452C465.997 523.926 448.169 529.744 428.326 529.744C408.632 529.744 390.804 523.926 377.973 514.527C390.804 504.531 409.005 498.563 428.475 498.563C447.796 498.563 465.997 504.456 478.828 514.452Z" fill="#39294C"/>
<path d="M433.622 569.355L377.376 569.355L377.376 560.18L433.622 560.18L433.622 569.355Z" fill="#39294C"/>
<path d="M424.521 586.139L383.792 586.139L383.792 576.964L424.521 576.964L424.521 586.139Z" fill="#39294C"/>
<path d="M418.852 603.297L390.132 603.297L390.132 594.121L418.852 594.121L418.852 603.297Z" fill="#39294C"/>
<path d="M412.959 621.051L398.562 621.051L398.562 611.875L412.959 611.875L412.959 621.051Z" fill="#39294C"/>
<path d="M470.771 733.766C462.416 724.964 441.231 698.631 441.231 698.631C450.033 701.839 476.739 708.179 476.739 708.179C465.997 717.802 470.771 733.766 470.771 733.766Z" fill="#39294C"/>
<path d="M407.29 627.242C410.796 627.242 413.705 630.077 413.705 633.657C413.705 637.163 410.87 640.073 407.29 640.073C403.784 640.073 400.874 637.238 400.874 633.657C400.949 630.077 403.784 627.242 407.29 627.242Z" fill="#39294C"/>
<path d="M415.271 646.414C418.106 646.414 420.493 648.726 420.493 651.635C420.493 654.47 418.18 656.857 415.271 656.857C412.437 656.857 410.124 654.545 410.124 651.635C410.124 648.726 412.437 646.414 415.271 646.414Z" fill="#39294C"/>
<path d="M423.253 663.944C425.715 663.944 427.654 665.883 427.654 668.345C427.654 670.807 425.715 672.746 423.253 672.746C420.792 672.746 418.852 670.807 418.852 668.345C418.927 665.958 420.866 663.944 423.253 663.944Z" fill="#39294C"/>
<path d="M433.249 678.714C435.86 678.714 438.023 680.877 438.023 683.488C438.023 686.099 435.86 688.262 433.249 688.262C430.638 688.262 428.475 686.099 428.475 683.488C428.475 680.877 430.638 678.714 433.249 678.714Z" fill="#39294C"/>
<path d="M354.251 414.94L404.529 414.94C404.529 414.94 371.781 422.922 355.818 438.513L354.251 414.94Z" fill="#39294C"/>
<path d="M448.541 372.868C449.66 372.868 450.481 373.763 450.481 374.807C450.481 375.926 449.586 376.747 448.541 376.747C447.497 376.747 446.602 375.852 446.602 374.807C446.527 373.688 447.423 372.868 448.541 372.868Z" fill="#39294C"/>
<path d="M440.485 347.356L485.392 388.085L336.273 388.085C410.497 370.033 440.485 347.356 440.485 347.356ZM423.477 375.553C427.058 378.686 433.249 380.7 440.187 380.7C447.795 380.7 454.435 378.239 457.866 374.658C454.509 371.077 447.795 368.616 440.187 368.616C433.175 368.616 427.058 370.704 423.477 373.763L413.183 367.795L413.183 381.521L423.477 375.553Z" fill="#39294C"/>
<path d="M191.482 606.728C191.034 607.325 148.29 667.897 147.395 743.688L135.46 743.538C136.206 681.026 163.284 629.48 175.742 609.115C129.716 607.922 91.9699 599.567 77.6473 595.912C61.236 666.405 11.9277 739.212 9.76436 742.419L-0.156982 735.631C0.365195 734.885 52.8812 657.305 67.2784 587.333L68.5465 580.992L74.8126 582.783C75.3348 582.932 125.464 597.329 186.708 597.329L198.345 597.329L191.482 606.728Z" fill="#39294C"/>
<path d="M108.53 701.69L134.714 692.29L115.318 672.373L142.322 665.51L124.643 643.952L152.169 639.401L136.131 616.649L164.03 614.113L152.244 639.551L142.397 665.585L134.788 692.44L134.788 692.365L129.865 719.817L127.105 747.492L104.353 731.23L129.79 719.742L108.53 701.69Z" fill="#39294C"/>
<path d="M103.383 625.079L76.1553 631.494L84.2117 604.639L103.383 625.079Z" fill="#39294C"/>
<path d="M93.9095 653.127L66.2341 657.678L76.1555 631.494L93.9095 653.127Z" fill="#39294C"/>
<path d="M81.4518 681.175L53.478 682.593L66.2341 657.678L81.4518 681.175Z" fill="#39294C"/>
<path d="M68.621 706.091L40.6472 707.434L53.4778 682.593L68.621 706.091Z" fill="#39294C"/>
<path d="M54.0002 732.125L25.9519 731.304L40.6474 707.434L54.0002 732.125Z" fill="#39294C"/>
<path d="M117.929 615.158C122.032 615.158 125.389 618.514 125.389 622.617C125.389 626.72 122.032 630.077 117.929 630.077C113.827 630.077 110.47 626.72 110.47 622.617C110.395 618.514 113.752 615.158 117.929 615.158Z" fill="#39294C"/>
<path d="M112.633 647.309C116.753 647.309 120.093 650.649 120.093 654.768C120.093 658.888 116.753 662.228 112.633 662.228C108.513 662.228 105.173 658.888 105.173 654.768C105.173 650.649 108.513 647.309 112.633 647.309Z" fill="#39294C"/>
<path d="M91.6713 665.286C95.7912 665.286 99.131 668.626 99.131 672.746C99.131 676.866 95.7912 680.206 91.6713 680.206C87.5515 680.206 84.2117 676.866 84.2117 672.746C84.2117 668.626 87.5515 665.286 91.6713 665.286Z" fill="#39294C"/>
<path d="M93.9838 692.962C98.1037 692.962 101.443 696.302 101.443 700.421C101.443 704.541 98.1037 707.881 93.9838 707.881C89.864 707.881 86.5242 704.541 86.5242 700.421C86.5242 696.302 89.864 692.962 93.9838 692.962Z" fill="#39294C"/>
<path d="M225.349 606.728C225.796 607.325 268.54 667.897 269.435 743.688L281.445 743.538C280.699 681.026 253.621 629.48 241.163 609.115C287.189 607.922 324.935 599.567 339.258 595.912C355.669 666.405 404.977 739.212 407.141 742.419L417.062 735.631C416.54 734.885 364.024 657.305 349.627 587.333L348.359 580.992L342.167 582.783C341.645 582.932 291.516 597.329 230.272 597.329L218.635 597.329L225.349 606.728Z" fill="#39294C"/>
<path d="M308.3 701.69L282.117 692.29L301.512 672.373L274.508 665.51L292.187 643.952L264.661 639.401L280.625 616.649L252.8 614.113L264.587 639.551L274.433 665.585L281.968 692.44L282.042 692.365L286.966 719.817L289.726 747.492L312.478 731.23L287.04 719.742L308.3 701.69Z" fill="#39294C"/>
<path d="M313.447 625.079L340.675 631.494L332.619 604.639L313.447 625.079Z" fill="#39294C"/>
<path d="M322.921 653.127L350.596 657.678L340.675 631.494L322.921 653.127Z" fill="#39294C"/>
<path d="M335.379 681.176L363.352 682.593L350.596 657.678L335.379 681.176Z" fill="#39294C"/>
<path d="M348.209 706.091L376.109 707.434L363.353 682.593L348.209 706.091Z" fill="#39294C"/>
<path d="M362.83 732.125L390.804 731.304L376.109 707.434L362.83 732.125Z" fill="#39294C"/>
<path d="M298.901 615.158C294.798 615.158 291.441 618.514 291.441 622.617C291.441 626.72 294.798 630.077 298.901 630.077C303.004 630.077 306.361 626.72 306.361 622.617C306.435 618.514 303.078 615.158 298.901 615.158Z" fill="#39294C"/>
<path d="M304.197 647.309C308.317 647.309 311.657 650.649 311.657 654.768C311.657 658.888 308.317 662.228 304.197 662.228C300.078 662.228 296.738 658.888 296.738 654.768C296.738 650.649 300.078 647.309 304.197 647.309Z" fill="#39294C"/>
<path d="M325.159 665.286C329.279 665.286 332.619 668.626 332.619 672.746C332.619 676.866 329.279 680.206 325.159 680.206C321.039 680.206 317.699 676.866 317.699 672.746C317.699 668.626 321.039 665.286 325.159 665.286Z" fill="#39294C"/>
<path d="M322.846 692.962C326.966 692.962 330.306 696.302 330.306 700.421C330.306 704.541 326.966 707.881 322.846 707.881C318.727 707.881 315.387 704.541 315.387 700.421C315.387 696.302 318.727 692.962 322.846 692.962Z" fill="#39294C"/>
<path d="M216.099 683.414C213.488 682.966 210.653 682.742 207.669 682.742C205.207 682.742 202.895 682.891 200.732 683.19C202.82 668.867 205.133 643.579 200.508 618.589C204.461 614.113 207.669 611.577 207.669 611.577C207.669 611.577 211.474 614.635 216.024 619.932C211.772 644.623 214.01 669.464 216.099 683.414Z" fill="#39294C"/>
<path d="M196.107 684.085C176.935 688.561 167.312 702.958 167.312 702.958C165.074 677.52 189.766 673.045 189.766 673.045C189.766 673.045 189.095 672 188.199 670.135C182.381 673.268 169.476 679.684 167.536 675.059C165.373 669.911 175.966 658.274 185.962 664.018C184.47 658.424 183.724 650.591 186.707 641.639C189.095 634.403 192.974 628.137 196.703 623.289C200.508 647.309 198.046 671.105 196.107 684.085Z" fill="#39294C"/>
<path d="M249.294 674.984C247.205 679.908 232.51 672.224 227.512 669.464C226.542 671.702 225.647 672.97 225.647 672.97C225.647 672.97 250.338 677.446 248.101 702.883C248.101 702.883 239 689.232 220.798 684.383C218.859 671.851 216.397 648.502 219.828 624.706C223.185 629.331 226.542 635 228.705 641.49C231.913 651.113 230.794 659.393 229.153 665.063C239.522 656.857 251.532 669.613 249.294 674.984Z" fill="#39294C"/>
<path d="M232.883 704.599C232.883 697.587 221.917 691.917 208.415 691.917C194.913 691.917 183.948 697.587 183.948 704.599C183.948 711.611 194.913 717.28 208.415 717.28C221.917 717.28 232.883 711.611 232.883 704.599Z" fill="#39294C"/>
<path d="M210.423 112.225C210.871 111.628 253.614 51.056 254.51 -24.7342L266.445 -24.585C265.699 37.927 238.621 89.4733 226.163 109.838C272.189 111.032 309.935 119.387 324.257 123.042C340.669 52.548 389.977 -20.2583 392.14 -23.466L402.062 -16.6777C401.54 -15.9317 349.024 61.6487 334.626 131.62L333.358 137.961L327.092 136.171C326.57 136.022 276.441 121.624 215.197 121.624L203.56 121.624L210.423 112.225Z" fill="#39294C"/>
<path d="M293.375 17.2638L267.191 26.6629L286.586 46.5802L259.582 53.4431L277.262 75.0015L249.736 79.5519L265.774 102.304L237.875 104.84L249.661 79.4027L259.508 53.3685L267.117 26.5137L267.117 26.5883L272.04 -0.863232L274.8 -28.5386L297.552 -12.2765L272.115 -0.788631L293.375 17.2638Z" fill="#39294C"/>
<path d="M298.522 93.8745L325.75 87.4592L317.693 114.314L298.522 93.8745Z" fill="#39294C"/>
<path d="M307.995 65.826L335.671 61.2756L325.749 87.4591L307.995 65.826Z" fill="#39294C"/>
<path d="M320.453 37.7777L348.427 36.3604L335.671 61.2756L320.453 37.7777Z" fill="#39294C"/>
<path d="M333.284 12.8625L361.258 11.5198L348.427 36.3605L333.284 12.8625Z" fill="#39294C"/>
<path d="M347.905 -13.1716L375.953 -12.3511L361.257 11.5199L347.905 -13.1716Z" fill="#39294C"/>
<path d="M283.975 103.796C279.873 103.796 276.516 100.439 276.516 96.3361C276.516 92.2333 279.873 88.8765 283.975 88.8765C288.078 88.8765 291.435 92.2333 291.435 96.3361C291.51 100.439 288.153 103.796 283.975 103.796Z" fill="#39294C"/>
<path d="M289.272 71.6447C285.152 71.6447 281.812 68.3049 281.812 64.185C281.812 60.0651 285.152 56.7253 289.272 56.7253C293.392 56.7253 296.731 60.0651 296.731 64.185C296.731 68.3049 293.392 71.6447 289.272 71.6447Z" fill="#39294C"/>
<path d="M310.233 53.6669C306.114 53.6669 302.774 50.3271 302.774 46.2072C302.774 42.0874 306.114 38.7476 310.233 38.7476C314.353 38.7476 317.693 42.0874 317.693 46.2072C317.693 50.3271 314.353 53.6669 310.233 53.6669Z" fill="#39294C"/>
<path d="M307.921 25.9916C303.801 25.9916 300.461 22.6518 300.461 18.5319C300.461 14.4121 303.801 11.0723 307.921 11.0723C312.041 11.0723 315.381 14.4121 315.381 18.5319C315.381 22.6518 312.041 25.9916 307.921 25.9916Z" fill="#39294C"/>
<path d="M330.374 6.52186C326.254 6.52186 322.915 3.18206 322.915 -0.937801C322.915 -5.05766 326.254 -8.39746 330.374 -8.39746C334.494 -8.39746 337.834 -5.05766 337.834 -0.937799C337.834 3.18206 334.494 6.52186 330.374 6.52186Z" fill="#39294C"/>
<path d="M176.556 112.225C176.108 111.629 133.365 51.056 132.469 -24.7341L120.459 -24.5849C121.205 37.927 148.284 89.4733 160.742 109.838C114.715 111.032 76.9696 119.387 62.647 123.042C46.2358 52.548 -3.07256 -20.2584 -5.23586 -23.466L-15.1573 -16.6777C-14.6351 -15.9318 37.881 61.6487 52.2781 131.62L53.5462 137.961L59.7378 136.171C60.2599 136.022 110.389 121.624 171.633 121.624L183.27 121.624L176.556 112.225Z" fill="#39294C"/>
<path d="M93.6046 17.2637L119.788 26.6629L100.393 46.5802L127.397 53.4431L109.717 75.0015L137.244 79.5519L121.28 102.304L149.104 104.84L137.318 79.4028L127.471 53.3685L119.937 26.5137L119.863 26.5883L114.939 -0.863233L112.179 -28.5386L89.4272 -12.2765L114.865 -0.788632L93.6046 17.2637Z" fill="#39294C"/>
<path d="M88.4575 93.8745L61.2298 87.4592L69.2862 114.314L88.4575 93.8745Z" fill="#39294C"/>
<path d="M78.9836 65.826L51.3083 61.2756L61.2297 87.4591L78.9836 65.826Z" fill="#39294C"/>
<path d="M66.5259 37.7777L38.5521 36.3603L51.3082 61.2756L66.5259 37.7777Z" fill="#39294C"/>
<path d="M53.6953 12.8625L25.7962 11.5198L38.5522 36.3605L53.6953 12.8625Z" fill="#39294C"/>
<path d="M39.0745 -13.1716L11.1007 -12.3511L25.7963 11.5199L39.0745 -13.1716Z" fill="#39294C"/>
<path d="M103.004 103.796C107.107 103.796 110.463 100.439 110.463 96.3361C110.463 92.2333 107.107 88.8765 103.004 88.8765C98.9009 88.8765 95.5441 92.2333 95.5441 96.3361C95.4695 100.439 98.8263 103.796 103.004 103.796Z" fill="#39294C"/>
<path d="M97.7073 71.6447C93.5875 71.6447 90.2477 68.3049 90.2477 64.185C90.2477 60.0651 93.5875 56.7253 97.7073 56.7253C101.827 56.7253 105.167 60.0651 105.167 64.185C105.167 68.3049 101.827 71.6447 97.7073 71.6447Z" fill="#39294C"/>
<path d="M76.7457 53.6669C72.6258 53.6669 69.286 50.3271 69.286 46.2072C69.286 42.0874 72.6258 38.7476 76.7457 38.7476C80.8655 38.7476 84.2053 42.0874 84.2053 46.2072C84.2053 50.3271 80.8655 53.6669 76.7457 53.6669Z" fill="#39294C"/>
<path d="M79.0584 25.9916C74.9385 25.9916 71.5987 22.6518 71.5987 18.5319C71.5987 14.4121 74.9385 11.0723 79.0584 11.0723C83.1783 11.0723 86.5181 14.4121 86.5181 18.5319C86.5181 22.6518 83.1783 25.9916 79.0584 25.9916Z" fill="#39294C"/>
<path d="M56.6048 6.52186C52.4849 6.52186 49.1451 3.18206 49.1451 -0.937801C49.1451 -5.05766 52.4849 -8.39746 56.6048 -8.39746C60.7246 -8.39746 64.0645 -5.05766 64.0645 -0.937799C64.0645 3.18206 60.7246 6.52186 56.6048 6.52186Z" fill="#39294C"/>
<path d="M185.806 35.5398C188.417 35.9874 191.252 36.2112 194.236 36.2112C196.697 36.2112 199.01 36.062 201.173 35.7636C199.084 50.0861 196.772 75.3744 201.397 100.364C197.443 104.84 194.236 107.376 194.236 107.376C194.236 107.376 190.431 104.318 185.881 99.0215C190.133 74.33 187.895 49.4894 185.806 35.5398Z" fill="#39294C"/>
<path d="M205.798 34.8685C224.969 30.3928 234.592 15.9956 234.592 15.9956C236.83 41.4331 212.139 45.9088 212.139 45.9088C212.139 45.9088 212.81 46.9532 213.705 48.8181C219.524 45.6851 232.429 39.2697 234.369 43.8947C236.532 49.0419 225.939 60.679 215.943 54.935C217.435 60.5298 218.181 68.3624 215.197 77.314C212.81 84.5499 208.931 90.816 205.201 95.6648C201.397 71.6447 203.859 47.8484 205.798 34.8685Z" fill="#39294C"/>
<path d="M152.611 43.9692C154.699 39.0458 169.395 46.7293 174.393 49.4894C175.363 47.2515 176.258 45.9833 176.258 45.9833C176.258 45.9833 151.566 41.5075 153.804 16.0701C153.804 16.0701 162.905 29.7212 181.107 34.57C183.046 47.1023 185.508 70.451 182.076 94.2473C178.72 89.6223 175.363 83.953 173.199 77.4631C169.992 67.8401 171.111 59.5599 172.752 53.8906C162.383 62.0962 150.373 49.3402 152.611 43.9692Z" fill="#39294C"/>
<path d="M169.022 14.3545C169.022 21.3666 179.988 27.0359 193.49 27.0359C206.992 27.0359 217.957 21.3666 217.957 14.3545C217.957 7.34244 206.992 1.67309 193.49 1.67309C179.988 1.67309 169.022 7.34243 169.022 14.3545Z" fill="#39294C"/>
</g>
<defs>
<clipPath id="clip0_222_1701">
<rect width="776" height="714" fill="white" transform="matrix(1 8.74228e-08 8.74228e-08 -1 0 714)"/>
</clipPath>
</defs>
</svg>
