<svg width="1440" height="1210" viewBox="0 0 1440 1210" fill="none" xmlns="http://www.w3.org/2000/svg">
<g style="mix-blend-mode:multiply" opacity="0.16" clip-path="url(#clip0_211_13)">
<path d="M1339.41 1210.46L1347.55 1210.36C1347.04 1167.75 1328.58 1132.61 1320.08 1118.72C1351.46 1117.91 1377.19 1112.21 1386.96 1109.72C1398.15 1157.78 1431.76 1207.41 1433.24 1209.6L1440 1204.97C1439.64 1204.46 1403.84 1151.58 1394.03 1103.87L1393.16 1099.55L1388.89 1100.77C1388.54 1100.87 1354.36 1110.69 1312.61 1110.69L1304.68 1110.69L1309.3 1117.15C1309.61 1117.55 1338.8 1158.85 1339.41 1210.46Z" fill="#8F4233"/>
<path d="M1365.9 1181.88L1348.05 1175.48L1361.28 1161.85L1342.87 1157.17L1354.87 1142.52L1336.1 1139.42L1347.04 1123.86L1328.02 1122.18L1336.05 1139.47L1342.77 1157.27L1342.82 1157.27L1347.95 1175.53L1351.31 1194.19L1351.36 1194.19L1353.19 1213.11L1368.7 1201.97L1351.41 1194.14L1365.9 1181.88Z" fill="#8F4233"/>
<path d="M1369.36 1129.61L1387.98 1133.98L1382.43 1115.72L1369.36 1129.61Z" fill="#8F4233"/>
<path d="M1375.87 1148.78L1394.69 1151.83L1387.98 1133.98L1375.87 1148.78Z" fill="#8F4233"/>
<path d="M1384.37 1167.9L1403.44 1168.81L1394.69 1151.83L1384.37 1167.9Z" fill="#8F4233"/>
<path d="M1393.06 1184.89L1412.13 1185.8L1403.44 1168.82L1393.06 1184.89Z" fill="#8F4233"/>
<path d="M1403.08 1202.58L1422.15 1202.07L1412.13 1185.8L1403.08 1202.58Z" fill="#8F4233"/>
<path d="M1359.5 1122.89C1356.69 1122.89 1354.41 1125.17 1354.41 1127.98C1354.41 1130.79 1356.69 1133.06 1359.5 1133.06C1362.31 1133.06 1364.58 1130.79 1364.58 1127.98C1364.58 1125.17 1362.31 1122.89 1359.5 1122.89Z" fill="#8F4233"/>
<path d="M1363.06 1144.81C1360.25 1144.81 1357.97 1147.09 1357.97 1149.9C1357.97 1152.71 1360.25 1154.98 1363.06 1154.98C1365.87 1154.98 1368.14 1152.71 1368.14 1149.9C1368.14 1147.09 1365.87 1144.81 1363.06 1144.81Z" fill="#8F4233"/>
<path d="M1373.76 1158.55C1371.78 1160.54 1371.78 1163.76 1373.76 1165.75C1375.75 1167.73 1378.97 1167.73 1380.95 1165.75C1382.94 1163.76 1382.94 1160.54 1380.95 1158.55C1378.97 1156.57 1375.75 1156.57 1373.76 1158.55Z" fill="#8F4233"/>
<path d="M1374.65 1176.07C1371.92 1176.72 1370.23 1179.46 1370.87 1182.19C1371.52 1184.93 1374.26 1186.62 1376.99 1185.97C1379.72 1185.33 1381.42 1182.59 1380.77 1179.86C1380.13 1177.12 1377.39 1175.43 1374.65 1176.07Z" fill="#8F4233"/>
<path d="M1391.13 1189.21C1388.32 1189.21 1386.04 1191.48 1386.04 1194.29C1386.04 1197.1 1388.32 1199.38 1391.13 1199.38C1393.94 1199.38 1396.21 1197.1 1396.21 1194.29C1396.21 1191.48 1393.94 1189.21 1391.13 1189.21Z" fill="#8F4233"/>
<path d="M1162.33 1209.6C1163.81 1207.46 1197.42 1157.78 1208.61 1109.72C1218.43 1112.21 1244.11 1117.91 1275.49 1118.72C1266.99 1132.66 1248.53 1167.75 1248.02 1210.36L1256.21 1210.46C1256.82 1158.85 1286.01 1117.55 1286.27 1117.1L1290.89 1110.64L1282.96 1110.64C1241.21 1110.64 1207.03 1100.82 1206.68 1100.72L1202.46 1099.5L1201.59 1103.82C1191.73 1151.58 1155.93 1204.46 1155.57 1204.97L1162.33 1209.6Z" fill="#8F4233"/>
<path d="M1252.8 1157.27L1259.52 1139.47L1267.55 1122.18L1248.53 1123.86L1259.47 1139.42L1240.7 1142.52L1252.7 1157.17L1234.29 1161.85L1247.52 1175.48L1229.67 1181.88L1244.16 1194.14L1226.87 1201.97L1242.38 1213.11L1244.26 1194.19L1247.62 1175.53L1252.75 1157.27L1252.8 1157.27Z" fill="#8F4233"/>
<path d="M1207.65 1133.98L1226.21 1129.61L1213.14 1115.72L1207.65 1133.98Z" fill="#8F4233"/>
<path d="M1219.7 1148.78L1207.65 1133.98L1200.88 1151.83L1219.7 1148.78Z" fill="#8F4233"/>
<path d="M1211.2 1167.9L1200.88 1151.83L1192.19 1168.81L1211.2 1167.9Z" fill="#8F4233"/>
<path d="M1202.51 1184.89L1192.19 1168.82L1183.44 1185.8L1202.51 1184.89Z" fill="#8F4233"/>
<path d="M1192.49 1202.58L1183.44 1185.8L1173.42 1202.07L1192.49 1202.58Z" fill="#8F4233"/>
<path d="M1231.05 1127.34C1230.7 1130.13 1232.69 1132.67 1235.47 1133.01C1238.26 1133.35 1240.8 1131.37 1241.14 1128.59C1241.49 1125.8 1239.5 1123.26 1236.72 1122.92C1233.93 1122.57 1231.39 1124.55 1231.05 1127.34Z" fill="#8F4233"/>
<path d="M1232.51 1144.81C1229.7 1144.81 1227.43 1147.09 1227.43 1149.9C1227.43 1152.71 1229.7 1154.98 1232.51 1154.98C1235.32 1154.98 1237.6 1152.71 1237.6 1149.9C1237.6 1147.09 1235.32 1144.81 1232.51 1144.81Z" fill="#8F4233"/>
<path d="M1217.07 1157.22C1214.33 1157.86 1212.64 1160.6 1213.29 1163.33C1213.93 1166.07 1216.67 1167.76 1219.4 1167.11C1222.14 1166.47 1223.83 1163.73 1223.18 1161C1222.54 1158.26 1219.8 1156.57 1217.07 1157.22Z" fill="#8F4233"/>
<path d="M1218.59 1176.08C1215.86 1176.73 1214.16 1179.47 1214.81 1182.2C1215.45 1184.94 1218.19 1186.63 1220.93 1185.98C1223.66 1185.34 1225.35 1182.6 1224.71 1179.87C1224.06 1177.13 1221.32 1175.44 1218.59 1176.08Z" fill="#8F4233"/>
<path d="M1204.44 1189.21C1201.63 1189.21 1199.36 1191.48 1199.36 1194.29C1199.36 1197.1 1201.63 1199.38 1204.44 1199.38C1207.25 1199.38 1209.53 1197.1 1209.53 1194.29C1209.53 1191.48 1207.25 1189.21 1204.44 1189.21Z" fill="#8F4233"/>
<path d="M1298.27 1168.97C1299.95 1168.97 1301.52 1169.07 1303 1169.27C1301.57 1159.51 1300 1142.27 1303.15 1125.23C1300.45 1122.18 1298.27 1120.45 1298.27 1120.45C1298.27 1120.45 1295.67 1122.54 1292.57 1126.15C1295.47 1142.98 1293.95 1159.86 1292.52 1169.37C1294.35 1169.12 1296.23 1168.97 1298.27 1168.97Z" fill="#8F4233"/>
<path d="M1325.83 1182.7C1327.36 1165.36 1310.52 1162.31 1310.52 1162.31C1310.52 1162.31 1310.98 1161.59 1311.59 1160.32C1315.56 1162.46 1324.36 1166.83 1325.68 1163.68C1327.15 1160.17 1319.93 1152.24 1313.12 1156.15C1314.13 1152.34 1314.64 1147 1312.61 1140.9C1310.98 1135.96 1308.34 1131.69 1305.79 1128.39C1303.25 1144.81 1304.93 1161.03 1306.25 1169.88C1319.27 1172.88 1325.83 1182.7 1325.83 1182.7Z" fill="#8F4233"/>
<path d="M1283.98 1140.9C1281.79 1147.46 1282.55 1153.1 1283.67 1156.97C1276.55 1151.32 1268.37 1160.02 1269.89 1163.68C1271.32 1167.04 1281.33 1161.8 1284.74 1159.92C1285.4 1161.44 1286.01 1162.31 1286.01 1162.31C1286.01 1162.31 1269.18 1165.36 1270.7 1182.7C1270.7 1182.7 1276.91 1173.39 1289.32 1170.09C1290.64 1161.54 1292.32 1145.63 1289.98 1129.4C1287.74 1132.61 1285.45 1136.47 1283.98 1140.9Z" fill="#8F4233"/>
<path d="M1297.81 1175.22C1288.61 1175.22 1281.13 1179.09 1281.13 1183.87C1281.13 1188.65 1288.61 1192.51 1297.81 1192.51C1307.02 1192.51 1314.49 1188.65 1314.49 1183.87C1314.49 1179.09 1307.02 1175.22 1297.81 1175.22Z" fill="#8F4233"/>
<path d="M1050.61 1210.46L1058.74 1210.36C1058.23 1167.75 1039.77 1132.61 1031.28 1118.72C1062.66 1117.91 1088.39 1112.21 1098.16 1109.72C1109.34 1157.78 1142.96 1207.41 1144.43 1209.6L1151.2 1204.97C1150.84 1204.46 1115.04 1151.58 1105.22 1103.87L1104.36 1099.55L1100.09 1100.77C1099.73 1100.87 1065.56 1110.69 1023.81 1110.69L1015.87 1110.69L1020.5 1117.15C1020.81 1117.55 1050 1158.85 1050.61 1210.46Z" fill="#8F4233"/>
<path d="M1077.1 1181.88L1059.25 1175.48L1072.47 1161.85L1054.06 1157.17L1066.07 1142.52L1047.3 1139.42L1058.23 1123.86L1039.21 1122.18L1047.25 1139.47L1053.96 1157.27L1054.01 1157.27L1059.15 1175.53L1062.51 1194.19L1062.56 1194.19L1064.39 1213.11L1079.9 1201.97L1062.61 1194.14L1077.1 1181.88Z" fill="#8F4233"/>
<path d="M1080.56 1129.61L1099.17 1133.98L1093.63 1115.72L1080.56 1129.61Z" fill="#8F4233"/>
<path d="M1087.07 1148.78L1105.89 1151.83L1099.17 1133.98L1087.07 1148.78Z" fill="#8F4233"/>
<path d="M1095.56 1167.9L1114.63 1168.81L1105.89 1151.83L1095.56 1167.9Z" fill="#8F4233"/>
<path d="M1104.26 1184.88L1123.33 1185.8L1114.63 1168.81L1104.26 1184.88Z" fill="#8F4233"/>
<path d="M1114.28 1202.58L1133.35 1202.07L1123.33 1185.8L1114.28 1202.58Z" fill="#8F4233"/>
<path d="M1070.69 1122.84C1067.9 1122.84 1065.61 1125.13 1065.61 1127.93C1065.61 1130.72 1067.9 1133.01 1070.69 1133.01C1073.49 1133.01 1075.78 1130.72 1075.78 1127.93C1075.78 1125.13 1073.49 1122.84 1070.69 1122.84Z" fill="#8F4233"/>
<path d="M1074.25 1144.81C1071.44 1144.81 1069.17 1147.09 1069.17 1149.9C1069.17 1152.71 1071.44 1154.98 1074.25 1154.98C1077.06 1154.98 1079.34 1152.71 1079.34 1149.9C1079.34 1147.09 1077.06 1144.81 1074.25 1144.81Z" fill="#8F4233"/>
<path d="M1088.54 1157.07C1085.73 1157.07 1083.46 1159.34 1083.46 1162.15C1083.46 1164.96 1085.73 1167.24 1088.54 1167.24C1091.35 1167.24 1093.63 1164.96 1093.63 1162.15C1093.63 1159.34 1091.35 1157.07 1088.54 1157.07Z" fill="#8F4233"/>
<path d="M1087.02 1175.93C1084.22 1175.93 1081.93 1178.22 1081.93 1181.02C1081.93 1183.82 1084.22 1186.11 1087.02 1186.11C1089.81 1186.11 1092.1 1183.82 1092.1 1181.02C1092.1 1178.22 1089.81 1175.93 1087.02 1175.93Z" fill="#8F4233"/>
<path d="M1102.33 1189.21C1099.52 1189.21 1097.24 1191.48 1097.24 1194.29C1097.24 1197.1 1099.52 1199.38 1102.33 1199.38C1105.13 1199.38 1107.41 1197.1 1107.41 1194.29C1107.41 1191.48 1105.13 1189.21 1102.33 1189.21Z" fill="#8F4233"/>
<path d="M873.53 1209.6C875.005 1207.46 908.62 1157.78 919.808 1109.72C929.623 1112.21 955.304 1117.91 986.682 1118.72C978.189 1132.66 959.729 1167.75 959.22 1210.36L967.408 1210.46C968.018 1158.85 997.209 1117.55 997.463 1117.1L1002.09 1110.64L994.157 1110.64C952.406 1110.64 918.231 1100.82 917.875 1100.72L913.654 1099.5L912.79 1103.82C902.924 1151.58 867.123 1204.46 866.767 1204.97L873.53 1209.6Z" fill="#8F4233"/>
<path d="M964.001 1157.27L970.713 1139.47L978.748 1122.18L959.729 1123.86L970.663 1139.42L951.897 1142.52L963.899 1157.17L945.489 1161.85L958.712 1175.48L940.862 1181.88L955.355 1194.14L938.065 1201.97L953.575 1213.11L955.457 1194.19L958.813 1175.53L964.001 1157.27Z" fill="#8F4233"/>
<path d="M918.842 1133.98L937.404 1129.61L924.334 1115.72L918.842 1133.98Z" fill="#8F4233"/>
<path d="M930.894 1148.78L918.842 1133.98L912.078 1151.83L930.894 1148.78Z" fill="#8F4233"/>
<path d="M922.401 1167.9L912.078 1151.83L903.382 1168.81L922.401 1167.9Z" fill="#8F4233"/>
<path d="M913.705 1184.88L903.382 1168.81L894.635 1185.8L913.705 1184.88Z" fill="#8F4233"/>
<path d="M903.687 1202.58L894.635 1185.8L884.617 1202.07L903.687 1202.58Z" fill="#8F4233"/>
<path d="M952.355 1127.98C952.355 1125.18 950.066 1122.89 947.269 1122.89C944.472 1122.89 942.184 1125.18 942.184 1127.98C942.184 1130.78 944.472 1133.06 947.269 1133.06C950.117 1133.06 952.355 1130.78 952.355 1127.98Z" fill="#8F4233"/>
<path d="M943.71 1144.81C940.901 1144.81 938.624 1147.09 938.624 1149.9C938.624 1152.71 940.901 1154.98 943.71 1154.98C946.518 1154.98 948.795 1152.71 948.795 1149.9C948.795 1147.09 946.518 1144.81 943.71 1144.81Z" fill="#8F4233"/>
<path d="M928.599 1157.14C925.827 1157.59 923.944 1160.2 924.394 1162.98C924.844 1165.75 927.456 1167.63 930.229 1167.18C933.001 1166.73 934.884 1164.12 934.434 1161.35C933.984 1158.57 931.372 1156.69 928.599 1157.14Z" fill="#8F4233"/>
<path d="M930.945 1175.93C928.136 1175.93 925.86 1178.21 925.86 1181.02C925.86 1183.83 928.136 1186.11 930.945 1186.11C933.754 1186.11 936.031 1183.83 936.031 1181.02C936.031 1178.21 933.754 1175.93 930.945 1175.93Z" fill="#8F4233"/>
<path d="M915.638 1189.21C912.829 1189.21 910.552 1191.48 910.552 1194.29C910.552 1197.1 912.829 1199.38 915.638 1199.38C918.446 1199.38 920.723 1197.1 920.723 1194.29C920.723 1191.48 918.446 1189.21 915.638 1189.21Z" fill="#8F4233"/>
<path d="M1009.46 1168.97C1011.14 1168.97 1012.72 1169.07 1014.19 1169.27C1012.77 1159.51 1011.19 1142.27 1014.35 1125.23C1011.65 1122.18 1009.46 1120.45 1009.46 1120.45C1009.46 1120.45 1006.87 1122.54 1003.77 1126.15C1006.67 1142.98 1005.14 1159.86 1003.72 1169.37C1005.55 1169.12 1007.43 1168.97 1009.46 1168.97Z" fill="#8F4233"/>
<path d="M1037.03 1182.7C1038.55 1165.36 1021.72 1162.31 1021.72 1162.31C1021.72 1162.31 1022.18 1161.59 1022.79 1160.32C1026.76 1162.46 1035.55 1166.83 1036.88 1163.68C1038.35 1160.17 1031.13 1152.24 1024.31 1156.15C1025.33 1152.34 1025.84 1147 1023.81 1140.9C1022.18 1135.96 1019.53 1131.69 1016.99 1128.39C1014.45 1144.81 1016.13 1161.03 1017.45 1169.88C1030.47 1172.88 1037.03 1182.7 1037.03 1182.7Z" fill="#8F4233"/>
<path d="M995.174 1140.9C992.988 1147.46 993.751 1153.1 994.869 1156.97C987.75 1151.32 979.562 1160.02 981.088 1163.68C982.512 1167.04 992.53 1161.8 995.937 1159.92C996.598 1161.44 997.209 1162.31 997.209 1162.31C997.209 1162.31 980.376 1165.36 981.901 1182.7C981.901 1182.7 988.106 1173.39 1000.51 1170.09C1001.84 1161.54 1003.51 1145.63 1001.18 1129.4C998.938 1132.61 996.649 1136.47 995.174 1140.9Z" fill="#8F4233"/>
<path d="M1009.01 1175.22C999.802 1175.22 992.327 1179.09 992.327 1183.87C992.327 1188.65 999.802 1192.51 1009.01 1192.51C1018.21 1192.51 1025.69 1188.65 1025.69 1183.87C1025.69 1179.09 1018.21 1175.22 1009.01 1175.22Z" fill="#8F4233"/>
<path d="M1156.13 1119.49C1154.71 1119.74 1153.18 1119.84 1151.6 1119.84C1150.28 1119.84 1149.06 1119.74 1147.84 1119.59C1148.96 1127.32 1150.23 1141 1147.74 1154.52C1149.87 1156.97 1151.6 1158.29 1151.6 1158.29C1151.6 1158.29 1153.64 1156.66 1156.13 1153.76C1153.79 1140.44 1155.01 1127.06 1156.13 1119.49Z" fill="#8F4233"/>
<path d="M1141.84 1125.08C1141.84 1125.08 1141.48 1125.64 1140.97 1126.66C1137.82 1124.93 1130.85 1121.52 1129.79 1124.01C1128.62 1126.76 1134.36 1133.06 1139.75 1130.01C1138.94 1133.06 1138.53 1137.29 1140.16 1142.12C1141.48 1146.03 1143.57 1149.39 1145.6 1152.08C1147.64 1139.06 1146.31 1126.15 1145.25 1119.13C1134.87 1116.69 1129.68 1108.91 1129.68 1108.91C1128.52 1122.69 1141.84 1125.08 1141.84 1125.08Z" fill="#8F4233"/>
<path d="M1158.11 1151.22C1159.94 1148.73 1161.72 1145.63 1162.89 1142.12C1164.62 1136.93 1164.06 1132.45 1163.15 1129.35C1168.79 1133.83 1175.3 1126.96 1174.08 1124.01C1172.96 1121.32 1164.98 1125.49 1162.28 1127.01C1161.72 1125.79 1161.27 1125.08 1161.27 1125.08C1161.27 1125.08 1174.64 1122.64 1173.42 1108.86C1173.42 1108.86 1168.49 1116.23 1158.62 1118.88C1157.6 1125.74 1156.28 1138.35 1158.11 1151.22Z" fill="#8F4233"/>
<path d="M1151.96 1114.86C1159.28 1114.86 1165.18 1111.81 1165.18 1107.99C1165.18 1104.23 1159.23 1101.13 1151.96 1101.13C1144.64 1101.13 1138.69 1104.18 1138.69 1107.99C1138.69 1111.81 1144.64 1114.86 1151.96 1114.86Z" fill="#8F4233"/>
<path d="M762.209 1210.46L770.346 1210.36C769.838 1167.75 751.377 1132.61 742.885 1118.72C774.262 1117.91 799.994 1112.21 809.758 1109.72C820.946 1157.78 854.561 1207.41 856.036 1209.6L862.8 1204.97C862.444 1204.46 826.642 1151.58 816.827 1103.87L815.963 1099.55L811.691 1100.77C811.335 1100.87 777.161 1110.69 735.409 1110.69L727.476 1110.69L732.103 1117.15C732.409 1117.55 761.599 1158.85 762.209 1210.46Z" fill="#8F4233"/>
<path d="M788.705 1181.88L770.855 1175.48L784.077 1161.85L765.667 1157.17L777.669 1142.52L758.904 1139.42L769.838 1123.86L750.818 1122.18L758.853 1139.47L765.566 1157.27L765.617 1157.27L770.753 1175.53L774.109 1194.19L774.16 1194.19L775.991 1213.11L791.502 1201.97L774.211 1194.14L788.705 1181.88Z" fill="#8F4233"/>
<path d="M792.163 1129.61L810.776 1133.98L805.232 1115.72L792.163 1129.61Z" fill="#8F4233"/>
<path d="M798.672 1148.78L817.488 1151.83L810.776 1133.98L798.672 1148.78Z" fill="#8F4233"/>
<path d="M807.165 1167.9L826.235 1168.81L817.488 1151.83L807.165 1167.9Z" fill="#8F4233"/>
<path d="M815.861 1184.88L834.931 1185.8L826.235 1168.81L815.861 1184.88Z" fill="#8F4233"/>
<path d="M825.879 1202.58L844.95 1202.07L834.931 1185.8L825.879 1202.58Z" fill="#8F4233"/>
<path d="M782.297 1122.84C779.5 1122.84 777.211 1125.13 777.211 1127.93C777.211 1130.72 779.5 1133.01 782.297 1133.01C785.094 1133.01 787.382 1130.72 787.382 1127.93C787.382 1125.13 785.094 1122.84 782.297 1122.84Z" fill="#8F4233"/>
<path d="M785.857 1144.81C783.048 1144.81 780.771 1147.09 780.771 1149.9C780.771 1152.71 783.048 1154.98 785.857 1154.98C788.665 1154.98 790.942 1152.71 790.942 1149.9C790.942 1147.09 788.665 1144.81 785.857 1144.81Z" fill="#8F4233"/>
<path d="M800.147 1157.07C797.338 1157.07 795.061 1159.34 795.061 1162.15C795.061 1164.96 797.338 1167.24 800.147 1167.24C802.956 1167.24 805.232 1164.96 805.232 1162.15C805.232 1159.34 802.956 1157.07 800.147 1157.07Z" fill="#8F4233"/>
<path d="M798.621 1175.93C795.813 1175.93 793.536 1178.21 793.536 1181.02C793.536 1183.83 795.813 1186.11 798.621 1186.11C801.43 1186.11 803.707 1183.83 803.707 1181.02C803.707 1178.21 801.43 1175.93 798.621 1175.93Z" fill="#8F4233"/>
<path d="M813.929 1189.16C811.132 1189.16 808.843 1191.45 808.843 1194.24C808.843 1197.04 811.132 1199.33 813.929 1199.33C816.726 1199.33 819.014 1197.04 819.014 1194.24C819.014 1191.45 816.726 1189.16 813.929 1189.16Z" fill="#8F4233"/>
<path d="M585.134 1209.6C586.608 1207.46 620.223 1157.78 631.411 1109.72C641.226 1112.21 666.908 1117.91 698.285 1118.72C689.792 1132.66 671.332 1167.75 670.824 1210.36L679.011 1210.46C679.621 1158.85 708.812 1117.55 709.066 1117.1L713.694 1110.64L705.761 1110.64C664.009 1110.64 629.835 1100.82 629.479 1100.72L625.258 1099.5L624.393 1103.82C614.528 1151.58 578.726 1204.46 578.37 1204.97L585.134 1209.6Z" fill="#8F4233"/>
<path d="M675.604 1157.27L682.317 1139.47L690.352 1122.18L671.332 1123.86L682.266 1139.42L663.5 1142.52L675.502 1157.17L657.093 1161.85L670.315 1175.48L652.465 1181.88L666.959 1194.14L649.668 1201.97L665.179 1213.11L667.06 1194.19L670.417 1175.53L675.604 1157.27Z" fill="#8F4233"/>
<path d="M630.445 1133.98L649.007 1129.61L635.937 1115.72L630.445 1133.98Z" fill="#8F4233"/>
<path d="M642.498 1148.78L630.445 1133.98L623.681 1151.83L642.498 1148.78Z" fill="#8F4233"/>
<path d="M634.005 1167.9L623.681 1151.83L614.985 1168.81L634.005 1167.9Z" fill="#8F4233"/>
<path d="M625.309 1184.88L614.985 1168.81L606.238 1185.8L625.309 1184.88Z" fill="#8F4233"/>
<path d="M615.29 1202.58L606.238 1185.8L596.22 1202.07L615.29 1202.58Z" fill="#8F4233"/>
<path d="M663.958 1127.98C663.958 1125.18 661.67 1122.89 658.873 1122.89C656.076 1122.89 653.787 1125.18 653.787 1127.98C653.787 1130.78 656.076 1133.06 658.873 1133.06C661.67 1133.06 663.958 1130.78 663.958 1127.98Z" fill="#8F4233"/>
<path d="M650.228 1149.9C650.228 1152.69 652.516 1154.98 655.313 1154.98C658.11 1154.98 660.398 1152.69 660.398 1149.9C660.398 1147.1 658.11 1144.81 655.313 1144.81C652.516 1144.81 650.228 1147.1 650.228 1149.9Z" fill="#8F4233"/>
<path d="M640.199 1157.15C637.427 1157.6 635.544 1160.21 635.994 1162.98C636.444 1165.75 639.056 1167.64 641.829 1167.19C644.601 1166.74 646.484 1164.12 646.034 1161.35C645.584 1158.58 642.972 1156.7 640.199 1157.15Z" fill="#8F4233"/>
<path d="M642.548 1175.93C639.74 1175.93 637.463 1178.21 637.463 1181.02C637.463 1183.83 639.74 1186.11 642.548 1186.11C645.357 1186.11 647.634 1183.83 647.634 1181.02C647.634 1178.21 645.357 1175.93 642.548 1175.93Z" fill="#8F4233"/>
<path d="M627.241 1189.21C624.433 1189.21 622.156 1191.48 622.156 1194.29C622.156 1197.1 624.433 1199.38 627.241 1199.38C630.05 1199.38 632.327 1197.1 632.327 1194.29C632.327 1191.48 630.05 1189.21 627.241 1189.21Z" fill="#8F4233"/>
<path d="M721.068 1168.97C722.746 1168.97 724.323 1169.07 725.797 1169.27C724.373 1159.51 722.797 1142.27 725.95 1125.23C723.255 1122.18 721.068 1120.45 721.068 1120.45C721.068 1120.45 718.474 1122.54 715.372 1126.15C718.271 1142.98 716.745 1159.86 715.321 1169.37C717.152 1169.12 719.034 1168.97 721.068 1168.97Z" fill="#8F4233"/>
<path d="M748.631 1182.7C750.157 1165.36 733.324 1162.31 733.324 1162.31C733.324 1162.31 733.782 1161.59 734.392 1160.32C738.359 1162.46 747.156 1166.83 748.479 1163.68C749.953 1160.17 742.732 1152.24 735.918 1156.15C736.935 1152.34 737.443 1147 735.409 1140.9C733.782 1135.96 731.137 1131.69 728.594 1128.39C726.052 1144.81 727.73 1161.03 729.052 1169.88C742.071 1172.88 748.631 1182.7 748.631 1182.7Z" fill="#8F4233"/>
<path d="M706.778 1140.9C704.591 1147.46 705.354 1153.1 706.473 1156.97C699.353 1151.32 691.166 1160.02 692.691 1163.68C694.115 1167.04 704.133 1161.8 707.541 1159.92C708.202 1161.44 708.812 1162.31 708.812 1162.31C708.812 1162.31 691.979 1165.36 693.505 1182.7C693.505 1182.7 699.709 1173.39 712.118 1170.09C713.44 1161.54 715.118 1145.63 712.779 1129.4C710.541 1132.61 708.253 1136.47 706.778 1140.9Z" fill="#8F4233"/>
<path d="M720.61 1175.22C711.406 1175.22 703.93 1179.09 703.93 1183.87C703.93 1188.65 711.406 1192.51 720.61 1192.51C729.815 1192.51 737.291 1188.65 737.291 1183.87C737.291 1179.09 729.815 1175.22 720.61 1175.22Z" fill="#8F4233"/>
<path d="M867.733 1119.49C866.309 1119.74 864.783 1119.84 863.207 1119.84C861.885 1119.84 860.664 1119.74 859.443 1119.59C860.562 1127.32 861.834 1141 859.342 1154.52C861.478 1156.97 863.207 1158.29 863.207 1158.29C863.207 1158.29 865.241 1156.66 867.733 1153.76C865.393 1140.44 866.614 1127.06 867.733 1119.49Z" fill="#8F4233"/>
<path d="M853.443 1125.08C853.443 1125.08 853.087 1125.64 852.578 1126.66C849.425 1124.93 842.458 1121.52 841.39 1124.01C840.22 1126.76 845.967 1133.06 851.358 1130.01C850.544 1133.06 850.137 1137.29 851.764 1142.12C853.087 1146.03 855.172 1149.39 857.206 1152.08C859.24 1139.06 857.918 1126.15 856.85 1119.13C846.476 1116.69 841.288 1108.91 841.288 1108.91C840.119 1122.69 853.443 1125.08 853.443 1125.08Z" fill="#8F4233"/>
<path d="M869.716 1151.22C871.547 1148.73 873.327 1145.63 874.496 1142.12C876.225 1136.93 875.666 1132.45 874.751 1129.35C880.396 1133.83 886.905 1126.96 885.684 1124.01C884.566 1121.32 876.581 1125.49 873.886 1127.01C873.327 1125.79 872.869 1125.08 872.869 1125.08C872.869 1125.08 886.244 1122.64 885.023 1108.86C885.023 1108.86 880.09 1116.23 870.225 1118.88C869.208 1125.74 867.885 1138.35 869.716 1151.22Z" fill="#8F4233"/>
<path d="M863.563 1114.86C870.886 1114.86 876.785 1111.81 876.785 1107.99C876.785 1104.23 870.835 1101.13 863.563 1101.13C856.24 1101.13 850.29 1104.18 850.29 1107.99C850.29 1111.81 856.24 1114.86 863.563 1114.86Z" fill="#8F4233"/>
<path d="M473.304 1210.46L481.441 1210.36C480.932 1167.75 462.472 1132.61 453.979 1118.72C485.357 1117.91 511.089 1112.21 520.853 1109.72C532.041 1157.78 565.656 1207.41 567.131 1209.6L573.895 1204.97C573.539 1204.46 537.737 1151.58 527.922 1103.87L527.058 1099.55L522.786 1100.77C522.43 1100.87 488.255 1110.69 446.504 1110.69L438.57 1110.69L443.198 1117.15C443.503 1117.55 472.694 1158.85 473.304 1210.46Z" fill="#8F4233"/>
<path d="M499.799 1181.88L481.949 1175.48L495.172 1161.85L476.762 1157.17L488.764 1142.52L469.999 1139.42L480.932 1123.86L461.913 1122.18L469.948 1139.47L476.661 1157.27L481.848 1175.53L485.204 1194.19L485.255 1194.19L487.086 1213.11L502.596 1201.97L485.306 1194.14L499.799 1181.88Z" fill="#8F4233"/>
<path d="M503.258 1129.61L521.82 1133.98L516.327 1115.72L503.258 1129.61Z" fill="#8F4233"/>
<path d="M509.767 1148.78L528.583 1151.83L521.819 1133.98L509.767 1148.78Z" fill="#8F4233"/>
<path d="M518.26 1167.9L537.33 1168.81L528.583 1151.83L518.26 1167.9Z" fill="#8F4233"/>
<path d="M526.956 1184.88L546.026 1185.8L537.33 1168.81L526.956 1184.88Z" fill="#8F4233"/>
<path d="M536.974 1202.58L556.045 1202.07L546.026 1185.8L536.974 1202.58Z" fill="#8F4233"/>
<path d="M493.392 1122.84C490.595 1122.84 488.306 1125.13 488.306 1127.93C488.306 1130.72 490.595 1133.01 493.392 1133.01C496.189 1133.01 498.477 1130.72 498.477 1127.93C498.477 1125.13 496.189 1122.84 493.392 1122.84Z" fill="#8F4233"/>
<path d="M496.952 1144.81C494.143 1144.81 491.866 1147.09 491.866 1149.9C491.866 1152.71 494.143 1154.98 496.952 1154.98C499.76 1154.98 502.037 1152.71 502.037 1149.9C502.037 1147.09 499.76 1144.81 496.952 1144.81Z" fill="#8F4233"/>
<path d="M511.242 1157.02C508.445 1157.02 506.156 1159.31 506.156 1162.1C506.156 1164.9 508.445 1167.19 511.242 1167.19C514.039 1167.19 516.327 1164.9 516.327 1162.1C516.327 1159.31 514.039 1157.02 511.242 1157.02Z" fill="#8F4233"/>
<path d="M509.716 1175.93C506.907 1175.93 504.631 1178.21 504.631 1181.02C504.631 1183.83 506.907 1186.11 509.716 1186.11C512.525 1186.11 514.802 1183.83 514.802 1181.02C514.802 1178.21 512.525 1175.93 509.716 1175.93Z" fill="#8F4233"/>
<path d="M525.023 1189.16C522.226 1189.16 519.938 1191.45 519.938 1194.24C519.938 1197.04 522.226 1199.33 525.023 1199.33C527.82 1199.33 530.109 1197.04 530.109 1194.24C530.109 1191.45 527.82 1189.16 525.023 1189.16Z" fill="#8F4233"/>
<path d="M296.228 1209.6C297.703 1207.46 331.318 1157.78 342.506 1109.72C352.321 1112.21 378.003 1117.91 409.38 1118.72C400.887 1132.66 382.427 1167.75 381.918 1210.36L390.106 1210.46C390.716 1158.85 419.907 1117.55 420.161 1117.1L424.789 1110.64L416.856 1110.64C375.104 1110.64 340.93 1100.82 340.574 1100.72L336.353 1099.5L335.488 1103.82C325.622 1151.58 289.821 1204.46 289.465 1204.97L296.228 1209.6Z" fill="#8F4233"/>
<path d="M386.699 1157.27L393.412 1139.47L401.447 1122.18L382.427 1123.86L393.361 1139.42L374.595 1142.52L386.597 1157.17L368.188 1161.85L381.41 1175.48L363.56 1181.88L378.054 1194.14L360.763 1201.97L376.274 1213.11L378.104 1194.19L378.155 1194.19L381.512 1175.53L386.648 1157.27L386.699 1157.27Z" fill="#8F4233"/>
<path d="M341.54 1133.98L360.102 1129.61L347.032 1115.72L341.54 1133.98Z" fill="#8F4233"/>
<path d="M353.592 1148.78L341.54 1133.98L334.776 1151.83L353.592 1148.78Z" fill="#8F4233"/>
<path d="M345.1 1167.9L334.776 1151.83L326.029 1168.81L345.1 1167.9Z" fill="#8F4233"/>
<path d="M336.403 1184.88L326.029 1168.81L317.333 1185.8L336.403 1184.88Z" fill="#8F4233"/>
<path d="M326.385 1202.58L317.333 1185.8L307.315 1202.07L326.385 1202.58Z" fill="#8F4233"/>
<path d="M375.053 1127.98C375.053 1125.18 372.765 1122.89 369.968 1122.89C367.171 1122.89 364.882 1125.18 364.882 1127.98C364.882 1130.78 367.171 1133.06 369.968 1133.06C372.765 1133.06 375.053 1130.78 375.053 1127.98Z" fill="#8F4233"/>
<path d="M366.408 1144.81C363.599 1144.81 361.322 1147.09 361.322 1149.9C361.322 1152.71 363.599 1154.98 366.408 1154.98C369.216 1154.98 371.493 1152.71 371.493 1149.9C371.493 1147.09 369.216 1144.81 366.408 1144.81Z" fill="#8F4233"/>
<path d="M357.203 1162.15C357.203 1159.36 354.915 1157.07 352.118 1157.07C349.321 1157.07 347.032 1159.36 347.032 1162.15C347.032 1164.95 349.321 1167.24 352.118 1167.24C354.915 1167.24 357.203 1164.95 357.203 1162.15Z" fill="#8F4233"/>
<path d="M353.643 1175.93C350.835 1175.93 348.558 1178.21 348.558 1181.02C348.558 1183.83 350.835 1186.11 353.643 1186.11C356.452 1186.11 358.729 1183.83 358.729 1181.02C358.729 1178.21 356.452 1175.93 353.643 1175.93Z" fill="#8F4233"/>
<path d="M338.336 1189.21C335.527 1189.21 333.25 1191.48 333.25 1194.29C333.25 1197.1 335.527 1199.38 338.336 1199.38C341.145 1199.38 343.421 1197.1 343.421 1194.29C343.421 1191.48 341.145 1189.21 338.336 1189.21Z" fill="#8F4233"/>
<path d="M432.163 1168.97C433.841 1168.97 435.417 1169.07 436.892 1169.27C435.468 1159.51 433.892 1142.27 437.045 1125.23C434.35 1122.18 432.163 1120.45 432.163 1120.45C432.163 1120.45 429.569 1122.54 426.467 1126.15C429.366 1142.98 427.84 1159.86 426.416 1169.37C428.247 1169.12 430.129 1168.97 432.163 1168.97Z" fill="#8F4233"/>
<path d="M459.726 1182.7C461.252 1165.36 444.419 1162.31 444.419 1162.31C444.419 1162.31 444.876 1161.59 445.487 1160.32C449.453 1162.46 458.251 1166.83 459.573 1163.68C461.048 1160.17 453.827 1152.24 447.012 1156.15C448.029 1152.34 448.538 1147 446.504 1140.9C444.876 1135.96 442.232 1131.69 439.689 1128.39C437.146 1144.81 438.825 1161.03 440.147 1169.88C453.166 1172.88 459.726 1182.7 459.726 1182.7Z" fill="#8F4233"/>
<path d="M417.873 1140.9C415.686 1147.46 416.449 1153.1 417.567 1156.97C410.448 1151.32 402.26 1160.02 403.786 1163.68C405.21 1167.04 415.228 1161.8 418.635 1159.92C419.297 1161.44 419.907 1162.31 419.907 1162.31C419.907 1162.31 403.074 1165.36 404.6 1182.7C404.6 1182.7 410.804 1173.39 423.212 1170.09C424.535 1161.54 426.213 1145.63 423.873 1129.4C421.636 1132.61 419.347 1136.47 417.873 1140.9Z" fill="#8F4233"/>
<path d="M431.654 1175.22C422.449 1175.22 414.974 1179.09 414.974 1183.87C414.974 1188.65 422.449 1192.51 431.654 1192.51C440.859 1192.51 448.335 1188.65 448.335 1183.87C448.385 1179.09 440.91 1175.22 431.654 1175.22Z" fill="#8F4233"/>
<path d="M183.84 1210.46L191.976 1210.36C191.468 1167.75 173.008 1132.61 164.515 1118.72C195.892 1117.91 221.625 1112.21 231.389 1109.72C242.577 1157.78 276.192 1207.41 277.666 1209.6L284.43 1204.97C284.074 1204.46 248.272 1151.58 238.458 1103.87L237.593 1099.55L233.321 1100.77C232.965 1100.87 198.791 1110.69 157.039 1110.69L149.106 1110.69L153.734 1117.15C154.039 1117.55 183.229 1158.85 183.84 1210.46Z" fill="#8F4233"/>
<path d="M210.335 1181.88L192.485 1175.48L205.707 1161.85L187.298 1157.17L199.299 1142.52L180.534 1139.42L191.468 1123.86L172.448 1122.18L180.483 1139.47L187.196 1157.27L187.247 1157.27L192.383 1175.53L195.74 1194.19L195.79 1194.19L197.621 1213.11L213.132 1201.97L195.841 1194.14L210.335 1181.88Z" fill="#8F4233"/>
<path d="M213.793 1129.61L232.406 1133.98L226.863 1115.72L213.793 1129.61Z" fill="#8F4233"/>
<path d="M220.302 1148.78L239.119 1151.83L232.406 1133.98L220.302 1148.78Z" fill="#8F4233"/>
<path d="M228.795 1167.9L247.866 1168.81L239.119 1151.83L228.795 1167.9Z" fill="#8F4233"/>
<path d="M237.491 1184.88L256.562 1185.8L247.866 1168.81L237.491 1184.88Z" fill="#8F4233"/>
<path d="M247.51 1202.58L266.58 1202.07L256.562 1185.8L247.51 1202.58Z" fill="#8F4233"/>
<path d="M203.927 1122.84C201.13 1122.84 198.842 1125.13 198.842 1127.93C198.842 1130.72 201.13 1133.01 203.927 1133.01C206.724 1133.01 209.013 1130.72 209.013 1127.93C209.013 1125.13 206.724 1122.84 203.927 1122.84Z" fill="#8F4233"/>
<path d="M207.487 1144.81C204.678 1144.81 202.401 1147.09 202.401 1149.9C202.401 1152.71 204.678 1154.98 207.487 1154.98C210.296 1154.98 212.572 1152.71 212.572 1149.9C212.572 1147.09 210.296 1144.81 207.487 1144.81Z" fill="#8F4233"/>
<path d="M221.777 1157.02C218.98 1157.02 216.692 1159.31 216.692 1162.1C216.692 1164.9 218.98 1167.19 221.777 1167.19C224.574 1167.19 226.863 1164.9 226.863 1162.1C226.863 1159.31 224.574 1157.02 221.777 1157.02Z" fill="#8F4233"/>
<path d="M220.251 1175.93C217.443 1175.93 215.166 1178.21 215.166 1181.02C215.166 1183.83 217.443 1186.11 220.251 1186.11C223.06 1186.11 225.337 1183.83 225.337 1181.02C225.337 1178.21 223.06 1175.93 220.251 1175.93Z" fill="#8F4233"/>
<path d="M235.559 1189.21C232.75 1189.21 230.473 1191.48 230.473 1194.29C230.473 1197.1 232.75 1199.38 235.559 1199.38C238.367 1199.38 240.644 1197.1 240.644 1194.29C240.644 1191.48 238.367 1189.21 235.559 1189.21Z" fill="#8F4233"/>
<path d="M6.76368 1209.6C8.23846 1207.46 41.8534 1157.78 53.0414 1109.72C62.8563 1112.21 88.5379 1117.91 119.915 1118.72C111.423 1132.66 92.9623 1167.75 92.4537 1210.36L100.641 1210.46C101.252 1158.85 130.442 1117.55 130.696 1117.1L135.324 1110.64L127.391 1110.64C85.6392 1110.64 51.4649 1100.82 51.1089 1100.72L46.8881 1099.5L46.0234 1103.82C36.1576 1151.58 0.355968 1204.46 -1.48026e-05 1204.97L6.76368 1209.6Z" fill="#8F4233"/>
<path d="M97.2342 1157.27L103.947 1139.47L111.982 1122.18L92.9624 1123.86L103.896 1139.42L85.1308 1142.52L97.1833 1157.17L78.7231 1161.85L91.9453 1175.48L74.0954 1181.88L88.5889 1194.14L71.2983 1201.97L86.809 1213.11L88.6906 1194.19L92.0469 1175.53L97.2342 1157.27Z" fill="#8F4233"/>
<path d="M52.0751 1133.98L70.6371 1129.61L57.5675 1115.72L52.0751 1133.98Z" fill="#8F4233"/>
<path d="M64.1277 1148.78L52.0752 1133.98L45.3115 1151.83L64.1277 1148.78Z" fill="#8F4233"/>
<path d="M55.635 1167.9L45.3115 1151.83L36.6153 1168.81L55.635 1167.9Z" fill="#8F4233"/>
<path d="M46.939 1184.88L36.6154 1168.81L27.8685 1185.8L46.939 1184.88Z" fill="#8F4233"/>
<path d="M36.9205 1202.58L27.8684 1185.8L17.85 1202.07L36.9205 1202.58Z" fill="#8F4233"/>
<path d="M85.5884 1127.98C85.5884 1125.18 83.2999 1122.89 80.5029 1122.89C77.7059 1122.89 75.4175 1125.18 75.4175 1127.98C75.4175 1130.78 77.7059 1133.06 80.5029 1133.06C83.3508 1133.06 85.5884 1130.78 85.5884 1127.98Z" fill="#8F4233"/>
<path d="M76.9431 1144.81C74.1345 1144.81 71.8576 1147.09 71.8576 1149.9C71.8576 1152.71 74.1345 1154.98 76.9431 1154.98C79.7517 1154.98 82.0286 1152.71 82.0286 1149.9C82.0286 1147.09 79.7517 1144.81 76.9431 1144.81Z" fill="#8F4233"/>
<path d="M61.8222 1157.16C59.0498 1157.61 57.1671 1160.22 57.617 1162.99C58.067 1165.76 60.6792 1167.65 63.4516 1167.2C66.224 1166.75 68.1067 1164.14 67.6567 1161.36C67.2068 1158.59 64.5946 1156.71 61.8222 1157.16Z" fill="#8F4233"/>
<path d="M64.1787 1175.93C61.3701 1175.93 59.0932 1178.21 59.0932 1181.02C59.0932 1183.83 61.3701 1186.11 64.1787 1186.11C66.9873 1186.11 69.2642 1183.83 69.2642 1181.02C69.2642 1178.21 66.9873 1175.93 64.1787 1175.93Z" fill="#8F4233"/>
<path d="M48.8713 1189.21C46.0627 1189.21 43.7859 1191.48 43.7859 1194.29C43.7859 1197.1 46.0627 1199.38 48.8713 1199.38C51.6799 1199.38 53.9568 1197.1 53.9568 1194.29C53.9568 1191.48 51.6799 1189.21 48.8713 1189.21Z" fill="#8F4233"/>
<path d="M142.698 1168.97C144.376 1168.97 145.953 1169.07 147.428 1169.27C146.004 1159.51 144.427 1142.27 147.58 1125.23C144.885 1122.18 142.698 1120.45 142.698 1120.45C142.698 1120.45 140.105 1122.54 137.003 1126.15C139.901 1142.98 138.376 1159.86 136.952 1169.37C138.782 1169.12 140.664 1168.97 142.698 1168.97Z" fill="#8F4233"/>
<path d="M170.261 1182.7C171.787 1165.36 154.954 1162.31 154.954 1162.31C154.954 1162.31 155.412 1161.59 156.022 1160.32C159.989 1162.46 168.787 1166.83 170.109 1163.68C171.584 1160.17 164.362 1152.24 157.548 1156.15C158.565 1152.34 159.073 1147 157.039 1140.9C155.412 1135.96 152.767 1131.69 150.225 1128.39C147.682 1144.81 149.36 1161.03 150.682 1169.88C163.701 1172.88 170.261 1182.7 170.261 1182.7Z" fill="#8F4233"/>
<path d="M128.408 1140.9C126.221 1147.46 126.984 1153.1 128.103 1156.97C120.983 1151.32 112.796 1160.02 114.321 1163.68C115.745 1167.04 125.764 1161.8 129.171 1159.92C129.832 1161.44 130.442 1162.31 130.442 1162.31C130.442 1162.31 113.609 1165.36 115.135 1182.7C115.135 1182.7 121.339 1173.39 133.748 1170.09C135.07 1161.54 136.748 1145.63 134.409 1129.4C132.171 1132.61 129.883 1136.47 128.408 1140.9Z" fill="#8F4233"/>
<path d="M142.241 1175.22C133.036 1175.22 125.56 1179.09 125.56 1183.87C125.56 1188.65 133.036 1192.51 142.241 1192.51C151.445 1192.51 158.921 1188.65 158.921 1183.87C158.921 1179.09 151.445 1175.22 142.241 1175.22Z" fill="#8F4233"/>
<path d="M578.828 1119.49C577.404 1119.74 575.878 1119.84 574.302 1119.84C572.979 1119.84 571.759 1119.74 570.538 1119.59C571.657 1127.32 572.928 1141 570.437 1154.52C572.572 1156.97 574.302 1158.29 574.302 1158.29C574.302 1158.29 576.336 1156.66 578.828 1153.76C576.437 1140.44 577.709 1127.06 578.828 1119.49Z" fill="#8F4233"/>
<path d="M564.537 1125.08C564.537 1125.08 564.181 1125.64 563.673 1126.66C560.52 1124.93 553.553 1121.52 552.485 1124.01C551.315 1126.76 557.062 1133.06 562.452 1130.01C561.639 1133.06 561.232 1137.29 562.859 1142.12C564.181 1146.03 566.266 1149.39 568.301 1152.08C570.335 1139.06 569.013 1126.15 567.945 1119.13C557.57 1116.69 552.383 1108.91 552.383 1108.91C551.163 1122.69 564.537 1125.08 564.537 1125.08Z" fill="#8F4233"/>
<path d="M580.811 1151.22C582.642 1148.73 584.422 1145.63 585.591 1142.12C587.32 1136.93 586.761 1132.45 585.845 1129.35C591.49 1133.83 598 1126.96 596.779 1124.01C595.66 1121.32 587.676 1125.49 584.981 1127.01C584.422 1125.79 583.964 1125.08 583.964 1125.08C583.964 1125.08 597.339 1122.64 596.118 1108.86C596.118 1108.86 591.185 1116.23 581.319 1118.88C580.302 1125.74 578.98 1138.35 580.811 1151.22Z" fill="#8F4233"/>
<path d="M574.657 1114.86C581.981 1114.86 587.88 1111.81 587.88 1107.99C587.88 1104.23 581.93 1101.13 574.657 1101.13C567.334 1101.13 561.384 1104.18 561.384 1107.99C561.384 1111.81 567.334 1114.86 574.657 1114.86Z" fill="#8F4233"/>
<path d="M290.634 1119.49C289.21 1119.74 287.685 1119.84 286.108 1119.84C284.786 1119.84 283.566 1119.74 282.345 1119.59C283.464 1127.32 284.735 1141 282.243 1154.52C284.379 1156.97 286.108 1158.29 286.108 1158.29C286.108 1158.29 288.142 1156.66 290.634 1153.76C288.295 1140.44 289.515 1127.06 290.634 1119.49Z" fill="#8F4233"/>
<path d="M276.395 1125.08C276.395 1125.08 276.039 1125.64 275.53 1126.66C272.378 1124.93 265.41 1121.52 264.342 1124.01C263.173 1126.76 268.919 1133.06 274.31 1130.01C273.496 1133.06 273.09 1137.29 274.717 1142.12C276.039 1146.03 278.124 1149.39 280.158 1152.08C282.193 1139.06 280.87 1126.15 279.802 1119.13C269.428 1116.69 264.241 1108.91 264.241 1108.91C263.02 1122.69 276.395 1125.08 276.395 1125.08Z" fill="#8F4233"/>
<path d="M292.669 1151.22C294.499 1148.73 296.279 1145.63 297.449 1142.12C299.178 1136.93 298.619 1132.45 297.703 1129.35C303.348 1133.83 309.857 1126.96 308.637 1124.01C307.518 1121.32 299.534 1125.49 296.839 1127.01C296.279 1125.79 295.822 1125.08 295.822 1125.08C295.822 1125.08 309.196 1122.64 307.976 1108.86C307.976 1108.86 303.043 1116.23 293.177 1118.88C292.109 1125.74 290.787 1138.35 292.669 1151.22Z" fill="#8F4233"/>
<path d="M286.464 1114.86C293.787 1114.86 299.686 1111.81 299.686 1107.99C299.686 1104.23 293.736 1101.13 286.464 1101.13C279.141 1101.13 273.191 1104.18 273.191 1107.99C273.242 1111.81 279.192 1114.86 286.464 1114.86Z" fill="#8F4233"/>
</g>
<g style="mix-blend-mode:multiply" opacity="0.16" clip-path="url(#clip1_211_13)">
<path d="M100.59 2.64453L92.4537 2.74624C92.9623 45.3624 111.423 80.503 119.915 94.3863C88.5379 95.2 62.8055 100.896 53.0414 103.388C41.8534 55.3299 8.23845 5.69581 6.76367 3.50906L0 8.13683C0.355982 8.64538 36.1577 61.5342 45.9726 109.236L46.8371 113.559L51.1089 112.338C51.4649 112.236 85.6392 102.421 127.391 102.421H135.324L130.696 95.9628C130.391 95.556 101.201 54.262 100.59 2.64453Z" fill="#8F4233"/>
<path d="M74.0952 31.2247L91.9451 37.6324L78.7229 51.2615L97.1323 55.9401L85.1306 70.5862L103.896 73.6884L92.9622 89.2499L111.982 90.9281L103.947 73.6375L97.234 55.8384H97.1832L92.0468 37.5816L88.6904 18.9179H88.6396L86.8088 0L71.2982 11.1372L88.5887 18.9688L74.0952 31.2247Z" fill="#8F4233"/>
<path d="M70.6371 83.5034L52.0244 79.1299L57.5675 97.3867L70.6371 83.5034Z" fill="#8F4233"/>
<path d="M64.1277 64.3311L45.3115 61.2798L52.0243 79.1298L64.1277 64.3311Z" fill="#8F4233"/>
<path d="M55.635 45.2098L36.5645 44.2944L45.3115 61.2799L55.635 45.2098Z" fill="#8F4233"/>
<path d="M46.9388 28.2242L27.8683 27.3088L36.5645 44.2943L46.9388 28.2242Z" fill="#8F4233"/>
<path d="M36.9205 10.5269L17.85 11.0354L27.8683 27.3089L36.9205 10.5269Z" fill="#8F4233"/>
<path d="M80.5029 90.2161C83.3115 90.2161 85.5883 87.9393 85.5883 85.1306C85.5883 82.322 83.3115 80.0452 80.5029 80.0452C77.6943 80.0452 75.4174 82.322 75.4174 85.1306C75.4174 87.9393 77.6943 90.2161 80.5029 90.2161Z" fill="#8F4233"/>
<path d="M76.9431 68.2979C79.7517 68.2979 82.0285 66.021 82.0285 63.2124C82.0285 60.4038 79.7517 58.127 76.9431 58.127C74.1344 58.127 71.8576 60.4038 71.8576 63.2124C71.8576 66.021 74.1344 68.2979 76.9431 68.2979Z" fill="#8F4233"/>
<path d="M66.2387 54.5544C68.2247 52.5684 68.2247 49.3485 66.2387 47.3626C64.2527 45.3766 61.0328 45.3766 59.0469 47.3626C57.0609 49.3485 57.0609 52.5684 59.0469 54.5544C61.0328 56.5404 64.2527 56.5404 66.2387 54.5544Z" fill="#8F4233"/>
<path d="M65.3457 37.0346C68.079 36.3892 69.7716 33.6502 69.1262 30.9168C68.4808 28.1835 65.7417 26.4909 63.0084 27.1363C60.275 27.7817 58.5824 30.5208 59.2278 33.2541C59.8733 35.9875 62.6123 37.6801 65.3457 37.0346Z" fill="#8F4233"/>
<path d="M48.8713 23.9016C51.6799 23.9016 53.9568 21.6248 53.9568 18.8162C53.9568 16.0076 51.6799 13.7307 48.8713 13.7307C46.0627 13.7307 43.7858 16.0076 43.7858 18.8162C43.7858 21.6248 46.0627 23.9016 48.8713 23.9016Z" fill="#8F4233"/>
<path d="M277.666 3.50906C276.192 5.64496 242.577 55.3299 231.389 103.388C221.574 100.896 195.892 95.2 164.515 94.3863C173.007 80.4521 191.468 45.3624 191.976 2.74624L183.789 2.64453C183.178 54.262 153.988 95.556 153.734 96.0137L149.106 102.472H157.039C198.791 102.472 232.965 112.287 233.321 112.389L237.542 113.609L238.407 109.287C248.272 61.5342 284.074 8.64538 284.43 8.13683L277.666 3.50906Z" fill="#8F4233"/>
<path d="M187.196 55.8384L180.483 73.6375L172.448 90.9281L191.468 89.2499L180.534 73.6884L199.299 70.5862L187.298 55.9401L205.707 51.2615L192.485 37.6324L210.335 31.2247L195.841 18.9688L213.132 11.1372L197.621 0L195.739 18.9179L192.383 37.5816L187.247 55.8384H187.196Z" fill="#8F4233"/>
<path d="M232.355 79.1299L213.793 83.5034L226.863 97.3867L232.355 79.1299Z" fill="#8F4233"/>
<path d="M220.302 64.3311L232.355 79.1298L239.118 61.2798L220.302 64.3311Z" fill="#8F4233"/>
<path d="M228.795 45.2098L239.119 61.2799L247.815 44.2944L228.795 45.2098Z" fill="#8F4233"/>
<path d="M237.491 28.2242L247.815 44.2943L256.562 27.3088L237.491 28.2242Z" fill="#8F4233"/>
<path d="M247.51 10.5269L256.562 27.3089L266.58 11.0354L247.51 10.5269Z" fill="#8F4233"/>
<path d="M208.952 85.7669C209.295 82.9793 207.314 80.4413 204.526 80.0981C201.739 79.7549 199.201 81.7364 198.858 84.524C198.514 87.3115 200.496 89.8495 203.283 90.1927C206.071 90.5359 208.609 88.5544 208.952 85.7669Z" fill="#8F4233"/>
<path d="M207.487 68.2979C210.296 68.2979 212.572 66.021 212.572 63.2124C212.572 60.4038 210.296 58.127 207.487 58.127C204.678 58.127 202.401 60.4038 202.401 63.2124C202.401 66.021 204.678 68.2979 207.487 68.2979Z" fill="#8F4233"/>
<path d="M222.934 55.8935C225.668 55.2481 227.36 52.5091 226.715 49.7757C226.07 47.0424 223.331 45.3498 220.597 45.9952C217.864 46.6406 216.171 49.3796 216.817 52.113C217.462 54.8463 220.201 56.5389 222.934 55.8935Z" fill="#8F4233"/>
<path d="M221.411 37.0246C224.144 36.3792 225.837 33.6402 225.191 30.9068C224.546 28.1735 221.807 26.4809 219.073 27.1263C216.34 27.7717 214.647 30.5107 215.293 33.2441C215.938 35.9774 218.677 37.6701 221.411 37.0246Z" fill="#8F4233"/>
<path d="M235.559 23.9016C238.367 23.9016 240.644 21.6248 240.644 18.8162C240.644 16.0076 238.367 13.7307 235.559 13.7307C232.75 13.7307 230.473 16.0076 230.473 18.8162C230.473 21.6248 232.75 23.9016 235.559 23.9016Z" fill="#8F4233"/>
<path d="M141.732 44.1419C140.054 44.1419 138.477 44.0402 137.002 43.8368C138.426 53.6009 140.003 70.8406 136.85 87.8769C139.545 90.9282 141.732 92.6573 141.732 92.6573C141.732 92.6573 144.325 90.5722 147.428 86.9615C144.529 70.1287 146.055 53.2449 147.478 43.7351C145.648 43.9894 143.766 44.1419 141.732 44.1419Z" fill="#8F4233"/>
<path d="M114.169 30.4111C112.643 47.7526 129.476 50.8038 129.476 50.8038C129.476 50.8038 129.018 51.5158 128.408 52.7872C124.441 50.6513 115.643 46.2778 114.321 49.4308C112.846 52.9397 120.068 60.8731 126.882 56.9573C125.865 60.7714 125.357 66.1111 127.391 72.2136C129.018 77.1465 131.663 81.4183 134.205 84.7239C136.748 68.2978 135.07 52.0752 133.748 43.2265C120.729 40.2261 114.169 30.4111 114.169 30.4111Z" fill="#8F4233"/>
<path d="M156.022 72.2136C158.209 65.6534 157.446 60.0085 156.327 56.1436C163.447 61.7884 171.634 53.0923 170.109 49.4308C168.685 46.0744 158.666 51.3124 155.259 53.194C154.598 51.6684 153.988 50.8038 153.988 50.8038C153.988 50.8038 170.821 47.7526 169.295 30.4111C169.295 30.4111 163.091 39.7175 150.682 43.0231C149.36 51.5667 147.682 67.4842 150.021 83.7068C152.259 80.503 154.547 76.638 156.022 72.2136Z" fill="#8F4233"/>
<path d="M142.19 37.8868C151.394 37.8868 158.87 34.0218 158.87 29.2415C158.87 24.4611 151.394 20.5962 142.19 20.5962C132.985 20.5962 125.509 24.4611 125.509 29.2415C125.509 34.0218 132.985 37.8868 142.19 37.8868Z" fill="#8F4233"/>
<path d="M389.394 2.64453L381.257 2.74624C381.766 45.3624 400.226 80.503 408.719 94.3863C377.341 95.2 351.609 100.896 341.845 103.388C330.657 55.3299 297.042 5.69581 295.567 3.50906L288.803 8.13683C289.159 8.64538 324.961 61.5342 334.776 109.236L335.641 113.559L339.912 112.338C340.268 112.236 374.443 102.421 416.194 102.421H424.128L419.5 95.9628C419.195 95.556 390.004 54.262 389.394 2.64453Z" fill="#8F4233"/>
<path d="M362.899 31.2247L380.749 37.6324L367.526 51.2615L385.936 55.9401L373.934 70.5862L392.7 73.6884L381.766 89.2499L400.785 90.9281L392.75 73.6375L386.038 55.8384H385.987L380.85 37.5816L377.494 18.9179H377.443L375.612 0L360.102 11.1372L377.392 18.9688L362.899 31.2247Z" fill="#8F4233"/>
<path d="M359.441 83.5034L340.828 79.1299L346.371 97.3867L359.441 83.5034Z" fill="#8F4233"/>
<path d="M352.931 64.3311L334.115 61.2798L340.828 79.1298L352.931 64.3311Z" fill="#8F4233"/>
<path d="M344.438 45.2098L325.368 44.2944L334.115 61.2799L344.438 45.2098Z" fill="#8F4233"/>
<path d="M335.742 28.2242L316.672 27.3088L325.368 44.2943L335.742 28.2242Z" fill="#8F4233"/>
<path d="M325.724 10.5269L306.653 11.0354L316.672 27.3089L325.724 10.5269Z" fill="#8F4233"/>
<path d="M369.306 90.2671C372.103 90.2671 374.392 87.9787 374.392 85.1817C374.392 82.3846 372.103 80.0962 369.306 80.0962C366.509 80.0962 364.221 82.3846 364.221 85.1817C364.221 87.9787 366.509 90.2671 369.306 90.2671Z" fill="#8F4233"/>
<path d="M365.747 68.2979C368.555 68.2979 370.832 66.021 370.832 63.2124C370.832 60.4038 368.555 58.127 365.747 58.127C362.938 58.127 360.661 60.4038 360.661 63.2124C360.661 66.021 362.938 68.2979 365.747 68.2979Z" fill="#8F4233"/>
<path d="M351.456 56.0418C354.265 56.0418 356.542 53.7649 356.542 50.9563C356.542 48.1477 354.265 45.8708 351.456 45.8708C348.648 45.8708 346.371 48.1477 346.371 50.9563C346.371 53.7649 348.648 56.0418 351.456 56.0418Z" fill="#8F4233"/>
<path d="M352.982 37.1748C355.779 37.1748 358.068 34.8864 358.068 32.0894C358.068 29.2924 355.779 27.0039 352.982 27.0039C350.185 27.0039 347.897 29.2924 347.897 32.0894C347.897 34.8864 350.185 37.1748 352.982 37.1748Z" fill="#8F4233"/>
<path d="M337.675 23.9016C340.483 23.9016 342.76 21.6248 342.76 18.8162C342.76 16.0076 340.483 13.7307 337.675 13.7307C334.866 13.7307 332.589 16.0076 332.589 18.8162C332.589 21.6248 334.866 23.9016 337.675 23.9016Z" fill="#8F4233"/>
<path d="M566.47 3.50906C564.995 5.64496 531.38 55.3299 520.192 103.388C510.377 100.896 484.696 95.2 453.318 94.3863C461.811 80.4521 480.271 45.3624 480.78 2.74624L472.592 2.64453C471.982 54.262 442.791 95.556 442.537 96.0137L437.909 102.472H445.843C487.594 102.472 521.769 112.287 522.125 112.389L526.346 113.609L527.21 109.287C537.076 61.5342 572.877 8.64538 573.233 8.13683L566.47 3.50906Z" fill="#8F4233"/>
<path d="M475.999 55.8384L469.287 73.6375L461.252 90.9281L480.271 89.2499L469.337 73.6884L488.103 70.5862L476.101 55.9401L494.511 51.2615L481.288 37.6324L499.138 31.2247L484.645 18.9688L501.935 11.1372L486.425 0L484.543 18.9179L481.187 37.5816L475.999 55.8384Z" fill="#8F4233"/>
<path d="M521.158 79.1299L502.596 83.5034L515.666 97.3867L521.158 79.1299Z" fill="#8F4233"/>
<path d="M509.106 64.3311L521.158 79.1298L527.922 61.2798L509.106 64.3311Z" fill="#8F4233"/>
<path d="M517.599 45.2098L527.922 61.2799L536.618 44.2944L517.599 45.2098Z" fill="#8F4233"/>
<path d="M526.295 28.2242L536.618 44.2943L545.365 27.3088L526.295 28.2242Z" fill="#8F4233"/>
<path d="M536.313 10.5269L545.365 27.3089L555.383 11.0354L536.313 10.5269Z" fill="#8F4233"/>
<path d="M487.645 85.1306C487.645 87.9276 489.934 90.2161 492.731 90.2161C495.528 90.2161 497.816 87.9276 497.816 85.1306C497.816 82.3336 495.528 80.0452 492.731 80.0452C489.883 80.0452 487.645 82.3336 487.645 85.1306Z" fill="#8F4233"/>
<path d="M496.29 68.2979C499.099 68.2979 501.376 66.021 501.376 63.2124C501.376 60.4038 499.099 58.127 496.29 58.127C493.482 58.127 491.205 60.4038 491.205 63.2124C491.205 66.021 493.482 68.2979 496.29 68.2979Z" fill="#8F4233"/>
<path d="M511.401 55.9675C514.173 55.5175 516.056 52.9053 515.606 50.1329C515.156 47.3605 512.544 45.4778 509.771 45.9277C506.999 46.3777 505.116 48.9899 505.566 51.7623C506.016 54.5347 508.628 56.4174 511.401 55.9675Z" fill="#8F4233"/>
<path d="M509.055 37.1748C511.864 37.1748 514.14 34.898 514.14 32.0894C514.14 29.2807 511.864 27.0039 509.055 27.0039C506.246 27.0039 503.969 29.2807 503.969 32.0894C503.969 34.898 506.246 37.1748 509.055 37.1748Z" fill="#8F4233"/>
<path d="M524.362 23.9016C527.171 23.9016 529.448 21.6248 529.448 18.8162C529.448 16.0076 527.171 13.7307 524.362 13.7307C521.554 13.7307 519.277 16.0076 519.277 18.8162C519.277 21.6248 521.554 23.9016 524.362 23.9016Z" fill="#8F4233"/>
<path d="M430.535 44.1419C428.857 44.1419 427.281 44.0402 425.806 43.8368C427.23 53.6009 428.806 70.8406 425.653 87.8769C428.349 90.9282 430.535 92.6573 430.535 92.6573C430.535 92.6573 433.129 90.5722 436.231 86.9615C433.332 70.1287 434.858 53.2449 436.282 43.7351C434.451 43.9894 432.57 44.1419 430.535 44.1419Z" fill="#8F4233"/>
<path d="M402.972 30.4111C401.447 47.7526 418.279 50.8038 418.279 50.8038C418.279 50.8038 417.822 51.5158 417.211 52.7872C413.245 50.6513 404.447 46.2778 403.125 49.4308C401.65 52.9397 408.871 60.8731 415.686 56.9573C414.669 60.7714 414.16 66.1111 416.194 72.2136C417.822 77.1465 420.466 81.4183 423.009 84.7239C425.552 68.2978 423.873 52.0752 422.551 43.2265C409.532 40.2261 402.972 30.4111 402.972 30.4111Z" fill="#8F4233"/>
<path d="M444.826 72.2136C447.012 65.6534 446.249 60.0085 445.131 56.1436C452.25 61.7884 460.438 53.0923 458.912 49.4308C457.488 46.0744 447.47 51.3124 444.063 53.194C443.402 51.6684 442.791 50.8038 442.791 50.8038C442.791 50.8038 459.624 47.7526 458.099 30.4111C458.099 30.4111 451.894 39.7175 439.486 43.0231C438.164 51.5667 436.485 67.4842 438.825 83.7068C441.062 80.503 443.351 76.638 444.826 72.2136Z" fill="#8F4233"/>
<path d="M430.993 37.8868C440.198 37.8868 447.673 34.0218 447.673 29.2415C447.673 24.4611 440.198 20.5962 430.993 20.5962C421.788 20.5962 414.313 24.4611 414.313 29.2415C414.313 34.0218 421.788 37.8868 430.993 37.8868Z" fill="#8F4233"/>
<path d="M283.871 93.6234C285.295 93.3691 286.82 93.2674 288.397 93.2674C289.719 93.2674 290.939 93.3691 292.16 93.5217C291.041 85.7918 289.77 72.1119 292.262 58.5845C290.126 56.1435 288.397 54.8213 288.397 54.8213C288.397 54.8213 286.362 56.4486 283.871 59.3473C286.21 72.6713 284.989 86.046 283.871 93.6234Z" fill="#8F4233"/>
<path d="M298.161 88.0294C298.161 88.0294 298.517 87.47 299.025 86.453C302.178 88.182 309.145 91.5893 310.213 89.0974C311.383 86.3512 305.636 80.0453 300.246 83.0965C301.059 80.0453 301.466 75.8243 299.839 70.9931C298.517 67.0773 296.432 63.7209 294.398 61.0256C292.363 74.0444 293.686 86.9615 294.753 93.9794C305.128 96.4205 310.315 104.201 310.315 104.201C311.485 90.4196 298.161 88.0294 298.161 88.0294Z" fill="#8F4233"/>
<path d="M281.887 61.8901C280.057 64.382 278.277 67.4842 277.107 70.9931C275.378 76.1803 275.937 80.6555 276.853 83.7576C271.208 79.2824 264.698 86.1478 265.919 89.0974C267.038 91.7927 275.022 87.6226 277.717 86.0969C278.277 87.3175 278.734 88.0294 278.734 88.0294C278.734 88.0294 265.36 90.4704 266.58 104.252C266.58 104.252 271.513 96.8781 281.379 94.2337C282.396 87.3683 283.718 74.7564 281.887 61.8901Z" fill="#8F4233"/>
<path d="M288.041 98.2512C280.718 98.2512 274.818 101.302 274.818 105.117C274.818 108.88 280.768 111.982 288.041 111.982C295.364 111.982 301.314 108.931 301.314 105.117C301.314 101.302 295.364 98.2512 288.041 98.2512Z" fill="#8F4233"/>
<path d="M677.791 2.64453L669.654 2.74624C670.162 45.3624 688.623 80.503 697.115 94.3863C665.738 95.2 640.006 100.896 630.242 103.388C619.054 55.3299 585.439 5.69581 583.964 3.50906L577.2 8.13683C577.556 8.64538 613.358 61.5342 623.173 109.236L624.037 113.559L628.309 112.338C628.665 112.236 662.839 102.421 704.591 102.421H712.524L707.897 95.9628C707.591 95.556 678.401 54.262 677.791 2.64453Z" fill="#8F4233"/>
<path d="M651.295 31.2247L669.145 37.6324L655.923 51.2615L674.333 55.9401L662.331 70.5862L681.096 73.6884L670.162 89.2499L689.182 90.9281L681.147 73.6375L674.434 55.8384H674.383L669.247 37.5816L665.891 18.9179H665.84L664.009 0L648.498 11.1372L665.789 18.9688L651.295 31.2247Z" fill="#8F4233"/>
<path d="M647.837 83.5034L629.224 79.1299L634.768 97.3867L647.837 83.5034Z" fill="#8F4233"/>
<path d="M641.328 64.3311L622.512 61.2798L629.224 79.1298L641.328 64.3311Z" fill="#8F4233"/>
<path d="M632.835 45.2098L613.765 44.2944L622.512 61.2799L632.835 45.2098Z" fill="#8F4233"/>
<path d="M624.139 28.2242L605.069 27.3088L613.765 44.2943L624.139 28.2242Z" fill="#8F4233"/>
<path d="M614.121 10.5269L595.05 11.0354L605.069 27.3089L614.121 10.5269Z" fill="#8F4233"/>
<path d="M657.703 90.2671C660.5 90.2671 662.789 87.9787 662.789 85.1817C662.789 82.3846 660.5 80.0962 657.703 80.0962C654.906 80.0962 652.618 82.3846 652.618 85.1817C652.618 87.9787 654.906 90.2671 657.703 90.2671Z" fill="#8F4233"/>
<path d="M654.143 68.2979C656.952 68.2979 659.229 66.021 659.229 63.2124C659.229 60.4038 656.952 58.127 654.143 58.127C651.335 58.127 649.058 60.4038 649.058 63.2124C649.058 66.021 651.335 68.2979 654.143 68.2979Z" fill="#8F4233"/>
<path d="M639.853 56.0418C642.662 56.0418 644.939 53.7649 644.939 50.9563C644.939 48.1477 642.662 45.8708 639.853 45.8708C637.044 45.8708 634.768 48.1477 634.768 50.9563C634.768 53.7649 637.044 56.0418 639.853 56.0418Z" fill="#8F4233"/>
<path d="M641.379 37.1748C644.187 37.1748 646.464 34.898 646.464 32.0894C646.464 29.2807 644.187 27.0039 641.379 27.0039C638.57 27.0039 636.293 29.2807 636.293 32.0894C636.293 34.898 638.57 37.1748 641.379 37.1748Z" fill="#8F4233"/>
<path d="M626.071 23.9524C628.868 23.9524 631.157 21.664 631.157 18.867C631.157 16.07 628.868 13.7815 626.071 13.7815C623.274 13.7815 620.986 16.07 620.986 18.867C620.986 21.664 623.274 23.9524 626.071 23.9524Z" fill="#8F4233"/>
<path d="M854.866 3.50906C853.392 5.64496 819.777 55.3299 808.589 103.388C798.774 100.896 773.092 95.2 741.715 94.3863C750.208 80.4521 768.668 45.3624 769.176 2.74624L760.989 2.64453C760.379 54.262 731.188 95.556 730.934 96.0137L726.306 102.472H734.239C775.991 102.472 810.165 112.287 810.521 112.389L814.742 113.609L815.607 109.287C825.472 61.5342 861.274 8.64538 861.63 8.13683L854.866 3.50906Z" fill="#8F4233"/>
<path d="M764.396 55.8384L757.683 73.6375L749.648 90.9281L768.668 89.2499L757.734 73.6884L776.5 70.5862L764.498 55.9401L782.907 51.2615L769.685 37.6324L787.535 31.2247L773.041 18.9688L790.332 11.1372L774.821 0L772.94 18.9179L769.583 37.5816L764.396 55.8384Z" fill="#8F4233"/>
<path d="M809.555 79.1299L790.993 83.5034L804.063 97.3867L809.555 79.1299Z" fill="#8F4233"/>
<path d="M797.502 64.3311L809.555 79.1298L816.319 61.2798L797.502 64.3311Z" fill="#8F4233"/>
<path d="M805.995 45.2098L816.319 61.2799L825.015 44.2944L805.995 45.2098Z" fill="#8F4233"/>
<path d="M814.691 28.2242L825.015 44.2943L833.762 27.3088L814.691 28.2242Z" fill="#8F4233"/>
<path d="M824.71 10.5269L833.762 27.3089L843.78 11.0354L824.71 10.5269Z" fill="#8F4233"/>
<path d="M776.042 85.1306C776.042 87.9276 778.33 90.2161 781.127 90.2161C783.924 90.2161 786.213 87.9276 786.213 85.1306C786.213 82.3336 783.924 80.0452 781.127 80.0452C778.33 80.0452 776.042 82.3336 776.042 85.1306Z" fill="#8F4233"/>
<path d="M789.772 63.2124C789.772 60.4154 787.484 58.127 784.687 58.127C781.89 58.127 779.602 60.4154 779.602 63.2124C779.602 66.0094 781.89 68.2979 784.687 68.2979C787.484 68.2979 789.772 66.0094 789.772 63.2124Z" fill="#8F4233"/>
<path d="M799.801 55.9626C802.573 55.5126 804.456 52.9004 804.006 50.128C803.556 47.3556 800.944 45.4729 798.171 45.9229C795.399 46.3728 793.516 48.985 793.966 51.7574C794.416 54.5298 797.028 56.4125 799.801 55.9626Z" fill="#8F4233"/>
<path d="M797.452 37.1748C800.26 37.1748 802.537 34.898 802.537 32.0894C802.537 29.2807 800.26 27.0039 797.452 27.0039C794.643 27.0039 792.366 29.2807 792.366 32.0894C792.366 34.898 794.643 37.1748 797.452 37.1748Z" fill="#8F4233"/>
<path d="M812.759 23.9016C815.567 23.9016 817.844 21.6248 817.844 18.8162C817.844 16.0076 815.567 13.7307 812.759 13.7307C809.95 13.7307 807.673 16.0076 807.673 18.8162C807.673 21.6248 809.95 23.9016 812.759 23.9016Z" fill="#8F4233"/>
<path d="M718.932 44.1419C717.254 44.1419 715.677 44.0402 714.203 43.8368C715.627 53.6009 717.203 70.8406 714.05 87.8769C716.745 90.9282 718.932 92.6573 718.932 92.6573C718.932 92.6573 721.526 90.5722 724.628 86.9615C721.729 70.1287 723.255 53.2449 724.679 43.7351C722.848 43.9894 720.966 44.1419 718.932 44.1419Z" fill="#8F4233"/>
<path d="M691.369 30.4111C689.843 47.7526 706.676 50.8038 706.676 50.8038C706.676 50.8038 706.218 51.5158 705.608 52.7872C701.641 50.6513 692.844 46.2778 691.521 49.4308C690.047 52.9397 697.268 60.8731 704.082 56.9573C703.065 60.7714 702.557 66.1111 704.591 72.2136C706.218 77.1465 708.863 81.4183 711.406 84.7239C713.948 68.2978 712.27 52.0752 710.948 43.2265C697.929 40.2261 691.369 30.4111 691.369 30.4111Z" fill="#8F4233"/>
<path d="M733.222 72.2136C735.409 65.6534 734.646 60.0085 733.527 56.1436C740.647 61.7884 748.835 53.0923 747.309 49.4308C745.885 46.0744 735.867 51.3124 732.459 53.194C731.798 51.6684 731.188 50.8038 731.188 50.8038C731.188 50.8038 748.021 47.7526 746.495 30.4111C746.495 30.4111 740.291 39.7175 727.882 43.0231C726.56 51.5667 724.882 67.4842 727.221 83.7068C729.459 80.503 731.747 76.638 733.222 72.2136Z" fill="#8F4233"/>
<path d="M719.39 37.8868C728.594 37.8868 736.07 34.0218 736.07 29.2415C736.07 24.4611 728.594 20.5962 719.39 20.5962C710.185 20.5962 702.709 24.4611 702.709 29.2415C702.709 34.0218 710.185 37.8868 719.39 37.8868Z" fill="#8F4233"/>
<path d="M572.267 93.6234C573.691 93.3691 575.217 93.2674 576.793 93.2674C578.116 93.2674 579.336 93.3691 580.557 93.5217C579.438 85.7918 578.166 72.1119 580.658 58.5845C578.522 56.1435 576.793 54.8213 576.793 54.8213C576.793 54.8213 574.759 56.4486 572.267 59.3473C574.607 72.6713 573.386 86.046 572.267 93.6234Z" fill="#8F4233"/>
<path d="M586.557 88.0294C586.557 88.0294 586.913 87.47 587.422 86.453C590.575 88.182 597.542 91.5893 598.61 89.0974C599.78 86.3512 594.033 80.0453 588.642 83.0965C589.456 80.0453 589.863 75.8243 588.236 70.9931C586.913 67.0773 584.828 63.7209 582.794 61.0256C580.76 74.0444 582.082 86.9615 583.15 93.9794C593.524 96.4205 598.712 104.201 598.712 104.201C599.881 90.4196 586.557 88.0294 586.557 88.0294Z" fill="#8F4233"/>
<path d="M570.284 61.8901C568.453 64.382 566.673 67.4842 565.504 70.9931C563.775 76.1803 564.334 80.6555 565.249 83.7576C559.604 79.2824 553.095 86.1478 554.316 89.0974C555.434 91.7927 563.419 87.6226 566.114 86.0969C566.673 87.3175 567.131 88.0294 567.131 88.0294C567.131 88.0294 553.756 90.4704 554.977 104.252C554.977 104.252 559.91 96.8781 569.775 94.2337C570.792 87.3683 572.115 74.7564 570.284 61.8901Z" fill="#8F4233"/>
<path d="M576.437 98.2512C569.114 98.2512 563.215 101.302 563.215 105.117C563.215 108.88 569.165 111.982 576.437 111.982C583.76 111.982 589.71 108.931 589.71 105.117C589.71 101.302 583.76 98.2512 576.437 98.2512Z" fill="#8F4233"/>
<path d="M966.696 2.64453L958.559 2.74624C959.068 45.3624 977.528 80.503 986.021 94.3863C954.643 95.2 928.911 100.896 919.147 103.388C907.959 55.3299 874.344 5.69581 872.869 3.50906L866.105 8.13683C866.461 8.64538 902.263 61.5342 912.078 109.236L912.942 113.559L917.214 112.338C917.57 112.236 951.745 102.421 993.496 102.421H1001.43L996.802 95.9628C996.497 95.556 967.306 54.262 966.696 2.64453Z" fill="#8F4233"/>
<path d="M940.201 31.2247L958.051 37.6324L944.828 51.2615L963.238 55.9401L951.236 70.5862L970.001 73.6884L959.068 89.2499L978.087 90.9281L970.052 73.6375L963.339 55.8384L958.152 37.5816L954.796 18.9179H954.745L952.914 0L937.404 11.1372L954.694 18.9688L940.201 31.2247Z" fill="#8F4233"/>
<path d="M936.742 83.5034L918.18 79.1299L923.673 97.3867L936.742 83.5034Z" fill="#8F4233"/>
<path d="M930.233 64.3311L911.417 61.2798L918.181 79.1298L930.233 64.3311Z" fill="#8F4233"/>
<path d="M921.74 45.2098L902.67 44.2944L911.417 61.2799L921.74 45.2098Z" fill="#8F4233"/>
<path d="M913.044 28.2242L893.974 27.3088L902.67 44.2943L913.044 28.2242Z" fill="#8F4233"/>
<path d="M903.026 10.5269L883.955 11.0354L893.974 27.3089L903.026 10.5269Z" fill="#8F4233"/>
<path d="M946.608 90.2671C949.405 90.2671 951.694 87.9787 951.694 85.1817C951.694 82.3846 949.405 80.0962 946.608 80.0962C943.811 80.0962 941.523 82.3846 941.523 85.1817C941.523 87.9787 943.811 90.2671 946.608 90.2671Z" fill="#8F4233"/>
<path d="M943.048 68.2979C945.857 68.2979 948.134 66.021 948.134 63.2124C948.134 60.4038 945.857 58.127 943.048 58.127C940.24 58.127 937.963 60.4038 937.963 63.2124C937.963 66.021 940.24 68.2979 943.048 68.2979Z" fill="#8F4233"/>
<path d="M928.758 56.0926C931.555 56.0926 933.844 53.8041 933.844 51.0071C933.844 48.2101 931.555 45.9216 928.758 45.9216C925.961 45.9216 923.673 48.2101 923.673 51.0071C923.673 53.8041 925.961 56.0926 928.758 56.0926Z" fill="#8F4233"/>
<path d="M930.284 37.1748C933.093 37.1748 935.369 34.898 935.369 32.0894C935.369 29.2807 933.093 27.0039 930.284 27.0039C927.475 27.0039 925.198 29.2807 925.198 32.0894C925.198 34.898 927.475 37.1748 930.284 37.1748Z" fill="#8F4233"/>
<path d="M914.977 23.9524C917.774 23.9524 920.062 21.664 920.062 18.867C920.062 16.07 917.774 13.7815 914.977 13.7815C912.18 13.7815 909.891 16.07 909.891 18.867C909.891 21.664 912.18 23.9524 914.977 23.9524Z" fill="#8F4233"/>
<path d="M1143.77 3.50906C1142.3 5.64496 1108.68 55.3299 1097.49 103.388C1087.68 100.896 1062 95.2 1030.62 94.3863C1039.11 80.4521 1057.57 45.3624 1058.08 2.74624L1049.89 2.64453C1049.28 54.262 1020.09 95.556 1019.84 96.0137L1015.21 102.472H1023.14C1064.9 102.472 1099.07 112.287 1099.43 112.389L1103.65 113.609L1104.51 109.287C1114.38 61.5342 1150.18 8.64538 1150.54 8.13683L1143.77 3.50906Z" fill="#8F4233"/>
<path d="M1053.3 55.8384L1046.59 73.6375L1038.55 90.9281L1057.57 89.2499L1046.64 73.6884L1065.4 70.5862L1053.4 55.9401L1071.81 51.2615L1058.59 37.6324L1076.44 31.2247L1061.95 18.9688L1079.24 11.1372L1063.73 0L1061.9 18.9179H1061.84L1058.49 37.5816L1053.35 55.8384H1053.3Z" fill="#8F4233"/>
<path d="M1098.46 79.1299L1079.9 83.5034L1092.97 97.3867L1098.46 79.1299Z" fill="#8F4233"/>
<path d="M1086.41 64.3311L1098.46 79.1298L1105.22 61.2798L1086.41 64.3311Z" fill="#8F4233"/>
<path d="M1094.9 45.2098L1105.22 61.2799L1113.97 44.2944L1094.9 45.2098Z" fill="#8F4233"/>
<path d="M1103.6 28.2242L1113.97 44.2943L1122.67 27.3088L1103.6 28.2242Z" fill="#8F4233"/>
<path d="M1113.61 10.5269L1122.67 27.3089L1132.69 11.0354L1113.61 10.5269Z" fill="#8F4233"/>
<path d="M1064.95 85.1306C1064.95 87.9276 1067.24 90.2161 1070.03 90.2161C1072.83 90.2161 1075.12 87.9276 1075.12 85.1306C1075.12 82.3336 1072.83 80.0452 1070.03 80.0452C1067.24 80.0452 1064.95 82.3336 1064.95 85.1306Z" fill="#8F4233"/>
<path d="M1073.59 68.2979C1076.4 68.2979 1078.68 66.021 1078.68 63.2124C1078.68 60.4038 1076.4 58.127 1073.59 58.127C1070.78 58.127 1068.51 60.4038 1068.51 63.2124C1068.51 66.021 1070.78 68.2979 1073.59 68.2979Z" fill="#8F4233"/>
<path d="M1082.8 50.9563C1082.8 53.7533 1085.09 56.0418 1087.88 56.0418C1090.68 56.0418 1092.97 53.7533 1092.97 50.9563C1092.97 48.1593 1090.68 45.8708 1087.88 45.8708C1085.09 45.8708 1082.8 48.1593 1082.8 50.9563Z" fill="#8F4233"/>
<path d="M1086.36 37.1748C1089.17 37.1748 1091.44 34.898 1091.44 32.0894C1091.44 29.2807 1089.17 27.0039 1086.36 27.0039C1083.55 27.0039 1081.27 29.2807 1081.27 32.0894C1081.27 34.898 1083.55 37.1748 1086.36 37.1748Z" fill="#8F4233"/>
<path d="M1101.66 23.9016C1104.47 23.9016 1106.75 21.6248 1106.75 18.8162C1106.75 16.0076 1104.47 13.7307 1101.66 13.7307C1098.86 13.7307 1096.58 16.0076 1096.58 18.8162C1096.58 21.6248 1098.86 23.9016 1101.66 23.9016Z" fill="#8F4233"/>
<path d="M1007.84 44.1419C1006.16 44.1419 1004.58 44.0402 1003.11 43.8368C1004.53 53.6009 1006.11 70.8406 1002.96 87.8769C1005.65 90.9282 1007.84 92.6573 1007.84 92.6573C1007.84 92.6573 1010.43 90.5722 1013.53 86.9615C1010.63 70.1287 1012.16 53.2449 1013.58 43.7351C1011.75 43.9894 1009.87 44.1419 1007.84 44.1419Z" fill="#8F4233"/>
<path d="M980.274 30.4111C978.748 47.7526 995.581 50.8038 995.581 50.8038C995.581 50.8038 995.124 51.5158 994.513 52.7872C990.547 50.6513 981.749 46.2778 980.427 49.4308C978.952 52.9397 986.173 60.8731 992.988 56.9573C991.971 60.7714 991.462 66.1111 993.496 72.2136C995.124 77.1465 997.768 81.4183 1000.31 84.7239C1002.85 68.2978 1001.18 52.0752 999.853 43.2265C986.834 40.2261 980.274 30.4111 980.274 30.4111Z" fill="#8F4233"/>
<path d="M1022.13 72.2136C1024.31 65.6534 1023.55 60.0085 1022.43 56.1436C1029.55 61.7884 1037.74 53.0923 1036.21 49.4308C1034.79 46.0744 1024.77 51.3124 1021.36 53.194C1020.7 51.6684 1020.09 50.8038 1020.09 50.8038C1020.09 50.8038 1036.93 47.7526 1035.4 30.4111C1035.4 30.4111 1029.2 39.7175 1016.79 43.0231C1015.47 51.5667 1013.79 67.4842 1016.13 83.7068C1018.36 80.503 1020.65 76.638 1022.13 72.2136Z" fill="#8F4233"/>
<path d="M1008.35 37.8868C1017.55 37.8868 1025.03 34.0218 1025.03 29.2415C1025.03 24.4611 1017.55 20.5962 1008.35 20.5962C999.141 20.5962 991.665 24.4611 991.665 29.2415C991.615 34.0218 999.09 37.8868 1008.35 37.8868Z" fill="#8F4233"/>
<path d="M1256.16 2.64453L1248.02 2.74624C1248.53 45.3624 1266.99 80.503 1275.49 94.3863C1244.11 95.2 1218.38 100.896 1208.61 103.388C1197.42 55.3299 1163.81 5.69581 1162.33 3.50906L1155.57 8.13683C1155.93 8.64538 1191.73 61.5342 1201.54 109.236L1202.41 113.559L1206.68 112.338C1207.03 112.236 1241.21 102.421 1282.96 102.421H1290.89L1286.27 95.9628C1285.96 95.556 1256.77 54.262 1256.16 2.64453Z" fill="#8F4233"/>
<path d="M1229.67 31.2247L1247.52 37.6324L1234.29 51.2615L1252.7 55.9401L1240.7 70.5862L1259.47 73.6884L1248.53 89.2499L1267.55 90.9281L1259.52 73.6375L1252.8 55.8384H1252.75L1247.62 37.5816L1244.26 18.9179H1244.21L1242.38 0L1226.87 11.1372L1244.16 18.9688L1229.67 31.2247Z" fill="#8F4233"/>
<path d="M1226.21 83.5034L1207.59 79.1299L1213.14 97.3867L1226.21 83.5034Z" fill="#8F4233"/>
<path d="M1219.7 64.3311L1200.88 61.2798L1207.59 79.1298L1219.7 64.3311Z" fill="#8F4233"/>
<path d="M1211.2 45.2098L1192.13 44.2944L1200.88 61.2799L1211.2 45.2098Z" fill="#8F4233"/>
<path d="M1202.51 28.2242L1183.44 27.3088L1192.13 44.2943L1202.51 28.2242Z" fill="#8F4233"/>
<path d="M1192.49 10.5269L1173.42 11.0354L1183.44 27.3089L1192.49 10.5269Z" fill="#8F4233"/>
<path d="M1236.07 90.2671C1238.87 90.2671 1241.16 87.9787 1241.16 85.1817C1241.16 82.3846 1238.87 80.0962 1236.07 80.0962C1233.28 80.0962 1230.99 82.3846 1230.99 85.1817C1230.99 87.9787 1233.28 90.2671 1236.07 90.2671Z" fill="#8F4233"/>
<path d="M1232.51 68.2979C1235.32 68.2979 1237.6 66.021 1237.6 63.2124C1237.6 60.4038 1235.32 58.127 1232.51 58.127C1229.7 58.127 1227.43 60.4038 1227.43 63.2124C1227.43 66.021 1229.7 68.2979 1232.51 68.2979Z" fill="#8F4233"/>
<path d="M1218.22 56.0926C1221.02 56.0926 1223.31 53.8041 1223.31 51.0071C1223.31 48.2101 1221.02 45.9216 1218.22 45.9216C1215.43 45.9216 1213.14 48.2101 1213.14 51.0071C1213.14 53.8041 1215.43 56.0926 1218.22 56.0926Z" fill="#8F4233"/>
<path d="M1219.75 37.1748C1222.56 37.1748 1224.83 34.898 1224.83 32.0894C1224.83 29.2807 1222.56 27.0039 1219.75 27.0039C1216.94 27.0039 1214.66 29.2807 1214.66 32.0894C1214.66 34.898 1216.94 37.1748 1219.75 37.1748Z" fill="#8F4233"/>
<path d="M1204.44 23.9016C1207.25 23.9016 1209.53 21.6248 1209.53 18.8162C1209.53 16.0076 1207.25 13.7307 1204.44 13.7307C1201.63 13.7307 1199.36 16.0076 1199.36 18.8162C1199.36 21.6248 1201.63 23.9016 1204.44 23.9016Z" fill="#8F4233"/>
<path d="M1433.24 3.50906C1431.76 5.64496 1398.15 55.3299 1386.96 103.388C1377.14 100.896 1351.46 95.2 1320.08 94.3863C1328.58 80.4521 1347.04 45.3624 1347.55 2.74624L1339.36 2.64453C1338.75 54.262 1309.56 95.556 1309.3 96.0137L1304.68 102.472H1312.61C1354.36 102.472 1388.54 112.287 1388.89 112.389L1393.11 113.609L1393.98 109.287C1403.84 61.5342 1439.64 8.64538 1440 8.13683L1433.24 3.50906Z" fill="#8F4233"/>
<path d="M1342.77 55.8384L1336.05 73.6375L1328.02 90.9281L1347.04 89.2499L1336.1 73.6884L1354.87 70.5862L1342.82 55.9401L1361.28 51.2615L1348.05 37.6324L1365.9 31.2247L1351.41 18.9688L1368.7 11.1372L1353.19 0L1351.31 18.9179L1347.95 37.5816L1342.77 55.8384Z" fill="#8F4233"/>
<path d="M1387.92 79.1299L1369.36 83.5034L1382.43 97.3867L1387.92 79.1299Z" fill="#8F4233"/>
<path d="M1375.87 64.3311L1387.92 79.1298L1394.69 61.2798L1375.87 64.3311Z" fill="#8F4233"/>
<path d="M1384.36 45.2098L1394.69 61.2799L1403.38 44.2944L1384.36 45.2098Z" fill="#8F4233"/>
<path d="M1393.06 28.2242L1403.38 44.2943L1412.13 27.3088L1393.06 28.2242Z" fill="#8F4233"/>
<path d="M1403.08 10.5269L1412.13 27.3089L1422.15 11.0354L1403.08 10.5269Z" fill="#8F4233"/>
<path d="M1354.41 85.1306C1354.41 87.9276 1356.7 90.2161 1359.5 90.2161C1362.29 90.2161 1364.58 87.9276 1364.58 85.1306C1364.58 82.3336 1362.29 80.0452 1359.5 80.0452C1356.65 80.0452 1354.41 82.3336 1354.41 85.1306Z" fill="#8F4233"/>
<path d="M1363.06 68.2979C1365.87 68.2979 1368.14 66.021 1368.14 63.2124C1368.14 60.4038 1365.87 58.127 1363.06 58.127C1360.25 58.127 1357.97 60.4038 1357.97 63.2124C1357.97 66.021 1360.25 68.2979 1363.06 68.2979Z" fill="#8F4233"/>
<path d="M1378.18 55.9518C1380.95 55.5019 1382.83 52.8897 1382.38 50.1173C1381.93 47.3449 1379.32 45.4622 1376.55 45.9121C1373.78 46.3621 1371.89 48.9743 1372.34 51.7467C1372.79 54.5191 1375.41 56.4018 1378.18 55.9518Z" fill="#8F4233"/>
<path d="M1375.82 37.1748C1378.63 37.1748 1380.91 34.898 1380.91 32.0894C1380.91 29.2807 1378.63 27.0039 1375.82 27.0039C1373.01 27.0039 1370.74 29.2807 1370.74 32.0894C1370.74 34.898 1373.01 37.1748 1375.82 37.1748Z" fill="#8F4233"/>
<path d="M1391.13 23.9016C1393.94 23.9016 1396.21 21.6248 1396.21 18.8162C1396.21 16.0076 1393.94 13.7307 1391.13 13.7307C1388.32 13.7307 1386.04 16.0076 1386.04 18.8162C1386.04 21.6248 1388.32 23.9016 1391.13 23.9016Z" fill="#8F4233"/>
<path d="M1297.3 44.1419C1295.62 44.1419 1294.05 44.0402 1292.57 43.8368C1294 53.6009 1295.57 70.8406 1292.42 87.8769C1295.11 90.9282 1297.3 92.6573 1297.3 92.6573C1297.3 92.6573 1299.9 90.5722 1303 86.9615C1300.1 70.1287 1301.62 53.2449 1303.05 43.7351C1301.22 43.9894 1299.34 44.1419 1297.3 44.1419Z" fill="#8F4233"/>
<path d="M1269.74 30.4111C1268.21 47.7526 1285.05 50.8038 1285.05 50.8038C1285.05 50.8038 1284.59 51.5158 1283.98 52.7872C1280.01 50.6513 1271.21 46.2778 1269.89 49.4308C1268.42 52.9397 1275.64 60.8731 1282.45 56.9573C1281.44 60.7714 1280.93 66.1111 1282.96 72.2136C1284.59 77.1465 1287.23 81.4183 1289.78 84.7239C1292.32 68.2978 1290.64 52.0752 1289.32 43.2265C1276.3 40.2261 1269.74 30.4111 1269.74 30.4111Z" fill="#8F4233"/>
<path d="M1311.59 72.2136C1313.78 65.6534 1313.02 60.0085 1311.9 56.1436C1319.02 61.7884 1327.2 53.0923 1325.68 49.4308C1324.25 46.0744 1314.24 51.3124 1310.83 53.194C1310.17 51.6684 1309.56 50.8038 1309.56 50.8038C1309.56 50.8038 1326.39 47.7526 1324.87 30.4111C1324.87 30.4111 1318.66 39.7175 1306.25 43.0231C1304.93 51.5667 1303.25 67.4842 1305.59 83.7068C1307.83 80.503 1310.12 76.638 1311.59 72.2136Z" fill="#8F4233"/>
<path d="M1297.76 37.8868C1306.96 37.8868 1314.44 34.0218 1314.44 29.2415C1314.44 24.4611 1306.96 20.5962 1297.76 20.5962C1288.55 20.5962 1281.08 24.4611 1281.08 29.2415C1281.08 34.0218 1288.55 37.8868 1297.76 37.8868Z" fill="#8F4233"/>
<path d="M861.172 93.6234C862.596 93.3691 864.122 93.2674 865.698 93.2674C867.021 93.2674 868.241 93.3691 869.462 93.5217C868.343 85.7918 867.072 72.1119 869.563 58.5845C867.428 56.1435 865.698 54.8213 865.698 54.8213C865.698 54.8213 863.664 56.4486 861.172 59.3473C863.563 72.6713 862.291 86.046 861.172 93.6234Z" fill="#8F4233"/>
<path d="M875.463 88.0294C875.463 88.0294 875.819 87.47 876.327 86.453C879.48 88.182 886.447 91.5893 887.515 89.0974C888.685 86.3512 882.938 80.0453 877.548 83.0965C878.361 80.0453 878.768 75.8243 877.141 70.9931C875.819 67.0773 873.734 63.7209 871.699 61.0256C869.665 74.0444 870.987 86.9615 872.055 93.9794C882.43 96.4205 887.617 104.201 887.617 104.201C888.837 90.4196 875.463 88.0294 875.463 88.0294Z" fill="#8F4233"/>
<path d="M859.189 61.8901C857.358 64.382 855.578 67.4842 854.409 70.9931C852.68 76.1803 853.239 80.6555 854.155 83.7576C848.51 79.2824 842 86.1478 843.221 89.0974C844.34 91.7927 852.324 87.6226 855.019 86.0969C855.578 87.3175 856.036 88.0294 856.036 88.0294C856.036 88.0294 842.661 90.4704 843.882 104.252C843.882 104.252 848.815 96.8781 858.681 94.2337C859.698 87.3683 861.02 74.7564 859.189 61.8901Z" fill="#8F4233"/>
<path d="M865.343 98.2512C858.019 98.2512 852.12 101.302 852.12 105.117C852.12 108.88 858.07 111.982 865.343 111.982C872.666 111.982 878.616 108.931 878.616 105.117C878.616 101.302 872.666 98.2512 865.343 98.2512Z" fill="#8F4233"/>
<path d="M1149.37 93.6234C1150.79 93.3691 1152.32 93.2674 1153.89 93.2674C1155.21 93.2674 1156.43 93.3691 1157.65 93.5217C1156.54 85.7918 1155.26 72.1119 1157.76 58.5845C1155.62 56.1435 1153.89 54.8213 1153.89 54.8213C1153.89 54.8213 1151.86 56.4486 1149.37 59.3473C1151.71 72.6713 1150.48 86.046 1149.37 93.6234Z" fill="#8F4233"/>
<path d="M1163.61 88.0294C1163.61 88.0294 1163.96 87.47 1164.47 86.453C1167.62 88.182 1174.59 91.5893 1175.66 89.0974C1176.83 86.3512 1171.08 80.0453 1165.69 83.0965C1166.5 80.0453 1166.91 75.8243 1165.28 70.9931C1163.96 67.0773 1161.88 63.7209 1159.84 61.0256C1157.81 74.0444 1159.13 86.9615 1160.2 93.9794C1170.57 96.4205 1175.76 104.201 1175.76 104.201C1176.98 90.4196 1163.61 88.0294 1163.61 88.0294Z" fill="#8F4233"/>
<path d="M1147.33 61.8901C1145.5 64.382 1143.72 67.4842 1142.55 70.9931C1140.82 76.1803 1141.38 80.6555 1142.3 83.7576C1136.65 79.2824 1130.14 86.1478 1131.36 89.0974C1132.48 91.7927 1140.47 87.6226 1143.16 86.0969C1143.72 87.3175 1144.18 88.0294 1144.18 88.0294C1144.18 88.0294 1130.8 90.4704 1132.02 104.252C1132.02 104.252 1136.96 96.8781 1146.82 94.2337C1147.89 87.3683 1149.21 74.7564 1147.33 61.8901Z" fill="#8F4233"/>
<path d="M1153.54 98.2512C1146.21 98.2512 1140.31 101.302 1140.31 105.117C1140.31 108.88 1146.26 111.982 1153.54 111.982C1160.86 111.982 1166.81 108.931 1166.81 105.117C1166.76 101.302 1160.81 98.2512 1153.54 98.2512Z" fill="#8F4233"/>
</g>
<defs>
<clipPath id="clip0_211_13">
<rect width="1440" height="113.609" fill="white" transform="translate(1440 1213.11) rotate(-180)"/>
</clipPath>
<clipPath id="clip1_211_13">
<rect width="1440" height="113.609" fill="white"/>
</clipPath>
</defs>
</svg>
