<svg width="35" height="28" viewBox="0 0 35 28" fill="none" xmlns="http://www.w3.org/2000/svg">
<path d="M34.346 3.25966C33.1182 3.80372 31.7992 4.17133 30.4126 4.33749C31.8433 3.48139 32.9137 2.134 33.4241 0.546721C32.0799 1.34515 30.6087 1.90716 29.0745 2.20831C28.0428 1.10676 26.6763 0.376631 25.1872 0.131286C23.698 -0.114058 22.1695 0.139105 20.839 0.851472C19.5085 1.56384 18.4503 2.69555 17.8289 4.07091C17.2075 5.44626 17.0575 6.98831 17.4023 8.45763C14.6786 8.32088 12.0141 7.61295 9.58166 6.37978C7.14927 5.14661 5.00335 3.41577 3.28318 1.29958C2.69501 2.31418 2.35681 3.49052 2.35681 4.74333C2.35616 5.87114 2.63389 6.98168 3.16537 7.97641C3.69685 8.97114 4.46565 9.81931 5.40354 10.4457C4.31583 10.411 3.25212 10.1171 2.30094 9.5884V9.67662C2.30083 11.2584 2.84799 12.7915 3.84957 14.0159C4.85115 15.2402 6.24547 16.0802 7.79593 16.3935C6.7869 16.6666 5.72901 16.7069 4.70215 16.5112C5.1396 17.8722 5.99171 19.0624 7.13919 19.9151C8.28667 20.7678 9.67208 21.2403 11.1015 21.2666C8.67501 23.1714 5.67835 24.2046 2.59355 24.2001C2.04711 24.2002 1.50114 24.1683 0.958435 24.1045C4.08968 26.1178 7.73468 27.1862 11.4573 27.1821C24.0589 27.1821 30.9479 16.745 30.9479 7.69301C30.9479 7.39893 30.9405 7.1019 30.9273 6.80781C32.2673 5.83876 33.4239 4.63877 34.3431 3.26408L34.346 3.25966Z" fill="white"/>
</svg>
